<svg xmlns="http://www.w3.org/2000/svg" width="190" height="138" viewBox="0 0 190 138">
  <g id="Grupo_1112306" data-name="Grupo 1112306" transform="translate(-1230.051 -3064)">
    <rect id="Rectángulo_405291" data-name="Rectángulo 405291" width="190" height="138" rx="8" transform="translate(1230.051 3064)" fill="#fed6a8"/>
    <g id="Accounting_Book_2_" transform="translate(1273.275 3077.949)">
      <g id="Color_15_" transform="translate(1.517 1.517)">
        <path id="Trazado_903199" data-name="Trazado 903199" d="M238.135,458.545a6.067,6.067,0,0,1-12.135,0l6.067-4.045Z" transform="translate(-181.809 -364.095)" fill="#2e67d0"/>
        <g id="Grupo_1112290" data-name="Grupo 1112290" transform="translate(0 23.663)">
          <g id="Grupo_1112288" data-name="Grupo 1112288" transform="translate(38.124)">
            <path id="Trazado_903200" data-name="Trazado 903200" d="M249.143,191.641l1.387,4.045h45.2a5.056,5.056,0,0,0,5.056-5.056V129.955A5.058,5.058,0,0,0,296.743,125Z" transform="translate(-238.395 -124.899)" fill="#5c85da"/>
            <path id="Trazado_903201" data-name="Trazado 903201" d="M254.348,187.2V124.6a5.08,5.08,0,0,0-1.011-.1h-45.2L196,159.893l10.748,31.348H250.3A4.045,4.045,0,0,0,254.348,187.2Z" transform="translate(-196 -124.5)" fill="#4677d5"/>
          </g>
          <g id="Grupo_1112289" data-name="Grupo 1112289">
            <path id="Trazado_903202" data-name="Trazado 903202" d="M166.525,442.59h14.486v-4.045l-8.657-4.045L162,438.545Z" transform="translate(-130.753 -371.803)" fill="#4677d5"/>
            <path id="Trazado_903203" data-name="Trazado 903203" d="M57.759,124.5h-45.2A5.056,5.056,0,0,0,7.5,129.556V190.23a5.056,5.056,0,0,0,5.056,5.056H43.273q-.508-1.179-.993-2.377a1.214,1.214,0,0,1,1.126-1.668H57.759Z" transform="translate(-7.5 -124.5)" fill="#2e67d0"/>
          </g>
        </g>
        <g id="Grupo_1112293" data-name="Grupo 1112293" transform="translate(8.09 15.573)">
          <g id="Grupo_1112291" data-name="Grupo 1112291" transform="translate(30.034)">
            <path id="Trazado_903204" data-name="Trazado 903204" d="M200.368,110.065,196,119.893l12.135,35.393h38.629a3.539,3.539,0,0,0,3.539-3.539V88.039a3.539,3.539,0,0,0-3.539-3.539H231.109Z" transform="translate(-196 -84.5)" fill="#e8edf5"/>
            <path id="Trazado_903205" data-name="Trazado 903205" d="M248.622,88.14a23.335,23.335,0,0,0-.285-3.64H233.454a8.09,8.09,0,0,0-8.09,8.09L217.6,110.065A23.262,23.262,0,0,0,248.622,88.14Z" transform="translate(-213.229 -84.5)" fill="#dbe2ec"/>
          </g>
          <g id="Grupo_1112292" data-name="Grupo 1112292">
            <path id="Trazado_903206" data-name="Trazado 903206" d="M114.451,102H107.5v63.708l12.411,3.539h17.623V125.36Z" transform="translate(-95.365 -98.461)" fill="#dbe2ec"/>
            <path id="Trazado_903207" data-name="Trazado 903207" d="M81.579,84.5H51.039A3.539,3.539,0,0,0,47.5,88.039v63.708a3.539,3.539,0,0,0,3.539,3.539H72.045a126.794,126.794,0,0,1-6.85-41.461,130.4,130.4,0,0,1,1.358-18.833.446.446,0,0,1,.868-.061A23.3,23.3,0,0,0,89.669,111.4V92.59A8.09,8.09,0,0,0,81.579,84.5Z" transform="translate(-47.5 -84.5)" fill="#ccd3e2"/>
          </g>
        </g>
        <g id="Grupo_1112296" data-name="Grupo 1112296" transform="translate(18.202 25.685)">
          <g id="Grupo_1112294" data-name="Grupo 1112294">
            <path id="Trazado_903208" data-name="Trazado 903208" d="M124.578,134.5h-.716l-4.6,5.056,3.495,5.056h7.868l-.9-5.056Z" transform="translate(-114.865 -134.5)" fill="#60daa8"/>
            <path id="Trazado_903209" data-name="Trazado 903209" d="M158.164,134.5H145.529a23.284,23.284,0,0,0,6.051,10.112h6.584Z" transform="translate(-135.815 -134.5)" fill="#36d49b"/>
            <path id="Trazado_903210" data-name="Trazado 903210" d="M99.522,134.5a2.022,2.022,0,0,0-2.022,2.022v6.067a2.022,2.022,0,0,0,2.022,2.022H105.4q.355-5.129,1.1-10.112Z" transform="translate(-97.5 -134.5)" fill="#36d49b"/>
          </g>
          <g id="Grupo_1112295" data-name="Grupo 1112295" transform="translate(41.764)">
            <path id="Trazado_903211" data-name="Trazado 903211" d="M336.551,144.612h13.743a2.022,2.022,0,0,0,2.022-2.022v-6.067a2.022,2.022,0,0,0-2.022-2.022H342.6l-6.051,5.056v5.056Z" transform="translate(-329.968 -134.5)" fill="#fd7a6e"/>
            <path id="Trazado_903212" data-name="Trazado 903212" d="M316.635,134.5H304v10.112h6.583A23.284,23.284,0,0,0,316.635,134.5Z" transform="translate(-304 -134.5)" fill="#fb695b"/>
          </g>
        </g>
        <g id="Grupo_1112297" data-name="Grupo 1112297" transform="translate(31.045)">
          <path id="Trazado_903213" data-name="Trazado 903213" d="M208.231,45.422a19.218,19.218,0,1,0-9.86-37.133l-7.758,8.342,10.716,28.791Z" transform="translate(-184.624 -7.5)" fill="#ffe54e"/>
          <path id="Trazado_903214" data-name="Trazado 903214" d="M171.492,25.021A29.366,29.366,0,0,1,174.747,11.4a19.219,19.219,0,0,0,9.86,37.133C176.932,44.874,171.492,35.727,171.492,25.021Z" transform="translate(-161 -10.611)" fill="#ffdb2f"/>
        </g>
      </g>
      <g id="Lineal_43_">
        <path id="Trazado_903215" data-name="Trazado 903215" d="M226.084,482.084A7.593,7.593,0,0,1,218.5,474.5h3.034a4.551,4.551,0,1,0,9.1,0h3.034A7.593,7.593,0,0,1,226.084,482.084Z" transform="translate(-174.309 -378.534)"/>
        <g id="Grupo_1112298" data-name="Grupo 1112298" transform="translate(0 23.663)">
          <path id="Trazado_903216" data-name="Trazado 903216" d="M76.753,190.82H6.573A6.58,6.58,0,0,1,0,184.247V123.573A6.58,6.58,0,0,1,6.573,117H9.607a1.517,1.517,0,1,1,0,3.034H6.573a3.543,3.543,0,0,0-3.539,3.539v60.674a3.543,3.543,0,0,0,3.539,3.539h70.18a1.517,1.517,0,1,1,0,3.034Z" transform="translate(0 -117)"/>
          <path id="Trazado_903217" data-name="Trazado 903217" d="M421.663,190.82H408.517a1.517,1.517,0,0,1,0-3.034h13.146a3.543,3.543,0,0,0,3.539-3.539V123.573a3.543,3.543,0,0,0-3.539-3.539h-3.034a1.517,1.517,0,0,1,0-3.034h3.034a6.58,6.58,0,0,1,6.573,6.573v60.674A6.58,6.58,0,0,1,421.663,190.82Z" transform="translate(-324.685 -117)"/>
        </g>
        <g id="Grupo_1112301" data-name="Grupo 1112301" transform="translate(18.202 35.798)">
          <g id="Grupo_1112299" data-name="Grupo 1112299" transform="translate(42.169)">
            <path id="Línea_580" data-name="Línea 580" d="M15.961-4.466H-5.983A1.517,1.517,0,0,1-7.5-5.983,1.517,1.517,0,0,1-5.983-7.5H15.961a1.517,1.517,0,0,1,1.517,1.517A1.517,1.517,0,0,1,15.961-4.466Z" transform="translate(7.5 47.95)"/>
            <path id="Línea_581" data-name="Línea 581" d="M15.961-4.466H-5.983A1.517,1.517,0,0,1-7.5-5.983,1.517,1.517,0,0,1-5.983-7.5H15.961a1.517,1.517,0,0,1,1.517,1.517A1.517,1.517,0,0,1,15.961-4.466Z" transform="translate(7.5 37.837)"/>
            <path id="Línea_582" data-name="Línea 582" d="M15.961-4.466H-5.983A1.517,1.517,0,0,1-7.5-5.983,1.517,1.517,0,0,1-5.983-7.5H15.961a1.517,1.517,0,0,1,1.517,1.517A1.517,1.517,0,0,1,15.961-4.466Z" transform="translate(7.5 27.725)"/>
            <path id="Línea_583" data-name="Línea 583" d="M15.961-4.466H-5.983A1.517,1.517,0,0,1-7.5-5.983,1.517,1.517,0,0,1-5.983-7.5H15.961a1.517,1.517,0,0,1,1.517,1.517A1.517,1.517,0,0,1,15.961-4.466Z" transform="translate(7.5 17.612)"/>
            <path id="Línea_584" data-name="Línea 584" d="M-5.983,35.983A1.517,1.517,0,0,1-7.5,34.466V-5.983A1.517,1.517,0,0,1-5.983-7.5,1.517,1.517,0,0,1-4.466-5.983v40.45A1.517,1.517,0,0,1-5.983,35.983Z" transform="translate(13.567 7.5)"/>
          </g>
          <g id="Grupo_1112300" data-name="Grupo 1112300">
            <path id="Línea_585" data-name="Línea 585" d="M15.961-4.466H-5.983A1.517,1.517,0,0,1-7.5-5.983,1.517,1.517,0,0,1-5.983-7.5H15.961a1.517,1.517,0,0,1,1.517,1.517A1.517,1.517,0,0,1,15.961-4.466Z" transform="translate(7.5 47.95)"/>
            <path id="Línea_586" data-name="Línea 586" d="M15.961-4.466H-5.983A1.517,1.517,0,0,1-7.5-5.983,1.517,1.517,0,0,1-5.983-7.5H15.961a1.517,1.517,0,0,1,1.517,1.517A1.517,1.517,0,0,1,15.961-4.466Z" transform="translate(7.5 37.837)"/>
            <path id="Línea_587" data-name="Línea 587" d="M15.961-4.466H-5.983A1.517,1.517,0,0,1-7.5-5.983,1.517,1.517,0,0,1-5.983-7.5H15.961a1.517,1.517,0,0,1,1.517,1.517A1.517,1.517,0,0,1,15.961-4.466Z" transform="translate(7.5 27.725)"/>
            <path id="Línea_588" data-name="Línea 588" d="M15.961-4.466H-5.983A1.517,1.517,0,0,1-7.5-5.983,1.517,1.517,0,0,1-5.983-7.5H15.961a1.517,1.517,0,0,1,1.517,1.517A1.517,1.517,0,0,1,15.961-4.466Z" transform="translate(7.5 17.612)"/>
            <path id="Línea_589" data-name="Línea 589" d="M-5.983,35.983A1.517,1.517,0,0,1-7.5,34.466V-5.983A1.517,1.517,0,0,1-5.983-7.5,1.517,1.517,0,0,1-4.466-5.983v40.45A1.517,1.517,0,0,1-5.983,35.983Z" transform="translate(13.567 7.5)"/>
          </g>
        </g>
        <g id="Grupo_1112302" data-name="Grupo 1112302" transform="translate(18.202 25.685)">
          <path id="Trazado_903218" data-name="Trazado 903218" d="M113.865,140.146H93.539A3.543,3.543,0,0,1,90,136.607v-6.067A3.543,3.543,0,0,1,93.539,127h11.938v3.034H93.539a.506.506,0,0,0-.506.506v6.067a.506.506,0,0,0,.506.506h20.326a1.517,1.517,0,1,1,0,3.034Z" transform="translate(-90 -127)"/>
          <path id="Trazado_903219" data-name="Trazado 903219" d="M324.326,140.146H304v-3.034h20.326a.506.506,0,0,0,.506-.506v-6.067a.506.506,0,0,0-.506-.506H312.388V127h11.937a3.543,3.543,0,0,1,3.539,3.539v6.067A3.543,3.543,0,0,1,324.326,140.146Z" transform="translate(-260.719 -127)"/>
        </g>
        <g id="Grupo_1112303" data-name="Grupo 1112303" transform="translate(8.09 15.573)">
          <path id="Trazado_903220" data-name="Trazado 903220" d="M41.517,96.719A1.517,1.517,0,0,1,40,95.2V82.056A5.062,5.062,0,0,1,45.056,77H64.818a1.517,1.517,0,1,1,0,3.034H45.056a2.025,2.025,0,0,0-2.022,2.022V95.2A1.517,1.517,0,0,1,41.517,96.719Z" transform="translate(-40 -77)"/>
          <path id="Trazado_903221" data-name="Trazado 903221" d="M122.315,150.82H45.056A5.062,5.062,0,0,1,40,145.764V102.281a1.517,1.517,0,0,1,3.034,0v43.483a2.025,2.025,0,0,0,2.022,2.022h77.259a2.025,2.025,0,0,0,2.022-2.022V82.056a2.025,2.025,0,0,0-2.022-2.022H102.553a1.517,1.517,0,1,1,0-3.034h19.762a5.062,5.062,0,0,1,5.056,5.056v63.708A5.062,5.062,0,0,1,122.315,150.82Z" transform="translate(-40 -77)"/>
        </g>
        <path id="Línea_590" data-name="Línea 590" d="M-4.466,56.023H-7.5V0h3.034Z" transform="translate(57.759 39.944)"/>
        <g id="Grupo_1112305" data-name="Grupo 1112305" transform="translate(31.045)">
          <path id="Elipse_14057" data-name="Elipse 14057" d="M13.23-7.5A20.73,20.73,0,1,1-7.5,13.23,20.754,20.754,0,0,1,13.23-7.5Zm0,38.427a17.7,17.7,0,1,0-17.7-17.7A17.717,17.717,0,0,0,13.23,30.927Z" transform="translate(7.5 7.5)"/>
          <g id="Grupo_1112304" data-name="Grupo 1112304" transform="translate(14.157 6.067)">
            <path id="Trazado_903222" data-name="Trazado 903222" d="M230.073,68.258a6.58,6.58,0,0,1-6.573-6.573,1.517,1.517,0,1,1,3.034,0,3.539,3.539,0,1,0,3.539-3.539,6.573,6.573,0,1,1,6.573-6.573,1.517,1.517,0,1,1-3.034,0,3.539,3.539,0,1,0-3.539,3.539,6.573,6.573,0,0,1,0,13.146Z" transform="translate(-223.5 -41.966)"/>
            <path id="Línea_591" data-name="Línea 591" d="M-5.983-1.433A1.517,1.517,0,0,1-7.5-2.949V-5.983A1.517,1.517,0,0,1-5.983-7.5,1.517,1.517,0,0,1-4.466-5.983v3.034A1.517,1.517,0,0,1-5.983-1.433Z" transform="translate(12.556 7.5)"/>
            <path id="Línea_592" data-name="Línea 592" d="M-5.983-1.433A1.517,1.517,0,0,1-7.5-2.949V-5.983A1.517,1.517,0,0,1-5.983-7.5,1.517,1.517,0,0,1-4.466-5.983v3.034A1.517,1.517,0,0,1-5.983-1.433Z" transform="translate(12.556 30.758)"/>
          </g>
        </g>
      </g>
    </g>
  </g>
</svg>
