<svg xmlns="http://www.w3.org/2000/svg" xmlns:xlink="http://www.w3.org/1999/xlink" width="113" height="113" viewBox="0 0 113 113">
  <defs>
    <filter id="Trazado_896985" x="0" y="0" width="113" height="113" filterUnits="userSpaceOnUse">
      <feOffset dy="3" input="SourceAlpha"/>
      <feGaussianBlur stdDeviation="3" result="blur"/>
      <feFlood flood-opacity="0.161"/>
      <feComposite operator="in" in2="blur"/>
      <feComposite in="SourceGraphic"/>
    </filter>
    <clipPath id="clip-path">
      <path id="path594" d="M0-682.665H53.994v53.994H0Z" transform="translate(0 682.665)"/>
    </clipPath>
  </defs>
  <g id="Grupo_1112308" data-name="Grupo 1112308" transform="translate(-271.051 -5594.152)">
    <g id="Grupo_1111349" data-name="Grupo 1111349" transform="translate(-54.84 1748.152)">
      <g id="Grupo_1111318" data-name="Grupo 1111318" transform="translate(-5.891)">
        <g id="Grupo_1109826" data-name="Grupo 1109826" transform="translate(340.781 3852)">
          <g id="Grupo_1098742" data-name="Grupo 1098742">
            <g transform="matrix(1, 0, 0, 1, -9, -6)" filter="url(#Trazado_896985)">
              <g id="Trazado_896985-2" data-name="Trazado 896985" transform="translate(9 6)" fill="#fd9826" opacity="0.859">
                <path d="M 47.49993515014648 93.5 C 41.28932189941406 93.5 35.26528167724609 92.28397369384766 29.59514808654785 89.88571929931641 C 24.1176815032959 87.56894683837891 19.1981086730957 84.25197601318359 14.97306823730469 80.02693176269531 C 10.74802875518799 75.80189514160156 7.431055068969727 70.88231658935547 5.11428165435791 65.40485382080078 C 2.716028451919556 59.73471832275391 1.500001788139343 53.71067810058594 1.500001788139343 47.50006484985352 C 1.500001788139343 41.28932189941406 2.716028451919556 35.26528167724609 5.11428165435791 29.59514617919922 C 7.431055068969727 24.11767959594727 10.74802875518799 19.19810676574707 14.97306823730469 14.97306632995605 C 19.1981086730957 10.74802684783936 24.1176815032959 7.431053161621094 29.59514808654785 5.114280223846436 C 35.26528167724609 2.716026782989502 41.28932189941406 1.5 47.49993515014648 1.5 C 53.71054840087891 1.5 59.73458862304688 2.716026782989502 65.40472412109375 5.114280223846436 C 70.88218688964844 7.431053161621094 75.80176544189453 10.74802684783936 80.02680206298828 14.97306632995605 C 84.25183868408203 19.19810676574707 87.56881713867188 24.11767959594727 89.88558959960938 29.59514617919922 C 92.28384399414062 35.26528167724609 93.49987030029297 41.28932189941406 93.49987030029297 47.49993515014648 C 93.49987030029297 53.71067810058594 92.28384399414062 59.73471832275391 89.88558959960938 65.40485382080078 C 87.56881713867188 70.88231658935547 84.25183868408203 75.80189514160156 80.02680206298828 80.02693176269531 C 75.80176544189453 84.25197601318359 70.88218688964844 87.56894683837891 65.40472412109375 89.88571929931641 C 59.73458862304688 92.28397369384766 53.71054840087891 93.5 47.49993515014648 93.5 Z" stroke="none"/>
                <path d="M 47.49993515014648 3 C 41.49116516113281 3 35.66371917724609 4.176155090332031 30.17947387695312 6.495796203613281 C 24.88081359863281 8.7369384765625 20.12149047851562 11.94596862792969 16.03372192382812 16.03372192382812 C 11.94596862792969 20.12149047851562 8.7369384765625 24.88081359863281 6.495796203613281 30.17947387695312 C 4.1761474609375 35.66372299194336 3 41.49116897583008 3 47.50006103515625 C 3 53.50883102416992 4.1761474609375 59.33627700805664 6.495796203613281 64.82052612304688 C 8.7369384765625 70.11918640136719 11.94596862792969 74.87850952148438 16.03372192382812 78.96627807617188 C 20.12149047851562 83.05403137207031 24.88081359863281 86.2630615234375 30.17947387695312 88.50419616699219 C 35.66371917724609 90.82384490966797 41.49116516113281 92 47.49993515014648 92 C 53.50870513916016 92 59.33615112304688 90.82384490966797 64.82039642333984 88.50419616699219 C 70.11905670166016 86.2630615234375 74.87837982177734 83.05403137207031 78.96614837646484 78.96627807617188 C 83.05390167236328 74.87850952148438 86.26293182373047 70.11918640136719 88.50407409667969 64.82052612304688 C 90.82372283935547 59.33627700805664 91.99987030029297 53.50883102416992 91.99987030029297 47.49993896484375 C 91.99987030029297 41.49116897583008 90.82372283935547 35.66372299194336 88.50407409667969 30.17947387695312 C 86.26293182373047 24.88081359863281 83.05390167236328 20.12149047851562 78.96614837646484 16.03372192382812 C 74.87837982177734 11.94596862792969 70.11905670166016 8.7369384765625 64.82039642333984 6.495796203613281 C 59.33615112304688 4.176155090332031 53.50870513916016 3 47.49993515014648 3 M 47.49993515014648 0 C 73.73342895507812 0 94.99987030029297 21.26644897460938 94.99987030029297 47.49993896484375 L 94.99987030029297 47.50006103515625 C 94.99987030029297 73.73355102539062 73.73342895507812 95 47.49993515014648 95 C 21.26644134521484 95 0 73.73355102539062 0 47.50006103515625 L 0 47.49993896484375 C 0 21.26644897460938 21.26644134521484 0 47.49993515014648 0 Z" stroke="none" fill="#fff"/>
              </g>
            </g>
            <g id="Rectángulo_400907" data-name="Rectángulo 400907" transform="translate(0 0)" fill="none" stroke="#fff" stroke-width="3">
              <rect width="95" height="95" rx="47.5" stroke="none"/>
              <rect x="1.5" y="1.5" width="92" height="92" rx="46" fill="none"/>
            </g>
          </g>
        </g>
      </g>
    </g>
    <g id="g588" transform="translate(300.554 6302.32)">
      <g id="g590" transform="translate(0 -682.665)">
        <g id="g592" clip-path="url(#clip-path)">
          <g id="g598" transform="translate(13.085 18.126)">
            <path id="path600" d="M-32.648-79.856c-1.535,0-2.785-1.51-2.8-3.387-.019-1.91,1.242-3.471,2.8-3.471Z" transform="translate(35.452 86.714)" fill="#ffab8a"/>
          </g>
          <g id="g602" transform="translate(5.192 42.059)">
            <path id="path604" d="M-507.775-102.884v2.307h-43.61v-2.307a6.461,6.461,0,0,1,5.236-6.343l1.771-.351,4.339-.859,6.475-1.282h7.869l3.685.724,2.847.559,4.338.852,1.817.357a6.461,6.461,0,0,1,5.235,6.343" transform="translate(551.385 111.72)" fill="#3eb1ff"/>
          </g>
          <g id="g606" transform="translate(41.75 44.195)">
            <path id="path608" d="M-82.107-78.019v2.307h-2.636v-2.307c0-3.1-1.376-6.113-4.415-6.7l1.817.357a6.461,6.461,0,0,1,5.235,6.343" transform="translate(89.158 84.72)" fill="#4390ff"/>
          </g>
          <g id="g610" transform="translate(34.565 42.784)">
            <path id="path612" d="M-33.153-6.508v9.86H-36V-7.067Z" transform="translate(36 7.067)" fill="#4390ff"/>
          </g>
          <path id="path614" d="M229.957-55.285H209.081V-59.16h20.876Z" transform="translate(-192.544 108.474)" fill="#668fa3"/>
          <path id="path616" d="M439.873-55.285h-2.847V-59.16h2.847Z" transform="translate(-402.46 108.474)" fill="#4c7889"/>
          <g id="g618" transform="translate(12.198 43.342)">
            <path id="path620" d="M-50.515,0V9.848h-4.338V.859Z" transform="translate(54.853)" fill="#668fa3"/>
          </g>
          <g id="g622" transform="translate(37.413 43.343)">
            <path id="path624" d="M-50.5-9.921V-.927h-4.338v-9.846l2.183.429Z" transform="translate(54.841 10.773)" fill="#668fa3"/>
          </g>
          <g id="g626" transform="translate(39.596 43.772)">
            <path id="path628" d="M-25.087-4.924V4.071h-2.155V-5.347Z" transform="translate(27.241 5.347)" fill="#4c7889"/>
          </g>
          <path id="path630" d="M477.362-55.285h-4.338V-59.16h4.338Z" transform="translate(-435.611 108.474)" fill="#d4efff"/>
          <path id="path632" d="M154.229-59.155h4.338v3.874h-4.338Z" transform="translate(-142.031 108.47)" fill="#d4efff"/>
          <path id="path634" d="M502.779-55.285h-2.155V-59.16h2.155Z" transform="translate(-461.028 108.474)" fill="#b7d4e2"/>
          <g id="g636" transform="translate(23.012 37.11)">
            <path id="path638" d="M-85.485-37.929a5.4,5.4,0,0,0,.527,1.692,3.914,3.914,0,0,1-1.153,2.781A3.919,3.919,0,0,1-88.892-32.3a3.93,3.93,0,0,1-1.506-.3,3.952,3.952,0,0,1-1.238-.816,3.92,3.92,0,0,1-1.191-2.819,5.274,5.274,0,0,0,.335-.828,5.414,5.414,0,0,0,.192-.863c.012-.082.021-.165.027-.248a5.37,5.37,0,0,0-.31-2.346l-.245-.664h7.869l-.245.664a5.383,5.383,0,0,0-.309,2.346c.006.082.015.165.026.247" transform="translate(92.826 41.187)" fill="#ffd9c0"/>
          </g>
          <g id="g640" transform="translate(38.089 18.126)">
            <path id="path642" d="M0-79.856c1.535,0,2.785-1.51,2.8-3.387.019-1.91-1.242-3.471-2.8-3.471Z" transform="translate(0 86.714)" fill="#ffab8a"/>
          </g>
          <g id="g644" transform="translate(23.012 37.11)">
            <path id="path646" d="M-88.775-7.736a5.385,5.385,0,0,0-.309,2.346,7.786,7.786,0,0,1-3.381.774,7.781,7.781,0,0,1-3.38-.774,5.372,5.372,0,0,0-.31-2.346L-96.4-8.4h7.869Z" transform="translate(96.4 8.4)" fill="#ffbca1"/>
          </g>
          <g id="g648" transform="translate(15.777 18.126)">
            <path id="path650" d="M-260.751-106.518c0,2.67-2.27,5.86-6.75,9.484a7.02,7.02,0,0,1-4.31,1.571c-.045,0-.091,0-.136,0a7.03,7.03,0,0,1-4.451-1.577c-4.477-3.621-6.747-6.811-6.747-9.481,0-.284.011-.567.035-.839.116-1.181.141-4.834.077-8.309l19.983,0h2.217c-.061,3.434-.066,7.132.049,8.3.023.279.035.563.035.847" transform="translate(283.146 115.666)" fill="#ffd9c0"/>
          </g>
          <g id="g652" transform="translate(27.112 18.13)">
            <path id="path654" d="M-128.779-106.469c0,2.67-2.27,5.86-6.75,9.484a7.02,7.02,0,0,1-4.31,1.571,5,5,0,0,0,3.423-1.571c3.586-3.623,5.4-6.814,5.4-9.484,0-.284-.009-.567-.028-.847-.092-1.165-.088-4.864-.038-8.3h2.217c-.061,3.434-.066,7.132.049,8.3.023.279.035.563.035.847" transform="translate(139.84 115.613)" fill="#ffbca1"/>
          </g>
          <g id="g656" transform="translate(14.451 2.545)">
            <path id="path658" d="M-290.429-114.487v4.119h-24.944v-4.119a9.834,9.834,0,0,1,9.835-9.833h5.274a9.834,9.834,0,0,1,9.835,9.833" transform="translate(315.373 124.32)" fill="#ffc73b"/>
          </g>
          <g id="g660" transform="translate(28.74 2.545)">
            <path id="path662" d="M-124.052-114.487v4.119h-3.086v-4.119c0-5.43-3.2-9.833-7.569-9.833h.819a9.834,9.834,0,0,1,9.835,9.833" transform="translate(134.706 124.32)" fill="#ffa73e"/>
          </g>
          <path id="path664" d="M207.651-522.053H182.708v-4.119h24.944Z" transform="translate(-168.257 538.549)" fill="#ffa73e"/>
          <path id="path666" d="M462.151-522.053h-3.086v-4.119h3.086Z" transform="translate(-422.757 538.549)" fill="#ff8440"/>
          <g id="g668" transform="translate(11.341 16.497)">
            <path id="path670" d="M-363.4,0V1.4a2.115,2.115,0,0,1-2.116,2.114H-392.5A2.115,2.115,0,0,1-394.612,1.4V0Z" transform="translate(394.612)" fill="#ffc73b"/>
          </g>
          <g id="g672" transform="translate(37.272 16.497)">
            <path id="path674" d="M-61.469,0V1.4a2.115,2.115,0,0,1-2.116,2.114h-3.164A2.115,2.115,0,0,0-64.632,1.4V0Z" transform="translate(66.748)" fill="#ffa73e"/>
          </g>
          <path id="path676" d="M322.951-656.959h-3.472v-15.706h3.472Z" transform="translate(-294.211 673.456)" fill="#ffa73e"/>
          <path id="path678" d="M322.951-522.053h-3.472v-4.119h3.472Z" transform="translate(-294.211 538.549)" fill="#ff8440"/>
          <g id="g680" transform="translate(30.09 41.268)">
            <path id="path682" d="M-31.15-138.166H-45.918a.791.791,0,0,1-.791-.791.791.791,0,0,1,.791-.791h13.977v-1.516a5.68,5.68,0,0,0-4.594-5.567l-12.688-2.493a.791.791,0,0,1-.624-.929.791.791,0,0,1,.929-.624l12.686,2.492a7.264,7.264,0,0,1,5.873,7.12v2.307A.791.791,0,0,1-31.15-138.166Z" transform="translate(49.862 150.891)"/>
          </g>
          <g id="g684" transform="translate(4.401 41.268)">
            <path id="path686" d="M-209.382,2.723h-25.13a.791.791,0,0,1-.791-.791V-.375a7.264,7.264,0,0,1,5.876-7.12l12.581-2.492a.791.791,0,0,1,.93.622.791.791,0,0,1-.622.93l-12.585,2.492a5.681,5.681,0,0,0-4.6,5.568V1.142h24.339a.791.791,0,0,1,.791.791A.791.791,0,0,1-209.382,2.723Z" transform="translate(235.303 10.002)"/>
          </g>
          <g id="g688" transform="translate(12.294 19.682)">
            <path id="path690" d="M-41.857-60.947c-1.959,0-3.572-1.871-3.595-4.17a4.872,4.872,0,0,1,.371-1.923l1.458.613a3.277,3.277,0,0,0-.247,1.294c.014,1.436.917,2.6,2.013,2.6Z" transform="translate(45.452 67.04)"/>
          </g>
          <g id="g692" transform="translate(38.088 19.714)">
            <path id="path694" d="M0-60.578V-62.16c1.1,0,2-1.168,2.013-2.6a3.283,3.283,0,0,0-.238-1.273l1.463-.6a4.811,4.811,0,0,1,.357,1.892C3.572-62.448,1.959-60.578,0-60.578Z" transform="translate(0 66.639)"/>
          </g>
          <g id="g696" transform="translate(22.221 36.837)">
            <path id="path698" d="M-104.769,6.489a4.7,4.7,0,0,1-3.3-1.338,4.687,4.687,0,0,1-1.43-3.386.791.791,0,0,1,.085-.356,4.579,4.579,0,0,0,.449-1.442,4.6,4.6,0,0,0-.241-2.213l-.245-.664,1.484-.547.245.664a6.192,6.192,0,0,1,.323,2.976,6.156,6.156,0,0,1-.515,1.755,3.116,3.116,0,0,0,.947,2.08,3.128,3.128,0,0,0,2.192.89,3.147,3.147,0,0,0,3.139-2.971A6.157,6.157,0,0,1-102.145.18a6.191,6.191,0,0,1,.324-2.974l.245-.664,1.484.547-.245.664a4.6,4.6,0,0,0-.241,2.212,4.58,4.58,0,0,0,.45,1.443.791.791,0,0,1,.085.356A4.73,4.73,0,0,1-104.769,6.489Z" transform="translate(109.494 3.459)"/>
          </g>
          <g id="g700" transform="translate(14.986 19.981)">
            <path id="path702" d="M-279.74,18.718h-.035a7.841,7.841,0,0,1-4.933-1.754c-4.67-3.778-7.039-7.175-7.039-10.095,0-.307.012-.615.038-.909.089-.9.128-3.4.1-6.369l1.582-.015c.022,2.405.006,5.384-.107,6.531-.022.242-.031.5-.031.762,0,2.385,2.232,5.451,6.454,8.866a6.257,6.257,0,0,0,3.952,1.4,6.249,6.249,0,0,0,3.949-1.4c4.225-3.418,6.458-6.485,6.458-8.871,0-.262-.011-.523-.032-.781-.123-1.243-.1-4.951-.078-6.487l1.582.018c-.036,3.145-.009,5.509.072,6.326.026.313.039.619.039.924,0,2.921-2.37,6.319-7.044,10.1A7.833,7.833,0,0,1-279.74,18.718Z" transform="translate(291.747 0.423)"/>
          </g>
          <g id="g704" transform="translate(10.55 15.706)">
            <path id="path706" d="M-117.431-49.378h-18.234a.791.791,0,0,1-.791-.791.791.791,0,0,1,.791-.791h18.234a1.326,1.326,0,0,0,1.325-1.324V-52.9h-29.629v.612a1.326,1.326,0,0,0,1.325,1.324h5.047a.791.791,0,0,1,.791.791.791.791,0,0,1-.791.791h-5.047a2.91,2.91,0,0,1-2.907-2.906v-1.4a.791.791,0,0,1,.791-.791h31.211a.791.791,0,0,1,.791.791v1.4A2.91,2.91,0,0,1-117.431-49.378Z" transform="translate(147.317 54.477)"/>
          </g>
          <g id="g708" transform="translate(13.659 1.754)">
            <path id="path710" d="M-121.047,5.534h-24.944a.791.791,0,0,1-.791-.791V.624A10.637,10.637,0,0,1-136.156-10h.983v1.582h-.983A9.053,9.053,0,0,0-145.2.624V3.952h23.363V.624a9.053,9.053,0,0,0-9.044-9.042h-.819V-10h.819A10.637,10.637,0,0,1-120.256.624v4.12A.791.791,0,0,1-121.047,5.534Z" transform="translate(146.782 10)"/>
          </g>
          <path id="path712" d="M310.274-682.665h3.472a.791.791,0,0,1,.791.791v15.706a.791.791,0,0,1-.791.791h-3.472a.791.791,0,0,1-.791-.791v-15.706A.791.791,0,0,1,310.274-682.665Zm2.681,1.582h-1.89v14.124h1.89Z" transform="translate(-285.005 682.665)"/>
          <g id="g714" transform="translate(13.659 11.587)">
            <path id="path716" d="M-5-8.418h-4.2A.791.791,0,0,1-10-9.209.791.791,0,0,1-9.209-10H-5a.791.791,0,0,1,.791.791A.791.791,0,0,1-5-8.418Z" transform="translate(10 10)"/>
          </g>
          <g id="g718" transform="translate(34.399 11.587)">
            <path id="path720" d="M-5-8.418h-4.2A.791.791,0,0,1-10-9.209.791.791,0,0,1-9.209-10H-5a.791.791,0,0,1,.791.791A.791.791,0,0,1-5-8.418Z" transform="translate(10 10)"/>
          </g>
          <g id="g722" transform="translate(11.407 43.342)">
            <path id="path724" d="M-4.08-.224H-10V-10h1.582v8.2h2.756v-9.056H-4.08Z" transform="translate(10 10.863)"/>
          </g>
          <g id="g726" transform="translate(36.621 43.343)">
            <path id="path728" d="M-4.08,10.637H-10V0h1.582V9.056h2.756V.852H-4.08Z" transform="translate(10 0)"/>
          </g>
          <g id="g730" transform="translate(12.198 48.524)">
            <path id="path732" d="M29.791-8.418H0V-10H29.791Z" transform="translate(0 10)"/>
          </g>
          <g id="g734" transform="translate(23.328 29.087)">
            <path id="path736" d="M-77.865-6.254a3.721,3.721,0,0,1-3.59-2.753.791.791,0,0,1,.559-.969.791.791,0,0,1,.969.559,2.137,2.137,0,0,0,2.062,1.58A2.137,2.137,0,0,0-75.8-9.416a.791.791,0,0,1,.969-.559.791.791,0,0,1,.559.969A3.722,3.722,0,0,1-77.865-6.254Z" transform="translate(81.482 10.002)"/>
          </g>
          <g id="g738" transform="translate(25.269 11.587)">
            <path id="path740" d="M3.472-8.418H0V-10H3.472Z" transform="translate(0 10)"/>
          </g>
        </g>
      </g>
    </g>
  </g>
</svg>
