<svg xmlns="http://www.w3.org/2000/svg" xmlns:xlink="http://www.w3.org/1999/xlink" width="113" height="113" viewBox="0 0 113 113">
  <defs>
    <filter id="Trazado_896985" x="0" y="0" width="113" height="113" filterUnits="userSpaceOnUse">
      <feOffset dy="3" input="SourceAlpha"/>
      <feGaussianBlur stdDeviation="3" result="blur"/>
      <feFlood flood-opacity="0.161"/>
      <feComposite operator="in" in2="blur"/>
      <feComposite in="SourceGraphic"/>
    </filter>
  </defs>
  <g id="Grupo_1112311" data-name="Grupo 1112311" transform="translate(-1216.051 -5594)">
    <g id="Grupo_1111933" data-name="Grupo 1111933" transform="translate(890.16 1748)">
      <g id="Grupo_1111318" data-name="Grupo 1111318" transform="translate(-5.891)">
        <g id="Grupo_1109826" data-name="Grupo 1109826" transform="translate(340.781 3852)">
          <g id="Grupo_1098742" data-name="Grupo 1098742">
            <g transform="matrix(1, 0, 0, 1, -9, -6)" filter="url(#Trazado_896985)">
              <g id="Trazado_896985-2" data-name="Trazado 896985" transform="translate(9 6)" fill="#fd9826" opacity="0.859">
                <path d="M 47.49993515014648 93.5 C 41.28932189941406 93.5 35.26528167724609 92.28397369384766 29.59514808654785 89.88571929931641 C 24.1176815032959 87.56894683837891 19.1981086730957 84.25197601318359 14.97306823730469 80.02693176269531 C 10.74802875518799 75.80189514160156 7.431055068969727 70.88231658935547 5.11428165435791 65.40485382080078 C 2.716028451919556 59.73471832275391 1.500001788139343 53.71067810058594 1.500001788139343 47.50006484985352 C 1.500001788139343 41.28932189941406 2.716028451919556 35.26528167724609 5.11428165435791 29.59514617919922 C 7.431055068969727 24.11767959594727 10.74802875518799 19.19810676574707 14.97306823730469 14.97306632995605 C 19.1981086730957 10.74802684783936 24.1176815032959 7.431053161621094 29.59514808654785 5.114280223846436 C 35.26528167724609 2.716026782989502 41.28932189941406 1.5 47.49993515014648 1.5 C 53.71054840087891 1.5 59.73458862304688 2.716026782989502 65.40472412109375 5.114280223846436 C 70.88218688964844 7.431053161621094 75.80176544189453 10.74802684783936 80.02680206298828 14.97306632995605 C 84.25183868408203 19.19810676574707 87.56881713867188 24.11767959594727 89.88558959960938 29.59514617919922 C 92.28384399414062 35.26528167724609 93.49987030029297 41.28932189941406 93.49987030029297 47.49993515014648 C 93.49987030029297 53.71067810058594 92.28384399414062 59.73471832275391 89.88558959960938 65.40485382080078 C 87.56881713867188 70.88231658935547 84.25183868408203 75.80189514160156 80.02680206298828 80.02693176269531 C 75.80176544189453 84.25197601318359 70.88218688964844 87.56894683837891 65.40472412109375 89.88571929931641 C 59.73458862304688 92.28397369384766 53.71054840087891 93.5 47.49993515014648 93.5 Z" stroke="none"/>
                <path d="M 47.49993515014648 3 C 41.49116516113281 3 35.66371917724609 4.176155090332031 30.17947387695312 6.495796203613281 C 24.88081359863281 8.7369384765625 20.12149047851562 11.94596862792969 16.03372192382812 16.03372192382812 C 11.94596862792969 20.12149047851562 8.7369384765625 24.88081359863281 6.495796203613281 30.17947387695312 C 4.1761474609375 35.66372299194336 3 41.49116897583008 3 47.50006103515625 C 3 53.50883102416992 4.1761474609375 59.33627700805664 6.495796203613281 64.82052612304688 C 8.7369384765625 70.11918640136719 11.94596862792969 74.87850952148438 16.03372192382812 78.96627807617188 C 20.12149047851562 83.05403137207031 24.88081359863281 86.2630615234375 30.17947387695312 88.50419616699219 C 35.66371917724609 90.82384490966797 41.49116516113281 92 47.49993515014648 92 C 53.50870513916016 92 59.33615112304688 90.82384490966797 64.82039642333984 88.50419616699219 C 70.11905670166016 86.2630615234375 74.87837982177734 83.05403137207031 78.96614837646484 78.96627807617188 C 83.05390167236328 74.87850952148438 86.26293182373047 70.11918640136719 88.50407409667969 64.82052612304688 C 90.82372283935547 59.33627700805664 91.99987030029297 53.50883102416992 91.99987030029297 47.49993896484375 C 91.99987030029297 41.49116897583008 90.82372283935547 35.66372299194336 88.50407409667969 30.17947387695312 C 86.26293182373047 24.88081359863281 83.05390167236328 20.12149047851562 78.96614837646484 16.03372192382812 C 74.87837982177734 11.94596862792969 70.11905670166016 8.7369384765625 64.82039642333984 6.495796203613281 C 59.33615112304688 4.176155090332031 53.50870513916016 3 47.49993515014648 3 M 47.49993515014648 0 C 73.73342895507812 0 94.99987030029297 21.26644897460938 94.99987030029297 47.49993896484375 L 94.99987030029297 47.50006103515625 C 94.99987030029297 73.73355102539062 73.73342895507812 95 47.49993515014648 95 C 21.26644134521484 95 0 73.73355102539062 0 47.50006103515625 L 0 47.49993896484375 C 0 21.26644897460938 21.26644134521484 0 47.49993515014648 0 Z" stroke="none" fill="#fff"/>
              </g>
            </g>
            <g id="Rectángulo_400907" data-name="Rectángulo 400907" transform="translate(0 0)" fill="none" stroke="#fff" stroke-width="3">
              <rect width="95" height="95" rx="47.5" stroke="none"/>
              <rect x="1.5" y="1.5" width="92" height="92" rx="46" fill="none"/>
            </g>
          </g>
        </g>
      </g>
    </g>
    <g id="layer1" transform="translate(1248.521 5620.471)">
      <path id="rect7450" d="M30.206.794A4.367,4.367,0,0,0,25.83,5.17v.875H1.323V33.178h33.26V5.17A4.367,4.367,0,0,0,30.206.794Z" transform="translate(1.832 0.611)" fill="#e4eff8"/>
      <path id="path7455" d="M31.66.874c0,15.49-21.584,25.118-30.337,25.118v7h33.26V4.985A4.352,4.352,0,0,0,31.66.874Z" transform="translate(1.832 0.796)" fill="#c4dcf0"/>
      <path id="rect7195" d="M2.5,9.26H8.715a1.7,1.7,0,0,1,1.707,1.707V26.809a1.7,1.7,0,0,1-1.707,1.707H2.5A1.7,1.7,0,0,1,.794,26.809V10.967A1.7,1.7,0,0,1,2.5,9.26Z" transform="translate(0.611 20.152)" fill="#549ad4"/>
      <path id="path7197" d="M29.3,18.5H16.012c-1.751,0-2.04.875-2.627,1.751-1.009,1.5-2.809,4.577-2.809,4.577a2.749,2.749,0,0,1-3.448,1.348,2.62,2.62,0,0,1-1.352-3.454l2.583-5.916c4.2-9.22,10.329-9.315,13.83-12.311L33.567,15.876l-2.475,3.437c-.572-.275.184-.769-1.792-.811Z" transform="translate(11.6 9.16)" fill="#ffbd8d"/>
      <path id="path7386" d="M22.189,4.5c-3.5,3-9.628,3.09-13.83,12.31L5.776,22.725a2.62,2.62,0,0,0,1.352,3.453,2.389,2.389,0,0,0,1.86.036c-.037-.014-.073-.02-.109-.036a2.62,2.62,0,0,1-1.352-3.453l2.583-5.917c3.825-8.391,9.237-9.229,12.819-11.57Zm7.111,14c1.976.043,1.22.537,1.792.812l.559-.778c-.166-.017-.361-.029-.6-.034Z" transform="translate(11.6 9.16)" fill="#f5f9fb"/>
      <path id="path7199" d="M11.891,8.731s-5.561,3.5-8.187,3.5V28.007l4.376,1.73H29.087a2.626,2.626,0,0,0,0-5.252h1.751a2.626,2.626,0,0,0,0-5.252h.875a2.626,2.626,0,0,0,0-5.252h1.751a2.626,2.626,0,1,0,0-5.252Z" transform="translate(7.328 18.931)" fill="#ffd1b5"/>
      <path id="path7201" d="M32.665,8.731c0,8.753-4.92,18.38-17.582,18.38H3.7s.358.88.436,1.068l3.94,1.557H29.087a2.626,2.626,0,0,0,0-5.252h1.751a2.626,2.626,0,0,0,0-5.252h.875a2.626,2.626,0,0,0,0-5.252h1.751a2.626,2.626,0,1,0,0-5.252Z" transform="translate(7.328 18.931)" fill="#ffb98d"/>
      <path id="rect7203" d="M2.626,5.252H7A2.626,2.626,0,0,0,7,0H2.626a2.626,2.626,0,0,0,0,5.252Z" transform="translate(14.533 50.419) rotate(-90)" fill="#ffbd8d"/>
      <path id="path7205" d="M4.762,15.326V19.7a2.6,2.6,0,0,0,3.5,2.467A2.612,2.612,0,0,1,6.513,19.7V15.326a2.612,2.612,0,0,1,1.751-2.467,2.6,2.6,0,0,0-3.5,2.467Z" transform="translate(9.771 28.091)" fill="#f5f9fb"/>
      <path id="path7207" d="M5.292,12.859a2.612,2.612,0,0,1,1.751,2.467V19.7a2.612,2.612,0,0,1-1.751,2.467,2.6,2.6,0,0,0,3.5-2.467V15.326a2.6,2.6,0,0,0-3.5-2.467Z" transform="translate(10.992 28.091)" fill="#ffa465"/>
      <path id="path7209" d="M3.7,10.095V25.87l1.631.644a1.7,1.7,0,0,0,.12-.621V10.05a1.694,1.694,0,0,0-.05-.393,3.97,3.97,0,0,1-1.7.438Z" transform="translate(7.328 21.068)" fill="#ffb98d"/>
      <path id="rect7213" d="M2.626,5.252H7A2.626,2.626,0,0,0,7,0H2.626a2.626,2.626,0,0,0,0,5.252Z" transform="translate(19.785 52.169) rotate(-90)" fill="#ffbd8d"/>
      <path id="path7215" d="M7.8,9.26v3.5c0,7,0,14-5.276,14H.794v.044A1.7,1.7,0,0,0,2.5,28.516H8.716a1.7,1.7,0,0,0,1.706-1.706V10.966A1.7,1.7,0,0,0,8.716,9.26Z" transform="translate(0.611 20.152)" fill="#3588cb"/>
      <path id="path7217" d="M2.5,9.26A1.7,1.7,0,0,0,.794,10.966V26.81A1.7,1.7,0,0,0,2.5,28.516H4.25A1.7,1.7,0,0,1,2.544,26.81V10.966A1.7,1.7,0,0,1,4.25,9.26Z" transform="translate(0.611 20.152)" fill="#f5f9fb"/>
      <path id="rect7219" d="M2.626,5.252h3.5A2.626,2.626,0,1,0,6.127,0h-3.5a2.626,2.626,0,0,0,0,5.252Z" transform="translate(25.036 52.17) rotate(-90)" fill="#ffbd8d"/>
      <path id="rect7221" d="M2.626,5.252H4.376A2.626,2.626,0,0,0,4.376,0H2.626a2.626,2.626,0,0,0,0,5.252Z" transform="translate(30.288 50.419) rotate(-90)" fill="#ffbd8d"/>
      <path id="path7223" d="M10.054,13.653A2.612,2.612,0,0,1,11.8,16.12V17.87a2.612,2.612,0,0,1-1.751,2.467,2.6,2.6,0,0,0,3.5-2.467V16.12a2.6,2.6,0,0,0-3.5-2.467Z" transform="translate(21.984 29.923)" fill="#ffa465"/>
      <path id="path7225" d="M8.976,13.229A2.62,2.62,0,0,0,6.35,15.855v4.376a2.6,2.6,0,0,0,3.5,2.467A2.612,2.612,0,0,1,8.1,20.231V15.855a2.612,2.612,0,0,1,1.751-2.467A2.614,2.614,0,0,0,8.976,13.229Z" transform="translate(13.435 29.312)" fill="#f5f9fb"/>
      <path id="path7227" d="M6.879,13.388A2.612,2.612,0,0,1,8.63,15.855v4.376A2.612,2.612,0,0,1,6.879,22.7a2.6,2.6,0,0,0,3.5-2.467V15.855a2.6,2.6,0,0,0-3.5-2.467Z" transform="translate(14.656 29.312)" fill="#ffa465"/>
      <path id="path7229" d="M7.938,16.12v3.5a2.6,2.6,0,0,0,3.5,2.467,2.612,2.612,0,0,1-1.751-2.467v-3.5a2.612,2.612,0,0,1,1.751-2.467,2.6,2.6,0,0,0-3.5,2.467Z" transform="translate(17.099 29.923)" fill="#f5f9fb"/>
      <path id="path7231" d="M11.968,16.12v3.5a2.6,2.6,0,0,1-3.5,2.467,2.612,2.612,0,0,0,1.751-2.467v-3.5a2.612,2.612,0,0,0-1.751-2.467,2.6,2.6,0,0,1,3.5,2.467Z" transform="translate(18.32 29.923)" fill="#ffa465"/>
      <path id="path7233" d="M12.151,13.494a2.614,2.614,0,0,1,.875.159,2.612,2.612,0,0,0-1.751,2.467V17.87a2.612,2.612,0,0,0,1.751,2.467,2.6,2.6,0,0,1-3.5-2.467V16.12a2.62,2.62,0,0,1,2.626-2.626Z" transform="translate(20.763 29.923)" fill="#f5f9fb"/>
      <path id="path7235" d="M7.619,8.731,5.776,12.954a2.62,2.62,0,0,0,1.352,3.453,2.749,2.749,0,0,0,3.448-1.349s1.8-3.074,2.809-4.576c.588-.875.876-1.751,2.627-1.751Z" transform="translate(11.6 18.931)" fill="#ffbd8d"/>
      <path id="path7399" d="M22.189,4.5c-3.5,3-9.628,3.09-13.83,12.31L5.776,22.725a2.62,2.62,0,0,0,1.352,3.453,2.389,2.389,0,0,0,1.86.036c-.037-.014-.073-.02-.109-.036a2.62,2.62,0,0,1-1.352-3.453l2.583-5.917c3.825-8.391,9.237-9.229,12.819-11.57Z" transform="translate(11.6 9.16)" fill="#f5f9fb"/>
      <g id="Grupo_1112310" data-name="Grupo 1112310" transform="translate(18.518 22.833)">
        <path id="path7237" d="M12.67,8.731c-1.751,0-2.04.875-2.627,1.751-1.009,1.5-2.809,4.576-2.809,4.576a3.392,3.392,0,0,1-1.267,1.231c.071.039.135.085.21.118a2.749,2.749,0,0,0,3.448-1.349s1.8-3.074,2.809-4.576c.588-.875.876-1.751,2.627-1.751Z" transform="translate(-5.967 -3.902)" fill="#ffa465"/>
        <path id="path7239" d="M12.422,8.3a2.154,2.154,0,0,1-.814,1.454,6.064,6.064,0,0,1-2.093,1.208.875.875,0,1,0,.556,1.66A7.611,7.611,0,0,0,12.8,11.035a4.108,4.108,0,0,0,1.651-2.746c0-.257-.006-.872-.006-.872S13.567,7.4,13.275,7.4a.875.875,0,0,0-.853.892Z" transform="translate(0.829 -6.965)" fill="#ffa465"/>
        <path id="path7241" d="M9.043,11.225,21.25,12.1c1.976.043,1.22.537,1.792.812l2.475-3.438-2.2-2.2c0,3.079-4.8,3.954-14.271,3.954Z" transform="translate(1.132 -7.271)" fill="#ffa465"/>
      </g>
      <path id="rect7275" d="M1.707,0H7.921A1.7,1.7,0,0,1,9.628,1.707V17.549a1.7,1.7,0,0,1-1.707,1.707H1.707A1.7,1.7,0,0,1,0,17.549V1.707A1.7,1.7,0,0,1,1.707,0Z" transform="translate(32.453 12.1) rotate(-45)" fill="#549ad4"/>
      <path id="path7278" d="M13.46,2.183a1.7,1.7,0,0,0-1.207.5l-.544.544,7.926,7.926c2.425,2.189,3.227,4.653,1.477,6.4l-2.6,2.594.544.544a1.7,1.7,0,0,0,2.414,0l4.4-4.393a1.7,1.7,0,0,0,0-2.414l-11.2-11.2a1.7,1.7,0,0,0-1.207-.5Z" transform="translate(25.806 3.817)" fill="#3588cb"/>
      <path id="path7280" d="M15.289,2.684,10.9,7.079a1.7,1.7,0,0,0,0,2.414l11.2,11.2a1.7,1.7,0,0,0,2.082.255,1.714,1.714,0,0,1-.332-.255l-11.2-11.2a1.7,1.7,0,0,1,0-2.414l4.393-4.4a1.706,1.706,0,0,1,.332-.253,1.69,1.69,0,0,0-2.082.253Z" transform="translate(22.77 3.817)" fill="#f5f9fb"/>
      <path id="path7435" d="M5.17.794A4.367,4.367,0,0,0,.794,5.17V7.8H27.052V5.17A4.367,4.367,0,0,1,31.428.794Z" transform="translate(0.611 0.611)" fill="#549ad4"/>
      <path id="path7445" d="M26.453.794C22.675,6.5,5.17,6.045,1.669,6.045H.794V7.8H27.052V5.17A4.367,4.367,0,0,1,31.428.794Z" transform="translate(0.611 0.611)" fill="#3588cb"/>
      <path id="path7441" d="M5.17.794A4.367,4.367,0,0,0,.794,5.17V7.8H2.544V5.17A4.367,4.367,0,0,1,6.921.794Z" transform="translate(0.611 0.611)" fill="#f5f9fb"/>
      <path id="Ic_14" d="M5.783.529A5.262,5.262,0,0,0,.529,5.782V8.4a.876.876,0,0,0,.872.88h.88V28.679A2.563,2.563,0,0,0,.529,31.117V46.959a2.6,2.6,0,0,0,2.585,2.585H9.323a2.6,2.6,0,0,0,2.311-1.438l2.222.843a3.519,3.519,0,0,0,3.3,2.345,3.473,3.473,0,0,0,1.947-.6,3.493,3.493,0,0,0,5.929,1.154A3.493,3.493,0,0,0,30.965,50.7a3.473,3.473,0,0,0,1.947.6,3.512,3.512,0,0,0,3.029-1.751h.474a3.514,3.514,0,0,0,3.5-3.5,3.472,3.472,0,0,0-.6-1.947,3.52,3.52,0,0,0,2.349-3.306,3.472,3.472,0,0,0-.831-2.251,3.479,3.479,0,0,0,1.1-4.942,3.517,3.517,0,0,0,2.349-3.3,3.472,3.472,0,0,0-.559-1.887L45.2,25.724a2.594,2.594,0,0,0,2.7-.593l4.4-4.4a2.592,2.592,0,0,0-.007-3.65l-11.2-11.2a2.568,2.568,0,0,0-3.645,0l-.151.15V5.782A5.262,5.262,0,0,0,32.039.529Zm0,1.752H28.124a5.089,5.089,0,0,0-1.337,3.5V7.533H2.281V5.782a3.474,3.474,0,0,1,3.5-3.5Zm29.761,3.5v2l-2.494,2.494a2.6,2.6,0,0,0-.393,3.151c-3.3,2.315-9.405,3.208-13.5,12.179l-.624,1.427c-.372.27-1.283.921-2.327,1.581a21.833,21.833,0,0,1-2.041,1.162,4.961,4.961,0,0,1-1.344.465H11.751a2.544,2.544,0,0,0-2.464-1.7H4.032V9.285H27.659a.878.878,0,0,0,.88-.88V5.783a3.5,3.5,0,0,1,7,0Zm4.313,1.333,11.2,11.2a.815.815,0,0,1,0,1.18l-4.4,4.4a.815.815,0,0,1-1.18,0l-11.2-11.2a.808.808,0,0,1,.007-1.174l4.4-4.4a.84.84,0,0,1,.586-.246.874.874,0,0,1,.587.241ZM6.7,11.036a.872.872,0,1,0,0,1.744H25.037a.872.872,0,1,0,0-1.744Zm0,3.494a.876.876,0,1,0,0,1.752H25.037a.876.876,0,0,0,0-1.752ZM43.788,24.672,42.4,27.2a3.449,3.449,0,0,0-1.455-.405q-3.651-.006-7.31,0a3.741,3.741,0,0,0,1.323-2.7.876.876,0,1,0-1.752.014,2.152,2.152,0,0,1-.814,1.453,6.177,6.177,0,0,1-2.1,1.227c-.889.01-1.8,0-2.677,0a3.433,3.433,0,0,0-2.339.769,6,6,0,0,0-1.015,1.369c-1.046,1.558-2.83,4.6-2.839,4.617a1.831,1.831,0,0,1-2.342.992,1.726,1.726,0,0,1-.9-2.3l2.574-5.912c3.9-8.537,9.244-8.686,13.093-11.589ZM6.706,18.033a.875.875,0,1,0,0,1.751H20.662a.875.875,0,0,0,0-1.751Zm1,4.142a4.172,4.172,0,0,0-1.92,3.185.874.874,0,0,0,1.744.116A2.341,2.341,0,0,1,8.67,23.635a1.707,1.707,0,0,1,1.817-.162,1.509,1.509,0,0,1,.768,1.513.875.875,0,0,0,1.532.626,1.723,1.723,0,0,1,.9-.556c.147-.02.446-.037.788.472a.875.875,0,0,0,.73.388h1.074a.875.875,0,1,0,0-1.751h-.651a2.415,2.415,0,0,0-2.173-.846,1.843,1.843,0,0,0-.7.2,3.256,3.256,0,0,0-2.993-1.988A3.73,3.73,0,0,0,7.7,22.175Zm9.52,7.872-.65,1.489a3.506,3.506,0,0,0,1.8,4.6,3.671,3.671,0,0,0,4.552-1.7s1.819-3.092,2.788-4.535a6.95,6.95,0,0,1,.737-1.041c.206-.186.433-.321,1.163-.321H40.788a1.751,1.751,0,1,1,0,3.5H35.543a.875.875,0,1,0,0,1.751h3.494a1.751,1.751,0,0,1,0,3.5H34.663a.872.872,0,0,0,0,1.744h3.5a1.751,1.751,0,0,1,0,3.5H32.913a3.5,3.5,0,0,0-2.626,1.193,3.481,3.481,0,0,0-4.879-.364,3.483,3.483,0,0,0-4.942-1.1,3.5,3.5,0,0,0-6.807,1.154V47l-1.751-.667V32h.918a4.843,4.843,0,0,0,2.106-.641,23.229,23.229,0,0,0,2.216-1.26m-7.824.195a.81.81,0,0,1,.834.827V46.959a.814.814,0,0,1-.834.833H3.114a.813.813,0,0,1-.833-.833V31.117a.809.809,0,0,1,.833-.827Zm7.838,11.378a1.728,1.728,0,0,1,1.751,1.751v4.373a1.751,1.751,0,1,1-3.5,0V43.419A1.728,1.728,0,0,1,17.161,41.668Zm5.253,1.751a1.728,1.728,0,0,1,1.751,1.751c0,1.458,0,2.913,0,4.375a1.751,1.751,0,0,1-3.5,0c0-1.462,0-2.912,0-4.375a1.729,1.729,0,0,1,1.752-1.751Zm5.245.872a1.729,1.729,0,0,1,1.752,1.751c0,1.172,0,2.332,0,3.5a1.751,1.751,0,0,1-3.5,0v-3.5A1.728,1.728,0,0,1,27.659,44.29Zm5.253,0a1.728,1.728,0,0,1,1.751,1.751v1.751a1.751,1.751,0,1,1-3.5,0V46.041A1.728,1.728,0,0,1,32.913,44.29Zm3.029,0h.474a1.751,1.751,0,1,1,0,3.5V46.041A3.469,3.469,0,0,0,35.942,44.29Z" transform="translate(0 0)" fill="#333"/>
    </g>
  </g>
</svg>
