<svg xmlns="http://www.w3.org/2000/svg" xmlns:xlink="http://www.w3.org/1999/xlink" width="113" height="113" viewBox="0 0 113 113">
  <defs>
    <filter id="Trazado_896985" x="0" y="0" width="113" height="113" filterUnits="userSpaceOnUse">
      <feOffset dy="3" input="SourceAlpha"/>
      <feGaussianBlur stdDeviation="3" result="blur"/>
      <feFlood flood-opacity="0.161"/>
      <feComposite operator="in" in2="blur"/>
      <feComposite in="SourceGraphic"/>
    </filter>
  </defs>
  <g id="Grupo_1112345" data-name="Grupo 1112345" transform="translate(-956.266 -2436.97)">
    <g id="Grupo_1112148" data-name="Grupo 1112148" transform="translate(209.491 -1997.834)">
      <g id="Grupo_1111321" data-name="Grupo 1111321" transform="translate(0 588.804)">
        <g id="Grupo_1109827" data-name="Grupo 1109827" transform="translate(755.775 3852)">
          <g id="Grupo_1098742" data-name="Grupo 1098742">
            <g transform="matrix(1, 0, 0, 1, -9, -6)" filter="url(#Trazado_896985)">
              <g id="Trazado_896985-2" data-name="Trazado 896985" transform="translate(9 6)" fill="#f3f0ea" opacity="0.859">
                <path d="M 47.49993515014648 93.5 C 41.28932189941406 93.5 35.26528167724609 92.28397369384766 29.59514808654785 89.88571929931641 C 24.1176815032959 87.56894683837891 19.1981086730957 84.25197601318359 14.97306823730469 80.02693176269531 C 10.74802875518799 75.80189514160156 7.431055068969727 70.88231658935547 5.11428165435791 65.40485382080078 C 2.716028451919556 59.73471832275391 1.500001788139343 53.71067810058594 1.500001788139343 47.50006484985352 C 1.500001788139343 41.28932189941406 2.716028451919556 35.26528167724609 5.11428165435791 29.59514617919922 C 7.431055068969727 24.11767959594727 10.74802875518799 19.19810676574707 14.97306823730469 14.97306632995605 C 19.1981086730957 10.74802684783936 24.1176815032959 7.431053161621094 29.59514808654785 5.114280223846436 C 35.26528167724609 2.716026782989502 41.28932189941406 1.5 47.49993515014648 1.5 C 53.71054840087891 1.5 59.73458862304688 2.716026782989502 65.40472412109375 5.114280223846436 C 70.88218688964844 7.431053161621094 75.80176544189453 10.74802684783936 80.02680206298828 14.97306632995605 C 84.25183868408203 19.19810676574707 87.56881713867188 24.11767959594727 89.88558959960938 29.59514617919922 C 92.28384399414062 35.26528167724609 93.49987030029297 41.28932189941406 93.49987030029297 47.49993515014648 C 93.49987030029297 53.71067810058594 92.28384399414062 59.73471832275391 89.88558959960938 65.40485382080078 C 87.56881713867188 70.88231658935547 84.25183868408203 75.80189514160156 80.02680206298828 80.02693176269531 C 75.80176544189453 84.25197601318359 70.88218688964844 87.56894683837891 65.40472412109375 89.88571929931641 C 59.73458862304688 92.28397369384766 53.71054840087891 93.5 47.49993515014648 93.5 Z" stroke="none"/>
                <path d="M 47.49993515014648 3 C 41.49116516113281 3 35.66371917724609 4.176155090332031 30.17947387695312 6.495796203613281 C 24.88081359863281 8.7369384765625 20.12149047851562 11.94596862792969 16.03372192382812 16.03372192382812 C 11.94596862792969 20.12149047851562 8.7369384765625 24.88081359863281 6.495796203613281 30.17947387695312 C 4.1761474609375 35.66372299194336 3 41.49116897583008 3 47.50006103515625 C 3 53.50883102416992 4.1761474609375 59.33627700805664 6.495796203613281 64.82052612304688 C 8.7369384765625 70.11918640136719 11.94596862792969 74.87850952148438 16.03372192382812 78.96627807617188 C 20.12149047851562 83.05403137207031 24.88081359863281 86.2630615234375 30.17947387695312 88.50419616699219 C 35.66371917724609 90.82384490966797 41.49116516113281 92 47.49993515014648 92 C 53.50870513916016 92 59.33615112304688 90.82384490966797 64.82039642333984 88.50419616699219 C 70.11905670166016 86.2630615234375 74.87837982177734 83.05403137207031 78.96614837646484 78.96627807617188 C 83.05390167236328 74.87850952148438 86.26293182373047 70.11918640136719 88.50407409667969 64.82052612304688 C 90.82372283935547 59.33627700805664 91.99987030029297 53.50883102416992 91.99987030029297 47.49993896484375 C 91.99987030029297 41.49116897583008 90.82372283935547 35.66372299194336 88.50407409667969 30.17947387695312 C 86.26293182373047 24.88081359863281 83.05390167236328 20.12149047851562 78.96614837646484 16.03372192382812 C 74.87837982177734 11.94596862792969 70.11905670166016 8.7369384765625 64.82039642333984 6.495796203613281 C 59.33615112304688 4.176155090332031 53.50870513916016 3 47.49993515014648 3 M 47.49993515014648 0 C 73.73342895507812 0 94.99987030029297 21.26644897460938 94.99987030029297 47.49993896484375 L 94.99987030029297 47.50006103515625 C 94.99987030029297 73.73355102539062 73.73342895507812 95 47.49993515014648 95 C 21.26644134521484 95 0 73.73355102539062 0 47.50006103515625 L 0 47.49993896484375 C 0 21.26644897460938 21.26644134521484 0 47.49993515014648 0 Z" stroke="none" fill="#fff"/>
              </g>
            </g>
            <g id="Rectángulo_400907" data-name="Rectángulo 400907" transform="translate(0 0)" fill="none" stroke="#fff" stroke-width="3">
              <rect width="95" height="95" rx="47.5" stroke="none"/>
              <rect x="1.5" y="1.5" width="92" height="92" rx="46" fill="none"/>
            </g>
          </g>
        </g>
      </g>
    </g>
    <g id="Filled_outline" data-name="Filled outline" transform="translate(964.825 2444.436)">
      <path id="Trazado_903393" data-name="Trazado 903393" d="M232.168,24.615A2.1,2.1,0,0,0,230.684,24h-.24a2.1,2.1,0,0,0-1.484.615l-2.813,2.813a2.1,2.1,0,0,0-.6,1.275l-.816,8.16a2.1,2.1,0,0,0,.6,1.693l5.4,5.4,2.8-3.133-4.576-4.514.618-6.37,1.484-1.484a2.1,2.1,0,0,0,2.968,2.968l.989-.989a2.1,2.1,0,0,0,0-2.968Z" transform="translate(-182.902 -7.011)" fill="#fa9f0c"/>
      <path id="Trazado_903394" data-name="Trazado 903394" d="M347.445,203.208,344.6,200.36a2.1,2.1,0,0,0-2.968,0l-.989.989a2.1,2.1,0,1,0,2.968,2.968l-1.484,1.484-6.37.618-3.94-4-3.5,2.432,5.195,5.195a2.1,2.1,0,0,0,1.693.6l8.159-.816a2.1,2.1,0,0,0,1.275-.6l2.813-2.813a2.1,2.1,0,0,0,.615-1.484v-.24a2.1,2.1,0,0,0-.615-1.484Z" transform="translate(-273.682 -161.019)" fill="#fa9f0c"/>
      <path id="Trazado_903395" data-name="Trazado 903395" d="M280.993,63.831l-3.853,3.853a20.987,20.987,0,0,1-16.926,6.042l-4.947-4.947q-.069-.692-.092-1.383a20.982,20.982,0,0,1,6.133-15.543L265.162,48l13.074,13.074Z" transform="translate(-209.584 -28.042)" fill="#ffb531"/>
      <path id="Trazado_903396" data-name="Trazado 903396" d="M0,0H20.99V7H0Z" transform="translate(30.836 55.576) rotate(-45)" fill="#fa9f0c"/>
      <path id="Trazado_903397" data-name="Trazado 903397" d="M93.1,335.207a4.186,4.186,0,0,1-1.229,2.968l-.989.989-4.512-4.512L80,328.281l.989-.989a4.2,4.2,0,0,1,5.937,0l4.947,4.947a.282.282,0,0,1,.026.028A4.182,4.182,0,0,1,93.1,335.207Z" transform="translate(-56.085 -271.713)" fill="#ffb531"/>
      <path id="Trazado_903398" data-name="Trazado 903398" d="M43.789,342.842l-4.947,4.947L24,332.947,28.947,328l10.77,10.77Z" transform="translate(-7.011 -273.411)" fill="#92563a"/>
      <path id="Trazado_903399" data-name="Trazado 903399" d="M171.138,287.012,168,283.874,179.873,272l3.138,3.138a3.958,3.958,0,0,1,0,5.6l-6.276,6.276A3.958,3.958,0,0,1,171.138,287.012Z" transform="translate(-133.201 -224.337)" fill="#feb784"/>
      <path id="Trazado_903400" data-name="Trazado 903400" d="M124.573,216.7l5.527,5.527a2.389,2.389,0,0,1,0,3.378l-8.5,8.5a2.389,2.389,0,0,1-3.378,0l-5.527-5.527a2.389,2.389,0,0,1,0-3.378l8.5-8.5a2.389,2.389,0,0,1,3.378,0Z" transform="translate(-84.127 -175.264)" fill="#fec9a3"/>
      <path id="Trazado_903401" data-name="Trazado 903401" d="M205.937,256,200,261.937l.445.445a4.352,4.352,0,0,0,5.491.544,4.352,4.352,0,0,0,.544,5.491l1.435,1.435,3.138-3.138a3.958,3.958,0,0,0,0-5.6Z" transform="translate(-161.243 -210.316)" fill="#ffd5b8"/>
      <path id="Trazado_903402" data-name="Trazado 903402" d="M288.736,382.842H268.947L264,377.895,273.895,368Z" transform="translate(-217.327 -308.464)" fill="#4d5e78"/>
      <path id="Trazado_903403" data-name="Trazado 903403" d="M0,0H13.993V7H0Z" transform="translate(41.718 64.482) rotate(-45)" fill="#e0e0de"/>
      <path id="Trazado_903404" data-name="Trazado 903404" d="M128,27.958A6.258,6.258,0,0,0,131.958,24a6.258,6.258,0,0,0,3.958,3.958,6.258,6.258,0,0,0-3.958,3.958A6.258,6.258,0,0,0,128,27.958Z" transform="translate(-98.148 -7.011)" fill="#ffb531"/>
      <path id="Trazado_903405" data-name="Trazado 903405" d="M119.8,419.152l-4.947,4.947-4.114-4.114,4.989-4.905Z" transform="translate(-83.023 -349.721)" fill="#804a32"/>
      <path id="Trazado_903406" data-name="Trazado 903406" d="M281.077,156.467l-3.853,3.853a20.987,20.987,0,0,1-16.926,6.042l-4.947-4.947q-.069-.692-.092-1.383a58.711,58.711,0,0,0,23.061-6.321Z" transform="translate(-209.668 -120.678)" fill="#fcac1f"/>
      <path id="Trazado_903407" data-name="Trazado 903407" d="M138.251,379.17a4.186,4.186,0,0,1-1.229,2.968l-.989.989-4.512-4.512q2.785-1.054,5.527-2.386a4.182,4.182,0,0,1,1.2,2.94Z" transform="translate(-101.232 -315.676)" fill="#fcac1f"/>
      <path id="Trazado_903408" data-name="Trazado 903408" d="M300.724,464.935H280.935l-3.255-3.255h19.789Z" transform="translate(-229.315 -390.557)" fill="#485870"/>
      <path id="Trazado_903409" data-name="Trazado 903409" d="M319.792,90.45c.125-.134.254-.267.383-.4L321.229,89l-1.4-1.4-1.054,1.054c-.145.145-.289.294-.43.445Z" transform="translate(-264.951 -62.744)"/>
      <path id="Trazado_903410" data-name="Trazado 903410" d="M280.009,120.757l1.967.215a15.969,15.969,0,0,1,3.091-7.832l-1.583-1.186a17.945,17.945,0,0,0-3.474,8.8Z" transform="translate(-231.356 -84.086)"/>
      <path id="Trazado_903411" data-name="Trazado 903411" d="M74.463,41.489l-2.848-2.848a3.07,3.07,0,0,0-.993-.665l1.487-1.487a.989.989,0,0,0,0-1.4L56.278,19.258l-1.4,1.4L70.01,35.789l-3.153,3.153a19.918,19.918,0,0,1-15.78,5.789L46.636,40.29a19.918,19.918,0,0,1,5.788-15.78l.39-.389.031-.031h0a3.087,3.087,0,0,0-.03-4.336L49.966,16.9a3.068,3.068,0,0,0-2.184-.9h-.24a3.068,3.068,0,0,0-2.184.9l-2.813,2.813a3.1,3.1,0,0,0-.889,1.877l-.816,8.159a3.077,3.077,0,0,0,.889,2.491l3.1,3.1a22.049,22.049,0,0,0-.175,5.014l-1.943,1.943-1.569-1.569a3.378,3.378,0,0,0-4.778,0l-8.495,8.495a3.38,3.38,0,0,0-.493,4.154A5.164,5.164,0,0,0,24.2,54.879l-.989.989a.989.989,0,0,0,0,1.4L35.379,69.431l-3.548,3.548L18.389,59.536l3.547-3.547-1.4-1.4L16.29,58.836a.989.989,0,0,0,0,1.4L31.131,75.078a.989.989,0,0,0,1.4,0l4.947-4.947a.989.989,0,0,0,0-1.4L36.2,67.452l.29-.29a5.164,5.164,0,0,0,1.494-3.177,4.942,4.942,0,0,0,2.754.835h.06a.983.983,0,0,0,.23.364L51.91,76.067l1.4-1.4-5.237-5.237,8.5-8.5L71.7,76.067l1.4-1.4L52.32,53.889a.984.984,0,0,0-.362-.229c0-.02,0-.04,0-.06a4.91,4.91,0,0,0-1.1-3.11s-1.8-1.837-1.8-1.837L51,46.709q.872.069,1.74.069a21.991,21.991,0,0,0,3.2-.234l3.182,3.181a3.075,3.075,0,0,0,2.18.9q.155,0,.311-.015l8.159-.816a3.1,3.1,0,0,0,1.876-.889L74.463,46.1a3.068,3.068,0,0,0,.9-2.183v-.24a3.069,3.069,0,0,0-.9-2.184ZM47.139,28.364l.316-3.256,0,0a3.069,3.069,0,0,0,1.232.753,21.923,21.923,0,0,0-1.55,2.5Zm-4.011,2.482a1.105,1.105,0,0,1-.319-.895l.816-8.159a1.113,1.113,0,0,1,.319-.674L46.758,18.3a1.1,1.1,0,0,1,.784-.325h.24a1.1,1.1,0,0,1,.785.325l2.848,2.848a1.109,1.109,0,0,1,0,1.569l-.989.989a1.109,1.109,0,0,1-1.569-1.569.989.989,0,0,0-1.4-1.4l-1.484,1.484a.989.989,0,0,0-.285.6L45.07,29.2a.989.989,0,0,0,.3.809l.7.678a21.828,21.828,0,0,0-.761,2.343Zm6.186,20.879v0a2.974,2.974,0,0,1,0,3.745v0a2.993,2.993,0,0,1-.2.224l-2.439,2.439-.736-.736a3.371,3.371,0,0,1-.421-4.242.989.989,0,0,0-1.372-1.372,3.373,3.373,0,0,1-3.975-.18l4.524-4.524L49.111,51.5a2.993,2.993,0,0,1,.2.225Zm-20.346-.64a1.392,1.392,0,0,1,.3-.454l8.495-8.495a1.4,1.4,0,0,1,1.98,0l3.547,3.548-1.569,1.569-3.258-3.258-1.4,1.4,3.258,3.258-1.569,1.569L35.5,46.963l-1.4,1.4,6.227,6.227-1.569,1.569-6.227-6.227-1.4,1.4,6.227,6.227-.58.579a1.4,1.4,0,0,1-1.466.327l-.038-.014-.021-.009a1.392,1.392,0,0,1-.453-.3l-3.258-3.258L29.273,52.61a1.4,1.4,0,0,1-.3-1.525Zm-3.654,5.483.29-.29a3.208,3.208,0,0,1,4.537,0l4.947,4.947a3.208,3.208,0,0,1,0,4.537l-.29.29Zm11.66,3.744a3.37,3.37,0,0,0,1.2-.776l4.809-4.81a5.346,5.346,0,0,0,1.55,4.075l.736.736-2.438,2.438a2.968,2.968,0,0,1-4.2,0Zm18.194-.776-8.5,8.5-3.548-3.548,8.5-8.5ZM47.662,47.253,44.114,43.7l1.569-1.569,3.548,3.548ZM66.257,44l0,0-3.464.336a21.925,21.925,0,0,0,2.686-1.643,3.069,3.069,0,0,0,.776,1.3Zm7.131-.085a1.1,1.1,0,0,1-.325.785L70.25,47.511a1.111,1.111,0,0,1-.674.319l-8.159.816a1.106,1.106,0,0,1-.895-.319l-2.255-2.255a21.842,21.842,0,0,0,2.352-.754l.74.77a.988.988,0,0,0,.809.3l6.37-.618a.989.989,0,0,0,.6-.285L70.625,44a.989.989,0,0,0-1.4-1.4,1.109,1.109,0,1,1-1.569-1.569l.989-.989a1.109,1.109,0,0,1,1.569,0l2.848,2.848a1.1,1.1,0,0,1,.325.784Z" transform="translate(0 0)"/>
      <path id="Trazado_903412" data-name="Trazado 903412" d="M256,400h1.979v1.979H256Z" transform="translate(-210.316 -336.506)"/>
      <path id="Trazado_903413" data-name="Trazado 903413" d="M120.678,21.887a5.294,5.294,0,0,1,3.332,3.332.989.989,0,0,0,1.877,0,5.294,5.294,0,0,1,3.332-3.332.989.989,0,0,0,0-1.877,5.294,5.294,0,0,1-3.332-3.332.989.989,0,0,0-1.877,0,5.294,5.294,0,0,1-3.332,3.332.989.989,0,0,0,0,1.877Zm4.271-2.724a7.326,7.326,0,0,0,1.785,1.785,7.326,7.326,0,0,0-1.785,1.785,7.326,7.326,0,0,0-1.785-1.785,7.326,7.326,0,0,0,1.785-1.785Z" transform="translate(-91.138 -0.001)"/>
    </g>
  </g>
</svg>
