<svg xmlns="http://www.w3.org/2000/svg" xmlns:xlink="http://www.w3.org/1999/xlink" width="113" height="113" viewBox="0 0 113 113">
  <defs>
    <filter id="Trazado_896985" x="0" y="0" width="113" height="113" filterUnits="userSpaceOnUse">
      <feOffset dy="3" input="SourceAlpha"/>
      <feGaussianBlur stdDeviation="3" result="blur"/>
      <feFlood flood-opacity="0.161"/>
      <feComposite operator="in" in2="blur"/>
      <feComposite in="SourceGraphic"/>
    </filter>
  </defs>
  <g id="Grupo_1112381" data-name="Grupo 1112381" transform="translate(-533.5 -10185.337)">
    <g id="Grupo_1112373" data-name="Grupo 1112373" transform="translate(325 6422)">
      <g id="Grupo_1112154" data-name="Grupo 1112154" transform="translate(-119.295 -671.467)">
        <g id="Grupo_1111323" data-name="Grupo 1111323" transform="translate(-418.98 588.804)">
          <g id="Grupo_1109827" data-name="Grupo 1109827" transform="translate(755.775 3852)">
            <g id="Grupo_1098742" data-name="Grupo 1098742">
              <g transform="matrix(1, 0, 0, 1, -9, -6)" filter="url(#Trazado_896985)">
                <g id="Trazado_896985-2" data-name="Trazado 896985" transform="translate(9 6)" fill="#f3f0ea" opacity="0.859">
                  <path d="M 47.49993515014648 93.5 C 41.28932189941406 93.5 35.26528167724609 92.28397369384766 29.59514808654785 89.88571929931641 C 24.1176815032959 87.56894683837891 19.1981086730957 84.25197601318359 14.97306823730469 80.02693176269531 C 10.74802875518799 75.80189514160156 7.431055068969727 70.88231658935547 5.11428165435791 65.40485382080078 C 2.716028451919556 59.73471832275391 1.500001788139343 53.71067810058594 1.500001788139343 47.50006484985352 C 1.500001788139343 41.28932189941406 2.716028451919556 35.26528167724609 5.11428165435791 29.59514617919922 C 7.431055068969727 24.11767959594727 10.74802875518799 19.19810676574707 14.97306823730469 14.97306632995605 C 19.1981086730957 10.74802684783936 24.1176815032959 7.431053161621094 29.59514808654785 5.114280223846436 C 35.26528167724609 2.716026782989502 41.28932189941406 1.5 47.49993515014648 1.5 C 53.71054840087891 1.5 59.73458862304688 2.716026782989502 65.40472412109375 5.114280223846436 C 70.88218688964844 7.431053161621094 75.80176544189453 10.74802684783936 80.02680206298828 14.97306632995605 C 84.25183868408203 19.19810676574707 87.56881713867188 24.11767959594727 89.88558959960938 29.59514617919922 C 92.28384399414062 35.26528167724609 93.49987030029297 41.28932189941406 93.49987030029297 47.49993515014648 C 93.49987030029297 53.71067810058594 92.28384399414062 59.73471832275391 89.88558959960938 65.40485382080078 C 87.56881713867188 70.88231658935547 84.25183868408203 75.80189514160156 80.02680206298828 80.02693176269531 C 75.80176544189453 84.25197601318359 70.88218688964844 87.56894683837891 65.40472412109375 89.88571929931641 C 59.73458862304688 92.28397369384766 53.71054840087891 93.5 47.49993515014648 93.5 Z" stroke="none"/>
                  <path d="M 47.49993515014648 3 C 41.49116516113281 3 35.66371917724609 4.176155090332031 30.17947387695312 6.495796203613281 C 24.88081359863281 8.7369384765625 20.12149047851562 11.94596862792969 16.03372192382812 16.03372192382812 C 11.94596862792969 20.12149047851562 8.7369384765625 24.88081359863281 6.495796203613281 30.17947387695312 C 4.1761474609375 35.66372299194336 3 41.49116897583008 3 47.50006103515625 C 3 53.50883102416992 4.1761474609375 59.33627700805664 6.495796203613281 64.82052612304688 C 8.7369384765625 70.11918640136719 11.94596862792969 74.87850952148438 16.03372192382812 78.96627807617188 C 20.12149047851562 83.05403137207031 24.88081359863281 86.2630615234375 30.17947387695312 88.50419616699219 C 35.66371917724609 90.82384490966797 41.49116516113281 92 47.49993515014648 92 C 53.50870513916016 92 59.33615112304688 90.82384490966797 64.82039642333984 88.50419616699219 C 70.11905670166016 86.2630615234375 74.87837982177734 83.05403137207031 78.96614837646484 78.96627807617188 C 83.05390167236328 74.87850952148438 86.26293182373047 70.11918640136719 88.50407409667969 64.82052612304688 C 90.82372283935547 59.33627700805664 91.99987030029297 53.50883102416992 91.99987030029297 47.49993896484375 C 91.99987030029297 41.49116897583008 90.82372283935547 35.66372299194336 88.50407409667969 30.17947387695312 C 86.26293182373047 24.88081359863281 83.05390167236328 20.12149047851562 78.96614837646484 16.03372192382812 C 74.87837982177734 11.94596862792969 70.11905670166016 8.7369384765625 64.82039642333984 6.495796203613281 C 59.33615112304688 4.176155090332031 53.50870513916016 3 47.49993515014648 3 M 47.49993515014648 0 C 73.73342895507812 0 94.99987030029297 21.26644897460938 94.99987030029297 47.49993896484375 L 94.99987030029297 47.50006103515625 C 94.99987030029297 73.73355102539062 73.73342895507812 95 47.49993515014648 95 C 21.26644134521484 95 0 73.73355102539062 0 47.50006103515625 L 0 47.49993896484375 C 0 21.26644897460938 21.26644134521484 0 47.49993515014648 0 Z" stroke="none" fill="#fff"/>
                </g>
              </g>
              <g id="Rectángulo_400907" data-name="Rectángulo 400907" transform="translate(0 0)" fill="none" stroke="#fff" stroke-width="3">
                <rect width="95" height="95" rx="47.5" stroke="none"/>
                <rect x="1.5" y="1.5" width="92" height="92" rx="46" fill="none"/>
              </g>
            </g>
          </g>
        </g>
      </g>
    </g>
    <g id="empresario" transform="translate(560.001 10205.66)">
      <path id="Trazado_903515" data-name="Trazado 903515" d="M20,33l4,4,4-4,12.986,2.164A6,6,0,0,1,46,41.083V62H2V41.083a6,6,0,0,1,5.014-5.918Z" fill="#e39854"/>
      <path id="Trazado_903516" data-name="Trazado 903516" d="M61,62H33a1,1,0,0,1-1-1V41a1,1,0,0,1,1-1H61a1,1,0,0,1,1,1V61A1,1,0,0,1,61,62Z" fill="#606060"/>
      <path id="Trazado_903517" data-name="Trazado 903517" d="M32,57.625c.066,0,.13.01.2.01A19.463,19.463,0,0,0,51.57,40H33a1,1,0,0,0-1,1Z" fill="#8c8787"/>
      <path id="Trazado_903518" data-name="Trazado 903518" d="M62,44a6,6,0,0,1-6,6H38a6,6,0,0,1-6-6V41a1,1,0,0,1,1-1H61a1,1,0,0,1,1,1Z" fill="#d5cec2"/>
      <path id="Trazado_903519" data-name="Trazado 903519" d="M51.57,40H33a1,1,0,0,0-1,1v3a6,6,0,0,0,6,6h9.629A19.34,19.34,0,0,0,51.57,40Z" fill="#e7e4dd"/>
      <path id="Trazado_903520" data-name="Trazado 903520" d="M62,58v3a1,1,0,0,1-1,1H33a1,1,0,0,1-1-1V58Z" fill="#d5cec2"/>
      <path id="Trazado_903521" data-name="Trazado 903521" d="M22,35l-1,3,2,3h2l2-3-1-3" fill="#d5cec2"/>
      <path id="Trazado_903522" data-name="Trazado 903522" d="M31,11l-1.6,1.2a9,9,0,0,1-10.8,0L17,11l-2,4v6a8.989,8.989,0,0,0,5,8.053V33l4,4,4-4V29.053A8.992,8.992,0,0,0,33,21V15Z" fill="#fadfb2"/>
      <path id="Trazado_903523" data-name="Trazado 903523" d="M33,16l1.151-2.667a7.078,7.078,0,0,0-3.566-9.245L27.8,2.817a9.088,9.088,0,0,0-9.218,1l-1.723,1.3a5.229,5.229,0,0,0-3.57,7.449L15,16V15l2-4,1.6,1.2a9,9,0,0,0,10.8,0L31,11l2,4Z" fill="#c18e59"/>
      <path id="Trazado_903524" data-name="Trazado 903524" d="M15,16H13a2,2,0,0,0,0,4h2" fill="#efbe9a"/>
      <path id="Trazado_903525" data-name="Trazado 903525" d="M33,16h2a2,2,0,0,1,0,4H33" fill="#efbe9a"/>
      <g id="Grupo_1112379" data-name="Grupo 1112379">
        <path id="Trazado_903526" data-name="Trazado 903526" d="M11,44h2V62H11Z" fill="#c16b3f"/>
      </g>
      <path id="Trazado_903527" data-name="Trazado 903527" d="M25,41l2,5L24,59,21,46l2-5" fill="#e7e4dd"/>
      <path id="Trazado_903528" data-name="Trazado 903528" d="M47,54a2,2,0,0,1-2-2V46h4v6A2,2,0,0,1,47,54Z" fill="#f2c351"/>
      <g id="Grupo_1112380" data-name="Grupo 1112380">
        <path id="Trazado_903529" data-name="Trazado 903529" d="M53,40V36a1,1,0,0,0-1-1H42a1,1,0,0,0-1,1v4H39V36a3,3,0,0,1,3-3H52a3,3,0,0,1,3,3v4Z" fill="#8c8787"/>
      </g>
      <path id="Trazado_903530" data-name="Trazado 903530" d="M49,47.962V46H45v6a2,2,0,0,0,.129.689A19.524,19.524,0,0,0,49,47.962Z" fill="#f7d881"/>
      <path id="Trazado_903531" data-name="Trazado 903531" d="M61,39H55V36a3,3,0,0,0-3-3H42a2.983,2.983,0,0,0-2.182.955L29,32.152V29.646A10,10,0,0,0,34,21h1a3,3,0,0,0,0-6h-.48l.548-1.271A8.078,8.078,0,0,0,31,3.178L28.207,1.907a10.251,10.251,0,0,0-10.231,1.11L16.4,4.2l0,0a6.221,6.221,0,0,0-4.013,8.811L13.382,15H13a3,3,0,0,0,0,6h1a10,10,0,0,0,5,8.647v2.506L6.849,34.177A6.978,6.978,0,0,0,1,41.082V62a1,1,0,0,0,1,1H61a2,2,0,0,0,2-2V41A2,2,0,0,0,61,39Zm0,5a5.006,5.006,0,0,1-5,5H50V46a1,1,0,0,0-1-1H45a1,1,0,0,0-1,1v3H38A5.005,5.005,0,0,1,33,44V41H61ZM33,48.888A6.977,6.977,0,0,0,38,51h6v1a3,3,0,0,0,6,0V51h6a6.978,6.978,0,0,0,5-2.111V57H33ZM46,52V47h2v5a1,1,0,0,1-1,1h0A1,1,0,0,1,46,52ZM41,36.195A5,5,0,0,1,44.53,39H41ZM53,36v3H46.669a7,7,0,0,0-3.238-4H52A1,1,0,0,1,53,36ZM36,18a1,1,0,0,1-1,1H34V17h1A1,1,0,0,1,36,18ZM14.334,8.053A4.248,4.248,0,0,1,17.96,6a4.671,4.671,0,0,1,3.893,2.083l.314.471,1.665-1.109-.314-.471a6.662,6.662,0,0,0-3.772-2.725,8.227,8.227,0,0,1,7.634-.523L30.171,5a6.08,6.08,0,0,1,3.062,7.939l-.068.158-1.27-2.541a1,1,0,0,0-.665-.526,1.013,1.013,0,0,0-.83.173l-1.6,1.2a8,8,0,0,1-9.6,0l-1.6-1.2a1.012,1.012,0,0,0-.83-.173,1,1,0,0,0-.665.526l-1.356,2.711-.572-1.144a4.207,4.207,0,0,1,.157-4.066ZM13,19a1,1,0,0,1,0-2h1v2Zm3,2V15.236l1.358-2.717L18,13a10,10,0,0,0,12,0l.641-.481L32,15.236V21a8,8,0,0,1-16,0Zm8,10a9.986,9.986,0,0,0,3-.461v2.047l-3,3-3-3V30.539A9.986,9.986,0,0,0,24,31Zm-.323,11h.646l1.633,4.08L24,54.552l-1.956-8.473ZM25.9,37.852,24.464,40h-.929L22.1,37.852l.333-1,.856.856a1,1,0,0,0,1.415,0l.856-.856ZM13,61V44H11V61H3V41.082A4.985,4.985,0,0,1,7.177,36.15l12.479-2.079,1.2,1.2-.8,2.413a1,1,0,0,0,.116.871l1.708,2.562-1.8,4.51a1,1,0,0,0-.046.6l3,13a1,1,0,0,0,1.949,0l3-13a1,1,0,0,0-.046-.6l-1.8-4.51,1.708-2.562a1,1,0,0,0,.116-.871l-.8-2.413,1.2-1.2,10.672,1.778c0,.051-.015.1-.015.151v3H33a2,2,0,0,0-2,2V61Zm21,0H33V59H61v2Z"/>
    </g>
  </g>
</svg>
