<svg xmlns="http://www.w3.org/2000/svg" xmlns:xlink="http://www.w3.org/1999/xlink" width="113" height="113" viewBox="0 0 113 113">
  <defs>
    <filter id="Trazado_896985" x="0" y="0" width="113" height="113" filterUnits="userSpaceOnUse">
      <feOffset dy="3" input="SourceAlpha"/>
      <feGaussianBlur stdDeviation="3" result="blur"/>
      <feFlood flood-opacity="0.161"/>
      <feComposite operator="in" in2="blur"/>
      <feComposite in="SourceGraphic"/>
    </filter>
  </defs>
  <g id="Grupo_1112364" data-name="Grupo 1112364" transform="translate(-839 -5304)">
    <g id="Grupo_1112171" data-name="Grupo 1112171" transform="translate(511.205 869.196)">
      <g id="Grupo_1111323" data-name="Grupo 1111323" transform="translate(-418.98 588.804)">
        <g id="Grupo_1109827" data-name="Grupo 1109827" transform="translate(755.775 3852)">
          <g id="Grupo_1098742" data-name="Grupo 1098742">
            <g transform="matrix(1, 0, 0, 1, -9, -6)" filter="url(#Trazado_896985)">
              <g id="Trazado_896985-2" data-name="Trazado 896985" transform="translate(9 6)" fill="#f3f0ea" opacity="0.859">
                <path d="M 47.49993515014648 93.5 C 41.28932189941406 93.5 35.26528167724609 92.28397369384766 29.59514808654785 89.88571929931641 C 24.1176815032959 87.56894683837891 19.1981086730957 84.25197601318359 14.97306823730469 80.02693176269531 C 10.74802875518799 75.80189514160156 7.431055068969727 70.88231658935547 5.11428165435791 65.40485382080078 C 2.716028451919556 59.73471832275391 1.500001788139343 53.71067810058594 1.500001788139343 47.50006484985352 C 1.500001788139343 41.28932189941406 2.716028451919556 35.26528167724609 5.11428165435791 29.59514617919922 C 7.431055068969727 24.11767959594727 10.74802875518799 19.19810676574707 14.97306823730469 14.97306632995605 C 19.1981086730957 10.74802684783936 24.1176815032959 7.431053161621094 29.59514808654785 5.114280223846436 C 35.26528167724609 2.716026782989502 41.28932189941406 1.5 47.49993515014648 1.5 C 53.71054840087891 1.5 59.73458862304688 2.716026782989502 65.40472412109375 5.114280223846436 C 70.88218688964844 7.431053161621094 75.80176544189453 10.74802684783936 80.02680206298828 14.97306632995605 C 84.25183868408203 19.19810676574707 87.56881713867188 24.11767959594727 89.88558959960938 29.59514617919922 C 92.28384399414062 35.26528167724609 93.49987030029297 41.28932189941406 93.49987030029297 47.49993515014648 C 93.49987030029297 53.71067810058594 92.28384399414062 59.73471832275391 89.88558959960938 65.40485382080078 C 87.56881713867188 70.88231658935547 84.25183868408203 75.80189514160156 80.02680206298828 80.02693176269531 C 75.80176544189453 84.25197601318359 70.88218688964844 87.56894683837891 65.40472412109375 89.88571929931641 C 59.73458862304688 92.28397369384766 53.71054840087891 93.5 47.49993515014648 93.5 Z" stroke="none"/>
                <path d="M 47.49993515014648 3 C 41.49116516113281 3 35.66371917724609 4.176155090332031 30.17947387695312 6.495796203613281 C 24.88081359863281 8.7369384765625 20.12149047851562 11.94596862792969 16.03372192382812 16.03372192382812 C 11.94596862792969 20.12149047851562 8.7369384765625 24.88081359863281 6.495796203613281 30.17947387695312 C 4.1761474609375 35.66372299194336 3 41.49116897583008 3 47.50006103515625 C 3 53.50883102416992 4.1761474609375 59.33627700805664 6.495796203613281 64.82052612304688 C 8.7369384765625 70.11918640136719 11.94596862792969 74.87850952148438 16.03372192382812 78.96627807617188 C 20.12149047851562 83.05403137207031 24.88081359863281 86.2630615234375 30.17947387695312 88.50419616699219 C 35.66371917724609 90.82384490966797 41.49116516113281 92 47.49993515014648 92 C 53.50870513916016 92 59.33615112304688 90.82384490966797 64.82039642333984 88.50419616699219 C 70.11905670166016 86.2630615234375 74.87837982177734 83.05403137207031 78.96614837646484 78.96627807617188 C 83.05390167236328 74.87850952148438 86.26293182373047 70.11918640136719 88.50407409667969 64.82052612304688 C 90.82372283935547 59.33627700805664 91.99987030029297 53.50883102416992 91.99987030029297 47.49993896484375 C 91.99987030029297 41.49116897583008 90.82372283935547 35.66372299194336 88.50407409667969 30.17947387695312 C 86.26293182373047 24.88081359863281 83.05390167236328 20.12149047851562 78.96614837646484 16.03372192382812 C 74.87837982177734 11.94596862792969 70.11905670166016 8.7369384765625 64.82039642333984 6.495796203613281 C 59.33615112304688 4.176155090332031 53.50870513916016 3 47.49993515014648 3 M 47.49993515014648 0 C 73.73342895507812 0 94.99987030029297 21.26644897460938 94.99987030029297 47.49993896484375 L 94.99987030029297 47.50006103515625 C 94.99987030029297 73.73355102539062 73.73342895507812 95 47.49993515014648 95 C 21.26644134521484 95 0 73.73355102539062 0 47.50006103515625 L 0 47.49993896484375 C 0 21.26644897460938 21.26644134521484 0 47.49993515014648 0 Z" stroke="none" fill="#fff"/>
              </g>
            </g>
            <g id="Rectángulo_400907" data-name="Rectángulo 400907" transform="translate(0 0)" fill="none" stroke="#fff" stroke-width="3">
              <rect width="95" height="95" rx="47.5" stroke="none"/>
              <rect x="1.5" y="1.5" width="92" height="92" rx="46" fill="none"/>
            </g>
          </g>
        </g>
      </g>
    </g>
    <g id="autobus" transform="translate(869 5332)">
      <g id="Grupo_1112362" data-name="Grupo 1112362" transform="translate(1.019 10.696)">
        <path id="Trazado_903449" data-name="Trazado 903449" d="M106.022,440.034h0a2.854,2.854,0,0,1-2.854-2.854V433h5.709v4.18A2.854,2.854,0,0,1,106.022,440.034Z" transform="translate(-93.67 -399.554)" fill="#898998"/>
        <path id="Trazado_903450" data-name="Trazado 903450" d="M355.94,440.034h0a2.854,2.854,0,0,1-2.854-2.854V433h5.709v4.18A2.854,2.854,0,0,1,355.94,440.034Z" transform="translate(-318.111 -399.554)" fill="#898998"/>
        <path id="Trazado_903451" data-name="Trazado 903451" d="M464.039,112.809h0A2.039,2.039,0,0,1,462,110.77v-3.81a2.039,2.039,0,0,1,2.039-2.039h0a2.039,2.039,0,0,1,2.039,2.039v3.81A2.039,2.039,0,0,1,464.039,112.809Z" transform="translate(-415.921 -104.922)" fill="#898998"/>
        <path id="Trazado_903452" data-name="Trazado 903452" d="M12.039,112.809h0a2.039,2.039,0,0,0,2.039-2.039v-3.81a2.039,2.039,0,0,0-2.039-2.039h0A2.039,2.039,0,0,0,10,106.961v3.81A2.039,2.039,0,0,0,12.039,112.809Z" transform="translate(-10 -104.922)" fill="#898998"/>
      </g>
      <path id="Trazado_903453" data-name="Trazado 903453" d="M107.143,10H78.209a4.078,4.078,0,0,0-4.078,4.078V49.044a4.078,4.078,0,0,0,4.078,4.078h28.935a4.078,4.078,0,0,0,4.078-4.078V14.078A4.078,4.078,0,0,0,107.143,10Z" transform="translate(-66.574 -8.981)" fill="#ff5d5d"/>
      <path id="Trazado_903454" data-name="Trazado 903454" d="M111.108,107.772l-4.325,4.325H78.325L74,107.772V90h37.1Z" transform="translate(-66.456 -80.825)" fill="#c9f3ff"/>
      <g id="Grupo_1112363" data-name="Grupo 1112363" transform="translate(12.237 35.668)">
        <circle id="Elipse_14067" data-name="Elipse 14067" cx="2.039" cy="2.039" r="2.039" fill="#fff"/>
        <circle id="Elipse_14068" data-name="Elipse 14068" cx="2.039" cy="2.039" r="2.039" transform="translate(23.643)" fill="#fff"/>
      </g>
      <rect id="Rectángulo_405309" data-name="Rectángulo 405309" width="10.602" height="4.078" transform="translate(20.805 35.668)" fill="#ffc66c"/>
      <rect id="Rectángulo_405310" data-name="Rectángulo 405310" width="13.415" height="4.128" transform="translate(19.174 4.728)" fill="#fff"/>
      <path id="Trazado_903455" data-name="Trazado 903455" d="M248.6,2.039a1.02,1.02,0,0,0,1.019-1.019,1.019,1.019,0,1,0-1.74.721A1.027,1.027,0,0,0,248.6,2.039Z" transform="translate(-222.341)"/>
      <path id="Trazado_903456" data-name="Trazado 903456" d="M50.156,9.852V6.982a2.807,2.807,0,0,0-2.8-2.8h-1.77A5.1,5.1,0,0,0,40.57,0H30.617a1.019,1.019,0,0,0,0,2.039H40.57A3.062,3.062,0,0,1,43.628,5.1V8.156H33.845V5.1a1.019,1.019,0,0,0-1.019-1.019H19.369A1.019,1.019,0,0,0,18.35,5.1V8.156H8.577V5.1a3.062,3.062,0,0,1,3.058-3.058H21.867a1.019,1.019,0,1,0,0-2.039H11.635A5.1,5.1,0,0,0,6.622,4.178H4.843a2.807,2.807,0,0,0-2.8,2.8v2.87A3.063,3.063,0,0,0,0,12.735v3.81a3.058,3.058,0,0,0,6.117,0v-3.81A3.063,3.063,0,0,0,4.078,9.852V6.982a.766.766,0,0,1,.765-.765H6.538V40.064A5.1,5.1,0,0,0,9.5,44.69v3.632a3.874,3.874,0,1,0,7.748,0v-3.16h17.73v3.16a3.874,3.874,0,1,0,7.748,0V44.682a5.1,5.1,0,0,0,2.944-4.618V6.217h1.685a.766.766,0,0,1,.765.765v2.87a3.063,3.063,0,0,0-2.039,2.883v3.81a3.058,3.058,0,0,0,6.117,0v-3.81A3.063,3.063,0,0,0,50.156,9.852ZM4.078,16.545a1.019,1.019,0,1,1-2.039,0v-3.81a1.019,1.019,0,0,1,2.039,0Zm16.646,7.371a1.02,1.02,0,0,0-1.442,0l-6.337,6.337h-.653L9.139,27.1l15.94-15.94V30.253h-9.25l4.9-4.9A1.019,1.019,0,0,0,20.723,23.916ZM33.3,10.194,30.124,13.37a1.019,1.019,0,1,0,1.442,1.442l4.617-4.617h6L27.117,25.258V10.194ZM27.117,28.141l16.51-16.51v14.9L39.9,30.253H27.117ZM20.389,6.117H31.806V8.156H20.389Zm2.772,4.078L8.577,24.778V10.194ZM15.207,48.321a1.835,1.835,0,1,1-3.67,0v-3.16h3.67Zm25.478-3.16v3.16a1.835,1.835,0,0,1-3.67,0v-3.16h3.67Zm-.115-2.039H11.635a3.062,3.062,0,0,1-3.058-3.058V29.421l2.572,2.572a1.02,1.02,0,0,0,.721.3H40.326a1.02,1.02,0,0,0,.721-.3l2.581-2.581V40.064A3.062,3.062,0,0,1,40.57,43.122Zm9.587-26.578a1.019,1.019,0,1,1-2.039,0v-3.81a1.019,1.019,0,0,1,2.039,0Z"/>
      <path id="Trazado_903457" data-name="Trazado 903457" d="M113.1,339.88a3.058,3.058,0,1,0,3.058,3.058A3.062,3.062,0,0,0,113.1,339.88Zm0,4.078a1.019,1.019,0,1,1,1.019-1.019A1.021,1.021,0,0,1,113.1,343.958Z" transform="translate(-98.826 -305.231)"/>
      <path id="Trazado_903458" data-name="Trazado 903458" d="M345.014,339.88a3.058,3.058,0,1,0,3.058,3.058A3.062,3.062,0,0,0,345.014,339.88Zm0,4.078a1.019,1.019,0,1,1,1.019-1.019A1.021,1.021,0,0,1,345.014,343.958Z" transform="translate(-307.096 -305.231)"/>
      <path id="Trazado_903459" data-name="Trazado 903459" d="M205.7,339.88H195.1a1.019,1.019,0,0,0-1.019,1.019v4.078A1.02,1.02,0,0,0,195.1,346h10.6a1.019,1.019,0,0,0,1.019-1.019V340.9A1.019,1.019,0,0,0,205.7,339.88Zm-1.019,4.078h-8.563v-2.039h8.563Z" transform="translate(-174.297 -305.231)"/>
    </g>
  </g>
</svg>
