<svg xmlns="http://www.w3.org/2000/svg" xmlns:xlink="http://www.w3.org/1999/xlink" width="113" height="113" viewBox="0 0 113 113">
  <defs>
    <filter id="Trazado_896985" x="0" y="0" width="113" height="113" filterUnits="userSpaceOnUse">
      <feOffset dy="3" input="SourceAlpha"/>
      <feGaussianBlur stdDeviation="3" result="blur"/>
      <feFlood flood-opacity="0.161"/>
      <feComposite operator="in" in2="blur"/>
      <feComposite in="SourceGraphic"/>
    </filter>
  </defs>
  <g id="Grupo_1112382" data-name="Grupo 1112382" transform="translate(-953.5 -10185.337)">
    <g id="Grupo_1112374" data-name="Grupo 1112374" transform="translate(745 6422)">
      <g id="Grupo_1112154" data-name="Grupo 1112154" transform="translate(-119.295 -671.467)">
        <g id="Grupo_1111323" data-name="Grupo 1111323" transform="translate(-418.98 588.804)">
          <g id="Grupo_1109827" data-name="Grupo 1109827" transform="translate(755.775 3852)">
            <g id="Grupo_1098742" data-name="Grupo 1098742">
              <g transform="matrix(1, 0, 0, 1, -9, -6)" filter="url(#Trazado_896985)">
                <g id="Trazado_896985-2" data-name="Trazado 896985" transform="translate(9 6)" fill="#f3f0ea" opacity="0.859">
                  <path d="M 47.49993515014648 93.5 C 41.28932189941406 93.5 35.26528167724609 92.28397369384766 29.59514808654785 89.88571929931641 C 24.1176815032959 87.56894683837891 19.1981086730957 84.25197601318359 14.97306823730469 80.02693176269531 C 10.74802875518799 75.80189514160156 7.431055068969727 70.88231658935547 5.11428165435791 65.40485382080078 C 2.716028451919556 59.73471832275391 1.500001788139343 53.71067810058594 1.500001788139343 47.50006484985352 C 1.500001788139343 41.28932189941406 2.716028451919556 35.26528167724609 5.11428165435791 29.59514617919922 C 7.431055068969727 24.11767959594727 10.74802875518799 19.19810676574707 14.97306823730469 14.97306632995605 C 19.1981086730957 10.74802684783936 24.1176815032959 7.431053161621094 29.59514808654785 5.114280223846436 C 35.26528167724609 2.716026782989502 41.28932189941406 1.5 47.49993515014648 1.5 C 53.71054840087891 1.5 59.73458862304688 2.716026782989502 65.40472412109375 5.114280223846436 C 70.88218688964844 7.431053161621094 75.80176544189453 10.74802684783936 80.02680206298828 14.97306632995605 C 84.25183868408203 19.19810676574707 87.56881713867188 24.11767959594727 89.88558959960938 29.59514617919922 C 92.28384399414062 35.26528167724609 93.49987030029297 41.28932189941406 93.49987030029297 47.49993515014648 C 93.49987030029297 53.71067810058594 92.28384399414062 59.73471832275391 89.88558959960938 65.40485382080078 C 87.56881713867188 70.88231658935547 84.25183868408203 75.80189514160156 80.02680206298828 80.02693176269531 C 75.80176544189453 84.25197601318359 70.88218688964844 87.56894683837891 65.40472412109375 89.88571929931641 C 59.73458862304688 92.28397369384766 53.71054840087891 93.5 47.49993515014648 93.5 Z" stroke="none"/>
                  <path d="M 47.49993515014648 3 C 41.49116516113281 3 35.66371917724609 4.176155090332031 30.17947387695312 6.495796203613281 C 24.88081359863281 8.7369384765625 20.12149047851562 11.94596862792969 16.03372192382812 16.03372192382812 C 11.94596862792969 20.12149047851562 8.7369384765625 24.88081359863281 6.495796203613281 30.17947387695312 C 4.1761474609375 35.66372299194336 3 41.49116897583008 3 47.50006103515625 C 3 53.50883102416992 4.1761474609375 59.33627700805664 6.495796203613281 64.82052612304688 C 8.7369384765625 70.11918640136719 11.94596862792969 74.87850952148438 16.03372192382812 78.96627807617188 C 20.12149047851562 83.05403137207031 24.88081359863281 86.2630615234375 30.17947387695312 88.50419616699219 C 35.66371917724609 90.82384490966797 41.49116516113281 92 47.49993515014648 92 C 53.50870513916016 92 59.33615112304688 90.82384490966797 64.82039642333984 88.50419616699219 C 70.11905670166016 86.2630615234375 74.87837982177734 83.05403137207031 78.96614837646484 78.96627807617188 C 83.05390167236328 74.87850952148438 86.26293182373047 70.11918640136719 88.50407409667969 64.82052612304688 C 90.82372283935547 59.33627700805664 91.99987030029297 53.50883102416992 91.99987030029297 47.49993896484375 C 91.99987030029297 41.49116897583008 90.82372283935547 35.66372299194336 88.50407409667969 30.17947387695312 C 86.26293182373047 24.88081359863281 83.05390167236328 20.12149047851562 78.96614837646484 16.03372192382812 C 74.87837982177734 11.94596862792969 70.11905670166016 8.7369384765625 64.82039642333984 6.495796203613281 C 59.33615112304688 4.176155090332031 53.50870513916016 3 47.49993515014648 3 M 47.49993515014648 0 C 73.73342895507812 0 94.99987030029297 21.26644897460938 94.99987030029297 47.49993896484375 L 94.99987030029297 47.50006103515625 C 94.99987030029297 73.73355102539062 73.73342895507812 95 47.49993515014648 95 C 21.26644134521484 95 0 73.73355102539062 0 47.50006103515625 L 0 47.49993896484375 C 0 21.26644897460938 21.26644134521484 0 47.49993515014648 0 Z" stroke="none" fill="#fff"/>
                </g>
              </g>
              <g id="Rectángulo_400907" data-name="Rectángulo 400907" transform="translate(0 0)" fill="none" stroke="#fff" stroke-width="3">
                <rect width="95" height="95" rx="47.5" stroke="none"/>
                <rect x="1.5" y="1.5" width="92" height="92" rx="46" fill="none"/>
              </g>
            </g>
          </g>
        </g>
      </g>
    </g>
    <g id="libre-de-impuestos" transform="translate(979.714 10209.016)">
      <g id="Grupo_1112375" data-name="Grupo 1112375" transform="translate(1.692 1.165)">
        <path id="Trazado_903506" data-name="Trazado 903506" d="M52.923,31.2a21.1,21.1,0,0,1-1.84,8.649l-5.15-.346-6.028,6.028.343,5.085A21.2,21.2,0,1,1,52.923,31.2Z" transform="translate(-10.526 -10)" fill="#ff933d"/>
      </g>
      <g id="Grupo_1112376" data-name="Grupo 1112376" transform="translate(6.973 6.447)">
        <circle id="Elipse_14069" data-name="Elipse 14069" cx="15.917" cy="15.917" r="15.917" fill="#ffbe8c"/>
      </g>
      <g id="Grupo_1112377" data-name="Grupo 1112377" transform="translate(31.071 30.667)">
        <path id="Trazado_903507" data-name="Trazado 903507" d="M268.629,263.128l-3.014,3.014-3.014,3.014.622,9.232,11.468,11.468a3.7,3.7,0,0,0,5.233,0l4.7-4.7,4.7-4.7a3.7,3.7,0,0,0,0-5.232L277.862,263.75Z" transform="translate(-262.602 -263.128)" fill="#f9f5f3"/>
      </g>
      <g id="Grupo_1112378" data-name="Grupo 1112378" transform="translate(0.526 0)">
        <path id="Trazado_903508" data-name="Trazado 903508" d="M143.642,94.989h-1.067V93.344a1.165,1.165,0,0,0-2.331,0v1.645h-1.067a4.5,4.5,0,0,0-4.5,4.5v1.1a4.5,4.5,0,0,0,4.5,4.5h4.464a2.168,2.168,0,0,1,2.165,2.165v.865a2.168,2.168,0,0,1-2.165,2.165h-4.464a2.168,2.168,0,0,1-2.165-2.165,1.165,1.165,0,0,0-2.331,0,4.5,4.5,0,0,0,4.5,4.5h1.067v1.645a1.165,1.165,0,1,0,2.331,0v-1.645h1.067a4.5,4.5,0,0,0,4.5-4.5v-.865a4.5,4.5,0,0,0-4.5-4.5h-4.464a2.168,2.168,0,0,1-2.165-2.165v-1.1a2.168,2.168,0,0,1,2.165-2.165h4.464a2.168,2.168,0,0,1,2.165,2.165v.1a1.165,1.165,0,1,0,2.331,0v-.1A4.5,4.5,0,0,0,143.642,94.989Z" transform="translate(-119.045 -81.436)"/>
        <path id="Trazado_903509" data-name="Trazado 903509" d="M63.538,41.934,52.07,30.466a1.166,1.166,0,0,0-.746-.339l-2.479-.167A22.368,22.368,0,1,0,6.128,16.849a1.166,1.166,0,0,0,2.259.573A20.037,20.037,0,1,1,46.416,29.8l-3.131-.211A17.085,17.085,0,1,0,34.9,37.9l.21,3.122A20.056,20.056,0,0,1,8.385,27.3a1.165,1.165,0,1,0-2.259.572A22.387,22.387,0,0,0,35.273,43.451l.172,2.555a1.166,1.166,0,0,0,.339.746L47.253,58.219a4.871,4.871,0,0,0,6.881,0l9.4-9.4a4.871,4.871,0,0,0,0-6.881ZM13.054,22.364a14.752,14.752,0,1,1,26.073,9.445L37.909,30.59a1.166,1.166,0,0,0-1.648,1.648L37.5,33.476A14.744,14.744,0,0,1,13.054,22.364Zm48.836,24.8-9.4,9.4a2.537,2.537,0,0,1-3.584,0L37.742,45.412l-.557-8.268,1.991-1.991.8.8A1.165,1.165,0,0,0,41.62,34.3l-.8-.8,1.64-1.64,8.267.557L61.89,43.582A2.537,2.537,0,0,1,61.89,47.166Z" transform="translate(-5.442 0)"/>
        <path id="Trazado_903510" data-name="Trazado 903510" d="M314.325,313.275a4.573,4.573,0,1,0-6.467-6.467l-.622.622A4.573,4.573,0,0,0,313.7,313.9Zm-1.648-1.648-.622.622a2.242,2.242,0,0,1-3.17-3.17l.622-.622a2.242,2.242,0,0,1,3.17,3.17Z" transform="translate(-270.307 -269.882)"/>
        <path id="Trazado_903511" data-name="Trazado 903511" d="M401.058,367.4a1.165,1.165,0,1,0,.631-1.522A1.176,1.176,0,0,0,401.058,367.4Z" transform="translate(-354.3 -323.154)"/>
        <path id="Trazado_903512" data-name="Trazado 903512" d="M401.7,429.187a1.165,1.165,0,1,0-.451,1.429A1.177,1.177,0,0,0,401.7,429.187Z" transform="translate(-352.963 -378.53)"/>
        <path id="Trazado_903513" data-name="Trazado 903513" d="M376.467,396.826h-7.482a1.165,1.165,0,1,0,0,2.331h7.482a1.165,1.165,0,1,0,0-2.331Z" transform="translate(-325.012 -350.576)"/>
        <path id="Trazado_903514" data-name="Trazado 903514" d="M1.464,184.3a1.175,1.175,0,0,0,1.167-1.832A1.165,1.165,0,1,0,1.464,184.3Z" transform="translate(-0.526 -160.794)"/>
      </g>
    </g>
  </g>
</svg>
