<svg xmlns="http://www.w3.org/2000/svg" width="190" height="143.646" viewBox="0 0 190 143.646">
  <g id="Grupo_1112369" data-name="Grupo 1112369" transform="translate(-1230 -400.633)">
    <rect id="Rectángulo_405201" data-name="Rectángulo 405201" width="190" height="143.646" rx="12" transform="translate(1230 400.633)" fill="#feead4"/>
    <g id="presupuesto" transform="translate(1288.345 436.272)">
      <path id="Trazado_903460" data-name="Trazado 903460" d="M148.546,20.3V63c0,.085,0,.17-.006.256a5.513,5.513,0,0,1-5.508,5.256h-31A5.513,5.513,0,0,1,106.523,63V13.557a5.505,5.505,0,0,1,5.514-5.513h24.621a5.5,5.5,0,0,1,2.394.549c1.489.717,1.909,1.623,4.586,4.36,3.079,3.344,3.815,3.686,4.442,5.134A5.453,5.453,0,0,1,148.546,20.3Z" transform="translate(-90.995 -6.907)" fill="#ffc477"/>
      <path id="Trazado_903461" data-name="Trazado 903461" d="M174.445,20.3V63c0,.085,0,.17-.006.256a5.531,5.531,0,0,1-1.245.141h-31a5.513,5.513,0,0,1-5.514-5.512V8.441c0-.087,0-.172.006-.257a5.538,5.538,0,0,1,1.245-.141h24.621a5.522,5.522,0,0,1,4.029,1.751l2.952,3.158,3.379,3.536a5.548,5.548,0,0,1,1.529,3.808Z" transform="translate(-116.894 -6.906)" fill="#ffdaaa"/>
      <path id="Trazado_903462" data-name="Trazado 903462" d="M286.244,182.687v31a7.792,7.792,0,0,1-7.792,7.791H258.205a7.792,7.792,0,0,1-7.791-7.791v-31a7.788,7.788,0,0,1,7.791-7.791h20.247A7.791,7.791,0,0,1,286.244,182.687Z" transform="translate(-214.548 -150.176)" fill="#4cba68"/>
      <path id="Trazado_903463" data-name="Trazado 903463" d="M305.814,182.687v31a7.75,7.75,0,0,1-1.509,4.608,7.759,7.759,0,0,1-3.061.625H281a7.792,7.792,0,0,1-7.792-7.791v-31a7.75,7.75,0,0,1,1.509-4.608,7.759,7.759,0,0,1,3.061-.625h20.247A7.791,7.791,0,0,1,305.814,182.687Z" transform="translate(-234.119 -150.176)" fill="#7ccc92"/>
      <path id="Trazado_903464" data-name="Trazado 903464" d="M362.01,367.134v3.641a1.165,1.165,0,0,1-1.164,1.165H357.2a1.165,1.165,0,0,1-1.165-1.165v-3.641a1.165,1.165,0,0,1,1.165-1.165h3.642A1.165,1.165,0,0,1,362.01,367.134Z" transform="translate(-305.244 -314.242)" fill="#2c733f"/>
      <path id="Trazado_903465" data-name="Trazado 903465" d="M313.418,209.59v3.9A2.512,2.512,0,0,1,310.906,216h-20.1a2.513,2.513,0,0,1-2.512-2.512v-3.9a2.513,2.513,0,0,1,2.512-2.512h20.1A2.512,2.512,0,0,1,313.418,209.59Z" transform="translate(-247.077 -177.809)" fill="#1e81ce"/>
      <path id="Trazado_903466" data-name="Trazado 903466" d="M339.316,209.59v3.9A2.512,2.512,0,0,1,336.8,216H320.97a2.513,2.513,0,0,1-2.512-2.512v-3.9a2.513,2.513,0,0,1,2.512-2.512H336.8A2.512,2.512,0,0,1,339.316,209.59Z" transform="translate(-272.975 -177.809)" fill="#3d9ae2"/>
      <g id="Grupo_1112365" data-name="Grupo 1112365" transform="translate(41.22 42.206)">
        <path id="Trazado_903467" data-name="Trazado 903467" d="M294.27,367.134v3.641a1.165,1.165,0,0,1-1.165,1.165h-3.642a1.166,1.166,0,0,1-1.165-1.165v-3.641a1.166,1.166,0,0,1,1.165-1.165H293.1A1.165,1.165,0,0,1,294.27,367.134Z" transform="translate(-288.297 -356.448)" fill="#2c733f"/>
        <path id="Trazado_903468" data-name="Trazado 903468" d="M362.01,299.773v3.641a1.165,1.165,0,0,1-1.164,1.165H357.2a1.165,1.165,0,0,1-1.165-1.165v-3.641a1.165,1.165,0,0,1,1.165-1.165h3.642A1.165,1.165,0,0,1,362.01,299.773Z" transform="translate(-346.464 -298.608)" fill="#2c733f"/>
      </g>
      <path id="Trazado_903469" data-name="Trazado 903469" d="M430.567,299.773v3.641a1.165,1.165,0,0,1-1.165,1.165h-3.641a1.165,1.165,0,0,1-1.165-1.165v-3.641a1.165,1.165,0,0,1,1.165-1.165H429.4A1.165,1.165,0,0,1,430.567,299.773Z" transform="translate(-364.111 -256.402)" fill="#ee8700"/>
      <g id="Grupo_1112366" data-name="Grupo 1112366" transform="translate(41.22 42.206)">
        <path id="Trazado_903470" data-name="Trazado 903470" d="M294.27,299.773v3.641a1.165,1.165,0,0,1-1.165,1.165h-3.642a1.166,1.166,0,0,1-1.165-1.165v-3.641a1.166,1.166,0,0,1,1.165-1.165H293.1A1.165,1.165,0,0,1,294.27,299.773Z" transform="translate(-288.297 -298.608)" fill="#2c733f"/>
        <path id="Trazado_903471" data-name="Trazado 903471" d="M362.01,431.195v3.642A1.165,1.165,0,0,1,360.846,436H357.2a1.165,1.165,0,0,1-1.165-1.165v-3.642a1.165,1.165,0,0,1,1.165-1.164h3.642A1.164,1.164,0,0,1,362.01,431.195Z" transform="translate(-346.464 -411.455)" fill="#2c733f"/>
        <path id="Trazado_903472" data-name="Trazado 903472" d="M294.27,431.195v3.642A1.165,1.165,0,0,1,293.1,436h-3.642a1.166,1.166,0,0,1-1.165-1.165v-3.642a1.166,1.166,0,0,1,1.165-1.164H293.1A1.165,1.165,0,0,1,294.27,431.195Z" transform="translate(-288.297 -411.455)" fill="#2c733f"/>
      </g>
      <path id="Trazado_903473" data-name="Trazado 903473" d="M430.567,367.7v11.307a1.987,1.987,0,0,1-1.987,1.988h-2a1.987,1.987,0,0,1-1.987-1.988V367.7a1.731,1.731,0,0,1,1.731-1.731h2.51A1.73,1.73,0,0,1,430.567,367.7Z" transform="translate(-364.111 -314.241)" fill="#ee8700"/>
      <g id="Grupo_1112367" data-name="Grupo 1112367" transform="translate(41.22 42.206)">
        <path id="Trazado_903474" data-name="Trazado 903474" d="M362.01,367.134v1.083a1.165,1.165,0,0,1-1.164,1.165H357.2a1.165,1.165,0,0,1-1.165-1.165v-1.083a1.165,1.165,0,0,1,1.165-1.165h3.642A1.165,1.165,0,0,1,362.01,367.134Z" transform="translate(-346.464 -356.448)" fill="#317f46"/>
        <path id="Trazado_903475" data-name="Trazado 903475" d="M294.27,367.134v1.083a1.165,1.165,0,0,1-1.165,1.165h-3.642a1.166,1.166,0,0,1-1.165-1.165v-1.083a1.166,1.166,0,0,1,1.165-1.165H293.1A1.165,1.165,0,0,1,294.27,367.134Z" transform="translate(-288.297 -356.448)" fill="#317f46"/>
        <path id="Trazado_903476" data-name="Trazado 903476" d="M362.01,299.773v1.083a1.165,1.165,0,0,1-1.164,1.165H357.2a1.165,1.165,0,0,1-1.165-1.165v-1.083a1.165,1.165,0,0,1,1.165-1.165h3.642A1.165,1.165,0,0,1,362.01,299.773Z" transform="translate(-346.464 -298.608)" fill="#317f46"/>
      </g>
      <path id="Trazado_903477" data-name="Trazado 903477" d="M430.567,299.773v1.083a1.165,1.165,0,0,1-1.165,1.165h-3.641a1.165,1.165,0,0,1-1.165-1.165v-1.083a1.165,1.165,0,0,1,1.165-1.165H429.4A1.165,1.165,0,0,1,430.567,299.773Z" transform="translate(-364.111 -256.402)" fill="#ff9811"/>
      <g id="Grupo_1112368" data-name="Grupo 1112368" transform="translate(41.22 42.206)">
        <path id="Trazado_903478" data-name="Trazado 903478" d="M294.27,299.773v1.083a1.165,1.165,0,0,1-1.165,1.165h-3.642a1.166,1.166,0,0,1-1.165-1.165v-1.083a1.166,1.166,0,0,1,1.165-1.165H293.1A1.165,1.165,0,0,1,294.27,299.773Z" transform="translate(-288.297 -298.608)" fill="#317f46"/>
        <path id="Trazado_903479" data-name="Trazado 903479" d="M362.01,431.195v1.084a1.165,1.165,0,0,1-1.164,1.165H357.2a1.165,1.165,0,0,1-1.165-1.165v-1.084a1.165,1.165,0,0,1,1.165-1.164h3.642A1.164,1.164,0,0,1,362.01,431.195Z" transform="translate(-346.464 -411.455)" fill="#317f46"/>
        <path id="Trazado_903480" data-name="Trazado 903480" d="M294.27,431.195v1.084a1.165,1.165,0,0,1-1.165,1.165h-3.642a1.166,1.166,0,0,1-1.165-1.165v-1.084a1.166,1.166,0,0,1,1.165-1.164H293.1A1.165,1.165,0,0,1,294.27,431.195Z" transform="translate(-288.297 -411.455)" fill="#317f46"/>
      </g>
      <path id="Trazado_903481" data-name="Trazado 903481" d="M430.567,367.7v8.749a1.987,1.987,0,0,1-1.987,1.988h-2a1.987,1.987,0,0,1-1.987-1.988V367.7a1.731,1.731,0,0,1,1.731-1.731h2.51A1.73,1.73,0,0,1,430.567,367.7Z" transform="translate(-364.111 -314.241)" fill="#ff9811"/>
      <path id="Trazado_903482" data-name="Trazado 903482" d="M345.69,21.418h-6.909a2.12,2.12,0,0,1-2.12-2.12V11.924a5.507,5.507,0,0,1,1.634,1.2l2.952,3.158,3.379,3.536A5.459,5.459,0,0,1,345.69,21.418Z" transform="translate(-288.605 -10.239)" fill="#ffb655"/>
      <path id="Trazado_903483" data-name="Trazado 903483" d="M91.4,464.351a2.707,2.707,0,0,1-2.7,2.7H72.156a2.7,2.7,0,0,1,0-5.4H88.7A2.708,2.708,0,0,1,91.4,464.351Z" transform="translate(-59.167 -396.4)" fill="#aa6100"/>
      <path id="Trazado_903484" data-name="Trazado 903484" d="M91.4,426.146a2.707,2.707,0,0,1-2.7,2.7H72.156a2.7,2.7,0,0,1,0-5.4H88.7A2.708,2.708,0,0,1,91.4,426.146Z" transform="translate(-59.167 -363.595)" fill="#cc7400"/>
      <path id="Trazado_903485" data-name="Trazado 903485" d="M91.4,387.942a2.707,2.707,0,0,1-2.7,2.7H72.156a2.7,2.7,0,0,1,0-5.4H88.7A2.708,2.708,0,0,1,91.4,387.942Z" transform="translate(-59.167 -330.791)" fill="#ee8700"/>
      <path id="Trazado_903486" data-name="Trazado 903486" d="M91.4,349.736a2.707,2.707,0,0,1-2.7,2.7H72.156a2.708,2.708,0,0,1-2.7-2.7,2.707,2.707,0,0,1,2.7-2.7H88.7A2.708,2.708,0,0,1,91.4,349.736Z" transform="translate(-59.167 -297.985)" fill="#ff9811"/>
      <path id="Trazado_903487" data-name="Trazado 903487" d="M88.7,314.234H72.156a2.708,2.708,0,0,1-2.7-2.7h0a2.708,2.708,0,0,1,2.7-2.7H88.7a2.708,2.708,0,0,1,2.7,2.7h0A2.708,2.708,0,0,1,88.7,314.234Z" transform="translate(-59.167 -265.183)" fill="#ffa733"/>
      <path id="Trazado_903488" data-name="Trazado 903488" d="M29.663,386.039a8.785,8.785,0,0,0-9.155-8.413H17.065a8.8,8.8,0,0,0,.752,17.577h2.69v0c.246.01.493.012.743,0a8.94,8.94,0,0,0,1.634-.223,8.8,8.8,0,0,0,6.78-8.246v-.01C29.673,386.5,29.673,386.27,29.663,386.039Z" transform="translate(-6.932 -324.245)" fill="#cc7400"/>
      <path id="Trazado_903489" data-name="Trazado 903489" d="M75.119,388.128v.01a8.8,8.8,0,0,1-6.78,8.246,8.8,8.8,0,0,1-6.771-8.188c0-.02,0-.038,0-.058v-.01a8.8,8.8,0,0,1,6.778-8.873,8.8,8.8,0,0,1,6.774,8.189C75.128,387.674,75.128,387.9,75.119,388.128Z" transform="translate(-52.388 -325.65)" fill="#ee8700"/>
      <path id="Trazado_903490" data-name="Trazado 903490" d="M63.9,23.654H58.687V13.389a6.667,6.667,0,0,0-1.843-4.594L53.473,5.268c-2.86-2.947-3.221-3.78-4.925-4.607A6.666,6.666,0,0,0,45.662,0H21.041a6.658,6.658,0,0,0-6.65,6.65V42.514h-1.4a3.834,3.834,0,0,0-2.723,6.537,3.823,3.823,0,0,0-1.114,2.7,3.936,3.936,0,0,0,.075.759A9.672,9.672,0,0,0,10.61,71.794l18.919-.007a3.834,3.834,0,0,0,2.723-6.537,3.817,3.817,0,0,0,1.108-2.51H34.8v.769a8.867,8.867,0,0,0,8.857,8.857H63.9a8.867,8.867,0,0,0,8.857-8.857v-31A8.867,8.867,0,0,0,63.9,23.654ZM49.193,4.02C53.658,8.739,54.664,9.8,54.853,10c0,0,0,0,0,0h0a.031.031,0,0,0,.006.007h0a.024.024,0,0,0,.008.008l0,.006s0,0,0,0,0,0,0,0,0,0,.006.006h-5.7V4.02Zm-36.2,40.768H29.529a1.563,1.563,0,1,1,0,3.126H12.988a1.563,1.563,0,1,1,0-3.126Zm0,5.4H29.529a1.563,1.563,0,1,1,0,3.126H18.1a9.259,9.259,0,0,0-1.44-.52,9.583,9.583,0,0,0-2.274-.334c-.223-.006-.446,0-.669.006H11.6a1.537,1.537,0,0,1-.175-.715A1.566,1.566,0,0,1,12.988,50.188Zm18.1,6.963a1.565,1.565,0,0,1-1.563,1.563H23.167a9.563,9.563,0,0,0-1.93-3.126h8.292A1.566,1.566,0,0,1,31.092,57.151ZM7.458,55.11a9.809,9.809,0,0,0-1.791,2.3H4.343A7.508,7.508,0,0,1,7.458,55.11ZM3.134,59.538H4.789a9.814,9.814,0,0,0-.31,1.7H2.73A7.47,7.47,0,0,1,3.134,59.538Zm.183,5.634a7.457,7.457,0,0,1-.534-1.8H4.519a8.578,8.578,0,0,0,.406,1.8ZM4.735,67.3c.7,0,1.1,0,1.2,0a9.6,9.6,0,0,0,1.529,1.85A7.51,7.51,0,0,1,4.735,67.3Zm9.7,2.36a7.541,7.541,0,1,1,4.778-13.089A7.535,7.535,0,0,1,14.435,69.664Zm15.094-.151H20.354A9.738,9.738,0,0,0,22.8,66.388h6.733a1.563,1.563,0,0,1,0,3.126Zm1.55-6.773a1.564,1.564,0,0,1-1.55,1.373H23.581a9.767,9.767,0,0,0,.138-3.126h5.811A1.564,1.564,0,0,1,31.08,62.741Zm3.72-2.274H32.748a3.771,3.771,0,0,0-.5-.617,3.828,3.828,0,0,0,0-5.4,3.829,3.829,0,0,0,0-5.4,3.84,3.84,0,0,0-2.723-6.537H16.664V6.65a4.382,4.382,0,0,1,4.377-4.377H46.92v8.906a1.136,1.136,0,0,0,1.137,1.137h8.222c.237.921.091.617.135,11.338H43.657A8.867,8.867,0,0,0,34.8,32.512V60.467ZM70.63,63.51A6.733,6.733,0,0,1,63.9,70.236H43.657a6.734,6.734,0,0,1-6.726-6.726v-31a6.734,6.734,0,0,1,6.726-6.726H63.9a6.733,6.733,0,0,1,6.726,6.726v31Z" transform="translate(0)"/>
      <path id="Trazado_903491" data-name="Trazado 903491" d="M288.2,208.463h-3.867a1.451,1.451,0,0,1-1.447-1.447v-3.9a1.451,1.451,0,0,1,1.447-1.447h20.1a1.448,1.448,0,0,1,1.447,1.447v3.9a1.448,1.448,0,0,1-1.447,1.447H292.8a1.066,1.066,0,0,0,0,2.131h11.634a3.582,3.582,0,0,0,3.578-3.578v-3.9a3.582,3.582,0,0,0-3.578-3.578h-20.1a3.578,3.578,0,0,0-3.578,3.578v3.9a3.578,3.578,0,0,0,3.578,3.578H288.2a1.066,1.066,0,0,0,0-2.131Z" transform="translate(-240.603 -171.335)"/>
      <path id="Trazado_903492" data-name="Trazado 903492" d="M282.988,366.532h3.642a2.233,2.233,0,0,0,2.231-2.231V360.66a2.233,2.233,0,0,0-2.231-2.231h-3.642a2.234,2.234,0,0,0-2.231,2.231V364.3A2.234,2.234,0,0,0,282.988,366.532Zm-.1-5.872a.1.1,0,0,1,.1-.1h3.642a.1.1,0,0,1,.1.1V364.3a.1.1,0,0,1-.1.1h-3.642a.1.1,0,0,1-.1-.1Z" transform="translate(-240.603 -307.768)"/>
      <path id="Trazado_903493" data-name="Trazado 903493" d="M422.928,291.068h-3.641a2.233,2.233,0,0,0-2.231,2.231v3.641a2.233,2.233,0,0,0,2.231,2.231h3.641a2.233,2.233,0,0,0,2.231-2.231V293.3A2.233,2.233,0,0,0,422.928,291.068Zm.1,5.872a.1.1,0,0,1-.1.1h-3.641a.1.1,0,0,1-.1-.1c.044-3.6-.092-3.74.1-3.74h3.641a.1.1,0,0,1,.1.1Z" transform="translate(-357.637 -249.928)"/>
      <path id="Trazado_903494" data-name="Trazado 903494" d="M282.988,299.171h3.642a2.233,2.233,0,0,0,2.231-2.231V293.3a2.233,2.233,0,0,0-2.231-2.231h-3.642a2.234,2.234,0,0,0-2.231,2.231v3.641A2.234,2.234,0,0,0,282.988,299.171Zm-.1-5.872a.1.1,0,0,1,.1-.1h3.642a.1.1,0,0,1,.1.1v3.641a.1.1,0,0,1-.1.1h-3.642a.1.1,0,0,1-.1-.1Z" transform="translate(-240.603 -249.928)"/>
      <path id="Trazado_903495" data-name="Trazado 903495" d="M288.277,423.243a2.23,2.23,0,0,0-1.67-.752h-3.642a2.224,2.224,0,0,0-1.668.752,3.048,3.048,0,0,0-.563,2.274v2.846a2.234,2.234,0,0,0,2.231,2.231h3.642a2.233,2.233,0,0,0,2.231-2.231v-2.846A3.074,3.074,0,0,0,288.277,423.243Zm-1.67,5.22c-3.6-.044-3.742.092-3.742-.1,0-3.855-.043-3.74.1-3.74h3.642c.175,0,.067.243.1.894A15.155,15.155,0,0,1,286.607,428.462Z" transform="translate(-240.58 -362.775)"/>
      <path id="Trazado_903496" data-name="Trazado 903496" d="M422.361,358.428h-2.51a2.8,2.8,0,0,0-2.8,2.8v11.307a3.057,3.057,0,0,0,3.052,3.054h2a3.056,3.056,0,0,0,3.052-3.054V361.225A2.8,2.8,0,0,0,422.361,358.428Zm.665,14.1a.922.922,0,0,1-.921.922h-2a.923.923,0,0,1-.921-.922V361.225a.666.666,0,0,1,.665-.665h2.51a.666.666,0,0,1,.665.665v11.307Z" transform="translate(-357.636 -307.767)"/>
      <path id="Trazado_903497" data-name="Trazado 903497" d="M167.221,174.6h0c-1.3-.477-2.238-.822-2.238-2.026,0-1.1.729-1.654,2.166-1.654,1.526,0,1.936.672,2.474.672a1.023,1.023,0,0,0,.908-1.05c0-.888-1.448-1.328-2.743-1.444v-.8a1.01,1.01,0,0,0-2.02,0v.928a3.3,3.3,0,0,0-2.743,3.455c0,2.481,1.826,3.167,3.294,3.718,1.437.54,2.572.966,2.572,2.607,0,1.355-.752,2.042-2.237,2.042-2.172,0-2.193-1.467-3.021-1.467a1.066,1.066,0,0,0-.926,1.05c0,.84,1.251,1.944,3.061,2.23v.774a1.01,1.01,0,0,0,2.02,0v-.794a3.648,3.648,0,0,0,3.061-3.941C170.849,175.934,168.838,175.195,167.221,174.6Z" transform="translate(-139.238 -143.643)"/>
      <path id="Trazado_903498" data-name="Trazado 903498" d="M354.351,422.491h-3.642a2.23,2.23,0,0,0-1.67.752,3.06,3.06,0,0,0-.561,2.274v2.846a2.233,2.233,0,0,0,2.231,2.231h3.642a2.233,2.233,0,0,0,2.23-2.231v-3.642a2.233,2.233,0,0,0-2.23-2.23Zm0,5.971c-3.6-.044-3.742.092-3.742-.1v-3.642a.1.1,0,0,1,.1-.1h3.642a.1.1,0,0,1,.1.1C354.406,428.327,354.54,428.462,354.351,428.462Z" transform="translate(-298.749 -362.775)"/>
      <path id="Trazado_903499" data-name="Trazado 903499" d="M354.372,291.068H350.73A2.233,2.233,0,0,0,348.5,293.3v3.641a2.233,2.233,0,0,0,2.231,2.231h3.642a2.2,2.2,0,0,0,.811-.154,2.234,2.234,0,0,0,1.418-2.078V293.3A2.234,2.234,0,0,0,354.372,291.068Zm.1,5.872a.1.1,0,0,1-.1.1H350.73a.1.1,0,0,1-.1-.1V293.3c0-.192.132-.057,3.742-.1a.1.1,0,0,1,.1.1v3.641Z" transform="translate(-298.77 -249.928)"/>
      <path id="Trazado_903500" data-name="Trazado 903500" d="M355.184,358.582a2.2,2.2,0,0,0-.811-.154H350.73a2.233,2.233,0,0,0-2.231,2.231V364.3a2.233,2.233,0,0,0,2.231,2.231h3.642a2.233,2.233,0,0,0,2.23-2.231v-3.641A2.233,2.233,0,0,0,355.184,358.582Zm-.713,5.718a.1.1,0,0,1-.1.1H350.73a.1.1,0,0,1-.1-.1v-3.641a.1.1,0,0,1,.1-.1h3.642a.1.1,0,0,1,.1.1Z" transform="translate(-298.77 -307.767)"/>
      <path id="Trazado_903501" data-name="Trazado 903501" d="M321.113,105.173h2.677a1.066,1.066,0,1,0,0-2.131h-2.677a1.066,1.066,0,0,0,0,2.131Z" transform="translate(-274.339 -88.478)"/>
      <path id="Trazado_903502" data-name="Trazado 903502" d="M157.236,105.173h18.9a1.066,1.066,0,1,0,0-2.131h-18.9a1.066,1.066,0,1,0,0,2.131Z" transform="translate(-133.625 -88.478)"/>
      <path id="Trazado_903503" data-name="Trazado 903503" d="M160.623,142.6a1.066,1.066,0,1,0,0-2.131h-3.388a1.066,1.066,0,1,0,0,2.131Z" transform="translate(-133.625 -120.617)"/>
      <path id="Trazado_903504" data-name="Trazado 903504" d="M230.62,141.538a1.066,1.066,0,0,0-1.066-1.066H211.365a1.066,1.066,0,1,0,0,2.131h18.189A1.066,1.066,0,0,0,230.62,141.538Z" transform="translate(-180.103 -120.617)"/>
      <path id="Trazado_903505" data-name="Trazado 903505" d="M79.683,401.99c0-.268.1-.345.191-.4a1.831,1.831,0,0,1,1.545.1,1.218,1.218,0,0,0,.577.175c1.051,0,1.883-1.953-.628-2.385v-.067a1.08,1.08,0,0,0-2.16,0v.2a2.423,2.423,0,0,0-1.647,2.427c0,1.818,1.321,2.314,2.285,2.676.92.346,1.238.5,1.238,1.122,0,.391-.105.753-.87.753-1.114,0-.981-.881-1.814-.881a1.113,1.113,0,0,0-1.03,1.1c0,.738.768,1.439,1.839,1.723v.081a1.08,1.08,0,1,0,2.16,0v-.109a2.67,2.67,0,0,0,1.838-2.735C83.206,402.55,79.683,403.037,79.683,401.99Z" transform="translate(-65.962 -342.039)"/>
    </g>
  </g>
</svg>
