<svg xmlns="http://www.w3.org/2000/svg" xmlns:xlink="http://www.w3.org/1999/xlink" width="113" height="113" viewBox="0 0 113 113">
  <defs>
    <filter id="Trazado_896985" x="0" y="0" width="113" height="113" filterUnits="userSpaceOnUse">
      <feOffset dy="3" input="SourceAlpha"/>
      <feGaussianBlur stdDeviation="3" result="blur"/>
      <feFlood flood-opacity="0.161"/>
      <feComposite operator="in" in2="blur"/>
      <feComposite in="SourceGraphic"/>
    </filter>
  </defs>
  <g id="Grupo_1112313" data-name="Grupo 1112313" transform="translate(-271 -1004)">
    <g id="Grupo_1112141" data-name="Grupo 1112141" transform="translate(-54.891 -2842)">
      <g id="Grupo_1111318" data-name="Grupo 1111318" transform="translate(-5.891)">
        <g id="Grupo_1109826" data-name="Grupo 1109826" transform="translate(340.781 3852)">
          <g id="Grupo_1098742" data-name="Grupo 1098742">
            <g transform="matrix(1, 0, 0, 1, -9, -6)" filter="url(#Trazado_896985)">
              <g id="Trazado_896985-2" data-name="Trazado 896985" transform="translate(9 6)" fill="#fd9826" opacity="0.859">
                <path d="M 47.49993515014648 93.5 C 41.28932189941406 93.5 35.26528167724609 92.28397369384766 29.59514808654785 89.88571929931641 C 24.1176815032959 87.56894683837891 19.1981086730957 84.25197601318359 14.97306823730469 80.02693176269531 C 10.74802875518799 75.80189514160156 7.431055068969727 70.88231658935547 5.11428165435791 65.40485382080078 C 2.716028451919556 59.73471832275391 1.500001788139343 53.71067810058594 1.500001788139343 47.50006484985352 C 1.500001788139343 41.28932189941406 2.716028451919556 35.26528167724609 5.11428165435791 29.59514617919922 C 7.431055068969727 24.11767959594727 10.74802875518799 19.19810676574707 14.97306823730469 14.97306632995605 C 19.1981086730957 10.74802684783936 24.1176815032959 7.431053161621094 29.59514808654785 5.114280223846436 C 35.26528167724609 2.716026782989502 41.28932189941406 1.5 47.49993515014648 1.5 C 53.71054840087891 1.5 59.73458862304688 2.716026782989502 65.40472412109375 5.114280223846436 C 70.88218688964844 7.431053161621094 75.80176544189453 10.74802684783936 80.02680206298828 14.97306632995605 C 84.25183868408203 19.19810676574707 87.56881713867188 24.11767959594727 89.88558959960938 29.59514617919922 C 92.28384399414062 35.26528167724609 93.49987030029297 41.28932189941406 93.49987030029297 47.49993515014648 C 93.49987030029297 53.71067810058594 92.28384399414062 59.73471832275391 89.88558959960938 65.40485382080078 C 87.56881713867188 70.88231658935547 84.25183868408203 75.80189514160156 80.02680206298828 80.02693176269531 C 75.80176544189453 84.25197601318359 70.88218688964844 87.56894683837891 65.40472412109375 89.88571929931641 C 59.73458862304688 92.28397369384766 53.71054840087891 93.5 47.49993515014648 93.5 Z" stroke="none"/>
                <path d="M 47.49993515014648 3 C 41.49116516113281 3 35.66371917724609 4.176155090332031 30.17947387695312 6.495796203613281 C 24.88081359863281 8.7369384765625 20.12149047851562 11.94596862792969 16.03372192382812 16.03372192382812 C 11.94596862792969 20.12149047851562 8.7369384765625 24.88081359863281 6.495796203613281 30.17947387695312 C 4.1761474609375 35.66372299194336 3 41.49116897583008 3 47.50006103515625 C 3 53.50883102416992 4.1761474609375 59.33627700805664 6.495796203613281 64.82052612304688 C 8.7369384765625 70.11918640136719 11.94596862792969 74.87850952148438 16.03372192382812 78.96627807617188 C 20.12149047851562 83.05403137207031 24.88081359863281 86.2630615234375 30.17947387695312 88.50419616699219 C 35.66371917724609 90.82384490966797 41.49116516113281 92 47.49993515014648 92 C 53.50870513916016 92 59.33615112304688 90.82384490966797 64.82039642333984 88.50419616699219 C 70.11905670166016 86.2630615234375 74.87837982177734 83.05403137207031 78.96614837646484 78.96627807617188 C 83.05390167236328 74.87850952148438 86.26293182373047 70.11918640136719 88.50407409667969 64.82052612304688 C 90.82372283935547 59.33627700805664 91.99987030029297 53.50883102416992 91.99987030029297 47.49993896484375 C 91.99987030029297 41.49116897583008 90.82372283935547 35.66372299194336 88.50407409667969 30.17947387695312 C 86.26293182373047 24.88081359863281 83.05390167236328 20.12149047851562 78.96614837646484 16.03372192382812 C 74.87837982177734 11.94596862792969 70.11905670166016 8.7369384765625 64.82039642333984 6.495796203613281 C 59.33615112304688 4.176155090332031 53.50870513916016 3 47.49993515014648 3 M 47.49993515014648 0 C 73.73342895507812 0 94.99987030029297 21.26644897460938 94.99987030029297 47.49993896484375 L 94.99987030029297 47.50006103515625 C 94.99987030029297 73.73355102539062 73.73342895507812 95 47.49993515014648 95 C 21.26644134521484 95 0 73.73355102539062 0 47.50006103515625 L 0 47.49993896484375 C 0 21.26644897460938 21.26644134521484 0 47.49993515014648 0 Z" stroke="none" fill="#fff"/>
              </g>
            </g>
            <g id="Rectángulo_400907" data-name="Rectángulo 400907" transform="translate(0 0)" fill="none" stroke="#fff" stroke-width="3">
              <rect width="95" height="95" rx="47.5" stroke="none"/>
              <rect x="1.5" y="1.5" width="92" height="92" rx="46" fill="none"/>
            </g>
          </g>
        </g>
      </g>
    </g>
    <g id="beneficios" transform="translate(290.41 1012.81)">
      <path id="Trazado_903228" data-name="Trazado 903228" d="M86.51,260.048l5.637-5.637a4.953,4.953,0,0,1,3.611-1.5h12.926a3.511,3.511,0,0,1,2.5,5.98l-.012.013-.023.018a5.078,5.078,0,0,1-2.666,1.013l-.021,0H99.6a.325.325,0,1,0,0,.65h3.648c.472.007.944.026,1.416.045a23.781,23.781,0,0,0,3.828-.043l.019,0h.173a4.146,4.146,0,0,0,2.918-1.2l.009-.008,7.261-6.2a.166.166,0,0,0,.019-.02,3.445,3.445,0,0,1,2.46-1.026h.014a3.514,3.514,0,0,1,2.513,5.98l-.01.01-8.394,7.236a5.936,5.936,0,0,1-3.277,1.471l-10.265,1.329a6.36,6.36,0,0,0-2.587.831,10.167,10.167,0,0,0-1.833,1.589l-.229.233Z" transform="translate(-67.701 -208.258)" fill="#f6dccd" fill-rule="evenodd"/>
      <path id="Trazado_903229" data-name="Trazado 903229" d="M39.026,324.53a.862.862,0,0,1,0,1.216l-3.441,3.441a.859.859,0,0,1-1.215,0l-14.53-14.53a.862.862,0,0,1,0-1.215L23.282,310a.86.86,0,0,1,1.215,0Z" transform="translate(-8.026 -259.631)" fill="#ffd064" fill-rule="evenodd"/>
      <path id="Trazado_903230" data-name="Trazado 903230" d="M185.05,78.437a8.887,8.887,0,1,1,8.887,8.887A8.9,8.9,0,0,1,185.05,78.437Z" transform="translate(-155.574 -45.434)" fill="#f1f1f2" fill-rule="evenodd"/>
      <path id="Trazado_903231" data-name="Trazado 903231" d="M327.6,34.97a8.889,8.889,0,1,1,2.809,9.573l-.155-.128.044-.195a9.52,9.52,0,0,0-2.618-8.92l-.143-.141Z" transform="translate(-282.638 -9.096)" fill="#ffd064" fill-rule="evenodd"/>
      <path id="Trazado_903232" data-name="Trazado 903232" d="M54.807,45.384a8.887,8.887,0,1,1,8.5-11.5l.058.189-.142.139a9.523,9.523,0,0,0-2.671,8.843l.042.194-.154.126a8.879,8.879,0,0,1-5.632,2.01Z" transform="translate(-31.505 -8.035)" fill="#60b7ff" fill-rule="evenodd"/>
      <path id="Trazado_903233" data-name="Trazado 903233" d="M232.359,96.51a1.459,1.459,0,1,1-1.459,1.459A1.461,1.461,0,0,1,232.359,96.51Z" transform="translate(-196.46 -69.476)" fill="#f1f1f2" fill-rule="evenodd"/>
      <path id="Trazado_903234" data-name="Trazado 903234" d="M229.118,92.619a2.109,2.109,0,1,0-2.109,2.109A2.111,2.111,0,0,0,229.118,92.619Z" transform="translate(-191.11 -64.125)" fill="#ffd064" fill-rule="evenodd"/>
      <path id="Trazado_903235" data-name="Trazado 903235" d="M277.609,167.22a1.459,1.459,0,1,1-1.459,1.459A1.461,1.461,0,0,1,277.609,167.22Z" transform="translate(-236.811 -132.531)" fill="#f1f1f2" fill-rule="evenodd"/>
      <path id="Trazado_903236" data-name="Trazado 903236" d="M272.259,165.438a2.109,2.109,0,1,0-2.109-2.109A2.112,2.112,0,0,0,272.259,165.438Z" transform="translate(-231.461 -127.18)" fill="#ffd064" fill-rule="evenodd"/>
      <path id="Trazado_903237" data-name="Trazado 903237" d="M82.6,80.877l-4.634-4.634a2.415,2.415,0,0,1,3.415-3.415l.989.989a.324.324,0,0,0,.23.1.329.329,0,0,0,.231-.1l.989-.989a2.415,2.415,0,0,1,3.414,3.415Z" transform="translate(-59.448 -47.726)" fill="#f1f1f2" fill-rule="evenodd"/>
      <path id="Trazado_903238" data-name="Trazado 903238" d="M82.353,71.351a3.065,3.065,0,0,0-4.335-4.335l-.76.76-.759-.76a3.065,3.065,0,0,0-4.334,4.335l4.864,4.864a.325.325,0,0,0,.46,0Z" transform="translate(-54.111 -42.376)" fill="#fe616c" fill-rule="evenodd"/>
      <path id="Trazado_903239" data-name="Trazado 903239" d="M40.8,37.283a1.135,1.135,0,1,1,1.135-1.135A1.136,1.136,0,0,1,40.8,37.283Zm0-3.568a2.434,2.434,0,1,0,2.434,2.434A2.436,2.436,0,0,0,40.8,33.715Zm-4.9-6.356a1.135,1.135,0,1,1-1.135,1.135A1.136,1.136,0,0,1,35.9,27.359Zm0,3.568a2.434,2.434,0,1,0-2.434-2.434A2.436,2.436,0,0,0,35.9,30.927Zm8.265-2.169a.65.65,0,0,0-.9-.194L32.3,35.634a.65.65,0,0,0,.353,1.2.643.643,0,0,0,.351-.1l10.963-7.071a.648.648,0,0,0,.194-.9Zm-16.612-.472-4.4,4.4-4.4-4.4A2.09,2.09,0,0,1,21.7,25.33l.989.989a.649.649,0,0,0,.919,0l.989-.989a2.09,2.09,0,0,1,2.955,2.955Zm.919-3.875a3.4,3.4,0,0,0-4.794,0l-.53.53-.529-.53A3.39,3.39,0,1,0,17.825,29.2l4.864,4.864a.649.649,0,0,0,.919,0L28.472,29.2A3.393,3.393,0,0,0,28.472,24.411Zm23.449,2.114c0,.814.912,1.232,1.677,1.44,1.7.461,2.636,1.417,2.636,2.692a2.724,2.724,0,0,1-2.156,2.62v.572a.65.65,0,1,1-1.3,0v-.572a2.723,2.723,0,0,1-2.156-2.62.65.65,0,1,1,1.3,0,1.511,1.511,0,0,0,3.014,0c0-.813-.913-1.232-1.678-1.439-1.7-.461-2.635-1.417-2.635-2.693a2.722,2.722,0,0,1,2.156-2.619v-.572a.65.65,0,0,1,1.3,0v.572a2.724,2.724,0,0,1,2.156,2.619.65.65,0,0,1-1.3,0,1.512,1.512,0,0,0-3.014,0Zm1.507,10.629a8.562,8.562,0,1,0-8.155-11.181A9.849,9.849,0,0,1,47.98,35.2a8.545,8.545,0,0,0,5.449,1.957Zm-15.064,4.41A8.562,8.562,0,1,0,29.8,33,8.572,8.572,0,0,0,38.364,41.564ZM23.3,37.024a8.544,8.544,0,0,0,5.425-1.938,9.844,9.844,0,0,1,2.762-9.144A8.564,8.564,0,1,0,23.3,37.024ZM53.428,18.73a9.884,9.884,0,0,0-9.213,6.339,9.842,9.842,0,0,0-11.664-.028,9.864,9.864,0,1,0-3.436,11.384,9.861,9.861,0,0,0,18.459.1,9.861,9.861,0,1,0,5.853-17.8Zm2.516,30.9L47.56,56.861a5.612,5.612,0,0,1-3.107,1.4L34.188,59.586a6.733,6.733,0,0,0-4.61,2.514L19.269,51.79l5.407-5.407a4.624,4.624,0,0,1,3.382-1.4H40.984a3.188,3.188,0,0,1,2.269,5.428l-.012.01a4.741,4.741,0,0,1-2.5.941H31.9a.65.65,0,1,0,0,1.3h3.643c.444.006.912.025,1.407.045a24.441,24.441,0,0,0,3.881-.045h.154a4.471,4.471,0,0,0,3.145-1.289l7.252-6.2c.014-.012.027-.025.04-.038a3.12,3.12,0,0,1,2.229-.93h.013a3.188,3.188,0,0,1,2.281,5.427ZM30.771,65.884a.536.536,0,0,0,0-.756L16.241,50.6a.536.536,0,0,0-.756,0l-3.441,3.441a.538.538,0,0,0,0,.756l14.53,14.529a.536.536,0,0,0,.756,0ZM53.663,42.907h-.017a4.416,4.416,0,0,0-3.13,1.3l-5.058,4.322c.009-.117.014-.235.014-.354a4.494,4.494,0,0,0-4.488-4.488H28.058a5.885,5.885,0,0,0-4.3,1.782L18.35,50.871,17.16,49.68a1.834,1.834,0,0,0-2.593,0l-3.441,3.441a1.837,1.837,0,0,0,0,2.594L25.655,70.245a1.836,1.836,0,0,0,2.593,0L31.689,66.8a1.836,1.836,0,0,0,0-2.593L30.5,63.018a5.505,5.505,0,0,1,3.857-2.143l10.265-1.33a6.924,6.924,0,0,0,3.789-1.7l8.4-7.243.035-.032a4.488,4.488,0,0,0-3.183-7.661Z" transform="translate(0 0)" fill-rule="evenodd"/>
    </g>
  </g>
</svg>
