<svg xmlns="http://www.w3.org/2000/svg" width="524" height="354" viewBox="0 0 524 354">
  <g id="Grupo_1112207" data-name="Grupo 1112207" transform="translate(-181 -12877)">
    <rect id="Rectángulo_405252" data-name="Rectángulo 405252" width="524" height="354" transform="translate(181 12877)" fill="#edf7fe"/>
    <g id="Grupo_56654" data-name="Grupo 56654" transform="translate(-1247.742 6880.226)">
      <rect id="Rectángulo_5538" data-name="Rectángulo 5538" width="295" height="295" transform="translate(1543.742 6026.774)" fill="#aed3f2" opacity="0"/>
      <g id="Grupo_56653" data-name="Grupo 56653" transform="translate(1560.859 6034.423)">
        <g id="freepik--background-complete--inject-139" transform="translate(0 0)">
          <path id="Trazado_104188" data-name="Trazado 104188" d="M1821.841,6070.721v41.363h-59.418l-2.141-41.074Z" transform="translate(-1564.467 -6035.156)" fill="#aed3f2"/>
          <rect id="Rectángulo_5539" data-name="Rectángulo 5539" width="59.418" height="40.991" transform="translate(195.814 35.848)" fill="#fff"/>
          <path id="Trazado_104189" data-name="Trazado 104189" d="M1819.971,6112.278h-60v-41.563h59.979Zm-59.412-.56h58.852v-40.405h-58.852Z" transform="translate(-1564.462 -6035.155)" fill="#aed3f2"/>
          <rect id="Rectángulo_5540" data-name="Rectángulo 5540" width="46.546" height="30.808" transform="translate(202.25 40.943)" fill="#fff"/>
          <path id="Trazado_104190" data-name="Trazado 104190" d="M1813.368,6076.188h-3.45l-9.592.036-33.5.069.133-.138v30.8h0l-.146-.145h46.546l-.119.119c0-9.377.05-17.061.063-22.413,0-2.677,0-4.768.031-6.2v-.05c0,1.43,0,3.508.031,6.171,0,5.372.031,13.081.056,22.488v.113h-.113l-46.546.032h-.144v-.146h0V6076h.139l33.592.063,9.56.037h3.385Z" transform="translate(-1564.573 -6035.243)" fill="#aed3f2"/>
          <path id="Trazado_104191" data-name="Trazado 104191" d="M1760.281,6070.894a5.113,5.113,0,0,1,1.02.63c.63.44,1.436,1.064,2.33,1.773s1.681,1.392,2.236,1.89a4.7,4.7,0,0,1,.849.869,41.2,41.2,0,0,1-3.268-2.521,31.58,31.58,0,0,1-3.167-2.642Z" transform="translate(-1564.467 -6035.158)" fill="#aed3f2"/>
          <path id="Trazado_104192" data-name="Trazado 104192" d="M1820.6,6071.015a61.5,61.5,0,0,1-6.456,5.088,29.01,29.01,0,0,1,3.149-2.659A27.218,27.218,0,0,1,1820.6,6071.015Z" transform="translate(-1565.365 -6035.16)" fill="#aed3f2"/>
          <path id="Trazado_104193" data-name="Trazado 104193" d="M1820.543,6112.609l-6.625-5.365" transform="translate(-1565.361 -6035.764)" fill="#fff"/>
          <path id="Trazado_104194" data-name="Trazado 104194" d="M1813.918,6107.246a31.66,31.66,0,0,1,3.407,2.569,32.016,32.016,0,0,1,3.218,2.8,30.482,30.482,0,0,1-3.406-2.57A31.1,31.1,0,0,1,1813.918,6107.246Z" transform="translate(-1565.361 -6035.765)" fill="#aed3f2"/>
          <path id="Trazado_104195" data-name="Trazado 104195" d="M1760.281,6112.616a27.268,27.268,0,0,1,3.093-2.638,28.368,28.368,0,0,1,3.275-2.4,28.758,28.758,0,0,1-3.092,2.633,28.3,28.3,0,0,1-3.275,2.4Z" transform="translate(-1564.467 -6035.77)" fill="#aed3f2"/>
          <rect id="Rectángulo_5541" data-name="Rectángulo 5541" width="29.284" height="10.315" transform="translate(211.703 50.541)" fill="#aed3f2"/>
          <path id="Trazado_104196" data-name="Trazado 104196" d="M1654.925,6046.931a.376.376,0,0,1-.144-.044l-.422-.162-1.587-.629-5.819-2.519-19.152-8.345-.661-.29h.139l-18.767,8.024-5.668,2.381-1.55.629a3.409,3.409,0,0,1-.548.2,4.021,4.021,0,0,1,.523-.259l1.518-.691,5.668-2.519,18.723-8.118.07-.031.068.031.662.29,19.107,8.439,5.781,2.6,1.562.718.4.195a.966.966,0,0,1,.095.108Z" transform="translate(-1561.808 -6034.554)" fill="#aed3f2"/>
          <rect id="Rectángulo_5542" data-name="Rectángulo 5542" width="122.988" height="92.091" transform="translate(0 9.631)" fill="#aed3f2"/>
          <rect id="Rectángulo_5543" data-name="Rectángulo 5543" width="114.851" height="84.023" transform="translate(4.301 13.913)" fill="#fafafa"/>
          <path id="Trazado_104197" data-name="Trazado 104197" d="M1591.32,6086.053s.119,14.1.837,18.408l17.69-.838s-1.555-13.854-.957-17.571Z" transform="translate(-1561.651 -6035.411)" fill="#aed3f2"/>
          <path id="Trazado_104198" data-name="Trazado 104198" d="M1600.111,6088.063h.259a4.175,4.175,0,0,1,.737.037,4.239,4.239,0,0,1,1.128.334,3.759,3.759,0,0,1,1.222.968,4.308,4.308,0,0,1,.849,1.7,4.123,4.123,0,0,1-.189,2.187,6.684,6.684,0,0,1-.5,1.089c-.195.358-.4.71-.564,1.1a9.4,9.4,0,0,0-.712,2.519v.057h-.056l-1.744.032h-1.9v-.044a5.238,5.238,0,0,0-.844-2.417c-.214-.359-.447-.7-.667-1.048a9.345,9.345,0,0,1-.63-1.014,3.388,3.388,0,0,1-.277-2.154,4.561,4.561,0,0,1,.68-1.763,3.535,3.535,0,0,1,1.153-1.039,4.306,4.306,0,0,1,1.083-.415,4.615,4.615,0,0,1,.725-.121h0a4.956,4.956,0,0,0-.711.139,4.37,4.37,0,0,0-1.065.434,3.366,3.366,0,0,0-1.108,1.027,4.476,4.476,0,0,0-.63,1.731,3.3,3.3,0,0,0,.276,2.085,11.714,11.714,0,0,0,.631,1c.214.334.453.681.667,1.048a5.331,5.331,0,0,1,.868,2.481l-.063-.068h3.577l-.063.063a9.561,9.561,0,0,1,.73-2.551c.17-.39.378-.762.573-1.114a5.649,5.649,0,0,0,.491-1.071,3.958,3.958,0,0,0,.17-2.161,4.189,4.189,0,0,0-.813-1.668,3.728,3.728,0,0,0-1.184-.968,4.142,4.142,0,0,0-1.1-.346,5.625,5.625,0,0,0-.73-.063h-.258Z" transform="translate(-1561.733 -6035.445)" fill="#fff"/>
          <path id="Trazado_104199" data-name="Trazado 104199" d="M1601.056,6097.941a.324.324,0,0,1,0-.058v-.161a5.608,5.608,0,0,0-.1-.629c-.076-.548-.194-1.348-.277-2.337a4.84,4.84,0,0,0-.043-.775,5.447,5.447,0,0,1,0-.849,2.331,2.331,0,0,1,.2-.881,1.3,1.3,0,0,1,.674-.674.887.887,0,0,1,.967.182.689.689,0,0,1,.208.484.862.862,0,0,1-.183.5,1.1,1.1,0,0,1-.428.346,2.055,2.055,0,0,1-.523.17,6.152,6.152,0,0,1-1.114.133,6.81,6.81,0,0,1-1.128-.058,1.937,1.937,0,0,1-.529-.151,1.392,1.392,0,0,1-.446-.314,1.022,1.022,0,0,1-.259-.472.845.845,0,0,1,.063-.529.71.71,0,0,1,.372-.358.66.66,0,0,1,.5,0,.937.937,0,0,1,.377.322,1.268,1.268,0,0,1,.183.441,4.913,4.913,0,0,1,.094.9c0,.58.057,1.121.081,1.618.05.99.087,1.789.118,2.35v.793a.284.284,0,0,1,0,.058.182.182,0,0,1,0-.058v-.162a4.141,4.141,0,0,0-.044-.629c0-.554-.075-1.36-.132-2.35,0-.49-.057-1.032-.094-1.619a5.444,5.444,0,0,0-.089-.894,1.3,1.3,0,0,0-.183-.421.937.937,0,0,0-.352-.3.623.623,0,0,0-.806.333.737.737,0,0,0-.063.492.989.989,0,0,0,.246.447,1.624,1.624,0,0,0,.951.453,7.021,7.021,0,0,0,2.217-.076,2.185,2.185,0,0,0,.517-.169,1.145,1.145,0,0,0,.4-.326.786.786,0,0,0,.17-.474.594.594,0,0,0-.189-.447.85.85,0,0,0-.907-.176,1.313,1.313,0,0,0-.63.631,2.372,2.372,0,0,0-.2.869v.838a5.18,5.18,0,0,0,.039.781c.076.99.188,1.783.264,2.331a3.688,3.688,0,0,0,.081.629v.162A.2.2,0,0,0,1601.056,6097.941Z" transform="translate(-1561.765 -6035.5)" fill="#fff"/>
          <path id="Trazado_104200" data-name="Trazado 104200" d="M1598.736,6098.148a5.433,5.433,0,0,0,.045.585c.044.366.05.939.08,1.531v-.038l1.191,1.371h-.057l1.37-.076h-.057l.687-.837.34-.422v.056c0-.806-.038-1.574-.056-2.267l.076.068h-3.59a1.43,1.43,0,0,1,.242,0l.725-.036,2.62-.1h.068v.075c0,.7.044,1.462.063,2.268h0l-.34.415-.687.839h0l-1.378.069h-.039l-1.166-1.394h0v-1.574A3.462,3.462,0,0,1,1598.736,6098.148Z" transform="translate(-1561.775 -6035.609)" fill="#fff"/>
          <path id="Trazado_104201" data-name="Trazado 104201" d="M1602.29,6100.166l-.132-.056a3.037,3.037,0,0,0-.359-.138,3.523,3.523,0,0,0-2.488.076,3.017,3.017,0,0,0-.346.162l-.133.063a.386.386,0,0,1,.12-.081,2.99,2.99,0,0,1,.34-.184,3.379,3.379,0,0,1,1.258-.283,3.5,3.5,0,0,1,1.26.206,2.845,2.845,0,0,1,.353.162.824.824,0,0,1,.126.073Z" transform="translate(-1561.777 -6035.639)" fill="#fff"/>
          <path id="Trazado_104202" data-name="Trazado 104202" d="M1602.289,6099.609l-.132-.056c-.081-.039-.2-.088-.359-.146a3.484,3.484,0,0,0-2.469.074c-.151.064-.27.121-.353.162s-.118.068-.126.063l.12-.081a2.7,2.7,0,0,1,.34-.177,3.288,3.288,0,0,1,1.26-.283,3.153,3.153,0,0,1,1.26.207,2.912,2.912,0,0,1,.359.161.659.659,0,0,1,.1.075Z" transform="translate(-1561.777 -6035.63)" fill="#fff"/>
          <path id="Trazado_104203" data-name="Trazado 104203" d="M1602.26,6099.072a.28.28,0,0,1-.132-.05,2.247,2.247,0,0,0-.358-.144,3.54,3.54,0,0,0-1.26-.189,3.416,3.416,0,0,0-1.26.264c-.151.063-.272.12-.353.162a.42.42,0,0,1-.126.063l.12-.081a1.986,1.986,0,0,1,.34-.177,3.328,3.328,0,0,1,1.259-.29,3.461,3.461,0,0,1,1.26.207,3.022,3.022,0,0,1,.353.161Z" transform="translate(-1561.776 -6035.621)" fill="#fff"/>
          <path id="Trazado_104204" data-name="Trazado 104204" d="M1571.28,6062.581s.12,14.1.837,18.408l17.69-.831s-1.556-13.854-.957-17.577Z" transform="translate(-1561.318 -6035.019)" fill="#ebebeb"/>
          <path id="Trazado_104205" data-name="Trazado 104205" d="M1586.213,6068.606a103.606,103.606,0,0,1-11.871.718,50.506,50.506,0,0,1,5.926-.535A51.845,51.845,0,0,1,1586.213,6068.606Z" transform="translate(-1561.368 -6035.12)" fill="#fff"/>
          <path id="Trazado_104206" data-name="Trazado 104206" d="M1586.243,6071.648a52.949,52.949,0,0,1-5.927.528,51.609,51.609,0,0,1-5.944.184,50.927,50.927,0,0,1,5.926-.529A49.92,49.92,0,0,1,1586.243,6071.648Z" transform="translate(-1561.369 -6035.171)" fill="#fff"/>
          <path id="Trazado_104207" data-name="Trazado 104207" d="M1584.084,6074.265a16.368,16.368,0,0,1-3.37.379,1.7,1.7,0,1,1,3.37-.379Z" transform="translate(-1562.217 -6034.858)" fill="#fff"/>
          <path id="Trazado_104208" data-name="Trazado 104208" d="M1570.4,6104.786s.12,14.1.838,18.407l17.69-.837s-1.556-13.855-.958-17.571Z" transform="translate(-1561.303 -6035.723)" fill="#ebebeb"/>
          <path id="Trazado_104209" data-name="Trazado 104209" d="M1585.387,6110.812a52.721,52.721,0,0,1-5.927.529,51.958,51.958,0,0,1-5.945.183,50.832,50.832,0,0,1,5.927-.53A48.426,48.426,0,0,1,1585.387,6110.812Z" transform="translate(-1561.355 -6035.823)" fill="#fff"/>
          <path id="Trazado_104210" data-name="Trazado 104210" d="M1585.393,6113.848a51.257,51.257,0,0,1-5.926.529,50.547,50.547,0,0,1-5.945.183,51.035,51.035,0,0,1,5.926-.528A51.845,51.845,0,0,1,1585.393,6113.848Z" transform="translate(-1561.354 -6035.875)" fill="#fff"/>
          <path id="Trazado_104211" data-name="Trazado 104211" d="M1582.418,6116.841a30.37,30.37,0,0,1-6.763.378A31.523,31.523,0,0,1,1582.418,6116.841Z" transform="translate(-1561.39 -6035.933)" fill="#fff"/>
          <path id="Trazado_104212" data-name="Trazado 104212" d="M1619.6,6066.385l1.751,40.684,50.791.611-2.279-40.759Z" transform="translate(-1562.123 -6035.083)" fill="#ebebeb"/>
          <rect id="Rectángulo_5544" data-name="Rectángulo 5544" width="50.451" height="38.095" transform="translate(56.887 31.012)" fill="#f5f5f5"/>
          <path id="Trazado_104213" data-name="Trazado 104213" d="M1669.453,6104.18v-2.741c0-1.789,0-4.409-.031-7.708,0-6.645-.044-16.147-.076-27.646l.139.139h-50.445l.17-.17v38.095l-.161-.157,36.388.075,10.347.044h.07l-10.317.038-36.489.076h-.161V6065.8h50.766v.145c-.031,11.537-.057,21.072-.076,27.709,0,3.3,0,5.9-.038,7.677v2a3.975,3.975,0,0,1-.086.846Z" transform="translate(-1562.109 -6035.074)" fill="#aed3f2"/>
          <rect id="Rectángulo_5545" data-name="Rectángulo 5545" width="20.449" height="25.738" transform="translate(62.97 39.08)" fill="#f5f5f5"/>
          <path id="Trazado_104214" data-name="Trazado 104214" d="M1645.627,6100.03a1.04,1.04,0,0,1,0-.132v-1.773c0-1.26,0-3.03-.044-5.284,0-4.528-.044-10.94-.076-18.554l.151.161H1625.21c-.039.038.327-.327.176-.17h0V6100l-.144-.145,14.806.076,4.157.037h1.485a2.242,2.242,0,0,1-.353,0h-1.077l-4.118.039-14.9.075h-.144V6074.3h0l.176-.177h20.606v.151c0,7.657-.056,14.1-.076,18.654,0,2.241,0,4.012-.044,5.246v1.726C1645.759,6099.993,1645.627,6100.036,1645.627,6100.03Z" transform="translate(-1562.214 -6035.211)" fill="#aed3f2"/>
          <rect id="Rectángulo_5546" data-name="Rectángulo 5546" width="39.191" height="3.709" transform="translate(63.751 33.191)" fill="#f5f5f5"/>
          <path id="Trazado_104215" data-name="Trazado 104215" d="M1665.162,6072.012a1.07,1.07,0,0,1,0-.251v-.725c0-.63,0-1.556-.038-2.733l.07.069c-6.609.063-21.677.105-39.191.105h0l.177-.175h0v3.7l-.177-.176,27.761.075,8.337.051h.081l-8.293.05-27.912.07h-.17v-3.753h0l.17-.17h0c17.514,0,32.578.037,39.191.1h.07v.069q0,1.8-.039,2.776v.705C1665.2,6071.977,1665.162,6072.019,1665.162,6072.012Z" transform="translate(-1562.226 -6035.112)" fill="#aed3f2"/>
          <rect id="Rectángulo_5547" data-name="Rectángulo 5547" width="17.023" height="15.511" transform="translate(85.926 39.08)" fill="#f5f5f5"/>
          <path id="Trazado_104216" data-name="Trazado 104216" d="M1665.538,6089.8a1.871,1.871,0,0,1,0-.3v-.843c0-.755,0-1.82-.038-3.149,0-2.727-.044-6.582-.076-11.21l.151.152h-17.007l.17-.17h0v15.53l-.207-.183,12.28.076,3.483.044h1.26a1.662,1.662,0,0,1-.3,0h-.9l-3.451.037-12.374.081h-.151V6074.3h0l.176-.176h17.149v.145c-.031,4.666-.057,8.552-.076,11.335,0,1.322,0,2.374-.039,3.149v.813a1.093,1.093,0,0,1-.053.238Z" transform="translate(-1562.602 -6035.212)" fill="#aed3f2"/>
          <rect id="Rectángulo_5548" data-name="Rectángulo 5548" width="17.023" height="7.797" transform="translate(85.926 57.021)" fill="#f5f5f5"/>
          <path id="Trazado_104217" data-name="Trazado 104217" d="M1665.539,6100.333a3.631,3.631,0,0,1,0-.564v-1.562c0-1.379-.044-3.3-.07-5.668l.126.125-17.007.051c-.161.157.209-.215.17-.17h0v7.777l-.161-.162,12.171.076,3.546.05h1.3a1.864,1.864,0,0,1-.309,0h-.92l-3.514.044-12.28.076h-.161v-7.942h0c-.037,0,.334-.334.177-.177l17.007.044h.126v.12c-.031,2.4-.051,4.353-.07,5.743,0,.629,0,1.152-.031,1.536A3.941,3.941,0,0,1,1665.539,6100.333Z" transform="translate(-1562.603 -6035.515)" fill="#aed3f2"/>
          <path id="Trazado_104218" data-name="Trazado 104218" d="M1645.131,6074.339c-6.329,8.748-13.615,16.954-19.945,25.7" transform="translate(-1562.216 -6035.216)" fill="#fff"/>
          <path id="Trazado_104219" data-name="Trazado 104219" d="M1625.186,6100.033a1.1,1.1,0,0,1,.17-.284l.529-.789c.472-.679,1.171-1.643,2.047-2.821,1.763-2.368,4.272-5.567,7.093-9.063s5.359-6.668,7.166-8.993l2.129-2.752.585-.75a1.411,1.411,0,0,1,.227-.246,1.154,1.154,0,0,1-.17.29c-.144.214-.315.472-.529.781-.472.679-1.171,1.644-2.046,2.827-1.757,2.362-4.277,5.561-7.093,9.062s-5.359,6.664-7.166,8.987l-2.129,2.759c-.242.3-.428.541-.585.743S1625.2,6100.039,1625.186,6100.033Z" transform="translate(-1562.216 -6035.216)" fill="#aed3f2"/>
          <line id="Línea_281" data-name="Línea 281" x2="20.449" y2="25.738" transform="translate(62.97 39.08)" fill="none"/>
          <path id="Trazado_104220" data-name="Trazado 104220" d="M1645.629,6100.034c-.076.063-4.711-5.668-10.36-12.759s-10.165-12.917-10.075-12.977,4.71,5.668,10.36,12.766S1645.711,6099.977,1645.629,6100.034Z" transform="translate(-1562.216 -6035.216)" fill="#aed3f2"/>
          <path id="Trazado_104221" data-name="Trazado 104221" d="M1621.267,6074.3a3.2,3.2,0,1,1-3.2-3.2,3.2,3.2,0,0,1,3.2,3.2Z" transform="translate(-1562.044 -6035.162)" fill="#aed3f2"/>
          <path id="Trazado_104222" data-name="Trazado 104222" d="M1674.481,6066.4a3.2,3.2,0,1,1-3.2-3.2,3.2,3.2,0,0,1,3.2,3.2Z" transform="translate(-1562.931 -6035.03)" fill="#aed3f2"/>
          <path id="Trazado_104223" data-name="Trazado 104223" d="M1768.963,6292.057v14.34h-2.393v1.562h2.393v9.6h44.758v-8.735h-3.313v-1.89h3.313v-2.853h1.474v-1.3h-1.751v-10.707Z" transform="translate(-1564.572 -6038.844)" fill="#f5f5f5"/>
          <path id="Trazado_104224" data-name="Trazado 104224" d="M1802.435,6292.1v25.292h11.884v-8.735h-3.313v-1.735l3.313.056v-2.853h1.5l-.031-1.474-1.751-.044V6292.06Z" transform="translate(-1565.169 -6038.844)" fill="#aed3f2"/>
          <path id="Trazado_104225" data-name="Trazado 104225" d="M1802.68,6308.013c0,.089-8.1.157-18.086.157s-18.088-.068-18.088-.157,8.1-.161,18.088-.161S1802.68,6307.924,1802.68,6308.013Z" transform="translate(-1564.571 -6039.106)" fill="#aed3f2"/>
          <path id="Trazado_104226" data-name="Trazado 104226" d="M1802.68,6306.535c0,.088-8.1.161-18.086.161s-18.088-.07-18.088-.161,8.1-.162,18.088-.162S1802.68,6306.447,1802.68,6306.535Z" transform="translate(-1564.571 -6039.083)" fill="#aed3f2"/>
          <path id="Trazado_104227" data-name="Trazado 104227" d="M1805.043,6302.518c0,.089-8.1.162-18.087.162s-18.087-.068-18.087-.162,8.1-.161,18.087-.161S1805.043,6302.455,1805.043,6302.518Z" transform="translate(-1564.61 -6039.014)" fill="#aed3f2"/>
          <path id="Trazado_104228" data-name="Trazado 104228" d="M1805.274,6313.405c0,.088-8.1.161-18.088.161s-18.094-.076-18.094-.161,8.1-.161,18.094-.161S1805.274,6313.323,1805.274,6313.405Z" transform="translate(-1564.614 -6039.196)" fill="#aed3f2"/>
          <path id="Trazado_104229" data-name="Trazado 104229" d="M1631.573,6245.407h34.146a4.345,4.345,0,0,0,4.345-4.345v-10.526a7.335,7.335,0,0,0-7.335-7.33H1631.31Z" transform="translate(-1562.317 -6037.696)" fill="#ebebeb"/>
          <path id="Trazado_104230" data-name="Trazado 104230" d="M1664.527,6252.408h-67.141a3.314,3.314,0,0,1-3.287-3.305h0a3.32,3.32,0,0,1,3.313-3.312h67.114a3.313,3.313,0,0,1,3.3,3.313h0a3.3,3.3,0,0,1-3.3,3.305Z" transform="translate(-1561.697 -6038.074)" fill="#ebebeb"/>
          <path id="Trazado_104231" data-name="Trazado 104231" d="M1583.378,6156.133l36.935-.631,23.447,88.615-49.985.472-18.893-77.676a8.712,8.712,0,0,1,8.5-10.78Z" transform="translate(-1561.373 -6036.568)" fill="#aed3f2"/>
          <path id="Trazado_104232" data-name="Trazado 104232" d="M1602.052,6252.516,1591,6316.743h3.029l14.529-64.224Z" transform="translate(-1561.646 -6038.186)" fill="#ebebeb"/>
          <path id="Trazado_104233" data-name="Trazado 104233" d="M1628.535,6252.516l-11.745,64.227h3.029l15.222-64.224Z" transform="translate(-1562.076 -6038.186)" fill="#aed3f2"/>
          <path id="Trazado_104234" data-name="Trazado 104234" d="M1657.933,6252.516l13.1,64.224H1668l-16.582-64.224Z" transform="translate(-1562.653 -6038.186)" fill="#ebebeb"/>
          <path id="Trazado_104235" data-name="Trazado 104235" d="M1616.79,6155.478l18.263,88.708h14.018l-14.642-78.38a12.625,12.625,0,0,0-12.412-10.328Z" transform="translate(-1562.076 -6036.568)" fill="#ebebeb"/>
        </g>
        <g id="freepik--Floor--inject-139" transform="translate(0.522 278.745)">
          <path id="Trazado_104236" data-name="Trazado 104236" d="M1821.925,6318.184c0,.089-58.259.162-130.117.162s-130.129-.076-130.129-.162,58.246-.161,130.129-.161S1821.925,6318.09,1821.925,6318.184Z" transform="translate(-1561.679 -6318.023)" fill="#344154"/>
        </g>
        <g id="freepik--Briefcase--inject-139" transform="translate(47.56 236.311)">
          <path id="Trazado_104237" data-name="Trazado 104237" d="M1657.667,6317.774h-48.152l3.64-35.053,44.512-.29Z" transform="translate(-1609.515 -6274.995)" fill="#d9a171"/>
          <g id="Grupo_56648" data-name="Grupo 56648" transform="translate(0 7.436)" opacity="0.4">
            <path id="Trazado_104238" data-name="Trazado 104238" d="M1657.667,6317.774h-48.152l3.64-35.053,44.512-.29Z" transform="translate(-1609.515 -6282.431)"/>
          </g>
          <rect id="Rectángulo_5549" data-name="Rectángulo 5549" width="48.152" height="35.336" transform="translate(7.022 7.436)" fill="#d9a171"/>
          <g id="Grupo_56649" data-name="Grupo 56649" transform="translate(7.022 7.436)" opacity="0.2">
            <rect id="Rectángulo_5550" data-name="Rectángulo 5550" width="48.152" height="35.336"/>
          </g>
          <path id="Trazado_104239" data-name="Trazado 104239" d="M1665.214,6299.829c0,.089-10.833.161-24.19.161s-24.2-.075-24.2-.161,10.833-.17,24.2-.17S1665.214,6299.734,1665.214,6299.829Z" transform="translate(-1609.636 -6275.282)" fill="#344154"/>
          <path id="Trazado_104240" data-name="Trazado 104240" d="M1625.376,6303.2a21.5,21.5,0,0,1,0-5.3A21.5,21.5,0,0,1,1625.376,6303.2Z" transform="translate(-1609.776 -6275.253)" fill="#344154"/>
          <path id="Trazado_104241" data-name="Trazado 104241" d="M1659.421,6303.018a17.168,17.168,0,0,1,0-4.729A17.149,17.149,0,0,1,1659.421,6303.018Z" transform="translate(-1610.344 -6275.259)" fill="#344154"/>
          <path id="Trazado_104242" data-name="Trazado 104242" d="M1648.32,6282.487a6.909,6.909,0,0,0-.113-1.048,6.742,6.742,0,0,0-1.071-2.614,7.644,7.644,0,0,0-3.181-2.669,11.337,11.337,0,0,0-5.038-.952,12.3,12.3,0,0,0-5.037,1.128,8.372,8.372,0,0,0-3.219,2.652,7.226,7.226,0,0,0-1.177,2.569c-.152.661-.161,1.04-.189,1.04a1.442,1.442,0,0,1,0-.277,4.3,4.3,0,0,1,.076-.787,6.862,6.862,0,0,1,1.115-2.677,8.377,8.377,0,0,1,3.275-2.79,12.3,12.3,0,0,1,5.133-1.185,11.4,11.4,0,0,1,5.171,1.008,7.774,7.774,0,0,1,3.243,2.815,6.359,6.359,0,0,1,1,2.721,4.358,4.358,0,0,1,0,.786A.8.8,0,0,1,1648.32,6282.487Z" transform="translate(-1609.845 -6274.869)" fill="#344154"/>
        </g>
        <g id="freepik--Plant--inject-139" transform="translate(43.238 77.18)">
          <path id="Trazado_104243" data-name="Trazado 104243" d="M1630.225,6143.8a11.874,11.874,0,0,1,7.381-.895,6.175,6.175,0,0,1,3.646,1.624,2.63,2.63,0,0,1,.039,3.641,3.5,3.5,0,0,1-2.3.586c-1.952,0-4.111-.367-5.668.806-.887.667-1.48,1.782-2.519,2.109a2.519,2.519,0,0,1-2.765-1.229,4.266,4.266,0,0,1-.314-3.149,4.84,4.84,0,0,1,2.5-3.495Z" transform="translate(-1605.494 -6113.534)" fill="#d9a171"/>
          <path id="Trazado_104244" data-name="Trazado 104244" d="M1625.017,6133.377c1.37,1.965,4.037,1.315,5.278.118a9.983,9.983,0,0,0,2.236-4.584c1.083-3.778,2.176-7.745,1.37-11.593a6.458,6.458,0,0,0-1.48-3.15,3.365,3.365,0,0,0-3.187-1.058c-1.348.353-2.185,1.669-2.79,2.928a27.612,27.612,0,0,0-2.727,11.858,9.613,9.613,0,0,0,1.3,5.484" transform="translate(-1605.424 -6113.042)" fill="#d9a171"/>
          <path id="Trazado_104245" data-name="Trazado 104245" d="M1620.941,6136.3a7.109,7.109,0,0,0,1.108-6.562,12.637,12.637,0,0,0-3.885-5.668,20.856,20.856,0,0,0-6.965-4.081,7.335,7.335,0,0,0-3.148-.536,3.277,3.277,0,0,0-2.625,1.593c-.737,1.4,0,3.093.725,4.472a53.071,53.071,0,0,0,4.578,6.965,12.265,12.265,0,0,0,5.038,4.308c2.1.794,4.263.706,5.372-.743" transform="translate(-1605.12 -6113.147)" fill="#d9a171"/>
          <path id="Trazado_104246" data-name="Trazado 104246" d="M1624.948,6163.393a4.8,4.8,0,0,0,.126-.893c.063-.631.139-1.46.233-2.431a35.777,35.777,0,0,1,.549-3.564,26.819,26.819,0,0,1,1.3-4.207,15.444,15.444,0,0,1,2.147-3.811,8.029,8.029,0,0,1,2.72-2.257,7.589,7.589,0,0,1,2.267-.718.453.453,0,1,0-.019-.125,7.113,7.113,0,0,0-2.381.629,8.032,8.032,0,0,0-2.873,2.275,15.023,15.023,0,0,0-2.223,3.885,25.81,25.81,0,0,0-1.26,4.277,30.021,30.021,0,0,0-.472,3.614c-.076,1.032-.107,1.889-.12,2.444a4.179,4.179,0,0,0,.009.881Z" transform="translate(-1605.449 -6113.479)" fill="#344154"/>
          <path id="Trazado_104247" data-name="Trazado 104247" d="M1625.114,6161.219a1.534,1.534,0,0,0,0-.415v-1.185c0-1.02,0-2.519.05-4.338.089-3.673.41-7.613,1.014-13.182.579-5.227,1.354-11.336,2.176-15.278.177-.9.352-1.706.517-2.419s.3-1.322.428-1.819.2-.844.277-1.146a1.72,1.72,0,0,0,.069-.408,1.649,1.649,0,0,0-.145.39l-.34,1.128c-.151.491-.308,1.1-.484,1.813s-.384,1.512-.573,2.413a133.236,133.236,0,0,0-2.285,14.175,140.671,140.671,0,0,0-.908,14.327c0,1.839,0,3.325.063,4.352,0,.479.051.87.069,1.185a2.139,2.139,0,0,0,.071.409Z" transform="translate(-1605.45 -6113.175)" fill="#344154"/>
          <path id="Trazado_104248" data-name="Trazado 104248" d="M1624.919,6151.476a7.267,7.267,0,0,0,0-1.259c-.044-.793-.161-1.938-.378-3.343a43.984,43.984,0,0,0-1.09-4.874,39.861,39.861,0,0,0-2.04-5.769,30.649,30.649,0,0,0-5.982-9.319,14.093,14.093,0,0,0-1.411-1.31,5.758,5.758,0,0,0-.63-.511l-.548-.377a7.25,7.25,0,0,0-1.04-.63,35.723,35.723,0,0,1,3.407,3.036,32.359,32.359,0,0,1,5.838,9.29,45.554,45.554,0,0,1,2.046,5.718,48.256,48.256,0,0,1,1.159,4.825c.258,1.392.4,2.518.491,3.312a8.283,8.283,0,0,0,.177,1.214Z" transform="translate(-1605.23 -6113.226)" fill="#344154"/>
          <path id="Trazado_104249" data-name="Trazado 104249" d="M1615.522,6169.509l.976,13.439h17.268l.982-13.439Z" transform="translate(-1605.293 -6113.982)" fill="#344154"/>
          <rect id="Rectángulo_5551" data-name="Rectángulo 5551" width="22.955" height="5.296" transform="translate(8.56 50.224)" fill="#344154"/>
          <path id="Trazado_104250" data-name="Trazado 104250" d="M1613.825,6182.65v1.467H1636.4v-1.467Z" transform="translate(-1605.264 -6114.202)" fill="#455a64"/>
          <path id="Trazado_104251" data-name="Trazado 104251" d="M1615.978,6186.731l-1.058-2.588H1635.6l-1.234,2.588Z" transform="translate(-1605.282 -6114.227)" fill="#455a64"/>
          <path id="Trazado_104252" data-name="Trazado 104252" d="M1634.432,6173.939s0,.043-.081.125l-.259.338-1,1.26-.05.063-.039-.063-2.475-3.419h.146l-2.437,3.444-.076.114-.081-.107c-.9-1.064-1.889-2.222-2.884-3.432h.161l-.161.2-2.579,3.229-.088.107-.076-.114-2.437-3.439h.145l-3,3.414-.057.063-.038-.068-.938-1.582-.242-.415a.649.649,0,0,1-.075-.151.845.845,0,0,1,.1.132l.264.4.989,1.55h-.1l2.948-3.458.076-.089.068.095c.744,1.04,1.568,2.2,2.457,3.425h-.17l2.579-3.242.161-.2.081-.105.088.1c1.008,1.209,1.977,2.374,2.878,3.444h-.161l2.455-3.431.076-.1.07.1,2.418,3.458h-.089c.442-.523.793-.945,1.048-1.26l.285-.322A.5.5,0,0,1,1634.432,6173.939Z" transform="translate(-1605.297 -6114.023)" fill="#aed3f2"/>
          <path id="Trazado_104253" data-name="Trazado 104253" d="M1634.99,6169.416c0,.057-4.327.107-9.66.107s-9.667-.05-9.667-.107,4.327-.107,9.654-.107S1634.99,6169.354,1634.99,6169.416Z" transform="translate(-1605.295 -6113.979)" fill="#455a64"/>
          <path id="Trazado_104254" data-name="Trazado 104254" d="M1635.852,6184.288c0,.063-4.7.107-10.5.107s-10.5-.045-10.5-.107,4.7-.106,10.5-.106S1635.852,6184.231,1635.852,6184.288Z" transform="translate(-1605.282 -6114.228)" fill="#344154"/>
        </g>
        <g id="freepik--Desk--inject-139" transform="translate(29.353 114.45)">
          <rect id="Rectángulo_5552" data-name="Rectángulo 5552" width="50.558" height="2.456" transform="translate(133.788 33.075)" fill="#344154"/>
          <path id="Trazado_104255" data-name="Trazado 104255" d="M1785.783,6186.474l9.484-35.532h-39.48l-8.584,35.532Z" transform="translate(-1593.603 -6150.942)" fill="#344154"/>
          <path id="Trazado_104256" data-name="Trazado 104256" d="M1749.611,6183.812h35.26l8.212-31.2h-35.45Z" transform="translate(-1593.643 -6150.971)" fill="#455a64"/>
          <path id="Trazado_104257" data-name="Trazado 104257" d="M1785.111,6184.138h-35.9l8.187-31.838h36.1Zm-35.1-.631h34.637l8.043-30.575h-34.779Z" transform="translate(-1593.636 -6150.964)" fill="#344154"/>
          <rect id="Rectángulo_5553" data-name="Rectángulo 5553" width="2.55" height="121.898" transform="translate(29.593 42.433)" fill="#455a64"/>
          <rect id="Rectángulo_5554" data-name="Rectángulo 5554" width="2.55" height="121.545" transform="translate(32.149 42.78)" fill="#344154"/>
          <rect id="Rectángulo_5555" data-name="Rectángulo 5555" width="2.55" height="121.898" transform="translate(186.89 42.433)" fill="#455a64"/>
          <rect id="Rectángulo_5556" data-name="Rectángulo 5556" width="2.55" height="121.545" transform="translate(189.44 42.78)" fill="#344154"/>
          <rect id="Rectángulo_5557" data-name="Rectángulo 5557" width="227.617" height="10.001" transform="translate(0 35.348)" fill="#455a64"/>
          <rect id="Rectángulo_5558" data-name="Rectángulo 5558" width="85.378" height="16.551" transform="translate(102.791 45.349)" fill="#455a64"/>
          <path id="Trazado_104258" data-name="Trazado 104258" d="M1742.753,6204.277a1.889,1.889,0,1,1-1.889-1.889,1.89,1.89,0,0,1,1.889,1.889Z" transform="translate(-1593.466 -6151.8)" fill="#344154"/>
          <path id="Trazado_104259" data-name="Trazado 104259" d="M1799.03,6197.062c0,.089-29.6.161-66.062.161s-66.062-.076-66.062-.161,29.6-.161,66.062-.161S1799.03,6196.971,1799.03,6197.062Z" transform="translate(-1592.264 -6151.71)" fill="#344154"/>
        </g>
        <g id="freepik--Character--inject-139" transform="translate(90.669 17.377)">
          <path id="Trazado_104260" data-name="Trazado 104260" d="M1721.1,6077.42c.34,0,4.943.769,4.943.769l6.229,7.847.939,1.484-8.4,5.372-3.708-5.49-3.148-2.047a3.206,3.206,0,0,1,3.325-.347,9.82,9.82,0,0,0,3.924.768l-1.108-3.147-3.413-.681Z" transform="translate(-1654.432 -6052.644)" fill="#eb996e"/>
          <path id="Trazado_104261" data-name="Trazado 104261" d="M1721.419,6071.834a.967.967,0,0,1,1.176.688.9.9,0,0,1,.021.1c.51,3.22,2.053,12.905,2.52,15.746a.921.921,0,0,1-.668,1.047l-7.415,2.072a.92.92,0,0,1-1.136-.632,1.041,1.041,0,0,1-.028-.143l-2.028-16.079a.968.968,0,0,1,.725-1.064Z" transform="translate(-1654.363 -6052.551)" fill="#344154"/>
          <path id="Trazado_104262" data-name="Trazado 104262" d="M1716.452,6089.517l7.557-2.109-2-13.38a1.29,1.29,0,0,0-1.466-1.089,1.25,1.25,0,0,0-.146.03l-6.052,1.605Z" transform="translate(-1654.371 -6052.569)" fill="#ebebeb"/>
          <path id="Trazado_104263" data-name="Trazado 104263" d="M1723.955,6079.847l-3.394,2.519s.283.894.8.957a20.793,20.793,0,0,0,3.25-.691Z" transform="translate(-1654.475 -6052.685)" fill="#eb996e"/>
          <path id="Trazado_104264" data-name="Trazado 104264" d="M1723.534,6077.777l-3.558,1.563s-.227,1.158,1.1.994l-1.191.856s.3.518,1.783.581,2.928-2,2.928-2Z" transform="translate(-1654.463 -6052.649)" fill="#eb996e"/>
          <path id="Trazado_104265" data-name="Trazado 104265" d="M1727.088,6081.776c0,.044-.434-.039-.907-.479a9.521,9.521,0,0,0-.818-.687,1.161,1.161,0,0,0-1.128-.138,21.316,21.316,0,0,1-3.085,1.461,15.346,15.346,0,0,1,2.973-1.773,1.434,1.434,0,0,1,.763-.088,1.75,1.75,0,0,1,.63.29,5.3,5.3,0,0,1,.806.768A7.175,7.175,0,0,0,1727.088,6081.776Z" transform="translate(-1654.485 -6052.687)" fill="#d1734a"/>
          <path id="Trazado_104266" data-name="Trazado 104266" d="M1726.46,6090.734a4.861,4.861,0,0,1-.564-5.346,7.767,7.767,0,0,0,.564,5.346Z" transform="translate(-1654.555 -6052.777)" fill="#d1734a"/>
          <path id="Trazado_104267" data-name="Trazado 104267" d="M1725.945,6079.359c-.044.037-.233-.232-.687-.378a2.4,2.4,0,0,0-1.807.208c-.667.322-1.26.729-1.731.925a1.651,1.651,0,0,1-.813.2,6.349,6.349,0,0,1,.705-.409,16.239,16.239,0,0,1,1.705-1.014,2.861,2.861,0,0,1,1.1-.3,1.958,1.958,0,0,1,.925.17,1.163,1.163,0,0,1,.605.593Z" transform="translate(-1654.48 -6052.663)" fill="#d1734a"/>
          <path id="Trazado_104268" data-name="Trazado 104268" d="M1725.729,6102.064l18.509,11.884-4.906,14.031s-12.666-3.911-12.433-4.321S1725.729,6102.064,1725.729,6102.064Z" transform="translate(-1654.561 -6053.056)" fill="#d9a171"/>
          <path id="Trazado_104269" data-name="Trazado 104269" d="M1720.578,6295.167l-2.915,13.408s12.654,7.462,12.355,9.988l-26.2-4.71,3.678-21.079Z" transform="translate(-1654.196 -6056.233)" fill="#344154"/>
          <path id="Trazado_104270" data-name="Trazado 104270" d="M1703.82,6314.174l.454-2.11,24.951,5.309s1.071.719.794,1.511Z" transform="translate(-1654.196 -6056.555)" fill="#455a64"/>
          <path id="Trazado_104271" data-name="Trazado 104271" d="M1690.33,6296.708l-.434,13.709s13.8,5.039,13.963,7.589l-26.621.119-.2-21.412Z" transform="translate(-1653.75 -6056.299)" fill="#344154"/>
          <g id="Grupo_56650" data-name="Grupo 56650" transform="translate(23.488 259.666)" opacity="0.6">
            <path id="Trazado_104272" data-name="Trazado 104272" d="M1677.241,6318.451l.063-2.16,25.5.7s1.189.51,1.058,1.342Z" transform="translate(-1677.241 -6316.291)" fill="#455a64"/>
          </g>
          <path id="Trazado_104273" data-name="Trazado 104273" d="M1694.481,6067.809l2.714,31.488,15.745-1.26c.094-1.839-.038-8.955-.038-8.955s6.556-1.021,6.637-7.557c.039-3.188-.416-9.761-.894-15.688a12.13,12.13,0,0,0-12.784-11.166h0a12.129,12.129,0,0,0-11.4,12.815C1694.465,6067.593,1694.473,6067.7,1694.481,6067.809Z" transform="translate(-1654.039 -6052.265)" fill="#eb996e"/>
          <path id="Trazado_104274" data-name="Trazado 104274" d="M1713.077,6089.5a15.252,15.252,0,0,1-8.544-2.431s2.021,4.718,8.558,4.126Z" transform="translate(-1654.208 -6052.805)" fill="#d1734a"/>
          <path id="Trazado_104275" data-name="Trazado 104275" d="M1716.457,6070.668a.94.94,0,0,1-.907.944.9.9,0,0,1-.962-.821v-.022a.94.94,0,0,1,.9-.945.9.9,0,0,1,.967.828Z" transform="translate(-1654.376 -6052.517)" fill="#344154"/>
          <path id="Trazado_104276" data-name="Trazado 104276" d="M1717.576,6069.321c-.113.125-.825-.4-1.832-.4s-1.744.5-1.854.384.063-.276.384-.509a2.59,2.59,0,0,1,1.486-.46,2.466,2.466,0,0,1,1.461.472C1717.533,6069.043,1717.639,6069.271,1717.576,6069.321Z" transform="translate(-1654.362 -6052.493)" fill="#344154"/>
          <path id="Trazado_104277" data-name="Trazado 104277" d="M1706.619,6070.668a.932.932,0,0,1-.9.944.9.9,0,0,1-.967-.827v-.014a.945.945,0,0,1,.908-.944.9.9,0,0,1,.963.834Z" transform="translate(-1654.212 -6052.519)" fill="#344154"/>
          <path id="Trazado_104278" data-name="Trazado 104278" d="M1707.5,6069.513c-.114.12-.825-.4-1.833-.4s-1.744.5-1.854.377.063-.271.385-.5a2.512,2.512,0,0,1,1.486-.46,2.44,2.44,0,0,1,1.461.473C1707.464,6069.236,1707.564,6069.456,1707.5,6069.513Z" transform="translate(-1654.194 -6052.496)" fill="#344154"/>
          <path id="Trazado_104279" data-name="Trazado 104279" d="M1711.294,6076.981a6.713,6.713,0,0,1,1.637-.3c.251,0,.5-.076.542-.253a1.326,1.326,0,0,0-.17-.761c-.242-.631-.5-1.26-.763-1.96a33.466,33.466,0,0,1-1.707-5.119,34.2,34.2,0,0,1,2.116,4.968c.252.693.5,1.349.725,1.971a1.517,1.517,0,0,1,.139,1.015.63.63,0,0,1-.429.371,1.675,1.675,0,0,1-.434.063,6.39,6.39,0,0,1-1.655,0Z" transform="translate(-1654.315 -6052.498)" fill="#344154"/>
          <path id="Trazado_104280" data-name="Trazado 104280" d="M1708.274,6077.836c.161,0,.161,1.083,1.1,1.889s2.1.63,2.109.812-.258.208-.755.222a2.721,2.721,0,0,1-1.757-.63,2.359,2.359,0,0,1-.875-1.575C1708.1,6078.1,1708.2,6077.829,1708.274,6077.836Z" transform="translate(-1654.267 -6052.651)" fill="#344154"/>
          <path id="Trazado_104281" data-name="Trazado 104281" d="M1707.764,6065.5c-.1.277-1.109.145-2.293.288s-2.135.467-2.292.222c-.068-.12.094-.379.484-.631a3.974,3.974,0,0,1,3.489-.384C1707.587,6065.155,1707.8,6065.376,1707.764,6065.5Z" transform="translate(-1654.185 -6052.433)" fill="#344154"/>
          <path id="Trazado_104282" data-name="Trazado 104282" d="M1717.211,6066.355c-.177.233-.875,0-1.707,0s-1.543.162-1.706-.081c-.07-.12.044-.348.352-.564a2.476,2.476,0,0,1,2.746.088C1717.192,6066.009,1717.286,6066.249,1717.211,6066.355Z" transform="translate(-1654.361 -6052.443)" fill="#344154"/>
          <path id="Trazado_104283" data-name="Trazado 104283" d="M1701.549,6060.656h-.037a5.158,5.158,0,0,0-1.889,3.339v.131c-.259,1.889-.209,3.779-.484,5.668a8.3,8.3,0,0,1-2.305,5.04c-.564.528-1.568.893-2.034.275a1.542,1.542,0,0,1-.233-.856c-.353-4.514-1.587-8.52-1.574-13.224a3.968,3.968,0,0,1,1.631-3.25c.988-.706,2.191-1.441,3.293-.92s2.519,2.579,3.368,3.446" transform="translate(-1654.016 -6052.299)" fill="#344154"/>
          <path id="Trazado_104284" data-name="Trazado 104284" d="M1696.656,6071.042c-.113-.05-4.5-1.335-4.364,3.148s4.616,3.414,4.616,3.288S1696.656,6071.042,1696.656,6071.042Z" transform="translate(-1654.004 -6052.534)" fill="#eb996e"/>
          <path id="Trazado_104285" data-name="Trazado 104285" d="M1695.505,6075.851a1.453,1.453,0,0,1-.2.119.785.785,0,0,1-.586.032,1.933,1.933,0,0,1-.951-1.7,2.612,2.612,0,0,1,.183-1.128.905.905,0,0,1,.564-.629.412.412,0,0,1,.473.195c.063.125.037.215.063.222s.088-.076.05-.258a.5.5,0,0,0-.188-.278.631.631,0,0,0-.435-.1,1.118,1.118,0,0,0-.794.725,2.635,2.635,0,0,0-.227,1.26,2,2,0,0,0,1.2,1.889.833.833,0,0,0,.712-.145C1695.505,6075.956,1695.522,6075.856,1695.505,6075.851Z" transform="translate(-1654.022 -6052.56)" fill="#d1734a"/>
          <path id="Trazado_104286" data-name="Trazado 104286" d="M1697.844,6057.478c-1.1-1.8,1.921-4.371,4.131-5.04s5.126.38,7.323,1.109a12.4,12.4,0,0,0,4.24,1.048,10.236,10.236,0,0,0,2.84-.726,7.179,7.179,0,0,1,2.865-.563,2.692,2.692,0,0,1,2.355,1.493,1.692,1.692,0,0,1-1.134,2.285,2.2,2.2,0,1,1,.592,4.08c.63-.483,1.612.315,1.531,1.109a2.312,2.312,0,0,1-1.531,1.7,8.419,8.419,0,0,1-5.982-.095c-1.934-.65-3.728-1.663-5.668-2.362s-5.132-1.959-7.053-1.26c-1.417.5-2.405,2.211-3.206,1.832a2.735,2.735,0,0,1-1.417-2.015,7.908,7.908,0,0,1,.088-2.52" transform="translate(-1654.092 -6052.224)" fill="#344154"/>
          <path id="Trazado_104287" data-name="Trazado 104287" d="M1721.025,6056.958c-.039,0-.227.327-.712.85a6.143,6.143,0,0,1-2.488,1.607,5.7,5.7,0,0,1-4.272-.17c-1.524-.686-2.828-2.071-4.345-3.331a9.283,9.283,0,0,0-5.038-2.417,5.157,5.157,0,0,0-4.282,1.479,3.9,3.9,0,0,0-1.02,2.9,2.936,2.936,0,0,0,.2.825c.081.175.133.265.144.257a6.988,6.988,0,0,1-.169-1.09,3.868,3.868,0,0,1,1.077-2.676,4.917,4.917,0,0,1,4.055-1.3,9.066,9.066,0,0,1,4.786,2.35,19.789,19.789,0,0,0,4.453,3.375,6.085,6.085,0,0,0,7.061-1.693,4.068,4.068,0,0,0,.466-.692.916.916,0,0,0,.09-.273Z" transform="translate(-1654.114 -6052.246)" fill="#455a64"/>
          <path id="Trazado_104288" data-name="Trazado 104288" d="M1695.54,6070.651a1.21,1.21,0,0,0,.366-.479,3.074,3.074,0,0,0,.226-1.624c-.1-1.443-1.378-2.992-1.543-4.989a4.506,4.506,0,0,1,.5-2.676,3.438,3.438,0,0,1,1.663-1.436,2.926,2.926,0,0,1,1.5-.207c.359.063.554.145.573.107a1.1,1.1,0,0,0-.535-.271,2.787,2.787,0,0,0-1.644.075,3.643,3.643,0,0,0-1.889,1.525,4.787,4.787,0,0,0-.586,2.928,8.285,8.285,0,0,0,.863,2.821,8.543,8.543,0,0,1,.787,2.177A3.383,3.383,0,0,1,1695.54,6070.651Z" transform="translate(-1654.034 -6052.337)" fill="#455a64"/>
          <path id="Trazado_104289" data-name="Trazado 104289" d="M1721.975,6305.528s13.646-66.944,13.659-68.28l-24.379-12.86-9.446,78.564Z" transform="translate(-1654.162 -6055.093)" fill="#344154"/>
          <path id="Trazado_104290" data-name="Trazado 104290" d="M1690.832,6306.791l18.849-116.021v-25.026l-27.295,1.951c-.327.977-7.211,139.249-7.211,139.249l2.66-.15h13" transform="translate(-1653.718 -6054.116)" fill="#344154"/>
          <path id="Trazado_104291" data-name="Trazado 104291" d="M1724.949,6163.943l10.687,72.3-23.894-5.793-9.737-64.148Z" transform="translate(-1654.165 -6054.086)" fill="#344154"/>
          <line id="Línea_282" data-name="Línea 282" x1="1.215" y1="9.843" transform="translate(74.902 128.863)" fill="none"/>
          <path id="Trazado_104292" data-name="Trazado 104292" d="M1729.28,6193.948s4.156-3.571,4.566-6.26-4.982-45.974-4.982-45.974l-2.752-35.786c0,.629.075-4.51-.756-4.818-2.52-.951-7.7-2.676-7.7-2.676l-2.96-2.66s5.315,22.723,6.347,28.936Z" transform="translate(-1654.377 -6052.949)" fill="#d9a171"/>
          <path id="Trazado_104293" data-name="Trazado 104293" d="M1694.4,6093.271l-4.471,2.982-16.771,6.593,7.451,28.094-1,16.324-.951,10.359s-5,25.65-9.4,41.237c0,0,4.917,9.32,8.961,10.617l1.681,1,6-43.9,5.145-6.928c.5-.668.958-1.354,1.393-2.06,1.26-2.06,4.144-6.738,6.443-10.348,3.035-4.767,6.927-15.6,5.774-20.221S1694.4,6093.271,1694.4,6093.271Z" transform="translate(-1653.62 -6052.909)" fill="#d9a171"/>
          <path id="Trazado_104294" data-name="Trazado 104294" d="M1683.236,6191.569a38.411,38.411,0,0,0,9.6-11.538" transform="translate(-1653.853 -6054.354)" fill="#344154"/>
          <path id="Trazado_104295" data-name="Trazado 104295" d="M1694.67,6093.242l4.037,25.9a37.514,37.514,0,0,1-1.632,9.761l-7.2,23.3s-5.668,12.7-3.708,14.327,17.193,0,17.193,0l20.619-2.991a1.813,1.813,0,0,0,1.543-1.965l-3.063-31.627c-1.033-2.186-1.455-6.656-1.89-8.244l-6.347-25.99-1.3-.169-2.821,1.934-1.485.119-12.476-6.038Z" transform="translate(-1653.894 -6052.88)" fill="#ebebeb"/>
          <path id="Trazado_104296" data-name="Trazado 104296" d="M1690.911,6149.337c3.331-10.385,7.645-27.269,7.645-27.269a50.8,50.8,0,0,1-3.407,26.166c-2.682,6.776-5.926,11.9-8.156,18.849l-.068.284s-1.26.069-1.171-1.789,1.889-7.388,3.092-10.447S1690.911,6149.337,1690.911,6149.337Z" transform="translate(-1653.895 -6053.389)" fill="#aed3f2"/>
          <path id="Trazado_104297" data-name="Trazado 104297" d="M1711.181,6099.816h-2.8l-.837,3.835,2.449,2.966,2.469-.242.806-2.752-.661-1.536Z" transform="translate(-1654.257 -6053.017)" fill="#6595bf"/>
          <path id="Trazado_104298" data-name="Trazado 104298" d="M1727.805,6122c.881.177,10.618,6.727,14.157,6.021s6.4-4.044,6.782-4.491c2.009-2.381.75-7.323.17-9.188a6.328,6.328,0,0,0-.572-1.3l-15.033-25.821-8.86,5.385,9.195,16.771Z" transform="translate(-1654.54 -6052.808)" fill="#d9a171"/>
          <path id="Trazado_104299" data-name="Trazado 104299" d="M1654.117,6153.481a11.537,11.537,0,0,1,.542-9.448c2.041-4.036,5.277-10.559,5.957-12.7,1.008-3.18,10.429-27.584,12.274-28.339l8.188,27.64-9.511,20.027,11.147,21-9.288,10.014s-17.577-24.511-19.022-27.541C1654.3,6153.925,1654.2,6153.7,1654.117,6153.481Z" transform="translate(-1653.355 -6053.071)" fill="#d9a171"/>
          <path id="Trazado_104300" data-name="Trazado 104300" d="M1683.524,6189.239a31.248,31.248,0,0,0,4.653-5.492.206.206,0,0,1,0-.17.267.267,0,0,1,.189-.113,26.864,26.864,0,0,0,1.461-2.564c-1.556-1.014-3.589-2.519-1.378-2.858,2.727-.391,4.675-1.713,4.95-2.437s-.63-1.37-1.348-.912a9.919,9.919,0,0,1-2.62.906,6.629,6.629,0,0,1-2.224.14c-.862-.095-4.408-1.632-5.037-1.745l-6.632,6.978S1680.633,6186.392,1683.524,6189.239Z" transform="translate(-1653.724 -6054.254)" fill="#eb996e"/>
          <path id="Trazado_104301" data-name="Trazado 104301" d="M1727.764,6123.025a3.324,3.324,0,0,1-.233-.775c-.133-.5-.3-1.259-.479-2.16a70.437,70.437,0,0,1-1.027-7.21,69.028,69.028,0,0,1-.264-7.281c0-.932.05-1.681.089-2.2a4.5,4.5,0,0,1,.088-.806,3.4,3.4,0,0,1,.039.813v2.2c0,1.89.107,4.408.359,7.254s.63,5.366.932,7.2c.144.863.27,1.595.372,2.177a4.332,4.332,0,0,1,.126.8Z" transform="translate(-1654.561 -6053.064)" fill="#344154"/>
          <path id="Trazado_104302" data-name="Trazado 104302" d="M1735.55,6124.556a.719.719,0,0,1-.214-.05,3.425,3.425,0,0,1-.564-.265,4.815,4.815,0,0,1-1.6-1.625,10.208,10.208,0,0,1-1.145-3.15,37.949,37.949,0,0,1-.749-4.048c-.264-2.91-.484-5.523-.63-7.425-.063-.9-.114-1.656-.161-2.256a3.78,3.78,0,0,1,0-.832,4.619,4.619,0,0,1,.139.818c.063.628.151,1.347.251,2.241.207,1.89.466,4.528.725,7.416.182,1.436.453,2.795.725,4.018a10.681,10.681,0,0,0,1.048,3.148,5.151,5.151,0,0,0,1.474,1.638A4.746,4.746,0,0,1,1735.55,6124.556Z" transform="translate(-1654.638 -6053.102)" fill="#344154"/>
          <g id="Grupo_56651" data-name="Grupo 56651" transform="translate(74.101 51.831)" opacity="0.3">
            <path id="Trazado_104303" data-name="Trazado 104303" d="M1730.446,6104.933a55.6,55.6,0,0,0-1.587,8.849,13.5,13.5,0,0,0,.277,5.346,5.544,5.544,0,0,0,3.547,3.778q-1.191-8.765-2.1-17.564" transform="translate(-1728.711 -6104.933)"/>
          </g>
          <g id="Grupo_56652" data-name="Grupo 56652" transform="translate(24.269 74.432)" opacity="0.3">
            <path id="Trazado_104304" data-name="Trazado 104304" d="M1678.035,6161.938s2.948,6.04,4.578,9.2c3.4-14.05-.912-28.837.492-43.222l-2.457,4.957-.692,11.468-.529,6.726A89.534,89.534,0,0,1,1678.035,6161.938Z" transform="translate(-1678.035 -6127.918)"/>
          </g>
          <path id="Trazado_104305" data-name="Trazado 104305" d="M1680.456,6103.269a4.838,4.838,0,0,1,.5.78c.161.259.335.58.523.958s.422.813.63,1.3a30.274,30.274,0,0,1,2.66,12.633,28.9,28.9,0,0,1-.258,3.778c-.05.536-.152,1.015-.227,1.43s-.151.781-.22,1.071a4.647,4.647,0,0,1-.259.893,5.365,5.365,0,0,1,.133-.919c.05-.3.113-.629.17-1.077s.132-.895.177-1.425a33.718,33.718,0,0,0,.183-3.732,36.351,36.351,0,0,0-.346-4.554,36.855,36.855,0,0,0-.976-4.465,32.682,32.682,0,0,0-1.26-3.521c-.189-.5-.41-.924-.58-1.315s-.335-.712-.472-.977a4.721,4.721,0,0,1-.375-.862Z" transform="translate(-1653.806 -6053.075)" fill="#344154"/>
          <path id="Trazado_104306" data-name="Trazado 104306" d="M1671.594,6151.545c-.044.032-.466-.63-1.26-1.668a16.216,16.216,0,0,0-3.722-3.372,3.813,3.813,0,0,0-2.57-.628,5.018,5.018,0,0,0-2.034.87c-1.064.729-1.644,1.3-1.688,1.258a1.87,1.87,0,0,1,.377-.434,11.018,11.018,0,0,1,1.178-1.021,5.122,5.122,0,0,1,2.1-.937,4.009,4.009,0,0,1,2.784.629,14.511,14.511,0,0,1,3.735,3.508,13.3,13.3,0,0,1,.856,1.3A1.785,1.785,0,0,1,1671.594,6151.545Z" transform="translate(-1653.471 -6053.779)" fill="#344154"/>
          <path id="Trazado_104307" data-name="Trazado 104307" d="M1669.671,6144.916a12.8,12.8,0,0,1,2.079,6.392c-.1,0-.346-1.472-.926-3.23S1669.6,6144.972,1669.671,6144.916Z" transform="translate(-1653.626 -6053.769)" fill="#344154"/>
          <path id="Trazado_104308" data-name="Trazado 104308" d="M1677.766,6162.118a5.252,5.252,0,0,1,.472.807l1.2,2.256c1,1.921,2.368,4.595,3.886,7.6l.056.107-.081.081-.629.63c-2.475,2.58-4.724,4.9-6.368,6.563l-1.959,1.965a6.123,6.123,0,0,1-.75.693,6.056,6.056,0,0,1,.629-.781l1.89-2.035c1.6-1.713,3.829-4.057,6.3-6.632l.63-.628v.188c-1.511-3.01-2.846-5.668-3.778-7.652l-1.1-2.3a4.785,4.785,0,0,1-.391-.859Z" transform="translate(-1653.693 -6054.055)" fill="#344154"/>
          <path id="Trazado_104309" data-name="Trazado 104309" d="M1690.313,6148.36a3.014,3.014,0,0,1,0-.548v-1.556c.031-1.378.076-3.331.131-5.723s.12-5.29.251-8.482a46.263,46.263,0,0,1,1.412-10.316,24.113,24.113,0,0,1,1.99-4.98l.119.241a3.418,3.418,0,0,1-2.015-1.14,4.937,4.937,0,0,1-1.048-1.959,15.545,15.545,0,0,1-.328-4.081v-12.469a1.968,1.968,0,0,1,0-.417,2.19,2.19,0,0,1,.032.417c0,.3,0,.7.031,1.209,0,1.083.037,2.6.068,4.484s.044,4.207.069,6.775a15.316,15.316,0,0,0,.34,4,4.683,4.683,0,0,0,.989,1.827,3.082,3.082,0,0,0,1.826,1.031l.227.039-.107.2a23.624,23.624,0,0,0-1.959,4.912,47.227,47.227,0,0,0-1.422,10.241c-.146,3.186-.227,6.064-.327,8.482s-.177,4.333-.233,5.719l-.076,1.556C1690.3,6148,1690.312,6148.18,1690.313,6148.36Z" transform="translate(-1653.971 -6052.97)" fill="#344154"/>
          <path id="Trazado_104310" data-name="Trazado 104310" d="M1717.756,6098.862a1.709,1.709,0,0,1,.151.347c.089.264.214.629.359,1.014l1.3,3.778c.542,1.618,1.191,3.539,1.889,5.668.347,1.089.775,2.2,1.1,3.426a4.446,4.446,0,0,1,.081,1.958,2.621,2.621,0,0,1-1.121,1.72l.05-.233c.529.787,1.09,1.625,1.612,2.519a15.1,15.1,0,0,1,1.763,4.081,14.285,14.285,0,0,1,.283,4.131c-.151,2.614-.323,4.963-.459,6.928s-.259,3.539-.347,4.679c-.043.522-.081.944-.106,1.26a2.3,2.3,0,0,1-.063.44,2.122,2.122,0,0,1,0-.446c0-.323.031-.75.05-1.26.056-1.146.139-2.74.242-4.685s.246-4.339.4-6.932a14.8,14.8,0,0,0-.3-4.036,15.01,15.01,0,0,0-1.739-3.986c-.517-.87-1.071-1.7-1.6-2.52l-.094-.139.145-.088a2.287,2.287,0,0,0,.975-1.505,4.149,4.149,0,0,0-.069-1.826c-.3-1.185-.73-2.325-1.071-3.4-.692-2.16-1.317-4.086-1.845-5.712s-.913-2.876-1.2-3.778c-.131-.422-.233-.77-.314-1.034A2.5,2.5,0,0,1,1717.756,6098.862Z" transform="translate(-1654.428 -6053.001)" fill="#344154"/>
          <path id="Trazado_104311" data-name="Trazado 104311" d="M1692.675,6178.443a1.93,1.93,0,0,1-.29.517c-.2.322-.5.774-.887,1.328-.775,1.108-1.889,2.614-3.148,4.238s-2.482,3.049-3.375,4.057c-.447.5-.819.907-1.083,1.178a2.2,2.2,0,0,1-.434.4,16.758,16.758,0,0,1,1.341-1.731c.849-1.048,2.022-2.52,3.293-4.106s2.4-3.1,3.218-4.176A16.685,16.685,0,0,1,1692.675,6178.443Z" transform="translate(-1653.857 -6054.328)" fill="#455a64"/>
          <path id="Trazado_104312" data-name="Trazado 104312" d="M1702.554,6170.182v.353c0,.233-.063.593-.113,1.039-.1.921-.258,2.262-.453,3.98-.409,3.457-1.021,8.463-1.826,14.636-1.594,12.35-4.012,29.385-6.609,48.2-1.3,9.416-2.52,18.384-3.5,26.558-.258,2.04-.466,4.037-.755,5.97s-.586,3.779-.863,5.605l-1.524,10.075c-.925,6.16-1.656,11.141-2.134,14.589-.242,1.72-.415,3.063-.522,3.974-.05.454-.089.8-.1,1.034a2.022,2.022,0,0,0,0,.264c0,.076.044,0,.044,0h0s-.05,0-.044-.031a1,1,0,0,1,0-.265c0-.233.031-.586.076-1.039.081-.914.242-2.257.46-3.986.441-3.457,1.133-8.445,2.028-14.605.459-3.086.957-6.454,1.485-10.075.277-1.813.555-3.684.845-5.61s.491-3.924.75-5.965c1-8.187,2.176-17.148,3.466-26.563,2.6-18.823,5.038-35.847,6.714-48.19.813-6.159,1.467-11.153,1.926-14.616.22-1.72.4-3.055.517-3.98.064-.44.107-.786.139-1.032a.745.745,0,0,0,0-.315Z" transform="translate(-1653.869 -6054.191)" fill="#455a64"/>
          <path id="Trazado_104313" data-name="Trazado 104313" d="M1717.48,6304.032a3.233,3.233,0,0,1,.044-.339c.039-.242.089-.574.161-1.009.161-.894.378-2.185.63-3.847.585-3.357,1.436-8.187,2.481-14.151l8.337-46.685a10.866,10.866,0,0,0,.2-3.375c-.144-1.122-.333-2.257-.5-3.362q-.509-3.346-1.014-6.582c-.68-4.308-1.354-8.463-2.009-12.42-1.315-7.909-2.588-15.019-3.722-20.977s-2.135-10.763-2.891-14.068c-.359-1.658-.687-2.937-.886-3.779-.094-.422-.17-.755-.227-.988a3.092,3.092,0,0,1-.068-.341,3.321,3.321,0,0,1,.1.334l.264.983c.22.863.564,2.134.945,3.778.793,3.294,1.826,8.1,2.991,14.051s2.457,13.062,3.779,20.972c.667,3.954,1.341,8.111,2.028,12.419q.5,3.242,1.02,6.581c.17,1.122.353,2.229.5,3.376a11.342,11.342,0,0,1-.209,3.481c-3.281,18.208-6.247,34.694-8.4,46.642-1.09,5.957-1.972,10.781-2.579,14.131-.309,1.663-.554,2.954-.718,3.843-.081.427-.152.762-.2.995S1717.48,6304.032,1717.48,6304.032Z" transform="translate(-1654.423 -6054.222)" fill="#455a64"/>
          <path id="Trazado_104314" data-name="Trazado 104314" d="M1710.18,6190.361c.094,0-1.02,7.507-2.488,16.739s-2.72,16.721-2.8,16.721,1.026-7.506,2.487-16.739S1710.091,6190.35,1710.18,6190.361Z" transform="translate(-1654.214 -6054.527)" fill="#455a64"/>
          <path id="Trazado_104315" data-name="Trazado 104315" d="M1691.063,6308.972a2.755,2.755,0,0,1-.63.106c-.4.045-.977.1-1.693.162-1.43.112-3.413.22-5.6.252s-4.182,0-5.618-.069a16.614,16.614,0,0,1-1.693-.1,2.05,2.05,0,0,1-.63-.087,19.223,19.223,0,0,1,2.324-.038c1.435,0,3.412,0,5.6-.031s4.162-.1,5.6-.161A17.638,17.638,0,0,1,1691.063,6308.972Z" transform="translate(-1653.719 -6056.504)" fill="#455a64"/>
          <path id="Trazado_104316" data-name="Trazado 104316" d="M1721.974,6306.858a4.028,4.028,0,0,1-.8-.044l-2.167-.228c-1.826-.207-4.345-.521-7.129-.881s-5.3-.706-7.122-.967l-2.154-.327a5.089,5.089,0,0,1-.787-.161,3.053,3.053,0,0,1,.806.031c.51.044,1.26.12,2.167.22,1.826.208,4.353.517,7.135.876s5.3.711,7.116.975l2.154.334a3.376,3.376,0,0,1,.782.171Z" transform="translate(-1654.162 -6056.424)" fill="#455a64"/>
          <path id="Trazado_104317" data-name="Trazado 104317" d="M1695.289,6097.528a4.344,4.344,0,0,1,.692.448l1.854,1.26c1.574,1.076,3.779,2.519,6.3,3.955.944.542,1.889,1.048,2.72,1.5l-.227.1c.529-2.092,1-3.886,1.336-5.152.161-.592.3-1.083.415-1.486a2.36,2.36,0,0,1,.183-.522,2.186,2.186,0,0,1-.081.548c-.089.409-.2.907-.322,1.506-.3,1.26-.718,3.085-1.26,5.184l-.044.188-.176-.089c-.862-.446-1.8-.95-2.74-1.492a67.8,67.8,0,0,1-6.26-4.049c-.768-.564-1.378-1.04-1.795-1.371a3.5,3.5,0,0,1-.593-.527Z" transform="translate(-1654.054 -6052.979)" fill="#344154"/>
          <path id="Trazado_104318" data-name="Trazado 104318" d="M1716.321,6102.167a21.471,21.471,0,0,1-2.784,1.888l-.139.088-.076-.151-.85-1.656c-.63-1.259-1.228-2.456-1.624-3.312a7.219,7.219,0,0,1-.592-1.417,7.091,7.091,0,0,1,.794,1.317c.454.825,1.064,1.978,1.713,3.262l.85,1.693-.214-.063a23.346,23.346,0,0,1,2.923-1.647Z" transform="translate(-1654.303 -6052.98)" fill="#344154"/>
          <path id="Trazado_104319" data-name="Trazado 104319" d="M1712.181,6101.615a3.168,3.168,0,0,1-.555.435c-.346.258-.837.63-1.385.976s-1.048.705-1.411.945a4.268,4.268,0,0,1-.63.358,3.317,3.317,0,0,1,.555-.441c.352-.251.844-.6,1.385-.967l1.411-.944a4.127,4.127,0,0,1,.63-.362Z" transform="translate(-1654.269 -6053.047)" fill="#344154"/>
          <path id="Trazado_104320" data-name="Trazado 104320" d="M1710.286,6102.9a11.041,11.041,0,0,1-1.26-1.158,11.333,11.333,0,0,1-1.129-1.26,10.574,10.574,0,0,1,1.222,1.159A11.209,11.209,0,0,1,1710.286,6102.9Z" transform="translate(-1654.264 -6053.028)" fill="#344154"/>
          <path id="Trazado_104321" data-name="Trazado 104321" d="M1698.26,6159.755a14.653,14.653,0,0,0,1.3,4.54,14.477,14.477,0,0,0,2.936,3.7,3.867,3.867,0,0,1-1.152-.825,9.728,9.728,0,0,1-3.085-6A3.894,3.894,0,0,1,1698.26,6159.755Z" transform="translate(-1654.102 -6054.016)" fill="#344154"/>
          <path id="Trazado_104322" data-name="Trazado 104322" d="M1701.895,6168.151a8.814,8.814,0,0,1-5.536-2.6c.063-.076,1.147.787,2.67,1.5S1701.913,6168.05,1701.895,6168.151Z" transform="translate(-1654.072 -6054.112)" fill="#344154"/>
          <path id="Trazado_104323" data-name="Trazado 104323" d="M1714.5,6147.694a2.605,2.605,0,0,1,.233.673c.133.442.3,1.085.492,1.891.39,1.594.849,3.816,1.215,6.3s.573,4.735.668,6.379c.043.818.068,1.481.068,1.939a2.692,2.692,0,0,1,0,.711,3.348,3.348,0,0,1-.1-.705c-.051-.528-.107-1.17-.177-1.934-.151-1.625-.39-3.869-.755-6.343s-.794-4.691-1.121-6.3c-.151-.75-.284-1.386-.391-1.89A3.365,3.365,0,0,1,1714.5,6147.694Z" transform="translate(-1654.373 -6053.815)" fill="#344154"/>
          <path id="Trazado_104324" data-name="Trazado 104324" d="M1710.2,6107.386c-.819,6.543-1.424,20.782-1.65,27.389-.189,5.517-.17,11.042-.151,16.563a12.161,12.161,0,0,0,.762,5.239c1.317,2.916,4.534,4.409,7.488,5.592Z" transform="translate(-1654.267 -6053.144)" fill="#aed3f2"/>
          <path id="Trazado_104325" data-name="Trazado 104325" d="M1717.577,6161.209l3.385-8.288-8.458-46.439-2.468.241s.346,48.265.233,48.7Z" transform="translate(-1654.301 -6053.129)" fill="#6595bf"/>
          <path id="Trazado_104326" data-name="Trazado 104326" d="M1712.412,6106.483a4.216,4.216,0,0,1-1.178.2,4.513,4.513,0,0,1-1.184,0,7.938,7.938,0,0,1,1.178-.114A9.336,9.336,0,0,1,1712.412,6106.483Z" transform="translate(-1654.299 -6053.129)" fill="#344154"/>
        </g>
      </g>
    </g>
  </g>
</svg>
