<svg xmlns="http://www.w3.org/2000/svg" xmlns:xlink="http://www.w3.org/1999/xlink" width="113" height="113" viewBox="0 0 113 113">
  <defs>
    <filter id="Trazado_896985" x="0" y="0" width="113" height="113" filterUnits="userSpaceOnUse">
      <feOffset dy="3" input="SourceAlpha"/>
      <feGaussianBlur stdDeviation="3" result="blur"/>
      <feFlood flood-opacity="0.161"/>
      <feComposite operator="in" in2="blur"/>
      <feComposite in="SourceGraphic"/>
    </filter>
  </defs>
  <g id="Grupo_1112316" data-name="Grupo 1112316" transform="translate(-586 -1003.702)">
    <g id="Grupo_1112142" data-name="Grupo 1112142" transform="translate(260.109 -2842.298)">
      <g id="Grupo_1111318" data-name="Grupo 1111318" transform="translate(-5.891)">
        <g id="Grupo_1109826" data-name="Grupo 1109826" transform="translate(340.781 3852)">
          <g id="Grupo_1098742" data-name="Grupo 1098742">
            <g transform="matrix(1, 0, 0, 1, -9, -6)" filter="url(#Trazado_896985)">
              <g id="Trazado_896985-2" data-name="Trazado 896985" transform="translate(9 6)" fill="#fd9826" opacity="0.859">
                <path d="M 47.49993515014648 93.5 C 41.28932189941406 93.5 35.26528167724609 92.28397369384766 29.59514808654785 89.88571929931641 C 24.1176815032959 87.56894683837891 19.1981086730957 84.25197601318359 14.97306823730469 80.02693176269531 C 10.74802875518799 75.80189514160156 7.431055068969727 70.88231658935547 5.11428165435791 65.40485382080078 C 2.716028451919556 59.73471832275391 1.500001788139343 53.71067810058594 1.500001788139343 47.50006484985352 C 1.500001788139343 41.28932189941406 2.716028451919556 35.26528167724609 5.11428165435791 29.59514617919922 C 7.431055068969727 24.11767959594727 10.74802875518799 19.19810676574707 14.97306823730469 14.97306632995605 C 19.1981086730957 10.74802684783936 24.1176815032959 7.431053161621094 29.59514808654785 5.114280223846436 C 35.26528167724609 2.716026782989502 41.28932189941406 1.5 47.49993515014648 1.5 C 53.71054840087891 1.5 59.73458862304688 2.716026782989502 65.40472412109375 5.114280223846436 C 70.88218688964844 7.431053161621094 75.80176544189453 10.74802684783936 80.02680206298828 14.97306632995605 C 84.25183868408203 19.19810676574707 87.56881713867188 24.11767959594727 89.88558959960938 29.59514617919922 C 92.28384399414062 35.26528167724609 93.49987030029297 41.28932189941406 93.49987030029297 47.49993515014648 C 93.49987030029297 53.71067810058594 92.28384399414062 59.73471832275391 89.88558959960938 65.40485382080078 C 87.56881713867188 70.88231658935547 84.25183868408203 75.80189514160156 80.02680206298828 80.02693176269531 C 75.80176544189453 84.25197601318359 70.88218688964844 87.56894683837891 65.40472412109375 89.88571929931641 C 59.73458862304688 92.28397369384766 53.71054840087891 93.5 47.49993515014648 93.5 Z" stroke="none"/>
                <path d="M 47.49993515014648 3 C 41.49116516113281 3 35.66371917724609 4.176155090332031 30.17947387695312 6.495796203613281 C 24.88081359863281 8.7369384765625 20.12149047851562 11.94596862792969 16.03372192382812 16.03372192382812 C 11.94596862792969 20.12149047851562 8.7369384765625 24.88081359863281 6.495796203613281 30.17947387695312 C 4.1761474609375 35.66372299194336 3 41.49116897583008 3 47.50006103515625 C 3 53.50883102416992 4.1761474609375 59.33627700805664 6.495796203613281 64.82052612304688 C 8.7369384765625 70.11918640136719 11.94596862792969 74.87850952148438 16.03372192382812 78.96627807617188 C 20.12149047851562 83.05403137207031 24.88081359863281 86.2630615234375 30.17947387695312 88.50419616699219 C 35.66371917724609 90.82384490966797 41.49116516113281 92 47.49993515014648 92 C 53.50870513916016 92 59.33615112304688 90.82384490966797 64.82039642333984 88.50419616699219 C 70.11905670166016 86.2630615234375 74.87837982177734 83.05403137207031 78.96614837646484 78.96627807617188 C 83.05390167236328 74.87850952148438 86.26293182373047 70.11918640136719 88.50407409667969 64.82052612304688 C 90.82372283935547 59.33627700805664 91.99987030029297 53.50883102416992 91.99987030029297 47.49993896484375 C 91.99987030029297 41.49116897583008 90.82372283935547 35.66372299194336 88.50407409667969 30.17947387695312 C 86.26293182373047 24.88081359863281 83.05390167236328 20.12149047851562 78.96614837646484 16.03372192382812 C 74.87837982177734 11.94596862792969 70.11905670166016 8.7369384765625 64.82039642333984 6.495796203613281 C 59.33615112304688 4.176155090332031 53.50870513916016 3 47.49993515014648 3 M 47.49993515014648 0 C 73.73342895507812 0 94.99987030029297 21.26644897460938 94.99987030029297 47.49993896484375 L 94.99987030029297 47.50006103515625 C 94.99987030029297 73.73355102539062 73.73342895507812 95 47.49993515014648 95 C 21.26644134521484 95 0 73.73355102539062 0 47.50006103515625 L 0 47.49993896484375 C 0 21.26644897460938 21.26644134521484 0 47.49993515014648 0 Z" stroke="none" fill="#fff"/>
              </g>
            </g>
            <g id="Rectángulo_400907" data-name="Rectángulo 400907" transform="translate(0 0)" fill="none" stroke="#fff" stroke-width="3">
              <rect width="95" height="95" rx="47.5" stroke="none"/>
              <rect x="1.5" y="1.5" width="92" height="92" rx="46" fill="none"/>
            </g>
          </g>
        </g>
      </g>
    </g>
    <g id="privilegio" transform="translate(614 1025.107)">
      <g id="Grupo_1112314" data-name="Grupo 1112314" transform="translate(0.751 8.281)">
        <path id="Trazado_903240" data-name="Trazado 903240" d="M220.547,128.459l-4.894,8.476-2.109,3.653a1.066,1.066,0,0,1-1.953-.257l-.6-2.241a1.5,1.5,0,0,0-1.838-1.061l-2.241.6a1.067,1.067,0,0,1-1.342-1.031,1.055,1.055,0,0,1,.143-.531l2.111-3.655,4.892-8.474Z" transform="translate(-185.747 -113.039)" fill="#ff6e80"/>
        <path id="Trazado_903241" data-name="Trazado 903241" d="M240.813,128.461l-4.894,8.476a13.554,13.554,0,0,1-7.829-4.523l4.892-8.474Z" transform="translate(-206.014 -113.04)" fill="#f9475e"/>
        <path id="Trazado_903242" data-name="Trazado 903242" d="M322.067,136.6a1.067,1.067,0,0,1-1.342,1.031l-2.241-.6a1.5,1.5,0,0,0-1.838,1.061l-.6,2.241a1.066,1.066,0,0,1-1.953.257l-2.11-3.654-4.893-8.475,7.831-4.521,4.893,8.474,2.11,3.655A1.054,1.054,0,0,1,322.067,136.6Z" transform="translate(-277.108 -113.041)" fill="#ff6e80"/>
        <path id="Trazado_903243" data-name="Trazado 903243" d="M319.814,132.414a13.553,13.553,0,0,1-7.831,4.522l-4.893-8.475,7.831-4.521Z" transform="translate(-277.108 -113.04)" fill="#f9475e"/>
        <path id="Trazado_903244" data-name="Trazado 903244" d="M246.84,25.579a10.548,10.548,0,0,1-9.965,10.532c-.194.012-.389.017-.585.017-.286,0-.57-.011-.851-.034h0l-7.828-4.521h0a10.549,10.549,0,0,1,8-16.521c.224-.016.45-.023.679-.023A10.55,10.55,0,0,1,246.84,25.579Z" transform="translate(-203.899 -15.03)" fill="#00d2b4"/>
        <path id="Trazado_903245" data-name="Trazado 903245" d="M236.875,36.319c-.194.012-.389.017-.585.017a10.549,10.549,0,0,1-.679-21.076C233.793,18.416,230.742,26.21,236.875,36.319Z" transform="translate(-203.899 -15.237)" fill="#00c5a3"/>
        <path id="Trazado_903246" data-name="Trazado 903246" d="M273.043,58.423l1.03,3.169a.751.751,0,0,0,.714.519h3.332a.751.751,0,0,1,.441,1.358l-2.7,1.959a.751.751,0,0,0-.273.839l1.03,3.169a.751.751,0,0,1-1.155.839l-2.7-1.959a.751.751,0,0,0-.882,0l-2.7,1.959a.751.751,0,0,1-1.155-.839l1.03-3.169a.751.751,0,0,0-.273-.839l-2.7-1.959a.751.751,0,0,1,.441-1.358h3.332a.751.751,0,0,0,.714-.519l1.03-3.169A.751.751,0,0,1,273.043,58.423Z" transform="translate(-239.938 -53.614)" fill="#f9d171"/>
        <path id="Trazado_903247" data-name="Trazado 903247" d="M84.339,305.054a2.535,2.535,0,0,1-1.284,2.2l-14.146,8.015A14.01,14.01,0,0,1,54.7,315.04l-3.708-2.265a3,3,0,0,0-2.773-.187l-9.387,4.123a3.02,3.02,0,0,1-1.207.263V303.685l5.736-2.55a14.013,14.013,0,0,1,9.843-.577l.24.074,14.533,4.51a2.89,2.89,0,0,1,1.374.92,2.93,2.93,0,0,1,.4.634c.228-.106.455-.211.682-.313a59,59,0,0,1,10.829-3.8,2.567,2.567,0,0,1,.552-.061A2.534,2.534,0,0,1,84.339,305.054Z" transform="translate(-34.606 -271.416)" fill="#ffd4bd"/>
        <path id="Trazado_903248" data-name="Trazado 903248" d="M56.3,315.882a13.892,13.892,0,0,1-1.6-.842l-3.708-2.265a3,3,0,0,0-2.773-.187l-9.387,4.123a3.02,3.02,0,0,1-1.207.263V303.685l5.736-2.55a14.013,14.013,0,0,1,9.843-.577l.24.074C52.3,303.668,51.174,309.647,56.3,315.882Z" transform="translate(-34.606 -271.416)" fill="#ffbf9d"/>
        <path id="Trazado_903249" data-name="Trazado 903249" d="M16.171,328.948l-6.607,2.669A1.5,1.5,0,0,1,7.5,330.225V315.585a1.5,1.5,0,0,1,.939-1.392l1.522-.615a3,3,0,0,1,3.908,1.658l3.961,9.8A3,3,0,0,1,16.171,328.948Z" transform="translate(-7.5 -283.502)" fill="#00c5a3"/>
      </g>
      <g id="Grupo_1112315" data-name="Grupo 1112315" transform="translate(0 7.53)">
        <path id="Trazado_903250" data-name="Trazado 903250" d="M205.885,188.251a1.908,1.908,0,0,1-.249-.016,1.812,1.812,0,0,1-1.521-1.33l-.6-2.24a.75.75,0,0,0-.919-.53l-2.241.6a1.818,1.818,0,0,1-2.042-2.664l3.59-6.218a.751.751,0,0,1,1.3.751l-3.591,6.22a.3.3,0,0,0,.025.348.3.3,0,0,0,.33.114l2.24-.6a2.251,2.251,0,0,1,2.758,1.592l.6,2.24a.307.307,0,0,0,.266.23.3.3,0,0,0,.311-.153l3.569-6.182a.751.751,0,1,1,1.3.751l-3.569,6.181A1.78,1.78,0,0,1,205.885,188.251Z" transform="translate(-178.245 -158.668)"/>
        <path id="Trazado_903251" data-name="Trazado 903251" d="M339.193,188.25a1.78,1.78,0,0,1-1.559-.908l-3.561-6.167a.751.751,0,0,1,1.3-.751l3.561,6.168a.3.3,0,0,0,.311.153.308.308,0,0,0,.267-.232l.6-2.239a2.25,2.25,0,0,1,2.758-1.591l2.24.6a.3.3,0,0,0,.33-.114.3.3,0,0,0,.026-.346l-3.592-6.222a.751.751,0,1,1,1.3-.751l3.591,6.22a1.818,1.818,0,0,1-2.043,2.663l-2.241-.6a.749.749,0,0,0-.919.53l-.6,2.241a1.815,1.815,0,0,1-1.523,1.33A1.911,1.911,0,0,1,339.193,188.25Z" transform="translate(-300.549 -158.668)"/>
        <path id="Trazado_903252" data-name="Trazado 903252" d="M229.54,30.13a11.3,11.3,0,1,1,5.413-21.221.751.751,0,1,1-.72,1.317,9.807,9.807,0,1,0,2.559,2.013.751.751,0,0,1,1.111-1.01,11.3,11.3,0,0,1-8.362,18.9Z" transform="translate(-196.399 -7.53)"/>
        <path id="Trazado_903253" data-name="Trazado 903253" d="M265.565,50.4a1.479,1.479,0,0,1,1.428,1.037l1.03,3.169h3.332a1.5,1.5,0,0,1,.882,2.716l-2.7,1.959,1.03,3.169a1.479,1.479,0,0,1-.208,1.341,1.518,1.518,0,0,1-1.223.628,1.49,1.49,0,0,1-.88-.29l-2.7-1.959-2.7,1.959a1.49,1.49,0,0,1-.88.29,1.518,1.518,0,0,1-1.223-.628,1.479,1.479,0,0,1-.208-1.341l1.03-3.169-2.7-1.959a1.5,1.5,0,0,1,.882-2.716h3.332l1.03-3.169A1.479,1.479,0,0,1,265.565,50.4Zm3.578,12.514-1.03-3.169a1.5,1.5,0,0,1,.545-1.678l2.7-1.959h-3.332a1.5,1.5,0,0,1-1.428-1.037l-1.03-3.169h-.008l-1.022,3.168a1.5,1.5,0,0,1-1.428,1.037h-3.332l2.7,1.959a1.5,1.5,0,0,1,.545,1.678l-1.03,3.169,2.7-1.959a1.5,1.5,0,0,1,1.765,0Z" transform="translate(-232.423 -46.114)"/>
        <path id="Trazado_903254" data-name="Trazado 903254" d="M125.471,422.658a14.751,14.751,0,0,1-7.7-2.164l-3.708-2.265a2.252,2.252,0,0,0-2.08-.141l-2.785,1.223a.751.751,0,0,1-.6-1.375l2.785-1.223a3.753,3.753,0,0,1,3.467.234l3.707,2.264a13.266,13.266,0,0,0,13.452.222l4.3-2.436a.751.751,0,0,1,.74,1.306l-4.3,2.436A14.752,14.752,0,0,1,125.471,422.658Z" transform="translate(-97.325 -375.479)"/>
        <path id="Trazado_903255" data-name="Trazado 903255" d="M97.7,305.109a.751.751,0,0,1-.371-1.4l6.8-3.852a1.783,1.783,0,0,0-1.264-3.293,59.872,59.872,0,0,0-11.355,4.063.751.751,0,0,1-1-.363,2.165,2.165,0,0,0-1.317-1.154L74.42,294.522a13.257,13.257,0,0,0-9.316.547l-2.6,1.156a.751.751,0,1,1-.61-1.372l2.6-1.156a14.758,14.758,0,0,1,10.37-.608l14.773,4.584a3.663,3.663,0,0,1,1.848,1.309A60.469,60.469,0,0,1,102.54,295.1a3.284,3.284,0,0,1,2.329,6.064l-6.8,3.852A.747.747,0,0,1,97.7,305.109Z" transform="translate(-55.298 -263.913)"/>
        <path id="Trazado_903256" data-name="Trazado 903256" d="M239.391,365.5a4.809,4.809,0,0,1-1.346-.194l-7.876-2.3a.751.751,0,0,1,.42-1.441l7.876,2.3a3.134,3.134,0,0,0,2.216-.15c1.049-.495,1.406-1.372,1.124-2.761a.751.751,0,1,1,1.471-.3c.565,2.776-.982,3.959-1.955,4.418A4.522,4.522,0,0,1,239.391,365.5Z" transform="translate(-206.647 -324.773)"/>
        <path id="Trazado_903257" data-name="Trazado 903257" d="M2.251,325.714A2.252,2.252,0,0,1,0,323.462v-8.41a.751.751,0,0,1,1.5,0v8.41a.75.75,0,0,0,1.031.7l6.608-2.669a2.251,2.251,0,0,0,1.245-2.931l-3.961-9.8a2.251,2.251,0,0,0-2.931-1.244l-1.523.615a.747.747,0,0,0-.469.7v2.729a.751.751,0,1,1-1.5,0v-2.729a2.242,2.242,0,0,1,1.408-2.088l1.522-.615a3.752,3.752,0,0,1,4.885,2.073l3.961,9.8A3.752,3.752,0,0,1,9.7,322.88L3.1,325.549A2.25,2.25,0,0,1,2.251,325.714Z" transform="translate(0 -275.988)"/>
      </g>
    </g>
  </g>
</svg>
