<svg xmlns="http://www.w3.org/2000/svg" xmlns:xlink="http://www.w3.org/1999/xlink" width="113" height="113" viewBox="0 0 113 113">
  <defs>
    <filter id="Trazado_896985" x="0" y="0" width="113" height="113" filterUnits="userSpaceOnUse">
      <feOffset dy="3" input="SourceAlpha"/>
      <feGaussianBlur stdDeviation="3" result="blur"/>
      <feFlood flood-opacity="0.161"/>
      <feComposite operator="in" in2="blur"/>
      <feComposite in="SourceGraphic"/>
    </filter>
  </defs>
  <g id="Grupo_1112332" data-name="Grupo 1112332" transform="translate(-418.5 -2143.216)">
    <g id="Grupo_1112146" data-name="Grupo 1112146" transform="translate(90.705 -2291.588)">
      <g id="Grupo_1111323" data-name="Grupo 1111323" transform="translate(-418.98 588.804)">
        <g id="Grupo_1109827" data-name="Grupo 1109827" transform="translate(755.775 3852)">
          <g id="Grupo_1098742" data-name="Grupo 1098742">
            <g transform="matrix(1, 0, 0, 1, -9, -6)" filter="url(#Trazado_896985)">
              <g id="Trazado_896985-2" data-name="Trazado 896985" transform="translate(9 6)" fill="#f3f0ea" opacity="0.859">
                <path d="M 47.49993515014648 93.5 C 41.28932189941406 93.5 35.26528167724609 92.28397369384766 29.59514808654785 89.88571929931641 C 24.1176815032959 87.56894683837891 19.1981086730957 84.25197601318359 14.97306823730469 80.02693176269531 C 10.74802875518799 75.80189514160156 7.431055068969727 70.88231658935547 5.11428165435791 65.40485382080078 C 2.716028451919556 59.73471832275391 1.500001788139343 53.71067810058594 1.500001788139343 47.50006484985352 C 1.500001788139343 41.28932189941406 2.716028451919556 35.26528167724609 5.11428165435791 29.59514617919922 C 7.431055068969727 24.11767959594727 10.74802875518799 19.19810676574707 14.97306823730469 14.97306632995605 C 19.1981086730957 10.74802684783936 24.1176815032959 7.431053161621094 29.59514808654785 5.114280223846436 C 35.26528167724609 2.716026782989502 41.28932189941406 1.5 47.49993515014648 1.5 C 53.71054840087891 1.5 59.73458862304688 2.716026782989502 65.40472412109375 5.114280223846436 C 70.88218688964844 7.431053161621094 75.80176544189453 10.74802684783936 80.02680206298828 14.97306632995605 C 84.25183868408203 19.19810676574707 87.56881713867188 24.11767959594727 89.88558959960938 29.59514617919922 C 92.28384399414062 35.26528167724609 93.49987030029297 41.28932189941406 93.49987030029297 47.49993515014648 C 93.49987030029297 53.71067810058594 92.28384399414062 59.73471832275391 89.88558959960938 65.40485382080078 C 87.56881713867188 70.88231658935547 84.25183868408203 75.80189514160156 80.02680206298828 80.02693176269531 C 75.80176544189453 84.25197601318359 70.88218688964844 87.56894683837891 65.40472412109375 89.88571929931641 C 59.73458862304688 92.28397369384766 53.71054840087891 93.5 47.49993515014648 93.5 Z" stroke="none"/>
                <path d="M 47.49993515014648 3 C 41.49116516113281 3 35.66371917724609 4.176155090332031 30.17947387695312 6.495796203613281 C 24.88081359863281 8.7369384765625 20.12149047851562 11.94596862792969 16.03372192382812 16.03372192382812 C 11.94596862792969 20.12149047851562 8.7369384765625 24.88081359863281 6.495796203613281 30.17947387695312 C 4.1761474609375 35.66372299194336 3 41.49116897583008 3 47.50006103515625 C 3 53.50883102416992 4.1761474609375 59.33627700805664 6.495796203613281 64.82052612304688 C 8.7369384765625 70.11918640136719 11.94596862792969 74.87850952148438 16.03372192382812 78.96627807617188 C 20.12149047851562 83.05403137207031 24.88081359863281 86.2630615234375 30.17947387695312 88.50419616699219 C 35.66371917724609 90.82384490966797 41.49116516113281 92 47.49993515014648 92 C 53.50870513916016 92 59.33615112304688 90.82384490966797 64.82039642333984 88.50419616699219 C 70.11905670166016 86.2630615234375 74.87837982177734 83.05403137207031 78.96614837646484 78.96627807617188 C 83.05390167236328 74.87850952148438 86.26293182373047 70.11918640136719 88.50407409667969 64.82052612304688 C 90.82372283935547 59.33627700805664 91.99987030029297 53.50883102416992 91.99987030029297 47.49993896484375 C 91.99987030029297 41.49116897583008 90.82372283935547 35.66372299194336 88.50407409667969 30.17947387695312 C 86.26293182373047 24.88081359863281 83.05390167236328 20.12149047851562 78.96614837646484 16.03372192382812 C 74.87837982177734 11.94596862792969 70.11905670166016 8.7369384765625 64.82039642333984 6.495796203613281 C 59.33615112304688 4.176155090332031 53.50870513916016 3 47.49993515014648 3 M 47.49993515014648 0 C 73.73342895507812 0 94.99987030029297 21.26644897460938 94.99987030029297 47.49993896484375 L 94.99987030029297 47.50006103515625 C 94.99987030029297 73.73355102539062 73.73342895507812 95 47.49993515014648 95 C 21.26644134521484 95 0 73.73355102539062 0 47.50006103515625 L 0 47.49993896484375 C 0 21.26644897460938 21.26644134521484 0 47.49993515014648 0 Z" stroke="none" fill="#fff"/>
              </g>
            </g>
            <g id="Rectángulo_400907" data-name="Rectángulo 400907" transform="translate(0 0)" fill="none" stroke="#fff" stroke-width="3">
              <rect width="95" height="95" rx="47.5" stroke="none"/>
              <rect x="1.5" y="1.5" width="92" height="92" rx="46" fill="none"/>
            </g>
          </g>
        </g>
      </g>
    </g>
    <g id="Fill_out_line" data-name="Fill out line" transform="translate(429.783 2151.499)">
      <path id="Trazado_903335" data-name="Trazado 903335" d="M240,197.635c0-3.9,9.739-4.869,9.739-11.687V184H240Z" transform="translate(-196.731 -147.548)" fill="#b1cdb4"/>
      <path id="Trazado_903336" data-name="Trazado 903336" d="M68.8,101.564H24c0-21.426,18.5-19.478,18.5-23.373s-6.817-3.9-6.817-10.713V57.739C36.236,52.581,38.627,48,47.373,48c9.388,0,10.665,5.591,10.713,9.739v4.869l.369-.369A2.066,2.066,0,0,1,61.982,63.7v.431a2.066,2.066,0,0,1-1.3,1.919l-3.232,1.293C55.592,73.471,50.3,74.176,50.3,78.191,50.3,83.06,68.8,79.165,68.8,101.564Z" transform="translate(-7.026 -28.104)" fill="#f5a971"/>
      <path id="Trazado_903337" data-name="Trazado 903337" d="M68.8,327.7H24c0-15.59,9.8-18.8,15.133-20.9a11.533,11.533,0,0,0,2.7-1.318l4.57,2.742,4.423-2.654a7.4,7.4,0,0,0,2.651,1.423C58.763,308.968,68.8,311.2,68.8,327.7Z" transform="translate(-7.026 -254.24)" fill="#a06443"/>
      <path id="Trazado_903338" data-name="Trazado 903338" d="M130.3,31.791v8.765h-.118a2.067,2.067,0,0,0-1.461.6l-.369.369c0,1.948-2.922,2.922-2.922,0,0-9.739-2.922-11.687-7.791-11.687s-6.817,1.948-9.739,1.948c-4.869,0-5.843-7.791.974-7.791,2.922,0,2.922,1.948,6.817,1.948s2.922-.974,7.791-.974A6.9,6.9,0,0,1,130.3,31.791Z" transform="translate(-77.287 -7.026)" fill="#b1cdb4"/>
      <path id="Trazado_903339" data-name="Trazado 903339" d="M163.9,154.922h-2.435A1.461,1.461,0,0,1,160,153.461h0A1.461,1.461,0,0,1,161.461,152h0c1.461,0,1.461.974,2.435.974Z" transform="translate(-126.47 -119.444)" fill="#f5a971"/>
      <path id="Trazado_903340" data-name="Trazado 903340" d="M161.962,216h4.3a.975.975,0,0,1,.867,1.418,3.926,3.926,0,0,1-3.342,2.477c-1.856,0-2.533-1.572-2.78-2.719a.973.973,0,0,1,.953-1.177Z" transform="translate(-127.338 -175.653)" fill="#ba5457"/>
      <path id="Trazado_903341" data-name="Trazado 903341" d="M151.007,305.48l4.57,2.742-2.922,2.922L148.31,306.8A11.535,11.535,0,0,0,151.007,305.48Z" transform="translate(-116.203 -254.24)" fill="#6b3e22"/>
      <path id="Trazado_903342" data-name="Trazado 903342" d="M215.074,307.623l-4.152,4.152L208,308.854l4.423-2.654A7.4,7.4,0,0,0,215.074,307.623Z" transform="translate(-168.627 -254.872)" fill="#6b3e22"/>
      <path id="Trazado_903343" data-name="Trazado 903343" d="M338.217,199.516h-7.9c-1.569-1.569-2.543-5.843-.974-5.843h3.9c.038,0,.075,0,.111,0v0c0-.784,0-1.948,1.948-1.948h2.922C341.138,191.725,339.786,196.379,338.217,199.516Z" transform="translate(-274.496 -154.333)" fill="#537ec2"/>
      <path id="Trazado_903344" data-name="Trazado 903344" d="M281.6,287.725h0a11.521,11.521,0,0,0,3.276,4.968l2.6,2.308a11.521,11.521,0,0,1,3.867,8.611h0a8.476,8.476,0,0,1-8.461,8.476l-10.286.018a8.5,8.5,0,0,1-8.512-8.481h0a11.521,11.521,0,0,1,3.867-8.633l2.586-2.3a11.521,11.521,0,0,0,3.276-4.968H281.6Z" transform="translate(-217.881 -238.646)" fill="#537ec2"/>
      <rect id="Rectángulo_405299" data-name="Rectángulo 405299" width="9.739" height="1.948" rx="0.974" transform="translate(54.956 45.183)" fill="#0a4b69"/>
      <rect id="Rectángulo_405300" data-name="Rectángulo 405300" width="9.739" height="1.948" rx="0.974" transform="translate(54.956 47.131)" fill="#0a4b69"/>
      <path id="Trazado_903345" data-name="Trazado 903345" d="M344.974,263.516h0a.974.974,0,0,1-.974-.974v-2.922a3.9,3.9,0,0,1,3.9-3.9h0v1.948h0a1.948,1.948,0,0,0-1.948,1.948v2.922A.974.974,0,0,1,344.974,263.516Z" transform="translate(-288.07 -210.542)" fill="#0e638b"/>
      <path id="Trazado_903346" data-name="Trazado 903346" d="M378.922,263.516h0a.974.974,0,0,0,.974-.974v-2.922a3.9,3.9,0,0,0-3.9-3.9h0v1.948h0a1.948,1.948,0,0,1,1.948,1.948v2.922A.974.974,0,0,0,378.922,263.516Z" transform="translate(-316.175 -210.542)" fill="#0e638b"/>
      <rect id="Rectángulo_405301" data-name="Rectángulo 405301" width="1.948" height="5.843" rx="0.974" transform="translate(59.825 44.209)" fill="#0e638b"/>
      <rect id="Rectángulo_405302" data-name="Rectángulo 405302" width="1.948" height="5.843" rx="0.974" transform="translate(57.877 44.209)" fill="#0e638b"/>
      <rect id="Rectángulo_405303" data-name="Rectángulo 405303" width="17.53" height="5.843" rx="2.922" transform="translate(44.243 67.583)" fill="#0c6c71"/>
      <rect id="Rectángulo_405304" data-name="Rectángulo 405304" width="7.791" height="5.843" rx="2.922" transform="translate(44.243 67.583)" fill="#03999c"/>
      <path id="Trazado_903347" data-name="Trazado 903347" d="M339.86,444.59a.979.979,0,0,1-.979.979h-2.922a.979.979,0,0,0,.979-.979V440.7a.979.979,0,0,0-.979-.979h2.922a.979.979,0,0,1,.979.979Z" transform="translate(-281.008 -372.142)" fill="#f3b73f"/>
      <rect id="Rectángulo_405305" data-name="Rectángulo 405305" width="17.53" height="5.843" rx="2.922" transform="translate(55.93 67.583)" fill="#0c6c71"/>
      <rect id="Rectángulo_405306" data-name="Rectángulo 405306" width="7.791" height="5.843" rx="2.922" transform="translate(55.93 67.583)" fill="#03999c"/>
      <path id="Trazado_903348" data-name="Trazado 903348" d="M435.86,444.59a.979.979,0,0,1-.979.979h-2.922a.979.979,0,0,0,.979-.979V440.7a.979.979,0,0,0-.979-.979h2.922a.979.979,0,0,1,.979.979Z" transform="translate(-365.322 -372.142)" fill="#f3b73f"/>
      <rect id="Rectángulo_405307" data-name="Rectángulo 405307" width="17.53" height="5.843" rx="2.922" transform="translate(49.112 61.74)" fill="#0c6c71"/>
      <rect id="Rectángulo_405308" data-name="Rectángulo 405308" width="7.791" height="5.843" rx="2.922" transform="translate(49.112 61.74)" fill="#03999c"/>
      <path id="Trazado_903349" data-name="Trazado 903349" d="M379.86,396.59a.979.979,0,0,1-.979.979h-2.922a.979.979,0,0,0,.979-.979V392.7a.979.979,0,0,0-.979-.979h2.922a.979.979,0,0,1,.979.979Z" transform="translate(-316.139 -329.986)" fill="#f3b73f"/>
      <path id="Trazado_903350" data-name="Trazado 903350" d="M355.3,369.186a1.461,1.461,0,0,1-1.461,1.461H348a1.461,1.461,0,0,0,1.461-1.461h0A1.461,1.461,0,0,0,348,367.725h5.843A1.461,1.461,0,0,1,355.3,369.186Z" transform="translate(-291.583 -308.907)" fill="#03999c"/>
      <path id="Trazado_903351" data-name="Trazado 903351" d="M204,152.487a.487.487,0,0,0,.487.487,1.181,1.181,0,0,1,1.025.7.487.487,0,0,0,.871-.436,2.121,2.121,0,0,0-1.9-1.243.487.487,0,0,0-.487.487Z" transform="translate(-165.114 -119.444)"/>
      <path id="Trazado_903352" data-name="Trazado 903352" d="M129.947,152.974a.487.487,0,1,0,0-.974,2.121,2.121,0,0,0-1.9,1.243.487.487,0,0,0,.871.436A1.181,1.181,0,0,1,129.947,152.974Z" transform="translate(-98.365 -119.444)"/>
      <path id="Trazado_903353" data-name="Trazado 903353" d="M132.438,112h-2.165a.487.487,0,0,0-.344.143l-.473.473a.7.7,0,0,0,.689,1.172l2.446-.7a.555.555,0,0,0-.153-1.089Z" transform="translate(-99.463 -84.313)"/>
      <path id="Trazado_903354" data-name="Trazado 903354" d="M203.064,112.143a.487.487,0,0,0-.344-.143h-2.165a.555.555,0,0,0-.153,1.089l2.446.7a.7.7,0,0,0,.689-1.172Z" transform="translate(-161.6 -84.313)"/>
      <path id="Trazado_903355" data-name="Trazado 903355" d="M162.751,212h-4.3a1.46,1.46,0,0,0-1.429,1.766c.431,2,1.587,3.1,3.256,3.1,1.557,0,2.863-.949,3.776-2.743a1.461,1.461,0,0,0-1.3-2.126Zm.433,1.684a3.471,3.471,0,0,1-2.908,2.211c-1.2,0-1.97-.785-2.3-2.335a.486.486,0,0,1,.477-.587h4.3a.488.488,0,0,1,.433.711Z" transform="translate(-123.825 -172.14)"/>
      <path id="Trazado_903356" data-name="Trazado 903356" d="M142.922,196.487a.487.487,0,0,0-.487-.487c-1.332,0-2.435,2.257-2.435,3.409a.487.487,0,0,0,.974,0c0-.979.958-2.435,1.461-2.435a.487.487,0,0,0,.487-.487Z" transform="translate(-108.905 -158.087)"/>
      <path id="Trazado_903357" data-name="Trazado 903357" d="M204.487,196a.487.487,0,0,0,0,.974c.645,0,2.435,1.7,2.435,3.409a.487.487,0,0,0,.974,0C207.9,198.166,205.739,196,204.487,196Z" transform="translate(-165.114 -158.087)"/>
      <path id="Trazado_903358" data-name="Trazado 903358" d="M70.241,55.659l-2.6-2.307a10.572,10.572,0,0,1-2.681-3.714,1.945,1.945,0,0,0,.444-2.474,1.945,1.945,0,0,0-.385-2.423,18.823,18.823,0,0,0,1.125-3.221,5.241,5.241,0,0,0-.195-3.919,2.456,2.456,0,0,0-2.231-1.15H60.8a2.756,2.756,0,0,0-2.53,1.137,2.443,2.443,0,0,0-.317.811h-3a1.7,1.7,0,0,0-.177.01,3.024,3.024,0,0,0,1.15-2.382V35.6a3.04,3.04,0,0,0-1.948-2.838V24.765a7.9,7.9,0,0,0-7.791-7.791,14.186,14.186,0,0,0-4.672.566,9.337,9.337,0,0,1-3.119.408A5.883,5.883,0,0,1,34.93,17a5.932,5.932,0,0,0-3.348-1,6.416,6.416,0,0,0-4.24,1.357,4.565,4.565,0,0,0-1.594,3.194,4.844,4.844,0,0,0,2.918,4.813,15.5,15.5,0,0,0-.975,4.168c0,.218,0,1.421,0,1.421a3.894,3.894,0,0,0,0,5.152v3.267c0,4.367,2.6,6.334,4.5,7.769,1.435,1.086,2.315,1.809,2.315,2.944,0,1.3-7.892,2.273-13.014,7.522C17.847,61.342,16,66.674,16,73.46v.974h1.461V73.46c0-6.474,1.664-11.326,5.089-14.834,2.879-2.95,6.031-4.092,9.438-5.5l4.12,4.12a.488.488,0,0,0,.689,0l2.09-2.09v7.589a.487.487,0,0,0,.974,0V55.158l2.09,2.09a.488.488,0,0,0,.689,0l3.931-3.932c.309.113,2.72.942,3.859,1.439l-1.008.9a12.5,12.5,0,0,0-4.2,9.363,9.537,9.537,0,0,0,.121,1.488c.007.048.016.094.023.141h-.153a1.95,1.95,0,0,0-1.948,1.948v3.9a1.95,1.95,0,0,0,1.948,1.948H72.486a1.95,1.95,0,0,0,1.948-1.948v-3.9A1.931,1.931,0,0,0,74.1,67.5a9.437,9.437,0,0,0,.336-2.5A12.507,12.507,0,0,0,70.241,55.659ZM54.633,40.041c.074-.18.147-.18.212-.18H58.39c.04.441.128.952.243,1.553a.487.487,0,0,0,.956-.185,10.907,10.907,0,0,1-.251-1.855c0-.816,0-1.461,1.461-1.461h2.922a1.021,1.021,0,0,1,.989.458c.6.964.065,3.555-1.292,6.36H62.175a1.457,1.457,0,0,0-2.085-.789c-.034-.247-.074-.5-.121-.758a.487.487,0,0,0-.958.173c.026.142.047.281.069.42a1.419,1.419,0,0,0-.229-.019,1.463,1.463,0,0,0-1.376.974H56.031C54.948,43.5,54.265,40.927,54.633,40.041ZM62.576,45.7h1.144a.487.487,0,0,1,0,.974h-.254a4.388,4.388,0,0,0-.89-.974Zm.657,3.409v2.922a.487.487,0,1,1-.974,0V46.729A3.42,3.42,0,0,1,63.234,49.112Zm-1.948-3.9v3.9a.487.487,0,1,1-.974,0v-3.9a.487.487,0,0,1,.974,0Zm-1.948,0v3.9a.487.487,0,0,1-.974,0v-3.9a.487.487,0,1,1,.974,0Zm-2.922,3.9a3.42,3.42,0,0,1,.974-2.384v5.305a.487.487,0,0,1-.974,0Zm-.233-2.435H55.93a.487.487,0,1,1,0-.974h1.144A4.388,4.388,0,0,0,56.184,46.678ZM27.2,20.869a3.12,3.12,0,0,1,1-2.32,4.9,4.9,0,0,1,3.383-1.088,4.6,4.6,0,0,1,2.619.8,7.27,7.27,0,0,0,4.2,1.144,10.693,10.693,0,0,0,3.523-.465,12.948,12.948,0,0,1,4.268-.509,6.42,6.42,0,0,1,6.33,6.33v8.3a2.582,2.582,0,0,0-1.436.721l-.369.369a.487.487,0,0,0-.142.345,1.347,1.347,0,0,1-1.186,1.357.589.589,0,0,1-.486-.24,1.8,1.8,0,0,1-.276-1.118c0-4.8-.69-7.909-2.173-9.8C44.8,22.6,42.319,22.33,40.347,22.33a17.758,17.758,0,0,0-6.3,1.184,10.464,10.464,0,0,1-3.437.763A3.338,3.338,0,0,1,27.2,20.869Zm13.148,9.252A3.413,3.413,0,0,0,37,32.9c-.062-.044-.129-.1-.209-.161a2.527,2.527,0,0,0-1.8-.671,1.934,1.934,0,0,0-1.15.38,3.413,3.413,0,0,0-3.232-2.328,3.378,3.378,0,0,0-1.461.33V29.66a13,13,0,0,1,1.174-4.417c.095,0,.19.009.287.009a11.325,11.325,0,0,0,3.751-.816A16.92,16.92,0,0,1,40.347,23.3c2.638,0,4.234.6,5.338,2.005,1.175,1.494,1.813,4.033,1.942,7.734H43.721A3.414,3.414,0,0,0,40.347,30.121Zm2.435,3.409A2.435,2.435,0,1,1,40.347,31.1,2.435,2.435,0,0,1,42.782,33.53Zm-14.608,0a2.435,2.435,0,1,1,2.435,2.435A2.435,2.435,0,0,1,28.174,33.53Zm8.278,22.684-3.478-3.478a11.256,11.256,0,0,0,1.852-.915l3.763,2.257Zm2.922-2.8-3.781-2.268a1.671,1.671,0,0,0,.373-1.059c0-1.92-1.406-2.983-2.9-4.109-1.838-1.389-3.921-2.964-3.921-6.6V36.609a3.4,3.4,0,0,0,4.376-1.315,1.941,1.941,0,0,0,1.467.671h.487a.487.487,0,0,0,0-.974h-.487a.974.974,0,0,1,0-1.948,1.593,1.593,0,0,1,1.183.45,2.14,2.14,0,0,0,.791.46,3.408,3.408,0,0,0,6.755.063h3.928c0,.161,0,.323,0,.487a2.737,2.737,0,0,0,.482,1.715,1.559,1.559,0,0,0,1.254.616,2.3,2.3,0,0,0,2.151-2.121l.235-.235a1.579,1.579,0,0,1,2.7,1.116v.431a1.572,1.572,0,0,1-.993,1.467l-3.232,1.293a.491.491,0,0,0-.285.31,13.085,13.085,0,0,1-4.247,6.1c-1.572,1.457-2.929,2.716-2.929,4.889a2.118,2.118,0,0,0,.295,1.107ZM52.5,38.934c-.281,3.269-3.112,5.052-5.627,6.635l-.4.248A14.032,14.032,0,0,0,50.82,39.6ZM42.3,56.214l-2.136-2.136,3.58-2.147a7.53,7.53,0,0,0,1.838,1ZM48,52.278c-1.268-.478-3.76-1.217-3.76-2.191,0-1.116,1.606-2.15,3.406-3.282,1.942-1.222,4.406-2.773,5.607-5.225a9.288,9.288,0,0,0,1.211,3.326,1.944,1.944,0,0,0-.224,2.259,1.945,1.945,0,0,0,.444,2.474,10.572,10.572,0,0,1-2.681,3.714l-.375.332C50.357,53.111,49.12,52.672,48,52.278Zm3.544,16.757H46.191a.487.487,0,0,0,0,.974h5.356v.974H46.191a.487.487,0,0,0,0,.974h5.356v.53a.487.487,0,0,1-.487.487H45.217a.487.487,0,0,1-.487-.487v-3.9a.487.487,0,0,1,.487-.487H51.06a.487.487,0,0,1,.487.487Zm3.9,3.451a.487.487,0,0,1-.487.487h-2.52a1.437,1.437,0,0,0,.085-.487v-.53h1.461a.487.487,0,1,0,0-.974H52.521v-.974h1.461a.487.487,0,0,0,0-.974H52.521V68.59a1.437,1.437,0,0,0-.085-.487h2.52a.487.487,0,0,1,.487.487Zm.487-5.356H50.086a.487.487,0,0,1-.487-.487v-3.9a.487.487,0,0,1,.487-.487H55.93a.487.487,0,0,1,.487.487v.444H51.06a.487.487,0,0,0,0,.974h5.356v.974H51.06a.487.487,0,0,0,0,.974h5.356v.53A.487.487,0,0,1,55.93,67.129Zm7.3,1.905H57.877a.487.487,0,1,0,0,.974h5.356v.974H57.877a.487.487,0,0,0,0,.974h5.356v.53a.487.487,0,0,1-.487.487H56.9a.487.487,0,0,1-.487-.487v-3.9A.487.487,0,0,1,56.9,68.1h5.843a.487.487,0,0,1,.487.487Zm-4.383-3.9H57.39v-.974h1.461a.487.487,0,0,0,0-.974H57.39v-.444a1.437,1.437,0,0,0-.085-.487h2.52a.487.487,0,0,1,.487.487v3.9a.487.487,0,0,1-.487.487h-2.52a1.437,1.437,0,0,0,.085-.487v-.53h1.461a.487.487,0,0,0,0-.974Zm4.383,1.5a.487.487,0,0,1-.487.487H61.2a1.437,1.437,0,0,0,.084-.487v-3.9a1.436,1.436,0,0,0-.084-.487h1.545a.487.487,0,0,1,.487.487Zm-.974-5.356H58.1a1.935,1.935,0,0,0,0-1.948H62.26a.974.974,0,0,1,0,1.948Zm4.869,11.2a.487.487,0,0,1-.487.487h-2.52a1.437,1.437,0,0,0,.085-.487v-.53h1.461a.487.487,0,0,0,0-.974H64.208v-.974h1.461a.487.487,0,0,0,0-.974H64.208V68.59a1.437,1.437,0,0,0-.085-.487h2.52a.487.487,0,0,1,.487.487ZM64.122,62.26h1.546a.487.487,0,0,1,.487.487v.444h-.487a.487.487,0,1,0,0,.974h.487v.974h-.487a.487.487,0,1,0,0,.974h.487v.53a.487.487,0,0,1-.487.487H64.122a1.437,1.437,0,0,0,.085-.487v-3.9a1.437,1.437,0,0,0-.085-.487Zm5.929,10.226a.487.487,0,0,1-.487.487H68.019a1.437,1.437,0,0,0,.084-.487v-3.9a1.437,1.437,0,0,0-.084-.487h1.545a.487.487,0,0,1,.487.487Zm2.922-3.451h-.487a.487.487,0,0,0,0,.974h.487v.974h-.487a.487.487,0,0,0,0,.974h.487v.53a.487.487,0,0,1-.487.487H70.94a1.437,1.437,0,0,0,.085-.487v-3.9a1.437,1.437,0,0,0-.085-.487h1.546a.487.487,0,0,1,.487.487Zm-.293-1.891a1.448,1.448,0,0,0-.194-.015H67.044a1.437,1.437,0,0,0,.085-.487v-3.9a1.462,1.462,0,0,0-1.461-1.461H63.944a1.943,1.943,0,0,0-1.684-2.922H56.417a.487.487,0,1,0,0,.974.974.974,0,0,1,0,1.948h-6.33a1.462,1.462,0,0,0-1.461,1.461v3.9a1.437,1.437,0,0,0,.085.487H46.976a7.989,7.989,0,0,1-.288-2.118,11.043,11.043,0,0,1,3.7-8.268l2.587-2.3a12.021,12.021,0,0,0,2.465-3.05v.639a1.461,1.461,0,0,0,2.922,0V50.488a1.437,1.437,0,0,0,.487.085,1.454,1.454,0,0,0,.974-.375,1.454,1.454,0,0,0,.974.375,1.437,1.437,0,0,0,.487-.085v1.546a1.461,1.461,0,0,0,2.922,0v-.639a12.021,12.021,0,0,0,2.465,3.05l2.6,2.307A11.046,11.046,0,0,1,72.973,65a7.987,7.987,0,0,1-.293,2.145Z"/>
      <path id="Trazado_903359" data-name="Trazado 903359" d="M92.487,412a.487.487,0,0,0-.487.487v9.739h.974v-9.739a.487.487,0,0,0-.487-.487Z" transform="translate(-66.748 -347.792)"/>
    </g>
  </g>
</svg>
