<svg xmlns="http://www.w3.org/2000/svg" xmlns:xlink="http://www.w3.org/1999/xlink" width="113" height="113" viewBox="0 0 113 113">
  <defs>
    <filter id="Trazado_896985" x="0" y="0" width="113" height="113" filterUnits="userSpaceOnUse">
      <feOffset dy="3" input="SourceAlpha"/>
      <feGaussianBlur stdDeviation="3" result="blur"/>
      <feFlood flood-opacity="0.161"/>
      <feComposite operator="in" in2="blur"/>
      <feComposite in="SourceGraphic"/>
    </filter>
  </defs>
  <g id="Grupo_1112344" data-name="Grupo 1112344" transform="translate(-537.286 -2436.97)">
    <g id="Grupo_1112147" data-name="Grupo 1112147" transform="translate(209.491 -1997.834)">
      <g id="Grupo_1111323" data-name="Grupo 1111323" transform="translate(-418.98 588.804)">
        <g id="Grupo_1109827" data-name="Grupo 1109827" transform="translate(755.775 3852)">
          <g id="Grupo_1098742" data-name="Grupo 1098742">
            <g transform="matrix(1, 0, 0, 1, -9, -6)" filter="url(#Trazado_896985)">
              <g id="Trazado_896985-2" data-name="Trazado 896985" transform="translate(9 6)" fill="#f3f0ea" opacity="0.859">
                <path d="M 47.49993515014648 93.5 C 41.28932189941406 93.5 35.26528167724609 92.28397369384766 29.59514808654785 89.88571929931641 C 24.1176815032959 87.56894683837891 19.1981086730957 84.25197601318359 14.97306823730469 80.02693176269531 C 10.74802875518799 75.80189514160156 7.431055068969727 70.88231658935547 5.11428165435791 65.40485382080078 C 2.716028451919556 59.73471832275391 1.500001788139343 53.71067810058594 1.500001788139343 47.50006484985352 C 1.500001788139343 41.28932189941406 2.716028451919556 35.26528167724609 5.11428165435791 29.59514617919922 C 7.431055068969727 24.11767959594727 10.74802875518799 19.19810676574707 14.97306823730469 14.97306632995605 C 19.1981086730957 10.74802684783936 24.1176815032959 7.431053161621094 29.59514808654785 5.114280223846436 C 35.26528167724609 2.716026782989502 41.28932189941406 1.5 47.49993515014648 1.5 C 53.71054840087891 1.5 59.73458862304688 2.716026782989502 65.40472412109375 5.114280223846436 C 70.88218688964844 7.431053161621094 75.80176544189453 10.74802684783936 80.02680206298828 14.97306632995605 C 84.25183868408203 19.19810676574707 87.56881713867188 24.11767959594727 89.88558959960938 29.59514617919922 C 92.28384399414062 35.26528167724609 93.49987030029297 41.28932189941406 93.49987030029297 47.49993515014648 C 93.49987030029297 53.71067810058594 92.28384399414062 59.73471832275391 89.88558959960938 65.40485382080078 C 87.56881713867188 70.88231658935547 84.25183868408203 75.80189514160156 80.02680206298828 80.02693176269531 C 75.80176544189453 84.25197601318359 70.88218688964844 87.56894683837891 65.40472412109375 89.88571929931641 C 59.73458862304688 92.28397369384766 53.71054840087891 93.5 47.49993515014648 93.5 Z" stroke="none"/>
                <path d="M 47.49993515014648 3 C 41.49116516113281 3 35.66371917724609 4.176155090332031 30.17947387695312 6.495796203613281 C 24.88081359863281 8.7369384765625 20.12149047851562 11.94596862792969 16.03372192382812 16.03372192382812 C 11.94596862792969 20.12149047851562 8.7369384765625 24.88081359863281 6.495796203613281 30.17947387695312 C 4.1761474609375 35.66372299194336 3 41.49116897583008 3 47.50006103515625 C 3 53.50883102416992 4.1761474609375 59.33627700805664 6.495796203613281 64.82052612304688 C 8.7369384765625 70.11918640136719 11.94596862792969 74.87850952148438 16.03372192382812 78.96627807617188 C 20.12149047851562 83.05403137207031 24.88081359863281 86.2630615234375 30.17947387695312 88.50419616699219 C 35.66371917724609 90.82384490966797 41.49116516113281 92 47.49993515014648 92 C 53.50870513916016 92 59.33615112304688 90.82384490966797 64.82039642333984 88.50419616699219 C 70.11905670166016 86.2630615234375 74.87837982177734 83.05403137207031 78.96614837646484 78.96627807617188 C 83.05390167236328 74.87850952148438 86.26293182373047 70.11918640136719 88.50407409667969 64.82052612304688 C 90.82372283935547 59.33627700805664 91.99987030029297 53.50883102416992 91.99987030029297 47.49993896484375 C 91.99987030029297 41.49116897583008 90.82372283935547 35.66372299194336 88.50407409667969 30.17947387695312 C 86.26293182373047 24.88081359863281 83.05390167236328 20.12149047851562 78.96614837646484 16.03372192382812 C 74.87837982177734 11.94596862792969 70.11905670166016 8.7369384765625 64.82039642333984 6.495796203613281 C 59.33615112304688 4.176155090332031 53.50870513916016 3 47.49993515014648 3 M 47.49993515014648 0 C 73.73342895507812 0 94.99987030029297 21.26644897460938 94.99987030029297 47.49993896484375 L 94.99987030029297 47.50006103515625 C 94.99987030029297 73.73355102539062 73.73342895507812 95 47.49993515014648 95 C 21.26644134521484 95 0 73.73355102539062 0 47.50006103515625 L 0 47.49993896484375 C 0 21.26644897460938 21.26644134521484 0 47.49993515014648 0 Z" stroke="none" fill="#fff"/>
              </g>
            </g>
            <g id="Rectángulo_400907" data-name="Rectángulo 400907" transform="translate(0 0)" fill="none" stroke="#fff" stroke-width="3">
              <rect width="95" height="95" rx="47.5" stroke="none"/>
              <rect x="1.5" y="1.5" width="92" height="92" rx="46" fill="none"/>
            </g>
          </g>
        </g>
      </g>
    </g>
    <g id="Layer_1" transform="translate(560.265 2446.121)">
      <g id="Grupo_1112343" data-name="Grupo 1112343" transform="translate(2.271 18.5)">
        <path id="Trazado_903360" data-name="Trazado 903360" d="M144.54,117.983l-4.722,10.345a1.74,1.74,0,0,1-1.583,1.019H121.81l-1.7,3.728-2.555,5.6a1.74,1.74,0,0,1-3.167-1.444l4.722-10.347a1.742,1.742,0,0,1,1.583-1.017h16.424l4.258-9.331a1.741,1.741,0,1,1,3.167,1.447Z" transform="translate(-86.402 -91.405)" fill="#f0c020"/>
        <path id="Trazado_903361" data-name="Trazado 903361" d="M166.053,171.647v2.734a.5.5,0,0,1-.5.5H137.88l1.7-3.728h25.974A.5.5,0,0,1,166.053,171.647Z" transform="translate(-104.174 -133.209)" fill="#fc5d3d"/>
        <path id="Trazado_903362" data-name="Trazado 903362" d="M230.21,186.15v6.122a.5.5,0,0,1-.5.5h-2.486a.5.5,0,0,1-.5-.5V186.15Z" transform="translate(-170.941 -144.481)" fill="#7c7b7a"/>
        <path id="Trazado_903363" data-name="Trazado 903363" d="M226.73,186.15h3.48v1.993h-3.48Z" transform="translate(-170.941 -144.481)" fill="#4d4843"/>
        <path id="Trazado_903364" data-name="Trazado 903364" d="M173.71,186.15v6.122a.5.5,0,0,1-.5.5h-2.486a.5.5,0,0,1-.5-.5V186.15Z" transform="translate(-128.484 -144.481)" fill="#7c7b7a"/>
        <path id="Trazado_903365" data-name="Trazado 903365" d="M170.23,186.15h3.48v1.993h-3.48Z" transform="translate(-128.484 -144.481)" fill="#4d4843"/>
        <path id="Trazado_903366" data-name="Trazado 903366" d="M143.656,29.5A12.676,12.676,0,0,0,130.98,42.178h25.352A12.676,12.676,0,0,0,143.656,29.5Z" transform="translate(-98.989 -26.767)" fill="#fc5d3d"/>
        <path id="Trazado_903367" data-name="Trazado 903367" d="M168.642,29.5c-2.437,0-4.412,5.675-4.412,12.676h8.824C173.054,35.177,171.078,29.5,168.642,29.5Z" transform="translate(-123.975 -26.767)" fill="#72c2e9"/>
        <path id="Trazado_903368" data-name="Trazado 903368" d="M28.633,139.99a10.014,10.014,0,0,1-7.1-17.038l2.056-2.229.843-.912a3.122,3.122,0,0,0,2.167.875h4.071a3.132,3.132,0,0,0,2.165-.875l.845.91,2.06,2.232A10.018,10.018,0,0,1,28.633,139.99Z" transform="translate(-14.596 -94.629)" fill="#13bf6d"/>
        <path id="Trazado_903369" data-name="Trazado 903369" d="M48.541,120.72a4.332,4.332,0,0,1-3.01,1.208H41.46a4.349,4.349,0,0,1-3.01-1.205l.843-.912a3.122,3.122,0,0,0,2.167.875h4.071a3.132,3.132,0,0,0,2.165-.875h0Z" transform="translate(-29.458 -94.629)" fill="#139c6e"/>
        <path id="Trazado_903370" data-name="Trazado 903370" d="M29.171,89.816H25.51V80.51h3.549a3.11,3.11,0,0,0-.455,1.618v5.9a3.1,3.1,0,0,0,.567,1.792Z" transform="translate(-19.734 -65.097)" fill="#ffb69f"/>
        <path id="Trazado_903371" data-name="Trazado 903371" d="M4.771,76.3H9.926V87.525H4.771Z" transform="translate(-4.15 -61.937)" fill="#efefef"/>
        <path id="Trazado_903372" data-name="Trazado 903372" d="M4.771,76.3H9.926V87.525H4.771Z" transform="translate(-4.15 -61.937)" fill="#efefef"/>
        <path id="Trazado_903373" data-name="Trazado 903373" d="M4.77,76.3H9.925V87.521H4.77Z" transform="translate(-4.149 -61.933)" fill="#7c7b7a"/>
        <path id="Trazado_903374" data-name="Trazado 903374" d="M48.295,77.552v5.9a3.093,3.093,0,0,1-.967,2.254,3.132,3.132,0,0,1-2.165.875H41.092a3.122,3.122,0,0,1-2.167-.875,3.073,3.073,0,0,1-.4-.462,3.1,3.1,0,0,1-.567-1.792v-5.9a3.11,3.11,0,0,1,.455-1.618,3.16,3.16,0,0,1,1.668-1.345,3.081,3.081,0,0,1,1.009-.169h4.071a3.142,3.142,0,0,1,3.132,3.132Z" transform="translate(-29.089 -60.521)" fill="#ffb69f"/>
        <path id="Trazado_903375" data-name="Trazado 903375" d="M49.767,54.563,48.44,58.748h-.007a3.1,3.1,0,0,0-1.007-.169H43.355a3.081,3.081,0,0,0-1.009.169l-1.33-4.186a.94.94,0,0,1,.9-1.223h6.959a.939.939,0,0,1,.895,1.223Z" transform="translate(-31.353 -44.68)" fill="#13bf6d"/>
        <path id="Trazado_903376" data-name="Trazado 903376" d="M98.906,92.519c-.915-.3-1.861-.567-2.392-2.854-.489,2.106-1.272,2.484-2.392,2.854a3.177,3.177,0,0,1,2.392,2.853C97.014,93.216,97.842,92.87,98.906,92.519Z" transform="translate(-71.292 -71.977)" fill="#f0c020"/>
        <path id="Trazado_903377" data-name="Trazado 903377" d="M13.773,203.919c-.915-.3-1.861-.567-2.392-2.853-.489,2.106-1.272,2.484-2.392,2.853a3.177,3.177,0,0,1,2.392,2.853C11.881,204.616,12.709,204.271,13.773,203.919Z" transform="translate(-7.319 -155.689)" fill="#f0c020"/>
        <path id="Trazado_903378" data-name="Trazado 903378" d="M94.061,93.658c-.265-1.143-.44-1.9-1.986-2.409a.615.615,0,0,1,0-1.167c.93-.307,1.545-.511,1.986-2.409a.615.615,0,0,1,1.2,0c.451,1.941,1.124,2.125,1.986,2.409a.615.615,0,0,1,0,1.167c-.9.3-1.545.511-1.986,2.409A.615.615,0,0,1,94.061,93.658Zm-.351-2.978a3.193,3.193,0,0,1,.962,1.018,3.042,3.042,0,0,1,.909-1.026,3.138,3.138,0,0,1-.919-1.064A3.046,3.046,0,0,1,93.709,90.679Z" transform="translate(-69.438 -70.124)"/>
        <path id="Trazado_903379" data-name="Trazado 903379" d="M8.927,205.058c-.265-1.143-.44-1.9-1.986-2.409a.615.615,0,0,1,0-1.167c.93-.307,1.545-.511,1.986-2.409a.615.615,0,0,1,1.2,0c.451,1.941,1.124,2.125,1.986,2.409a.615.615,0,0,1,0,1.167c-.9.3-1.545.511-1.986,2.409A.615.615,0,0,1,8.927,205.058Zm-.351-2.978a3.193,3.193,0,0,1,.962,1.018,3.042,3.042,0,0,1,.909-1.026,3.138,3.138,0,0,1-.919-1.064A3.046,3.046,0,0,1,8.576,202.079Z" transform="translate(-5.464 -153.835)"/>
        <g id="Grupo_1112342" data-name="Grupo 1112342" transform="translate(0 0)">
          <g id="Grupo_1112333" data-name="Grupo 1112333" transform="translate(33.544 12.8)">
            <path id="Trazado_903380" data-name="Trazado 903380" d="M143.993,71.243h-3.231a.621.621,0,1,1,0-1.243h3.231a.621.621,0,0,1,0,1.243Zm-5.717,0h-.425a.621.621,0,1,1,0-1.243h.425a.621.621,0,0,1,0,1.243Z" transform="translate(-137.23 -70)" fill="#ffcbc3"/>
          </g>
          <g id="Grupo_1112334" data-name="Grupo 1112334" transform="translate(48.405 5.578)">
            <path id="Trazado_903381" data-name="Trazado 903381" d="M203.783,49.406h-6.142a.621.621,0,0,1,0-1.243H203a10.088,10.088,0,0,0-4.623-6.066.621.621,0,1,1,.632-1.07,11.321,11.321,0,0,1,5.38,7.643.622.622,0,0,1-.611.736Z" transform="translate(-197.02 -40.94)" fill="#ffcbc3"/>
          </g>
          <g id="Grupo_1112335" data-name="Grupo 1112335" transform="translate(39.686 12.8)">
            <path id="Trazado_903382" data-name="Trazado 903382" d="M171.281,71.243h-8.719a.621.621,0,0,1,0-1.243h8.719a.621.621,0,0,1,0,1.243Z" transform="translate(-161.94 -70)" fill="#c5e5fe"/>
          </g>
          <g id="Grupo_1112336" data-name="Grupo 1112336" transform="translate(5.708 27.386)">
            <path id="Trazado_903383" data-name="Trazado 903383" d="M33.566,145.042a8.258,8.258,0,0,1-8.33-8.345,8.728,8.728,0,0,1,2.416-5.981l1.689-1.832a.621.621,0,1,1,.914.843l-1.689,1.831a7.507,7.507,0,0,0-2.087,5.139,7.027,7.027,0,0,0,7.088,7.1,7.165,7.165,0,0,0,4.374-1.494.621.621,0,1,1,.762.982,8.415,8.415,0,0,1-5.136,1.756Zm6.1-3.541a.621.621,0,0,1-.172-.862c.126-.189.245-.387.353-.588a.622.622,0,0,1,1.1.588c-.127.236-.266.469-.415.69A.622.622,0,0,1,39.662,141.5Z" transform="translate(-25.236 -128.684)" fill="#76ffba"/>
          </g>
          <g id="Grupo_1112337" data-name="Grupo 1112337" transform="translate(33.544 12.8)">
            <path id="Trazado_903384" data-name="Trazado 903384" d="M143.993,71.243h-3.231a.621.621,0,1,1,0-1.243h3.231a.621.621,0,0,1,0,1.243Zm-5.717,0h-.425a.621.621,0,1,1,0-1.243h.425a.621.621,0,0,1,0,1.243Z" transform="translate(-137.23 -70)" fill="#ffcbc3"/>
          </g>
          <g id="Grupo_1112338" data-name="Grupo 1112338" transform="translate(48.405 5.578)">
            <path id="Trazado_903385" data-name="Trazado 903385" d="M203.783,49.406h-6.142a.621.621,0,0,1,0-1.243H203a10.088,10.088,0,0,0-4.623-6.066.621.621,0,1,1,.632-1.07,11.321,11.321,0,0,1,5.38,7.643.622.622,0,0,1-.611.736Z" transform="translate(-197.02 -40.94)" fill="#ffcbc3"/>
          </g>
          <g id="Grupo_1112339" data-name="Grupo 1112339" transform="translate(39.686 12.8)">
            <path id="Trazado_903386" data-name="Trazado 903386" d="M171.281,71.243h-8.719a.621.621,0,0,1,0-1.243h8.719a.621.621,0,0,1,0,1.243Z" transform="translate(-161.94 -70)" fill="#c5e5fe"/>
          </g>
          <g id="Grupo_1112341" data-name="Grupo 1112341" transform="translate(5.708 27.386)">
            <g id="Grupo_1112340" data-name="Grupo 1112340">
              <path id="Trazado_903387" data-name="Trazado 903387" d="M33.566,145.042a8.258,8.258,0,0,1-8.33-8.345,8.728,8.728,0,0,1,2.416-5.981l1.689-1.832a.621.621,0,1,1,.914.843l-1.689,1.831a7.507,7.507,0,0,0-2.087,5.139,7.027,7.027,0,0,0,7.088,7.1,7.165,7.165,0,0,0,4.374-1.494.621.621,0,1,1,.762.982,8.415,8.415,0,0,1-5.136,1.756Zm6.1-3.541a.621.621,0,0,1-.172-.862c.126-.189.245-.387.353-.588a.622.622,0,0,1,1.1.588c-.127.236-.266.469-.415.69A.622.622,0,0,1,39.662,141.5Z" transform="translate(-25.236 -128.684)" fill="#76ffba"/>
            </g>
          </g>
          <path id="Trazado_903388" data-name="Trazado 903388" d="M49.309,139.981a.621.621,0,0,0-.621.621v.937h-.274a2.228,2.228,0,0,0,0,4.456H50.2a.985.985,0,1,1-.012,1.971H48.323a1.37,1.37,0,0,1-1.038-.5.621.621,0,0,0-.955.8,2.613,2.613,0,0,0,1.988.952h.369v.937a.621.621,0,0,0,1.243,0v-.937H50.2a2.228,2.228,0,0,0,0-4.456H48.414a.985.985,0,1,1,.012-1.971h1.713a1.384,1.384,0,0,1,1.139.642.621.621,0,0,0,1.047-.67,2.606,2.606,0,0,0-2.181-1.215h-.213V140.6A.621.621,0,0,0,49.309,139.981Z" transform="translate(-35.271 -109.787)"/>
          <path id="Trazado_903389" data-name="Trazado 903389" d="M2.892,67.768a.621.621,0,0,0,0,1.243H8.047a.621.621,0,0,0,.621-.621v-.249h2.446L8.75,70.7a11.524,11.524,0,0,0-2.269,3.562.621.621,0,0,0,1.153.46,10.42,10.42,0,0,1,2.031-3.181l2.506-2.715a3.725,3.725,0,0,0,2.1.649h4.071a3.723,3.723,0,0,0,2.1-.651l2.513,2.719A9.394,9.394,0,0,1,16.309,87.54,9.264,9.264,0,0,1,7.035,79.3a.622.622,0,0,0-1.235.149,10.521,10.521,0,0,0,10.509,9.338h.007A10.639,10.639,0,0,0,23.872,70.7L21.345,67.97a3.691,3.691,0,0,0,.753-2.243v-5.9a3.752,3.752,0,0,0-1.98-3.3l1.16-3.657h0a1.56,1.56,0,0,0-1.487-2.031H12.831a1.56,1.56,0,0,0-1.489,2.032L12.5,56.528a3.789,3.789,0,0,0-1.235,1.064h-2.6v-.424a.621.621,0,0,0-.621-.621H2.892a.621.621,0,1,0,0,1.243H7.426v9.979Zm17.962-7.936v5.9a2.518,2.518,0,0,1-2.511,2.508H14.273a2.516,2.516,0,0,1-2.511-2.508v-.788h4.546a.621.621,0,1,0,0-1.243H11.763V61.862h4.546a.621.621,0,1,0,0-1.243H11.763v-.787a2.523,2.523,0,0,1,2.511-2.51h4.071A2.521,2.521,0,0,1,20.855,59.832Zm-8.024-7.75h6.959a.318.318,0,0,1,.3.414l-1.152,3.631a3.684,3.684,0,0,0-.6-.048H14.273a4.062,4.062,0,0,0-.593.047L12.526,52.5a.318.318,0,0,1,.3-.414Zm-2.174,6.753a3.72,3.72,0,0,0-.137,1v5.9a3.73,3.73,0,0,0,.188,1.171H8.669V58.835Z" transform="translate(-2.271 -42.801)"/>
          <path id="Trazado_903390" data-name="Trazado 903390" d="M212.232,39.836a.622.622,0,0,0,.79-.959.639.639,0,0,0-.875.082.622.622,0,0,0,.082.875A0,0,0,0,0,212.232,39.836Z" transform="translate(-159.875 -33.71)"/>
          <circle id="Elipse_14062" data-name="Elipse 14062" cx="0.621" cy="0.621" r="0.621" transform="translate(38.182 33.84)"/>
          <path id="Trazado_903391" data-name="Trazado 903391" d="M147.02,56.939A1.12,1.12,0,0,0,145.9,55.82h-.481L142.51,46.9l.713-1.561a2.361,2.361,0,0,0-4.295-1.964l-4.094,8.968h-5.026V34.532h12.055a.619.619,0,0,0,.621-.621,13.237,13.237,0,0,0-2.985-8.394.639.639,0,0,0-.875-.089.622.622,0,0,0-.087.875,11.958,11.958,0,0,1,2.689,6.987h-7.012c-.077-4.422-.976-8.924-2.614-11.185a12.037,12.037,0,0,1,3.32,1.2.622.622,0,0,0,.592-1.094,13.3,13.3,0,0,0-5.7-1.579v-1.51a.621.621,0,1,0-1.243,0v1.507A13.294,13.294,0,0,0,115.889,33.91a.62.62,0,0,0,.621.621h12.055V52.34h-2.756a.621.621,0,0,0,0,1.243h9.425a.62.62,0,0,0,.564-.363l4.258-9.331a1.119,1.119,0,0,1,2.036.932l-4.722,10.342a1.116,1.116,0,0,1-1.017.656H119.928a.628.628,0,0,0-.566.363L115.1,65.513a1.118,1.118,0,0,1-2.035-.927l4.722-10.35a1.121,1.121,0,0,1,1.019-.654h2.028a.621.621,0,0,0,0-1.243H118.81a2.367,2.367,0,0,0-2.147,1.38L111.94,64.067a2.362,2.362,0,0,0,4.3,1.961l2.39-5.236h7.018v5.5a1.12,1.12,0,0,0,1.118,1.118h2.485a1.12,1.12,0,0,0,1.118-1.118v-5.5h9.321v5.5a1.12,1.12,0,0,0,1.118,1.118h2.486a1.12,1.12,0,0,0,1.118-1.118v-5.5H145.9a1.12,1.12,0,0,0,1.118-1.118ZM125.4,33.289c.113-6.769,2.045-11.433,3.785-11.433s3.673,4.664,3.785,11.433ZM126.779,22.1c-1.641,2.258-2.542,6.765-2.62,11.193h-7.012A12.064,12.064,0,0,1,126.779,22.1Zm14.968,26.472,2.366,7.253h-5.69c.126-.233-.335.762,3.324-7.253Zm-12.623,17.6h-2.237V60.791h2.237Zm14.043,0h-2.237V60.791h2.237Zm2.61-6.618H119.194l1.134-2.486h25.449Z" transform="translate(-84.52 -18.5)"/>
          <path id="Trazado_903392" data-name="Trazado 903392" d="M17.13,154.4a.622.622,0,0,0,.616-.539v-.005a.622.622,0,0,0-.534-.693.63.63,0,0,0-.7.532v0A.623.623,0,0,0,17.13,154.4Z" transform="translate(-12.97 -119.688)"/>
        </g>
      </g>
    </g>
  </g>
</svg>
