<svg xmlns="http://www.w3.org/2000/svg" xmlns:xlink="http://www.w3.org/1999/xlink" width="113" height="113" viewBox="0 0 113 113">
  <defs>
    <filter id="Trazado_896985" x="0" y="0" width="113" height="113" filterUnits="userSpaceOnUse">
      <feOffset dy="3" input="SourceAlpha"/>
      <feGaussianBlur stdDeviation="3" result="blur"/>
      <feFlood flood-opacity="0.161"/>
      <feComposite operator="in" in2="blur"/>
      <feComposite in="SourceGraphic"/>
    </filter>
  </defs>
  <g id="Grupo_1112349" data-name="Grupo 1112349" transform="translate(-418.5 -3982.337)">
    <g id="Grupo_1112156" data-name="Grupo 1112156" transform="translate(90.705 -452.467)">
      <g id="Grupo_1111323" data-name="Grupo 1111323" transform="translate(-418.98 588.804)">
        <g id="Grupo_1109827" data-name="Grupo 1109827" transform="translate(755.775 3852)">
          <g id="Grupo_1098742" data-name="Grupo 1098742">
            <g transform="matrix(1, 0, 0, 1, -9, -6)" filter="url(#Trazado_896985)">
              <g id="Trazado_896985-2" data-name="Trazado 896985" transform="translate(9 6)" fill="#f3f0ea" opacity="0.859">
                <path d="M 47.49993515014648 93.5 C 41.28932189941406 93.5 35.26528167724609 92.28397369384766 29.59514808654785 89.88571929931641 C 24.1176815032959 87.56894683837891 19.1981086730957 84.25197601318359 14.97306823730469 80.02693176269531 C 10.74802875518799 75.80189514160156 7.431055068969727 70.88231658935547 5.11428165435791 65.40485382080078 C 2.716028451919556 59.73471832275391 1.500001788139343 53.71067810058594 1.500001788139343 47.50006484985352 C 1.500001788139343 41.28932189941406 2.716028451919556 35.26528167724609 5.11428165435791 29.59514617919922 C 7.431055068969727 24.11767959594727 10.74802875518799 19.19810676574707 14.97306823730469 14.97306632995605 C 19.1981086730957 10.74802684783936 24.1176815032959 7.431053161621094 29.59514808654785 5.114280223846436 C 35.26528167724609 2.716026782989502 41.28932189941406 1.5 47.49993515014648 1.5 C 53.71054840087891 1.5 59.73458862304688 2.716026782989502 65.40472412109375 5.114280223846436 C 70.88218688964844 7.431053161621094 75.80176544189453 10.74802684783936 80.02680206298828 14.97306632995605 C 84.25183868408203 19.19810676574707 87.56881713867188 24.11767959594727 89.88558959960938 29.59514617919922 C 92.28384399414062 35.26528167724609 93.49987030029297 41.28932189941406 93.49987030029297 47.49993515014648 C 93.49987030029297 53.71067810058594 92.28384399414062 59.73471832275391 89.88558959960938 65.40485382080078 C 87.56881713867188 70.88231658935547 84.25183868408203 75.80189514160156 80.02680206298828 80.02693176269531 C 75.80176544189453 84.25197601318359 70.88218688964844 87.56894683837891 65.40472412109375 89.88571929931641 C 59.73458862304688 92.28397369384766 53.71054840087891 93.5 47.49993515014648 93.5 Z" stroke="none"/>
                <path d="M 47.49993515014648 3 C 41.49116516113281 3 35.66371917724609 4.176155090332031 30.17947387695312 6.495796203613281 C 24.88081359863281 8.7369384765625 20.12149047851562 11.94596862792969 16.03372192382812 16.03372192382812 C 11.94596862792969 20.12149047851562 8.7369384765625 24.88081359863281 6.495796203613281 30.17947387695312 C 4.1761474609375 35.66372299194336 3 41.49116897583008 3 47.50006103515625 C 3 53.50883102416992 4.1761474609375 59.33627700805664 6.495796203613281 64.82052612304688 C 8.7369384765625 70.11918640136719 11.94596862792969 74.87850952148438 16.03372192382812 78.96627807617188 C 20.12149047851562 83.05403137207031 24.88081359863281 86.2630615234375 30.17947387695312 88.50419616699219 C 35.66371917724609 90.82384490966797 41.49116516113281 92 47.49993515014648 92 C 53.50870513916016 92 59.33615112304688 90.82384490966797 64.82039642333984 88.50419616699219 C 70.11905670166016 86.2630615234375 74.87837982177734 83.05403137207031 78.96614837646484 78.96627807617188 C 83.05390167236328 74.87850952148438 86.26293182373047 70.11918640136719 88.50407409667969 64.82052612304688 C 90.82372283935547 59.33627700805664 91.99987030029297 53.50883102416992 91.99987030029297 47.49993896484375 C 91.99987030029297 41.49116897583008 90.82372283935547 35.66372299194336 88.50407409667969 30.17947387695312 C 86.26293182373047 24.88081359863281 83.05390167236328 20.12149047851562 78.96614837646484 16.03372192382812 C 74.87837982177734 11.94596862792969 70.11905670166016 8.7369384765625 64.82039642333984 6.495796203613281 C 59.33615112304688 4.176155090332031 53.50870513916016 3 47.49993515014648 3 M 47.49993515014648 0 C 73.73342895507812 0 94.99987030029297 21.26644897460938 94.99987030029297 47.49993896484375 L 94.99987030029297 47.50006103515625 C 94.99987030029297 73.73355102539062 73.73342895507812 95 47.49993515014648 95 C 21.26644134521484 95 0 73.73355102539062 0 47.50006103515625 L 0 47.49993896484375 C 0 21.26644897460938 21.26644134521484 0 47.49993515014648 0 Z" stroke="none" fill="#fff"/>
              </g>
            </g>
            <g id="Rectángulo_400907" data-name="Rectángulo 400907" transform="translate(0 0)" fill="none" stroke="#fff" stroke-width="3">
              <rect width="95" height="95" rx="47.5" stroke="none"/>
              <rect x="1.5" y="1.5" width="92" height="92" rx="46" fill="none"/>
            </g>
          </g>
        </g>
      </g>
    </g>
    <g id="Filled_stroke_cut_Ex" data-name="Filled stroke cut Ex" transform="translate(434.831 3981.683)">
      <path id="Trazado_903427" data-name="Trazado 903427" d="M0,0H7.239V17.191H6.786A6.786,6.786,0,0,1,0,10.405Z" transform="translate(25.936 62.969) rotate(-26.052)" fill="#fbb8b0"/>
      <path id="Trazado_903428" data-name="Trazado 903428" d="M0,0H7.239V17.191H6.786A6.786,6.786,0,0,1,0,10.405V0Z" transform="translate(30.813 59.352) rotate(-26.052)" fill="#fbb8b0"/>
      <path id="Trazado_903429" data-name="Trazado 903429" d="M151.4,248.327l29.332,8.256a1.131,1.131,0,0,0,1.4-.782l4.561-16.2-29.859.045Z" transform="translate(-120.086 -184.12)" fill="#63c521"/>
      <path id="Trazado_903430" data-name="Trazado 903430" d="M0,0H45.241V25.335H0Z" transform="translate(69.384 58.24) rotate(180)" fill="#9fdc6e"/>
      <path id="Trazado_903431" data-name="Trazado 903431" d="M127.05,38.334h-1.81V33.81H81.81v4.524H80V32.9a.9.9,0,0,1,.9-.9h45.241a.9.9,0,0,1,.9.9Z" transform="translate(-56.761)"/>
      <path id="Trazado_903432" data-name="Trazado 903432" d="M38.477,134.146V117.859l5.553-9.041a6.786,6.786,0,0,0-1.764-9.192l-1.074-.768-7.239,9.048H32.3a1.131,1.131,0,0,1-1.131-1.131V88h-1.7a2.262,2.262,0,0,0-2.218,1.818L24,106.1l2.714,12.667v15.382Z" transform="translate(-7.095 -49.666)" fill="#ffd4cf"/>
      <path id="Trazado_903433" data-name="Trazado 903433" d="M20.524,210.8h-1.81V195.515L16.02,182.941a.906.906,0,0,1,0-.367l1.629-8.143,1.775.355-1.592,7.96L20.5,195.23a.906.906,0,0,1,.02.19Z" transform="translate(0 -126.322)"/>
      <ellipse id="Elipse_14066" data-name="Elipse 14066" cx="5.516" cy="5.21" rx="5.516" ry="5.21" transform="translate(41.129 40.351)" fill="#fbfef9"/>
      <path id="Trazado_903434" data-name="Trazado 903434" d="M238.334,108.667a6.334,6.334,0,1,1,6.334-6.334,6.334,6.334,0,0,1-6.334,6.334Zm0-10.858a4.524,4.524,0,1,0,4.524,4.524A4.524,4.524,0,0,0,238.334,97.81Z" transform="translate(-191.57 -56.761)"/>
      <path id="Trazado_903435" data-name="Trazado 903435" d="M384,112h5.429v1.81H384Z" transform="translate(-326.378 -70.952)"/>
      <path id="Trazado_903436" data-name="Trazado 903436" d="M84.226,68.524V85.716H54.441a7.663,7.663,0,0,0,.226-1.81h23.38A.9.9,0,0,0,78.9,82.7a1.81,1.81,0,0,1,2.31-2.309.9.9,0,0,0,1.206-.853V67.464a.9.9,0,0,0-1.206-.853A1.81,1.81,0,0,1,78.8,64.9a.9.9,0,0,0-.9-.9H46.224a.9.9,0,0,0-.9.9,1.812,1.812,0,0,1-1.81,1.81.9.9,0,0,0-.9.9V79.382a.9.9,0,0,0,.9.9A1.812,1.812,0,0,1,45.3,81.808L42.17,85.716H40.953a.226.226,0,0,1-.226-.226V66.714a.9.9,0,0,0-.9-.9h-1.7a3.175,3.175,0,0,0-3.106,2.546L33.755,74.68l1.775.355,1.265-6.325a1.361,1.361,0,0,1,1.331-1.091h.792v17.87a2.038,2.038,0,0,0,2.036,2.036H42.6a.9.9,0,0,0,.707-.339l6.7-8.379.378.27a5.876,5.876,0,0,1,1.529,7.966l-.01.016L46.358,96.1a.9.9,0,0,0-.134.473V112.86h1.81v-8.788a7.686,7.686,0,0,0,7.714.556l.406-.2a.9.9,0,0,0,.415-1.21l-.764-1.563a7.627,7.627,0,0,0,4.819-.648l.406-.2a.9.9,0,0,0,.415-1.21L60.3,97.255l15.849,4.461a2.035,2.035,0,0,0,2.511-1.408l3.6-12.783h2.874a.9.9,0,0,0,.9-.9v-18.1ZM51.444,77.6l-1.075-.768a.9.9,0,0,0-1.233.171l-2.549,3.187a3.632,3.632,0,0,0-2.173-1.6V68.41a3.633,3.633,0,0,0,2.6-2.6H77.1a3.626,3.626,0,0,0,3.5,2.714v9.953A3.623,3.623,0,0,0,76.988,82.1H54.462A7.668,7.668,0,0,0,51.444,77.6Zm2,10.409q.154-.241.289-.488H76.523l-1.446,5.43a3.645,3.645,0,0,0-3.1,1.928L52.818,89.04ZM48.034,101.7V96.829l1.1-1.8,1.2,2.448a7.638,7.638,0,0,0,3,3.246l1.2,2.46A5.925,5.925,0,0,1,48.034,101.7Zm11.381-2.13a5.882,5.882,0,0,1-7.453-2.883l-1.008-2.06L57.962,96.6Zm17.5.251a.226.226,0,0,1-.279.156L50.6,92.645l1.236-2.012,20.422,6.229a.9.9,0,0,0,1.148-.674,1.81,1.81,0,0,1,2.154-1.382.9.9,0,0,0,1.066-.651L78.4,87.525h1.981Z" transform="translate(-15.747 -28.381)"/>
    </g>
  </g>
</svg>
