<svg xmlns="http://www.w3.org/2000/svg" xmlns:xlink="http://www.w3.org/1999/xlink" width="113" height="113" viewBox="0 0 113 113">
  <defs>
    <filter id="Trazado_896985" x="0" y="0" width="113" height="113" filterUnits="userSpaceOnUse">
      <feOffset dy="3" input="SourceAlpha"/>
      <feGaussianBlur stdDeviation="3" result="blur"/>
      <feFlood flood-opacity="0.161"/>
      <feComposite operator="in" in2="blur"/>
      <feComposite in="SourceGraphic"/>
    </filter>
  </defs>
  <g id="Grupo_1112361" data-name="Grupo 1112361" transform="translate(-208.5 -5304.337)">
    <g id="Grupo_1112170" data-name="Grupo 1112170" transform="translate(-119.295 869.533)">
      <g id="Grupo_1111323" data-name="Grupo 1111323" transform="translate(-418.98 588.804)">
        <g id="Grupo_1109827" data-name="Grupo 1109827" transform="translate(755.775 3852)">
          <g id="Grupo_1098742" data-name="Grupo 1098742">
            <g transform="matrix(1, 0, 0, 1, -9, -6)" filter="url(#Trazado_896985)">
              <g id="Trazado_896985-2" data-name="Trazado 896985" transform="translate(9 6)" fill="#f3f0ea" opacity="0.859">
                <path d="M 47.49993515014648 93.5 C 41.28932189941406 93.5 35.26528167724609 92.28397369384766 29.59514808654785 89.88571929931641 C 24.1176815032959 87.56894683837891 19.1981086730957 84.25197601318359 14.97306823730469 80.02693176269531 C 10.74802875518799 75.80189514160156 7.431055068969727 70.88231658935547 5.11428165435791 65.40485382080078 C 2.716028451919556 59.73471832275391 1.500001788139343 53.71067810058594 1.500001788139343 47.50006484985352 C 1.500001788139343 41.28932189941406 2.716028451919556 35.26528167724609 5.11428165435791 29.59514617919922 C 7.431055068969727 24.11767959594727 10.74802875518799 19.19810676574707 14.97306823730469 14.97306632995605 C 19.1981086730957 10.74802684783936 24.1176815032959 7.431053161621094 29.59514808654785 5.114280223846436 C 35.26528167724609 2.716026782989502 41.28932189941406 1.5 47.49993515014648 1.5 C 53.71054840087891 1.5 59.73458862304688 2.716026782989502 65.40472412109375 5.114280223846436 C 70.88218688964844 7.431053161621094 75.80176544189453 10.74802684783936 80.02680206298828 14.97306632995605 C 84.25183868408203 19.19810676574707 87.56881713867188 24.11767959594727 89.88558959960938 29.59514617919922 C 92.28384399414062 35.26528167724609 93.49987030029297 41.28932189941406 93.49987030029297 47.49993515014648 C 93.49987030029297 53.71067810058594 92.28384399414062 59.73471832275391 89.88558959960938 65.40485382080078 C 87.56881713867188 70.88231658935547 84.25183868408203 75.80189514160156 80.02680206298828 80.02693176269531 C 75.80176544189453 84.25197601318359 70.88218688964844 87.56894683837891 65.40472412109375 89.88571929931641 C 59.73458862304688 92.28397369384766 53.71054840087891 93.5 47.49993515014648 93.5 Z" stroke="none"/>
                <path d="M 47.49993515014648 3 C 41.49116516113281 3 35.66371917724609 4.176155090332031 30.17947387695312 6.495796203613281 C 24.88081359863281 8.7369384765625 20.12149047851562 11.94596862792969 16.03372192382812 16.03372192382812 C 11.94596862792969 20.12149047851562 8.7369384765625 24.88081359863281 6.495796203613281 30.17947387695312 C 4.1761474609375 35.66372299194336 3 41.49116897583008 3 47.50006103515625 C 3 53.50883102416992 4.1761474609375 59.33627700805664 6.495796203613281 64.82052612304688 C 8.7369384765625 70.11918640136719 11.94596862792969 74.87850952148438 16.03372192382812 78.96627807617188 C 20.12149047851562 83.05403137207031 24.88081359863281 86.2630615234375 30.17947387695312 88.50419616699219 C 35.66371917724609 90.82384490966797 41.49116516113281 92 47.49993515014648 92 C 53.50870513916016 92 59.33615112304688 90.82384490966797 64.82039642333984 88.50419616699219 C 70.11905670166016 86.2630615234375 74.87837982177734 83.05403137207031 78.96614837646484 78.96627807617188 C 83.05390167236328 74.87850952148438 86.26293182373047 70.11918640136719 88.50407409667969 64.82052612304688 C 90.82372283935547 59.33627700805664 91.99987030029297 53.50883102416992 91.99987030029297 47.49993896484375 C 91.99987030029297 41.49116897583008 90.82372283935547 35.66372299194336 88.50407409667969 30.17947387695312 C 86.26293182373047 24.88081359863281 83.05390167236328 20.12149047851562 78.96614837646484 16.03372192382812 C 74.87837982177734 11.94596862792969 70.11905670166016 8.7369384765625 64.82039642333984 6.495796203613281 C 59.33615112304688 4.176155090332031 53.50870513916016 3 47.49993515014648 3 M 47.49993515014648 0 C 73.73342895507812 0 94.99987030029297 21.26644897460938 94.99987030029297 47.49993896484375 L 94.99987030029297 47.50006103515625 C 94.99987030029297 73.73355102539062 73.73342895507812 95 47.49993515014648 95 C 21.26644134521484 95 0 73.73355102539062 0 47.50006103515625 L 0 47.49993896484375 C 0 21.26644897460938 21.26644134521484 0 47.49993515014648 0 Z" stroke="none" fill="#fff"/>
              </g>
            </g>
            <g id="Rectángulo_400907" data-name="Rectángulo 400907" transform="translate(0 0)" fill="none" stroke="#fff" stroke-width="3">
              <rect width="95" height="95" rx="47.5" stroke="none"/>
              <rect x="1.5" y="1.5" width="92" height="92" rx="46" fill="none"/>
            </g>
          </g>
        </g>
      </g>
    </g>
    <g id="salario" transform="translate(238.948 5326.332)">
      <g id="Grupo_1112350" data-name="Grupo 1112350" transform="translate(33.321 36.869)">
        <path id="Trazado_903437" data-name="Trazado 903437" d="M320.61,305.96a10.281,10.281,0,0,0-9.034,15.2,10.334,10.334,0,0,0,4.147,4.126,10.282,10.282,0,1,0,4.887-19.324Z" transform="translate(-310.324 -305.96)" fill="#ffcb7c" fill-rule="evenodd"/>
      </g>
      <g id="Grupo_1112351" data-name="Grupo 1112351" transform="translate(1.082 32.974)">
        <path id="Trazado_903438" data-name="Trazado 903438" d="M27.6,269.684c-9.6,1.238-17.161,6.69-17.532,16.879a63.39,63.39,0,0,0,18.424,3.229l-1.342-3.716,2.224-11.567-1.771-4.826Z" transform="translate(-10.071 -269.684)" fill="#52cbf0" fill-rule="evenodd"/>
      </g>
      <g id="Grupo_1112352" data-name="Grupo 1112352" transform="translate(23.887 32.968)">
        <path id="Trazado_903439" data-name="Trazado 903439" d="M236.684,275.122a22.332,22.332,0,0,0-12.448-5.495l-1.774,4.832,2.224,11.567-1.339,3.716a68.176,68.176,0,0,0,9.8-1.016,10.275,10.275,0,0,1,3.533-13.6Z" transform="translate(-222.462 -269.627)" fill="#52cbf0" fill-rule="evenodd"/>
      </g>
      <g id="Grupo_1112353" data-name="Grupo 1112353" transform="translate(18.164 37.8)">
        <path id="Trazado_903440" data-name="Trazado 903440" d="M177.108,326.194l-2.224-11.567h-3.5l-2.224,11.567,1.342,3.716q1.315.041,2.632.036c.879,0,1.756-.009,2.635-.036Z" transform="translate(-169.16 -314.627)" fill="#f9f9f9" fill-rule="evenodd"/>
      </g>
      <g id="Grupo_1112354" data-name="Grupo 1112354" transform="translate(18.617 32.968)">
        <path id="Trazado_903441" data-name="Trazado 903441" d="M180.425,269.627a11.446,11.446,0,0,1-3.572.569,11.718,11.718,0,0,1-3.472-.563l1.771,4.826h3.5Z" transform="translate(-173.381 -269.627)" fill="#c6c4c8" fill-rule="evenodd"/>
      </g>
      <g id="Grupo_1112355" data-name="Grupo 1112355" transform="translate(10.465 14.884)">
        <path id="Trazado_903442" data-name="Trazado 903442" d="M120.712,104.959h-9.22a13.011,13.011,0,0,1-9.789-3.749c.046,4.294-4.238,3.749-4.238,3.749v4.367c0,.295.015.584.043.873.429,4.227,3.928,7.769,8.106,9.1h0a11.721,11.721,0,0,0,3.472.563,11.446,11.446,0,0,0,3.572-.569,12.587,12.587,0,0,0,3.1-1.505,10.653,10.653,0,0,0,4.908-7.593,8.245,8.245,0,0,0,.046-.87v-4.367Z" transform="translate(-97.465 -101.21)" fill="#ffd4be" fill-rule="evenodd"/>
      </g>
      <g id="Grupo_1112356" data-name="Grupo 1112356" transform="translate(10.466 5.581)">
        <path id="Trazado_903443" data-name="Trazado 903443" d="M120.712,27.623c1.567-17.734-23.246-16.177-23.246-2.655v2.655s4.284.544,4.238-3.749a13.01,13.01,0,0,0,9.789,3.749Z" transform="translate(-97.466 -14.571)" fill="#adaaaf" fill-rule="evenodd"/>
      </g>
      <g id="Grupo_1112357" data-name="Grupo 1112357" transform="translate(33.666 18.63)">
        <path id="Trazado_903444" data-name="Trazado 903444" d="M313.54,141.339a3.592,3.592,0,0,0,2.805-5.239l-2.76,0v4.367a8.253,8.253,0,0,1-.046.87Z" transform="translate(-313.54 -136.1)" fill="#ffbf9e" fill-rule="evenodd"/>
      </g>
      <g id="Grupo_1112358" data-name="Grupo 1112358" transform="translate(7.39 18.633)">
        <path id="Trazado_903445" data-name="Trazado 903445" d="M71.9,136.128H69.258c-1.183,2.059.164,5.145,2.684,5.239-.027-.289-.043-.578-.043-.873v-4.367Z" transform="translate(-68.824 -136.128)" fill="#ffbf9e" fill-rule="evenodd"/>
      </g>
      <g id="Grupo_1112359" data-name="Grupo 1112359" transform="translate(0 4.5)">
        <path id="Trazado_903446" data-name="Trazado 903446" d="M48.462,36.873a11.375,11.375,0,0,0-10.217.26A22.683,22.683,0,0,0,29.1,32.527c.086-.055.172-.108.257-.165a11.92,11.92,0,0,0,5.262-7.551,4.456,4.456,0,0,0,2.724-2.185,4.642,4.642,0,0,0,.065-4.534,1.081,1.081,0,0,0-.938-.543h0l-1.613,0a12.729,12.729,0,0,0-3.069-9.183A12.71,12.71,0,0,0,22.359,4.5a14.44,14.44,0,0,0-8.833,2.941,10.693,10.693,0,0,0-4.142,8.538v1.573H7.824a1.081,1.081,0,0,0-.937.542,4.713,4.713,0,0,0,.041,4.6,4.321,4.321,0,0,0,2.625,2.112,11.368,11.368,0,0,0,3.82,6.42,13.718,13.718,0,0,0,1.736,1.294,24.509,24.509,0,0,0-5.528,2.048,1.081,1.081,0,1,0,1,1.917A23.772,23.772,0,0,1,17.9,34.169l1.366,3.721L17.1,49.163a1.082,1.082,0,0,0,.045.571l.791,2.2a66.215,66.215,0,0,1-9.461-1.2V46.472a1.081,1.081,0,0,0-2.163,0v3.779c-1.41-.341-2.782-.728-4.106-1.16a15.394,15.394,0,0,1,2.4-7.342A1.081,1.081,0,1,0,2.8,40.564,17.8,17.8,0,0,0,0,49.814a1.081,1.081,0,0,0,.728,1.062,64.64,64.64,0,0,0,18.739,3.288h0c.8.025,1.606.037,2.4.037H22.4c.8,0,1.6-.013,2.4-.037h0a69.63,69.63,0,0,0,9.216-.906,11.366,11.366,0,1,0,14.44-16.384Zm-25.33-.155H21.143l-.822-2.239a12.339,12.339,0,0,0,1.761.139h.073a11.932,11.932,0,0,0,1.8-.139ZM35.453,21.576a2.642,2.642,0,0,1-.66.781V19.714h.952A2.667,2.667,0,0,1,35.453,21.576Zm-23.906-5.6c0-6.051,5.571-9.316,10.812-9.316a10.551,10.551,0,0,1,7.833,3.166,10.658,10.658,0,0,1,2.5,7.724h-8.2a12.059,12.059,0,0,1-9.022-3.431,1.081,1.081,0,0,0-1.848.774A2.677,2.677,0,0,1,13,16.872a2.582,2.582,0,0,1-1.45.655V15.979ZM8.82,21.651a2.7,2.7,0,0,1-.275-1.936h.839V22.34A2.482,2.482,0,0,1,8.82,21.651ZM11.547,23V19.705a4.819,4.819,0,0,0,2.987-1.313,4.066,4.066,0,0,0,.913-1.429,14.545,14.545,0,0,0,9.045,2.751h8.138V23a7.478,7.478,0,0,1-.042.783c0,.007,0,.013,0,.02a9.581,9.581,0,0,1-4.429,6.76,10.972,10.972,0,0,1-6,1.892H22.1a10.662,10.662,0,0,1-3.045-.471L19,31.965h0c-.03-.011-.06-.021-.091-.03l-.012,0-.069-.016C14.74,30.574,11.547,26.916,11.547,23ZM22.134,52.038h-.26c-.531,0-1.069-.006-1.6-.017l-.988-2.741,2-10.4h1.713l2,10.4-.988,2.741c-.536.011-1.073.017-1.6.017Zm4.2-.108.791-2.2a1.082,1.082,0,0,0,.045-.571L25.006,37.89l1.368-3.726a21.609,21.609,0,0,1,10,4.227A11.352,11.352,0,0,0,33,51.233C30.826,51.573,28.6,51.805,26.337,51.93Zm17.27,4.417a9.207,9.207,0,0,1-8.066-4.768l-.013-.025a9.206,9.206,0,1,1,8.079,4.793Z" transform="translate(0 -4.5)"/>
        <path id="Trazado_903447" data-name="Trazado 903447" d="M50.758,308.74a1.076,1.076,0,0,0,.6-.181l.018-.012a1.081,1.081,0,1,0-1.2-1.8l-.018.012a1.081,1.081,0,0,0,.6,1.982Z" transform="translate(-44.342 -274.131)"/>
      </g>
      <g id="Grupo_1112360" data-name="Grupo 1112360" transform="translate(39.966 39.514)">
        <path id="Trazado_903448" data-name="Trazado 903448" d="M379.5,339.977a2.987,2.987,0,0,1-.779,2.162,3.734,3.734,0,0,1-1.886,1.073v1.107a1.037,1.037,0,0,1-1.038,1.019,1.021,1.021,0,0,1-1.019-1.019v-1.1a4.016,4.016,0,0,1-1.248-.511,3.492,3.492,0,0,1-.8-.642l-.222-.292c-.943-1.231.608-2.545,1.512-1.6.11.112.225.252.359.4a1.779,1.779,0,0,0,1.381.486c.852,0,1.281-.35,1.281-1.055,0-.252-.164-.447-.487-.587a7.5,7.5,0,0,0-1.174-.371,9.975,9.975,0,0,1-1.384-.441,2.654,2.654,0,0,1-1.177-.952,2.868,2.868,0,0,1-.484-1.712,2.986,2.986,0,0,1,2.459-2.937v-1.4a1.019,1.019,0,0,1,2.039,0v1.411a3.964,3.964,0,0,1,.882.295,3,3,0,0,1,.554.31l.158.137c1.339,1,.046,2.782-1.111,1.809-.782-.657-2.559-.8-2.559.4a.708.708,0,0,0,.353.614,2.172,2.172,0,0,0,.876.313,8.748,8.748,0,0,1,1.141.258,8.034,8.034,0,0,1,1.141.423,2.009,2.009,0,0,1,.876.858,3.036,3.036,0,0,1,.353,1.53Z" transform="translate(-372.213 -330.596)"/>
      </g>
    </g>
  </g>
</svg>
