<svg xmlns="http://www.w3.org/2000/svg" xmlns:xlink="http://www.w3.org/1999/xlink" width="113" height="113" viewBox="0 0 113 113">
  <defs>
    <filter id="Trazado_896985" x="0" y="0" width="113" height="113" filterUnits="userSpaceOnUse">
      <feOffset dy="3" input="SourceAlpha"/>
      <feGaussianBlur stdDeviation="3" result="blur"/>
      <feFlood flood-opacity="0.161"/>
      <feComposite operator="in" in2="blur"/>
      <feComposite in="SourceGraphic"/>
    </filter>
  </defs>
  <g id="Grupo_1112347" data-name="Grupo 1112347" transform="translate(-208.5 -3596.337)">
    <g id="Grupo_1112152" data-name="Grupo 1112152" transform="translate(-119.295 -838.467)">
      <g id="Grupo_1111323" data-name="Grupo 1111323" transform="translate(-418.98 588.804)">
        <g id="Grupo_1109827" data-name="Grupo 1109827" transform="translate(755.775 3852)">
          <g id="Grupo_1098742" data-name="Grupo 1098742">
            <g transform="matrix(1, 0, 0, 1, -9, -6)" filter="url(#Trazado_896985)">
              <g id="Trazado_896985-2" data-name="Trazado 896985" transform="translate(9 6)" fill="#f3f0ea" opacity="0.859">
                <path d="M 47.49993515014648 93.5 C 41.28932189941406 93.5 35.26528167724609 92.28397369384766 29.59514808654785 89.88571929931641 C 24.1176815032959 87.56894683837891 19.1981086730957 84.25197601318359 14.97306823730469 80.02693176269531 C 10.74802875518799 75.80189514160156 7.431055068969727 70.88231658935547 5.11428165435791 65.40485382080078 C 2.716028451919556 59.73471832275391 1.500001788139343 53.71067810058594 1.500001788139343 47.50006484985352 C 1.500001788139343 41.28932189941406 2.716028451919556 35.26528167724609 5.11428165435791 29.59514617919922 C 7.431055068969727 24.11767959594727 10.74802875518799 19.19810676574707 14.97306823730469 14.97306632995605 C 19.1981086730957 10.74802684783936 24.1176815032959 7.431053161621094 29.59514808654785 5.114280223846436 C 35.26528167724609 2.716026782989502 41.28932189941406 1.5 47.49993515014648 1.5 C 53.71054840087891 1.5 59.73458862304688 2.716026782989502 65.40472412109375 5.114280223846436 C 70.88218688964844 7.431053161621094 75.80176544189453 10.74802684783936 80.02680206298828 14.97306632995605 C 84.25183868408203 19.19810676574707 87.56881713867188 24.11767959594727 89.88558959960938 29.59514617919922 C 92.28384399414062 35.26528167724609 93.49987030029297 41.28932189941406 93.49987030029297 47.49993515014648 C 93.49987030029297 53.71067810058594 92.28384399414062 59.73471832275391 89.88558959960938 65.40485382080078 C 87.56881713867188 70.88231658935547 84.25183868408203 75.80189514160156 80.02680206298828 80.02693176269531 C 75.80176544189453 84.25197601318359 70.88218688964844 87.56894683837891 65.40472412109375 89.88571929931641 C 59.73458862304688 92.28397369384766 53.71054840087891 93.5 47.49993515014648 93.5 Z" stroke="none"/>
                <path d="M 47.49993515014648 3 C 41.49116516113281 3 35.66371917724609 4.176155090332031 30.17947387695312 6.495796203613281 C 24.88081359863281 8.7369384765625 20.12149047851562 11.94596862792969 16.03372192382812 16.03372192382812 C 11.94596862792969 20.12149047851562 8.7369384765625 24.88081359863281 6.495796203613281 30.17947387695312 C 4.1761474609375 35.66372299194336 3 41.49116897583008 3 47.50006103515625 C 3 53.50883102416992 4.1761474609375 59.33627700805664 6.495796203613281 64.82052612304688 C 8.7369384765625 70.11918640136719 11.94596862792969 74.87850952148438 16.03372192382812 78.96627807617188 C 20.12149047851562 83.05403137207031 24.88081359863281 86.2630615234375 30.17947387695312 88.50419616699219 C 35.66371917724609 90.82384490966797 41.49116516113281 92 47.49993515014648 92 C 53.50870513916016 92 59.33615112304688 90.82384490966797 64.82039642333984 88.50419616699219 C 70.11905670166016 86.2630615234375 74.87837982177734 83.05403137207031 78.96614837646484 78.96627807617188 C 83.05390167236328 74.87850952148438 86.26293182373047 70.11918640136719 88.50407409667969 64.82052612304688 C 90.82372283935547 59.33627700805664 91.99987030029297 53.50883102416992 91.99987030029297 47.49993896484375 C 91.99987030029297 41.49116897583008 90.82372283935547 35.66372299194336 88.50407409667969 30.17947387695312 C 86.26293182373047 24.88081359863281 83.05390167236328 20.12149047851562 78.96614837646484 16.03372192382812 C 74.87837982177734 11.94596862792969 70.11905670166016 8.7369384765625 64.82039642333984 6.495796203613281 C 59.33615112304688 4.176155090332031 53.50870513916016 3 47.49993515014648 3 M 47.49993515014648 0 C 73.73342895507812 0 94.99987030029297 21.26644897460938 94.99987030029297 47.49993896484375 L 94.99987030029297 47.50006103515625 C 94.99987030029297 73.73355102539062 73.73342895507812 95 47.49993515014648 95 C 21.26644134521484 95 0 73.73355102539062 0 47.50006103515625 L 0 47.49993896484375 C 0 21.26644897460938 21.26644134521484 0 47.49993515014648 0 Z" stroke="none" fill="#fff"/>
              </g>
            </g>
            <g id="Rectángulo_400907" data-name="Rectángulo 400907" transform="translate(0 0)" fill="none" stroke="#fff" stroke-width="3">
              <rect width="95" height="95" rx="47.5" stroke="none"/>
              <rect x="1.5" y="1.5" width="92" height="92" rx="46" fill="none"/>
            </g>
          </g>
        </g>
      </g>
    </g>
    <g id="filled_outline" data-name="filled outline" transform="translate(189.549 3588.676)">
      <ellipse id="Elipse_14063" data-name="Elipse 14063" cx="24.835" cy="25.279" rx="24.835" ry="25.279" transform="translate(48.887 36.571)" fill="#5ebef7"/>
      <circle id="Elipse_14064" data-name="Elipse 14064" cx="20.844" cy="20.844" r="20.844" transform="translate(53.322 41.006)" fill="#eae9e4"/>
      <circle id="Elipse_14065" data-name="Elipse 14065" cx="7.983" cy="7.983" r="7.983" transform="translate(84.366 72.05)" fill="#ee9d0d"/>
      <path id="Trazado_903414" data-name="Trazado 903414" d="M237.653,210.274a2.993,2.993,0,0,0-1.7-4.113V201a1,1,0,1,0-2,0v5.163a2.995,2.995,0,1,0,2.289,5.525l5.989,5.989a1,1,0,1,0,1.412-1.412Zm-3.7-1.29a1,1,0,1,1,1,1,1,1,0,0,1-1-1Z" transform="translate(-160.997 -147.037)"/>
      <path id="Trazado_903415" data-name="Trazado 903415" d="M97.5,100.886a25.684,25.684,0,0,0,2.408-10.933,25.954,25.954,0,1,0-25.954,25.954A25.674,25.674,0,0,0,84.886,113.5,8.979,8.979,0,1,0,97.5,100.886ZM73.954,113.911A23.957,23.957,0,1,1,97.911,89.954a23.707,23.707,0,0,1-2.119,9.862,8.914,8.914,0,0,0-1.9-.656A21.951,21.951,0,1,0,83.159,109.9a8.921,8.921,0,0,0,.656,1.9A23.7,23.7,0,0,1,73.954,113.911Zm12.365-13-1.071-1.071a1,1,0,1,0-1.411,1.411l1.071,1.071a8.937,8.937,0,0,0-1.966,5.467,19.958,19.958,0,1,1,8.844-8.847A8.936,8.936,0,0,0,86.319,100.907Zm5.6,14a6.988,6.988,0,1,1,6.988-6.988,6.988,6.988,0,0,1-6.988,6.988Z" transform="translate(0 -28.007)"/>
      <path id="Trazado_903416" data-name="Trazado 903416" d="M374.988,386.995h-2v-2a1,1,0,0,0-2,0v2h-2a1,1,0,0,0,0,2h2v2a1,1,0,0,0,2,0v-2h2a1,1,0,0,0,0-2Z" transform="translate(-280.071 -308.078)"/>
      <path id="Trazado_903417" data-name="Trazado 903417" d="M249,131.993a1,1,0,0,0,1-1v-2a1,1,0,1,0-2,0v2A1,1,0,0,0,249,131.993Z" transform="translate(-175.044 -84.021)"/>
      <path id="Trazado_903418" data-name="Trazado 903418" d="M153.538,168.126a1,1,0,1,0-1.412,1.411l1.412,1.411a1,1,0,1,0,1.411-1.411Z" transform="translate(-90.877 -118.884)"/>
      <path id="Trazado_903419" data-name="Trazado 903419" d="M114.995,264h-2a1,1,0,1,0,0,2h2a1,1,0,0,0,0-2Z" transform="translate(-56.014 -203.051)"/>
      <path id="Trazado_903420" data-name="Trazado 903420" d="M153.538,349.012l-1.412,1.412a1,1,0,0,0,1.412,1.411l1.411-1.412a1,1,0,1,0-1.411-1.411Z" transform="translate(-90.877 -277.183)"/>
      <path id="Trazado_903421" data-name="Trazado 903421" d="M249,384a1,1,0,0,0-1,1v2a1,1,0,1,0,2,0v-2A1,1,0,0,0,249,384Z" transform="translate(-175.044 -308.078)"/>
      <path id="Trazado_903422" data-name="Trazado 903422" d="M371.993,265a1,1,0,0,0-1-1h-2a1,1,0,0,0,0,2h2A1,1,0,0,0,371.993,265Z" transform="translate(-280.071 -203.051)"/>
      <path id="Trazado_903423" data-name="Trazado 903423" d="M334.694,168.122l-1.411,1.412a1,1,0,0,0,1.411,1.411l1.412-1.412a1,1,0,0,0-1.412-1.411Z" transform="translate(-249.446 -118.881)"/>
      <path id="Trazado_903424" data-name="Trazado 903424" d="M49,68.492h1.5v1.5a1,1,0,1,0,2,0v-1.5h1.5a1,1,0,1,0,0-2h-1.5V65a1,1,0,1,0-2,0v1.5H49a1,1,0,1,0,0,2Z" transform="translate(0 -28.007)"/>
      <path id="Trazado_903425" data-name="Trazado 903425" d="M437.989,90.5h-1.5V89a1,1,0,0,0-2,0v1.5H433a1,1,0,1,0,0,2h1.5v1.5a1,1,0,0,0,2,0v-1.5h1.5a1,1,0,1,0,0-2Z" transform="translate(-336.085 -49.012)"/>
      <path id="Trazado_903426" data-name="Trazado 903426" d="M393,36.492h1.5v1.5a1,1,0,0,0,2,0v-1.5h1.5a1,1,0,1,0,0-2h-1.5V33a1,1,0,0,0-2,0v1.5H393a1,1,0,1,0,0,2Z" transform="translate(-301.076)"/>
    </g>
  </g>
</svg>
