<svg xmlns="http://www.w3.org/2000/svg" xmlns:xlink="http://www.w3.org/1999/xlink" width="113" height="113" viewBox="0 0 113 113">
  <defs>
    <filter id="Trazado_896985" x="0" y="0" width="113" height="113" filterUnits="userSpaceOnUse">
      <feOffset dy="3" input="SourceAlpha"/>
      <feGaussianBlur stdDeviation="3" result="blur"/>
      <feFlood flood-opacity="0.161"/>
      <feComposite operator="in" in2="blur"/>
      <feComposite in="SourceGraphic"/>
    </filter>
  </defs>
  <g id="Grupo_1112320" data-name="Grupo 1112320" transform="translate(-901 -1003.702)">
    <g id="Grupo_1112143" data-name="Grupo 1112143" transform="translate(575.109 -2842.298)">
      <g id="Grupo_1111318" data-name="Grupo 1111318" transform="translate(-5.891)">
        <g id="Grupo_1109826" data-name="Grupo 1109826" transform="translate(340.781 3852)">
          <g id="Grupo_1098742" data-name="Grupo 1098742">
            <g transform="matrix(1, 0, 0, 1, -9, -6)" filter="url(#Trazado_896985)">
              <g id="Trazado_896985-2" data-name="Trazado 896985" transform="translate(9 6)" fill="#fd9826" opacity="0.859">
                <path d="M 47.49993515014648 93.5 C 41.28932189941406 93.5 35.26528167724609 92.28397369384766 29.59514808654785 89.88571929931641 C 24.1176815032959 87.56894683837891 19.1981086730957 84.25197601318359 14.97306823730469 80.02693176269531 C 10.74802875518799 75.80189514160156 7.431055068969727 70.88231658935547 5.11428165435791 65.40485382080078 C 2.716028451919556 59.73471832275391 1.500001788139343 53.71067810058594 1.500001788139343 47.50006484985352 C 1.500001788139343 41.28932189941406 2.716028451919556 35.26528167724609 5.11428165435791 29.59514617919922 C 7.431055068969727 24.11767959594727 10.74802875518799 19.19810676574707 14.97306823730469 14.97306632995605 C 19.1981086730957 10.74802684783936 24.1176815032959 7.431053161621094 29.59514808654785 5.114280223846436 C 35.26528167724609 2.716026782989502 41.28932189941406 1.5 47.49993515014648 1.5 C 53.71054840087891 1.5 59.73458862304688 2.716026782989502 65.40472412109375 5.114280223846436 C 70.88218688964844 7.431053161621094 75.80176544189453 10.74802684783936 80.02680206298828 14.97306632995605 C 84.25183868408203 19.19810676574707 87.56881713867188 24.11767959594727 89.88558959960938 29.59514617919922 C 92.28384399414062 35.26528167724609 93.49987030029297 41.28932189941406 93.49987030029297 47.49993515014648 C 93.49987030029297 53.71067810058594 92.28384399414062 59.73471832275391 89.88558959960938 65.40485382080078 C 87.56881713867188 70.88231658935547 84.25183868408203 75.80189514160156 80.02680206298828 80.02693176269531 C 75.80176544189453 84.25197601318359 70.88218688964844 87.56894683837891 65.40472412109375 89.88571929931641 C 59.73458862304688 92.28397369384766 53.71054840087891 93.5 47.49993515014648 93.5 Z" stroke="none"/>
                <path d="M 47.49993515014648 3 C 41.49116516113281 3 35.66371917724609 4.176155090332031 30.17947387695312 6.495796203613281 C 24.88081359863281 8.7369384765625 20.12149047851562 11.94596862792969 16.03372192382812 16.03372192382812 C 11.94596862792969 20.12149047851562 8.7369384765625 24.88081359863281 6.495796203613281 30.17947387695312 C 4.1761474609375 35.66372299194336 3 41.49116897583008 3 47.50006103515625 C 3 53.50883102416992 4.1761474609375 59.33627700805664 6.495796203613281 64.82052612304688 C 8.7369384765625 70.11918640136719 11.94596862792969 74.87850952148438 16.03372192382812 78.96627807617188 C 20.12149047851562 83.05403137207031 24.88081359863281 86.2630615234375 30.17947387695312 88.50419616699219 C 35.66371917724609 90.82384490966797 41.49116516113281 92 47.49993515014648 92 C 53.50870513916016 92 59.33615112304688 90.82384490966797 64.82039642333984 88.50419616699219 C 70.11905670166016 86.2630615234375 74.87837982177734 83.05403137207031 78.96614837646484 78.96627807617188 C 83.05390167236328 74.87850952148438 86.26293182373047 70.11918640136719 88.50407409667969 64.82052612304688 C 90.82372283935547 59.33627700805664 91.99987030029297 53.50883102416992 91.99987030029297 47.49993896484375 C 91.99987030029297 41.49116897583008 90.82372283935547 35.66372299194336 88.50407409667969 30.17947387695312 C 86.26293182373047 24.88081359863281 83.05390167236328 20.12149047851562 78.96614837646484 16.03372192382812 C 74.87837982177734 11.94596862792969 70.11905670166016 8.7369384765625 64.82039642333984 6.495796203613281 C 59.33615112304688 4.176155090332031 53.50870513916016 3 47.49993515014648 3 M 47.49993515014648 0 C 73.73342895507812 0 94.99987030029297 21.26644897460938 94.99987030029297 47.49993896484375 L 94.99987030029297 47.50006103515625 C 94.99987030029297 73.73355102539062 73.73342895507812 95 47.49993515014648 95 C 21.26644134521484 95 0 73.73355102539062 0 47.50006103515625 L 0 47.49993896484375 C 0 21.26644897460938 21.26644134521484 0 47.49993515014648 0 Z" stroke="none" fill="#fff"/>
              </g>
            </g>
            <g id="Rectángulo_400907" data-name="Rectángulo 400907" transform="translate(0 0)" fill="none" stroke="#fff" stroke-width="3">
              <rect width="95" height="95" rx="47.5" stroke="none"/>
              <rect x="1.5" y="1.5" width="92" height="92" rx="46" fill="none"/>
            </g>
          </g>
        </g>
      </g>
    </g>
    <g id="metodo-de-pago" transform="translate(932.311 1032.018)">
      <path id="Trazado_903250" data-name="Trazado 903250" d="M107.34,372.017v7.794c4.439.2,3.158.98,10.882,4.453a7.31,7.31,0,0,0,5.687-.1l0,0,15.174-5.433c.494-.227,2.984-1.58,2-4.1-1.149-2.688-4.1-1.566-4.352-1.486l-7.922,2.19" transform="translate(-96.789 -335.428)" fill="#eac092"/>
      <g id="Grupo_1112317" data-name="Grupo 1112317" transform="translate(10.551 31.468)">
        <path id="Trazado_903251" data-name="Trazado 903251" d="M116.3,328.3l8.822,2.8a2.9,2.9,0,0,0,3.58-2h0a3.18,3.18,0,0,0-2.22-3.8l-7.826-2.656a6.652,6.652,0,0,0-5.649-2.729c-2.512,0-4.678,2.03-5.67,3.808v3.549" transform="translate(-107.341 -319.921)" fill="#fedbab"/>
      </g>
      <path id="Trazado_903252" data-name="Trazado 903252" d="M153.733,385.823a.968.968,0,0,1-.192-.02.95.95,0,0,1-.185-.056.987.987,0,0,1-.169-.091.954.954,0,0,1-.271-.271.909.909,0,0,1-.09-.17.922.922,0,0,1-.056-.184.944.944,0,0,1,0-.383.952.952,0,0,1,.056-.185.932.932,0,0,1,.09-.169.956.956,0,0,1,.271-.271,1,1,0,0,1,.169-.09.952.952,0,0,1,.185-.056.969.969,0,0,1,.383,0,.922.922,0,0,1,.184.056.969.969,0,0,1,.17.09.956.956,0,0,1,.271.271,1,1,0,0,1,.09.169,1.026,1.026,0,0,1,.056.185.944.944,0,0,1,0,.383.992.992,0,0,1-.056.184.971.971,0,0,1-.09.17.954.954,0,0,1-.271.271.969.969,0,0,1-.17.091.92.92,0,0,1-.184.056A.968.968,0,0,1,153.733,385.823Z" transform="translate(-137.735 -346.104)"/>
      <rect id="Rectángulo_405292" data-name="Rectángulo 405292" width="3.724" height="10.561" transform="translate(6.828 35.15)" fill="#eaecf0"/>
      <rect id="Rectángulo_405293" data-name="Rectángulo 405293" width="5.845" height="12.393" transform="translate(0.983 35.15)" fill="#3688c8"/>
      <path id="Trazado_903253" data-name="Trazado 903253" d="M45.216,318.283l-.012-.029c-.9-2.117-3.027-2.9-5.538-2.042l-6.848,1.894a4.489,4.489,0,0,0-2.78-2.738l-.026-.009L22.485,312.8a7.764,7.764,0,0,0-6.264-2.882,7.861,7.861,0,0,0-6.139,3.682H.983a.983.983,0,0,0-.983.983V326.98a.983.983,0,0,0,.983.983H6.827a.983.983,0,0,0,.983-.983v-.849h2.741a.983.983,0,0,0,.983-.983v-.283a6.969,6.969,0,0,1,3.591,1.289,59.486,59.486,0,0,0,5.905,3.015l.043.018a8.823,8.823,0,0,0,3.163.6,7.835,7.835,0,0,0,3.257-.7l15.137-5.42c.027-.01.053-.02.079-.032C44.156,322.968,46.311,321.093,45.216,318.283ZM5.844,326H1.966V315.57H5.844Zm3.724-1.832H7.81v-8.6H9.568Zm32.355-2.334-15.13,5.417-.044.017-.04.017a6.371,6.371,0,0,1-4.9.083,56.938,56.938,0,0,1-5.707-2.915,8.847,8.847,0,0,0-4.573-1.555v-7.917c.932-1.527,2.739-3.09,4.687-3.09a5.672,5.672,0,0,1,4.812,2.261.983.983,0,0,0,.521.416l7.812,2.651a2.205,2.205,0,0,1,1.6,2.6,1.915,1.915,0,0,1-2.353,1.322l-8.807-2.791a.983.983,0,0,0-.594,1.874l8.822,2.8.028.008a3.858,3.858,0,0,0,2.951-.343,3.855,3.855,0,0,0,1.844-2.329q.034-.119.06-.239l7.38-2.045c1.066-.364,2.465-.5,3.088.94C44.035,320.7,42.359,321.623,41.924,321.831Z" transform="translate(0 -279.436)"/>
      <path id="Trazado_903254" data-name="Trazado 903254" d="M59.406,18.754l-8.731-8.731L39.729,20.969l18.7,18.7L68.763,29.345" transform="translate(-35.824 -9.017)" fill="#26cfad"/>
      <path id="Trazado_903255" data-name="Trazado 903255" d="M147.849,113.958h0l0-.006a4.62,4.62,0,1,0,4.936,4.725" transform="translate(-129.437 -102.73)" fill="#ffd36c"/>
      <path id="Trazado_903256" data-name="Trazado 903256" d="M210.634,38.1V30.308c-4.439-.2-3.158-.98-10.882-4.453a7.31,7.31,0,0,0-5.687.1l0,0-4.578,1.639,4.724,4.724" transform="translate(-170.857 -22.813)" fill="#eac092"/>
      <g id="Grupo_1112318" data-name="Grupo 1112318" transform="translate(3.905 1.006)">
        <path id="Trazado_903257" data-name="Trazado 903257" d="M39.729,87.339l3.711-3.711a5.254,5.254,0,0,1,0,7.422Z" transform="translate(-39.729 -76.393)" fill="#00b192"/>
        <path id="Trazado_903258" data-name="Trazado 903258" d="M192.264,259.836a5.254,5.254,0,0,1,7.422,0l-3.711,3.711Z" transform="translate(-177.27 -233.896)" fill="#00b192"/>
        <path id="Trazado_903259" data-name="Trazado 903259" d="M113.333,13.734l3.711-3.711,3.711,3.711A5.254,5.254,0,0,1,113.333,13.734Z" transform="translate(-106.098 -10.023)" fill="#00b192"/>
        <path id="Trazado_903260" data-name="Trazado 903260" d="M288.322,182.048a5.255,5.255,0,0,0,1.22,5.506l3.094-3.094" transform="translate(-263.602 -165.138)" fill="#00b192"/>
      </g>
      <g id="Grupo_1112319" data-name="Grupo 1112319" transform="translate(18.302 9.122)">
        <path id="Trazado_903261" data-name="Trazado 903261" d="M198.7,95.492l-8.822-2.8a2.9,2.9,0,0,0-3.58,2h0a3.18,3.18,0,0,0,2.22,3.8l7.829,2.657h0A6.652,6.652,0,0,0,202,103.874c2.512,0,4.678-2.03,5.67-3.808V96.517" transform="translate(-186.19 -92.585)" fill="#fedbab"/>
      </g>
      <path id="Trazado_903262" data-name="Trazado 903262" d="M340.233,125.463a.969.969,0,0,1-.192-.02.993.993,0,0,1-.184-.056.97.97,0,0,1-.17-.09.956.956,0,0,1-.271-.271.971.971,0,0,1-.09-.17.922.922,0,0,1-.056-.184.943.943,0,0,1,0-.383.952.952,0,0,1,.056-.185,1,1,0,0,1,.09-.169.956.956,0,0,1,.271-.271.97.97,0,0,1,.17-.09.924.924,0,0,1,.184-.056.979.979,0,0,1,.568.056,1,1,0,0,1,.169.09.982.982,0,0,1,.362.44.955.955,0,0,1,.057.185.991.991,0,0,1,0,.383.925.925,0,0,1-.057.184.91.91,0,0,1-.09.17.955.955,0,0,1-.271.271,1,1,0,0,1-.169.09,1.041,1.041,0,0,1-.184.056A.987.987,0,0,1,340.233,125.463Z" transform="translate(-305.903 -111.337)"/>
      <rect id="Rectángulo_405294" data-name="Rectángulo 405294" width="3.724" height="10.561" transform="translate(39.777 6.167)" fill="#eaecf0"/>
      <rect id="Rectángulo_405295" data-name="Rectángulo 405295" width="5.845" height="12.393" transform="translate(43.501 4.335)" fill="#3688c8"/>
      <path id="Trazado_903263" data-name="Trazado 903263" d="M76.118,3.352H70.273a.983.983,0,0,0-.983.983v.849H66.549a.983.983,0,0,0-.983.983V6.45a6.969,6.969,0,0,1-3.591-1.289A59.479,59.479,0,0,0,56.07,2.146l-.043-.018a8.363,8.363,0,0,0-6.419.1L45.653,3.645,42.319.311a.983.983,0,0,0-1.39,0L29.982,11.257a.975.975,0,0,0,0,1.39l18.7,18.7a1.062,1.062,0,0,0,1.39,0l9.993-9.993c.26.022.529.035.809.035a7.86,7.86,0,0,0,6.139-3.682h9.1a.983.983,0,0,0,.983-.983V4.335A.983.983,0,0,0,76.118,3.352Zm-32,9.116a4.352,4.352,0,0,0,2.945,3.478l.026.009,1.966.667a3.637,3.637,0,1,1-4.937-4.155ZM46.083,8.63a3.853,3.853,0,0,0-1.6,1.692,5.6,5.6,0,1,0,6.442,6.935l3.319,1.126a6.276,6.276,0,0,0,1.041,4.982l-2.245,2.245a6.247,6.247,0,0,0-7.312,0l-10-10a6.247,6.247,0,0,0,0-7.313l2.243-2.243a6.247,6.247,0,0,0,7.313,0l2.126,2.126A3.879,3.879,0,0,0,46.083,8.63ZM56.7,21.95a4.3,4.3,0,0,1-.628-2.044,7.643,7.643,0,0,0,1.734.939ZM41.623,2.4l2.24,2.24a4.286,4.286,0,0,1-4.481,0ZM34.308,9.712a4.286,4.286,0,0,1,0,4.481l-2.24-2.24ZM49.382,29.267l-2.24-2.24a4.28,4.28,0,0,1,4.48,0Zm11.5-9.84a7.155,7.155,0,0,1-1.025-.072h0a5.63,5.63,0,0,1-3.641-1.993c-.02-.029-.105-.141-.118-.16a.979.979,0,0,0-.542-.45L47.734,14.1a2.206,2.206,0,0,1-1.6-2.6v0a1.915,1.915,0,0,1,2.352-1.318l8.807,2.791a.983.983,0,0,0,.594-1.874l-7-2.22-.061-.061,0,0L47.19,5.183l3.117-1.116.034-.013.01,0,.04-.017a6.371,6.371,0,0,1,4.9-.083,56.94,56.94,0,0,1,5.707,2.915A8.846,8.846,0,0,0,65.566,8.42v7.917C64.635,17.864,62.828,19.427,60.88,19.427ZM67.532,7.15H69.29v8.6H67.532Zm7.6,8.6H71.256V5.318h3.879Z" transform="translate(-26.772)"/>
    </g>
  </g>
</svg>
