<svg xmlns="http://www.w3.org/2000/svg" xmlns:xlink="http://www.w3.org/1999/xlink" width="113" height="113" viewBox="0 0 113 113">
  <defs>
    <filter id="Trazado_896985" x="0" y="0" width="113" height="113" filterUnits="userSpaceOnUse">
      <feOffset dy="3" input="SourceAlpha"/>
      <feGaussianBlur stdDeviation="3" result="blur"/>
      <feFlood flood-opacity="0.161"/>
      <feComposite operator="in" in2="blur"/>
      <feComposite in="SourceGraphic"/>
    </filter>
    <clipPath id="clip-path">
      <path id="path3903" d="M0-682.665H54.322v54.322H0Z" transform="translate(0 682.665)"/>
    </clipPath>
  </defs>
  <g id="Grupo_1112309" data-name="Grupo 1112309" transform="translate(-586.051 -5594)">
    <g id="Grupo_1111931" data-name="Grupo 1111931" transform="translate(260.16 1748)">
      <g id="Grupo_1111318" data-name="Grupo 1111318" transform="translate(-5.891)">
        <g id="Grupo_1109826" data-name="Grupo 1109826" transform="translate(340.781 3852)">
          <g id="Grupo_1098742" data-name="Grupo 1098742">
            <g transform="matrix(1, 0, 0, 1, -9, -6)" filter="url(#Trazado_896985)">
              <g id="Trazado_896985-2" data-name="Trazado 896985" transform="translate(9 6)" fill="#fd9826" opacity="0.859">
                <path d="M 47.49993515014648 93.5 C 41.28932189941406 93.5 35.26528167724609 92.28397369384766 29.59514808654785 89.88571929931641 C 24.1176815032959 87.56894683837891 19.1981086730957 84.25197601318359 14.97306823730469 80.02693176269531 C 10.74802875518799 75.80189514160156 7.431055068969727 70.88231658935547 5.11428165435791 65.40485382080078 C 2.716028451919556 59.73471832275391 1.500001788139343 53.71067810058594 1.500001788139343 47.50006484985352 C 1.500001788139343 41.28932189941406 2.716028451919556 35.26528167724609 5.11428165435791 29.59514617919922 C 7.431055068969727 24.11767959594727 10.74802875518799 19.19810676574707 14.97306823730469 14.97306632995605 C 19.1981086730957 10.74802684783936 24.1176815032959 7.431053161621094 29.59514808654785 5.114280223846436 C 35.26528167724609 2.716026782989502 41.28932189941406 1.5 47.49993515014648 1.5 C 53.71054840087891 1.5 59.73458862304688 2.716026782989502 65.40472412109375 5.114280223846436 C 70.88218688964844 7.431053161621094 75.80176544189453 10.74802684783936 80.02680206298828 14.97306632995605 C 84.25183868408203 19.19810676574707 87.56881713867188 24.11767959594727 89.88558959960938 29.59514617919922 C 92.28384399414062 35.26528167724609 93.49987030029297 41.28932189941406 93.49987030029297 47.49993515014648 C 93.49987030029297 53.71067810058594 92.28384399414062 59.73471832275391 89.88558959960938 65.40485382080078 C 87.56881713867188 70.88231658935547 84.25183868408203 75.80189514160156 80.02680206298828 80.02693176269531 C 75.80176544189453 84.25197601318359 70.88218688964844 87.56894683837891 65.40472412109375 89.88571929931641 C 59.73458862304688 92.28397369384766 53.71054840087891 93.5 47.49993515014648 93.5 Z" stroke="none"/>
                <path d="M 47.49993515014648 3 C 41.49116516113281 3 35.66371917724609 4.176155090332031 30.17947387695312 6.495796203613281 C 24.88081359863281 8.7369384765625 20.12149047851562 11.94596862792969 16.03372192382812 16.03372192382812 C 11.94596862792969 20.12149047851562 8.7369384765625 24.88081359863281 6.495796203613281 30.17947387695312 C 4.1761474609375 35.66372299194336 3 41.49116897583008 3 47.50006103515625 C 3 53.50883102416992 4.1761474609375 59.33627700805664 6.495796203613281 64.82052612304688 C 8.7369384765625 70.11918640136719 11.94596862792969 74.87850952148438 16.03372192382812 78.96627807617188 C 20.12149047851562 83.05403137207031 24.88081359863281 86.2630615234375 30.17947387695312 88.50419616699219 C 35.66371917724609 90.82384490966797 41.49116516113281 92 47.49993515014648 92 C 53.50870513916016 92 59.33615112304688 90.82384490966797 64.82039642333984 88.50419616699219 C 70.11905670166016 86.2630615234375 74.87837982177734 83.05403137207031 78.96614837646484 78.96627807617188 C 83.05390167236328 74.87850952148438 86.26293182373047 70.11918640136719 88.50407409667969 64.82052612304688 C 90.82372283935547 59.33627700805664 91.99987030029297 53.50883102416992 91.99987030029297 47.49993896484375 C 91.99987030029297 41.49116897583008 90.82372283935547 35.66372299194336 88.50407409667969 30.17947387695312 C 86.26293182373047 24.88081359863281 83.05390167236328 20.12149047851562 78.96614837646484 16.03372192382812 C 74.87837982177734 11.94596862792969 70.11905670166016 8.7369384765625 64.82039642333984 6.495796203613281 C 59.33615112304688 4.176155090332031 53.50870513916016 3 47.49993515014648 3 M 47.49993515014648 0 C 73.73342895507812 0 94.99987030029297 21.26644897460938 94.99987030029297 47.49993896484375 L 94.99987030029297 47.50006103515625 C 94.99987030029297 73.73355102539062 73.73342895507812 95 47.49993515014648 95 C 21.26644134521484 95 0 73.73355102539062 0 47.50006103515625 L 0 47.49993896484375 C 0 21.26644897460938 21.26644134521484 0 47.49993515014648 0 Z" stroke="none" fill="#fff"/>
              </g>
            </g>
            <g id="Rectángulo_400907" data-name="Rectángulo 400907" transform="translate(0 0)" fill="none" stroke="#fff" stroke-width="3">
              <rect width="95" height="95" rx="47.5" stroke="none"/>
              <rect x="1.5" y="1.5" width="92" height="92" rx="46" fill="none"/>
            </g>
          </g>
        </g>
      </g>
    </g>
    <g id="g3897" transform="translate(615.051 6302.665)">
      <g id="g3899" transform="translate(0 -682.665)">
        <g id="g3901" clip-path="url(#clip-path)">
          <g id="g3907" transform="translate(4.311 4.311)">
            <path id="path3909" d="M-528.608-142.318v-8.788a3.515,3.515,0,0,0-3.515-3.515h-38.669a3.515,3.515,0,0,0-3.515,3.515v8.788l22.652,6Z" transform="translate(574.308 154.622)" fill="#fe646f"/>
          </g>
          <g id="g3911" transform="translate(44.055 4.311)">
            <path id="path3913" d="M-40.661-40.661v9.424l2.44-.635v-8.788a3.515,3.515,0,0,0-3.515-3.515h-2.44a3.515,3.515,0,0,1,3.515,3.515" transform="translate(44.176 44.176)" fill="#fb2b3a"/>
          </g>
          <g id="g3915" transform="translate(36.828 0.796)">
            <path id="path3917" d="M-16.384-98.192h2.151v-8.319a2.629,2.629,0,0,0-.931-.17,2.636,2.636,0,0,0-2.637,2.637v3.515a2.636,2.636,0,0,0,1.416,2.337" transform="translate(17.8 106.681)" fill="#e2dee2"/>
          </g>
          <g id="g3919" transform="translate(38.245 0.796)">
            <path id="path3921" d="M-14.113,0a2.623,2.623,0,0,0-1.22.3,2.635,2.635,0,0,1,1.416,2.337V6.152a2.636,2.636,0,0,1-1.416,2.337,2.623,2.623,0,0,0,1.22.3,2.636,2.636,0,0,0,2.637-2.637V2.637A2.636,2.636,0,0,0-14.113,0" transform="translate(15.333)" fill="#cbc4cc"/>
          </g>
          <g id="g3923" transform="translate(4.311 16.615)">
            <path id="path3925" d="M-40.661-304.967H-1.992a3.515,3.515,0,0,0,3.515-3.515v-22.85h-45.7v22.85a3.515,3.515,0,0,0,3.515,3.515" transform="translate(44.176 331.333)" fill="#f9f7f8"/>
          </g>
          <g id="g3927" transform="translate(44.055 16.615)">
            <path id="path3929" d="M-40.661-264.305a3.515,3.515,0,0,1-3.515,3.515h2.44a3.515,3.515,0,0,0,3.515-3.515v-22.85h-2.44Z" transform="translate(44.176 287.155)" fill="#efedef"/>
          </g>
          <g id="g3931" transform="translate(6.069 27.514)">
            <path id="path3933" d="M-477.783-219.558h-.8l-1.083-1.758,1.008-1.758a15.825,15.825,0,0,0-12.479-15.466h-13.71a15.825,15.825,0,0,0-12.48,15.466l1.545,1.758-1.475,1.758h-.949a.879.879,0,0,0-.879.879v1.341a1.758,1.758,0,0,0,1.469,1.734l17.312,2.885a14.058,14.058,0,0,0,4.623,0l17.312-2.885a1.758,1.758,0,0,0,1.469-1.734v-1.341a.879.879,0,0,0-.879-.879" transform="translate(519.088 238.539)" fill="#fee45a"/>
          </g>
          <g id="g3935" transform="translate(31.575 27.514)">
            <path id="path3937" d="M-182.745-219.558h-.8l-1.083-1.758,1.008-1.758A15.825,15.825,0,0,0-196.1-238.539h-2.44a15.825,15.825,0,0,1,12.48,15.466v3.091a.424.424,0,0,0,.424.424h.455a.879.879,0,0,1,.879.879v1.755a1.757,1.757,0,0,1-1.325,1.7l2.3-.383a1.758,1.758,0,0,0,1.469-1.734v-1.341a.879.879,0,0,0-.879-.879" transform="translate(198.543 238.539)" fill="#fed402"/>
          </g>
          <g id="g3939" transform="translate(20.283 23.646)">
            <path id="path3941" d="M-136.273-20.332h-1.005a.422.422,0,0,1-.415-.34,1.758,1.758,0,0,0-1.725-1.418h-3.515a1.758,1.758,0,0,0-1.725,1.418.422.422,0,0,1-.415.34H-146.3a1.758,1.758,0,0,0-1.752,1.9l1.6,19.189h10.176Z" transform="translate(148.054 22.089)" fill="#ffc344"/>
          </g>
          <g id="g3943" transform="translate(42.98 42.98)">
            <path id="path3945" d="M-45.571-40.662A.424.424,0,0,1-46-41.086v-3.091h-2.667a.849.849,0,0,0-.849.849v1.818a.849.849,0,0,0,.849.849Z" transform="translate(49.511 44.177)" fill="#ffc344"/>
          </g>
          <g id="g3947" transform="translate(7.402 42.98)">
            <path id="path3949" d="M-45.571-30.844v-1.818a.849.849,0,0,0-.849-.849h-2.667v3.091a.424.424,0,0,1-.424.424h3.091a.849.849,0,0,0,.849-.849" transform="translate(49.511 33.511)" fill="#ffc344"/>
          </g>
          <g id="g3951" transform="translate(44.055 42.98)">
            <path id="path3953" d="M-33.135-40.662a.424.424,0,0,1-.424-.424v-3.091H-36v3.091a.424.424,0,0,0,.424.424h2.44Z" transform="translate(36 44.177)" fill="#f6ab31"/>
          </g>
          <g id="g3955" transform="translate(25.403 39.465)">
            <path id="path3957" d="M-30.844-40.662h-1.818a.849.849,0,0,1-.849-.849v-1.818a.849.849,0,0,1,.849-.849h1.818a.849.849,0,0,1,.849.849v1.818a.849.849,0,0,1-.849.849" transform="translate(33.511 44.177)" fill="#99e6fc"/>
          </g>
          <g id="g3959" transform="translate(26.478 23.646)">
            <path id="path3961" d="M-67.123-20.332h-1.223a.422.422,0,0,1-.415-.34,1.758,1.758,0,0,0-1.725-1.418h-2.44A1.758,1.758,0,0,1-71.2-20.671a.422.422,0,0,0,.415.34h1.223a1.758,1.758,0,0,1,1.752,1.9L-69.411.761h2.44l1.6-19.189a1.758,1.758,0,0,0-1.752-1.9" transform="translate(72.926 22.089)" fill="#f6ab31"/>
          </g>
          <g id="g3963" transform="translate(25.941 39.465)">
            <path id="path3965" d="M-24.626,0h-1.818a.847.847,0,0,0-.311.06.849.849,0,0,1,.537.789V2.667a.849.849,0,0,1-.537.789.845.845,0,0,0,.311.06h1.818a.849.849,0,0,0,.849-.849V.849A.849.849,0,0,0-24.626,0" transform="translate(26.755)" fill="#01d0fb"/>
          </g>
          <g id="g3967" transform="translate(13.099 0.796)">
            <path id="path3969" d="M-16.384-98.192h2.151v-8.319a2.629,2.629,0,0,0-.931-.17,2.636,2.636,0,0,0-2.637,2.637v3.515a2.636,2.636,0,0,0,1.416,2.337" transform="translate(17.8 106.681)" fill="#e2dee2"/>
          </g>
          <g id="g3971" transform="translate(14.516 0.796)">
            <path id="path3973" d="M-14.113,0a2.623,2.623,0,0,0-1.22.3,2.635,2.635,0,0,1,1.416,2.337V6.152a2.636,2.636,0,0,1-1.416,2.337,2.623,2.623,0,0,0,1.22.3,2.636,2.636,0,0,0,2.637-2.637V2.637A2.636,2.636,0,0,0-14.113,0" transform="translate(15.333)" fill="#cbc4cc"/>
          </g>
          <g id="g3975" transform="translate(41.305 3.515)">
            <path id="path3977" d="M-60.033-455.693a.8.8,0,0,1-.8-.8.8.8,0,0,1,.8-.8A2.723,2.723,0,0,0-57.313-460v-31.638a2.723,2.723,0,0,0-2.719-2.719h-4.394a.8.8,0,0,1-.8-.8.8.8,0,0,1,.8-.8h4.394a4.316,4.316,0,0,1,4.311,4.311V-460A4.316,4.316,0,0,1-60.033-455.693Z" transform="translate(65.222 495.953)"/>
          </g>
          <g id="g3979" transform="translate(3.515 3.515)">
            <path id="path3981" d="M-116.133,30.26a4.316,4.316,0,0,1-4.311-4.311V-5.689A4.316,4.316,0,0,1-116.133-10h5.273a.8.8,0,0,1,.8.8.8.8,0,0,1-.8.8h-5.273a2.723,2.723,0,0,0-2.719,2.719V25.949a2.723,2.723,0,0,0,2.719,2.719.8.8,0,0,1,.8.8A.8.8,0,0,1-116.133,30.26Z" transform="translate(120.444 10)"/>
          </g>
          <g id="g3983" transform="translate(17.577 3.515)">
            <path id="path3985" d="M-222.681-8.409h-18.456a.8.8,0,0,1-.8-.8.8.8,0,0,1,.8-.8h18.456a.8.8,0,0,1,.8.8A.8.8,0,0,1-222.681-8.409Z" transform="translate(241.933 10)"/>
          </g>
          <g id="g3987" transform="translate(12.304 0)">
            <path id="path3989" d="M-72.834-76.931a3.436,3.436,0,0,1-3.432-3.432v-3.515a3.436,3.436,0,0,1,3.432-3.432A3.436,3.436,0,0,1-69.4-83.878v3.515A3.436,3.436,0,0,1-72.834-76.931Zm0-8.788a1.843,1.843,0,0,0-1.841,1.841v3.515a1.843,1.843,0,0,0,1.841,1.841,1.843,1.843,0,0,0,1.841-1.841v-3.515A1.843,1.843,0,0,0-72.834-85.719Z" transform="translate(76.266 87.31)"/>
          </g>
          <g id="g3991" transform="translate(10.546 7.031)">
            <path id="path3993" d="M-31.276-8.409h-1.908a.8.8,0,0,1-.8-.8.8.8,0,0,1,.8-.8h1.908a.8.8,0,0,1,.8.8A.8.8,0,0,1-31.276-8.409Z" transform="translate(33.98 10)"/>
          </g>
          <g id="g3995" transform="translate(17.427 7.031)">
            <path id="path3997" d="M-31.274-8.409h-1.908a.8.8,0,0,1-.8-.8.8.8,0,0,1,.8-.8h1.908a.8.8,0,0,1,.8.8A.8.8,0,0,1-31.274-8.409Z" transform="translate(33.977 10)"/>
          </g>
          <g id="g3999" transform="translate(10.433 15.819)">
            <path id="path4001" d="M29.578-8.409H-9.2a.8.8,0,0,1-.8-.8.8.8,0,0,1,.8-.8H29.578a.8.8,0,0,1,.8.8A.8.8,0,0,1,29.578-8.409Z" transform="translate(10 10)"/>
          </g>
          <g id="g4003" transform="translate(3.515 15.819)">
            <path id="path4005" d="M-5.977-8.409H-9.2a.8.8,0,0,1-.8-.8.8.8,0,0,1,.8-.8h3.228a.8.8,0,0,1,.8.8A.8.8,0,0,1-5.977-8.409Z" transform="translate(10 10)"/>
          </g>
          <g id="g4007" transform="translate(3.515 12.304)">
            <path id="path4009" d="M36.5-8.409H-9.2a.8.8,0,0,1-.8-.8.8.8,0,0,1,.8-.8H36.5a.8.8,0,0,1,.8.8A.8.8,0,0,1,36.5-8.409Z" transform="translate(10 10)"/>
          </g>
          <g id="g4011" transform="translate(36.032 0)">
            <path id="path4013" d="M-72.834-76.931a3.436,3.436,0,0,1-3.432-3.432v-3.515a3.436,3.436,0,0,1,3.432-3.432A3.436,3.436,0,0,1-69.4-83.878v3.515A3.436,3.436,0,0,1-72.834-76.931Zm0-8.788a1.843,1.843,0,0,0-1.841,1.841v3.515a1.843,1.843,0,0,0,1.841,1.841,1.843,1.843,0,0,0,1.841-1.841v-3.515A1.843,1.843,0,0,0-72.834-85.719Z" transform="translate(76.266 87.31)"/>
          </g>
          <g id="g4015" transform="translate(34.275 7.031)">
            <path id="path4017" d="M-31.276-8.409h-1.908a.8.8,0,0,1-.8-.8.8.8,0,0,1,.8-.8h1.908a.8.8,0,0,1,.8.8A.8.8,0,0,1-31.276-8.409Z" transform="translate(33.98 10)"/>
          </g>
          <g id="g4019" transform="translate(41.155 7.031)">
            <path id="path4021" d="M-31.274-8.409h-1.908a.8.8,0,0,1-.8-.8.8.8,0,0,1,.8-.8h1.908a.8.8,0,0,1,.8.8A.8.8,0,0,1-31.274-8.409Z" transform="translate(33.977 10)"/>
          </g>
          <g id="g4023" transform="translate(5.273 45.7)">
            <path id="path4025" d="M-47.308-57.665a.8.8,0,0,1-.132-.011l-1.826-.3A2.545,2.545,0,0,1-51.4-60.5V-61.84a1.676,1.676,0,0,1,1.675-1.675h7.031a.8.8,0,0,1,.8.8.8.8,0,0,1-.8.8h-7.031a.083.083,0,0,0-.083.083V-60.5a.959.959,0,0,0,.8.949l1.826.3a.8.8,0,0,1,.654.916A.8.8,0,0,1-47.308-57.665Z" transform="translate(51.399 63.514)"/>
          </g>
          <g id="g4027" transform="translate(12.304 45.7)">
            <path id="path4029" d="M-337.521-1.377a14.843,14.843,0,0,1-2.443-.2l-11.75-1.958a.8.8,0,0,1-.654-.916.8.8,0,0,1,.916-.654L-339.7-3.15a13.234,13.234,0,0,0,4.362,0l17.312-2.885a.959.959,0,0,0,.8-.949V-8.325a.083.083,0,0,0-.083-.083h-7.031a.8.8,0,0,1-.8-.8.8.8,0,0,1,.8-.8h7.031a1.676,1.676,0,0,1,1.675,1.675v1.341a2.546,2.546,0,0,1-2.134,2.519L-335.078-1.58A14.849,14.849,0,0,1-337.521-1.377Z" transform="translate(352.378 10)"/>
          </g>
          <g id="g4031" transform="translate(19.334 45.7)">
            <path id="path4033" d="M4.857-8.408H-9.2a.8.8,0,0,1-.8-.8.8.8,0,0,1,.8-.8H4.857a.8.8,0,0,1,.8.8A.8.8,0,0,1,4.857-8.408Z" transform="translate(10 10)"/>
          </g>
          <g id="g4035" transform="translate(19.487 24.607)">
            <path id="path4037" d="M-127.668,12.684h-10.546a.8.8,0,0,1-.793-.73l-1.6-19.188a2.561,2.561,0,0,1,.666-1.941A2.56,2.56,0,0,1-138.062-10h1.605a.8.8,0,0,1,.8.8.8.8,0,0,1-.8.8h-1.605a.952.952,0,0,0-.708.311.952.952,0,0,0-.251.731l1.538,18.459h9.082l1.538-18.459a.952.952,0,0,0-.251-.731.952.952,0,0,0-.708-.311h-1.605a.8.8,0,0,1-.8-.8.8.8,0,0,1,.8-.8h1.605a2.56,2.56,0,0,1,1.879.824,2.56,2.56,0,0,1,.666,1.941l-1.6,19.188A.8.8,0,0,1-127.668,12.684Z" transform="translate(140.615 10)"/>
          </g>
          <g id="g4039" transform="translate(24.607 38.669)">
            <path id="path4041" d="M-40.048-49.07h-1.818a1.646,1.646,0,0,1-1.645-1.645v-1.818a1.646,1.646,0,0,1,1.645-1.645h1.818A1.646,1.646,0,0,1-38.4-52.533v1.818A1.646,1.646,0,0,1-40.048-49.07Zm-1.818-3.515-.053,1.871,1.871.053A.053.053,0,0,0-40-50.715v-1.818Z" transform="translate(43.511 54.177)"/>
          </g>
          <g id="g4043" transform="translate(22.85 22.85)">
            <path id="path4045" d="M-2.173-110.065a.8.8,0,0,1-.8-.8v-7.031a.963.963,0,0,0-.962-.962H-7.447a.963.963,0,0,0-.962.962v7.031a.8.8,0,0,1-.8.8.8.8,0,0,1-.8-.8v-7.031a2.556,2.556,0,0,1,2.553-2.553h3.515a2.556,2.556,0,0,1,2.553,2.553v7.031A.8.8,0,0,1-2.173-110.065Z" transform="translate(10 120.445)"/>
          </g>
          <g id="g4047" transform="translate(7.031 26.718)">
            <path id="path4049" d="M-166.036,10.571a.8.8,0,0,1-.8-.8V6.26A16.7,16.7,0,0,1-153.723-9.984a.8.8,0,0,1,.945.611.8.8,0,0,1-.611.945A15.1,15.1,0,0,0-165.24,6.26V9.775A.8.8,0,0,1-166.036,10.571Z" transform="translate(166.832 10.002)"/>
          </g>
          <g id="g4051" transform="translate(7.031 42.184)">
            <path id="path4053" d="M-5.689-49.07H-9.2a.8.8,0,0,1-.8-.8v-3.515a.8.8,0,0,1,.8-.8h2.667a1.646,1.646,0,0,1,1.645,1.645v2.667A.8.8,0,0,1-5.689-49.07Zm-2.72-1.591h1.924v-1.871l-1.924-.038Z" transform="translate(10 54.177)"/>
          </g>
          <g id="g4055" transform="translate(33.22 26.718)">
            <path id="path4057" d="M3.273,10.571a.8.8,0,0,1-.8-.8V6.26A15.1,15.1,0,0,0-9.373-8.428a.8.8,0,0,1-.611-.945.8.8,0,0,1,.945-.611A16.7,16.7,0,0,1,4.069,6.26V9.775A.8.8,0,0,1,3.273,10.571Z" transform="translate(10.002 10.002)"/>
          </g>
          <g id="g4059" transform="translate(42.184 42.184)">
            <path id="path4061" d="M-49.866-49.07h-3.515a.8.8,0,0,1-.8-.8v-2.667a1.646,1.646,0,0,1,1.645-1.645h2.667a.8.8,0,0,1,.8.8v3.515A.8.8,0,0,1-49.866-49.07Zm-2.7-1.591h1.908v-1.924h-1.871Z" transform="translate(54.177 54.177)"/>
          </g>
          <g id="g4063" transform="translate(24.607 35.154)">
            <path id="path4065" d="M-5.689-8.409H-9.2a.8.8,0,0,1-.8-.8.8.8,0,0,1,.8-.8h3.515a.8.8,0,0,1,.8.8A.8.8,0,0,1-5.689-8.409Z" transform="translate(10 10)"/>
          </g>
        </g>
      </g>
    </g>
  </g>
</svg>
