<svg xmlns="http://www.w3.org/2000/svg" xmlns:xlink="http://www.w3.org/1999/xlink" width="113" height="113" viewBox="0 0 113 113">
  <defs>
    <filter id="Trazado_896985" x="0" y="0" width="113" height="113" filterUnits="userSpaceOnUse">
      <feOffset dy="3" input="SourceAlpha"/>
      <feGaussianBlur stdDeviation="3" result="blur"/>
      <feFlood flood-opacity="0.161"/>
      <feComposite operator="in" in2="blur"/>
      <feComposite in="SourceGraphic"/>
    </filter>
  </defs>
  <g id="Grupo_1112321" data-name="Grupo 1112321" transform="translate(-1216 -1003.702)">
    <g id="Grupo_1112144" data-name="Grupo 1112144" transform="translate(890.109 -2842.298)">
      <g id="Grupo_1111318" data-name="Grupo 1111318" transform="translate(-5.891)">
        <g id="Grupo_1109826" data-name="Grupo 1109826" transform="translate(340.781 3852)">
          <g id="Grupo_1098742" data-name="Grupo 1098742">
            <g transform="matrix(1, 0, 0, 1, -9, -6)" filter="url(#Trazado_896985)">
              <g id="Trazado_896985-2" data-name="Trazado 896985" transform="translate(9 6)" fill="#fd9826" opacity="0.859">
                <path d="M 47.49993515014648 93.5 C 41.28932189941406 93.5 35.26528167724609 92.28397369384766 29.59514808654785 89.88571929931641 C 24.1176815032959 87.56894683837891 19.1981086730957 84.25197601318359 14.97306823730469 80.02693176269531 C 10.74802875518799 75.80189514160156 7.431055068969727 70.88231658935547 5.11428165435791 65.40485382080078 C 2.716028451919556 59.73471832275391 1.500001788139343 53.71067810058594 1.500001788139343 47.50006484985352 C 1.500001788139343 41.28932189941406 2.716028451919556 35.26528167724609 5.11428165435791 29.59514617919922 C 7.431055068969727 24.11767959594727 10.74802875518799 19.19810676574707 14.97306823730469 14.97306632995605 C 19.1981086730957 10.74802684783936 24.1176815032959 7.431053161621094 29.59514808654785 5.114280223846436 C 35.26528167724609 2.716026782989502 41.28932189941406 1.5 47.49993515014648 1.5 C 53.71054840087891 1.5 59.73458862304688 2.716026782989502 65.40472412109375 5.114280223846436 C 70.88218688964844 7.431053161621094 75.80176544189453 10.74802684783936 80.02680206298828 14.97306632995605 C 84.25183868408203 19.19810676574707 87.56881713867188 24.11767959594727 89.88558959960938 29.59514617919922 C 92.28384399414062 35.26528167724609 93.49987030029297 41.28932189941406 93.49987030029297 47.49993515014648 C 93.49987030029297 53.71067810058594 92.28384399414062 59.73471832275391 89.88558959960938 65.40485382080078 C 87.56881713867188 70.88231658935547 84.25183868408203 75.80189514160156 80.02680206298828 80.02693176269531 C 75.80176544189453 84.25197601318359 70.88218688964844 87.56894683837891 65.40472412109375 89.88571929931641 C 59.73458862304688 92.28397369384766 53.71054840087891 93.5 47.49993515014648 93.5 Z" stroke="none"/>
                <path d="M 47.49993515014648 3 C 41.49116516113281 3 35.66371917724609 4.176155090332031 30.17947387695312 6.495796203613281 C 24.88081359863281 8.7369384765625 20.12149047851562 11.94596862792969 16.03372192382812 16.03372192382812 C 11.94596862792969 20.12149047851562 8.7369384765625 24.88081359863281 6.495796203613281 30.17947387695312 C 4.1761474609375 35.66372299194336 3 41.49116897583008 3 47.50006103515625 C 3 53.50883102416992 4.1761474609375 59.33627700805664 6.495796203613281 64.82052612304688 C 8.7369384765625 70.11918640136719 11.94596862792969 74.87850952148438 16.03372192382812 78.96627807617188 C 20.12149047851562 83.05403137207031 24.88081359863281 86.2630615234375 30.17947387695312 88.50419616699219 C 35.66371917724609 90.82384490966797 41.49116516113281 92 47.49993515014648 92 C 53.50870513916016 92 59.33615112304688 90.82384490966797 64.82039642333984 88.50419616699219 C 70.11905670166016 86.2630615234375 74.87837982177734 83.05403137207031 78.96614837646484 78.96627807617188 C 83.05390167236328 74.87850952148438 86.26293182373047 70.11918640136719 88.50407409667969 64.82052612304688 C 90.82372283935547 59.33627700805664 91.99987030029297 53.50883102416992 91.99987030029297 47.49993896484375 C 91.99987030029297 41.49116897583008 90.82372283935547 35.66372299194336 88.50407409667969 30.17947387695312 C 86.26293182373047 24.88081359863281 83.05390167236328 20.12149047851562 78.96614837646484 16.03372192382812 C 74.87837982177734 11.94596862792969 70.11905670166016 8.7369384765625 64.82039642333984 6.495796203613281 C 59.33615112304688 4.176155090332031 53.50870513916016 3 47.49993515014648 3 M 47.49993515014648 0 C 73.73342895507812 0 94.99987030029297 21.26644897460938 94.99987030029297 47.49993896484375 L 94.99987030029297 47.50006103515625 C 94.99987030029297 73.73355102539062 73.73342895507812 95 47.49993515014648 95 C 21.26644134521484 95 0 73.73355102539062 0 47.50006103515625 L 0 47.49993896484375 C 0 21.26644897460938 21.26644134521484 0 47.49993515014648 0 Z" stroke="none" fill="#fff"/>
              </g>
            </g>
            <g id="Rectángulo_400907" data-name="Rectángulo 400907" transform="translate(0 0)" fill="none" stroke="#fff" stroke-width="3">
              <rect width="95" height="95" rx="47.5" stroke="none"/>
              <rect x="1.5" y="1.5" width="92" height="92" rx="46" fill="none"/>
            </g>
          </g>
        </g>
      </g>
    </g>
    <g id="Filled_stroke_cut_Ex" data-name="Filled stroke cut Ex" transform="translate(1228.154 997.826)">
      <path id="Trazado_903264" data-name="Trazado 903264" d="M0,0H7.552V17.936H7.08A7.08,7.08,0,0,1,0,10.856Z" transform="translate(26.367 64.31) rotate(-26.052)" fill="#fbb8b0"/>
      <path id="Trazado_903265" data-name="Trazado 903265" d="M0,0H7.552V17.936H7.08A7.08,7.08,0,0,1,0,10.856V0Z" transform="translate(31.455 60.537) rotate(-26.052)" fill="#fbb8b0"/>
      <path id="Trazado_903266" data-name="Trazado 903266" d="M151.4,248.705,182,257.32a1.18,1.18,0,0,0,1.456-.816l4.758-16.9-31.153.047Z" transform="translate(-119.422 -183.103)" fill="#63c521"/>
      <path id="Trazado_903267" data-name="Trazado 903267" d="M0,0H47.2V26.432H0Z" transform="translate(71.697 59.376) rotate(180)" fill="#9fdc6e"/>
      <path id="Trazado_903268" data-name="Trazado 903268" d="M129.089,38.608H127.2v-4.72H81.888v4.72H80V32.944A.944.944,0,0,1,80.944,32h47.2a.944.944,0,0,1,.944.944Z" transform="translate(-56.448)"/>
      <path id="Trazado_903269" data-name="Trazado 903269" d="M39.1,136.145V119.153L44.9,109.72a7.08,7.08,0,0,0-1.841-9.59l-1.121-.8-7.552,9.44H32.661a1.18,1.18,0,0,1-1.18-1.18V88h-1.77A2.36,2.36,0,0,0,27.4,89.9L24,106.88,26.832,120.1v16.048Z" transform="translate(-7.056 -49.392)" fill="#ffd4cf"/>
      <path id="Trazado_903270" data-name="Trazado 903270" d="M20.72,212.377H18.832V196.429L16.021,183.31a.945.945,0,0,1,0-.383l1.7-8.5,1.851.37-1.661,8.3L20.7,196.131a.945.945,0,0,1,.021.2Z" transform="translate(0 -125.624)"/>
      <circle id="Elipse_14059" data-name="Elipse 14059" cx="5.5" cy="5.5" r="5.5" transform="translate(42.641 40.753)" fill="#fbfef9"/>
      <path id="Trazado_903271" data-name="Trazado 903271" d="M238.608,109.216a6.608,6.608,0,1,1,6.608-6.608,6.608,6.608,0,0,1-6.608,6.608Zm0-11.328a4.72,4.72,0,1,0,4.72,4.72A4.72,4.72,0,0,0,238.608,97.888Z" transform="translate(-190.511 -56.448)"/>
      <path id="Trazado_903272" data-name="Trazado 903272" d="M384,112h5.664v1.888H384Z" transform="translate(-324.575 -70.56)"/>
      <path id="Trazado_903273" data-name="Trazado 903273" d="M86.413,68.72V86.656H55.338a7.994,7.994,0,0,0,.236-1.888H79.966a.944.944,0,0,0,.89-1.259,1.888,1.888,0,0,1,2.41-2.409.944.944,0,0,0,1.259-.89v-12.6a.944.944,0,0,0-1.259-.89,1.888,1.888,0,0,1-2.517-1.78A.944.944,0,0,0,79.8,64H46.764a.944.944,0,0,0-.944.944,1.89,1.89,0,0,1-1.888,1.888.944.944,0,0,0-.944.944V80.048a.944.944,0,0,0,.944.944A1.891,1.891,0,0,1,45.8,82.579l-3.262,4.077H41.265a.236.236,0,0,1-.236-.236V66.832a.944.944,0,0,0-.944-.944h-1.77a3.313,3.313,0,0,0-3.24,2.656l-1.32,6.6,1.851.37,1.32-6.6a1.42,1.42,0,0,1,1.389-1.138h.826V86.42a2.127,2.127,0,0,0,2.124,2.124h1.723a.944.944,0,0,0,.737-.354l6.994-8.742.394.282a6.13,6.13,0,0,1,1.6,8.311l-.01.016L46.9,97.491a.944.944,0,0,0-.14.494v16.992h1.888v-9.169a8.019,8.019,0,0,0,8.048.58l.424-.207a.944.944,0,0,0,.433-1.263l-.8-1.63a7.957,7.957,0,0,0,5.028-.676l.424-.207a.944.944,0,0,0,.433-1.263l-1.2-2.447,16.535,4.655a2.123,2.123,0,0,0,2.62-1.469l3.754-13.337h3A.944.944,0,0,0,88.3,87.6V68.72Zm-34.2,9.473-1.122-.8a.944.944,0,0,0-1.286.178L47.143,80.9a3.79,3.79,0,0,0-2.267-1.672V68.6a3.79,3.79,0,0,0,2.713-2.713H78.98a3.783,3.783,0,0,0,3.657,2.832V79.1a3.78,3.78,0,0,0-3.776,3.776h-23.5A8,8,0,0,0,52.211,78.193ZM54.3,89.054q.161-.251.3-.509H78.376L76.867,94.21a3.8,3.8,0,0,0-3.232,2.012l-19.991-6.1Zm-5.65,14.276V98.251L49.8,96.375l1.249,2.554a7.969,7.969,0,0,0,3.129,3.387l1.255,2.566A6.182,6.182,0,0,1,48.652,103.33Zm11.874-2.223A6.137,6.137,0,0,1,52.75,98.1L51.7,95.951l7.312,2.058Zm18.26.262a.236.236,0,0,1-.291.163L51.333,93.887l1.29-2.1,21.307,6.5a.944.944,0,0,0,1.2-.7,1.888,1.888,0,0,1,2.248-1.442.943.943,0,0,0,1.112-.68l1.842-6.916H82.4Z" transform="translate(-15.66 -28.224)"/>
    </g>
  </g>
</svg>
