<svg xmlns="http://www.w3.org/2000/svg" xmlns:xlink="http://www.w3.org/1999/xlink" width="113" height="113" viewBox="0 0 113 113">
  <defs>
    <filter id="Trazado_896985" x="0" y="0" width="113" height="113" filterUnits="userSpaceOnUse">
      <feOffset dy="3" input="SourceAlpha"/>
      <feGaussianBlur stdDeviation="3" result="blur"/>
      <feFlood flood-opacity="0.161"/>
      <feComposite operator="in" in2="blur"/>
      <feComposite in="SourceGraphic"/>
    </filter>
  </defs>
  <g id="Grupo_1112312" data-name="Grupo 1112312" transform="translate(-901 -5594.152)">
    <g id="Grupo_1111932" data-name="Grupo 1111932" transform="translate(575.109 1748.152)">
      <g id="Grupo_1111318" data-name="Grupo 1111318" transform="translate(-5.891)">
        <g id="Grupo_1109826" data-name="Grupo 1109826" transform="translate(340.781 3852)">
          <g id="Grupo_1098742" data-name="Grupo 1098742">
            <g transform="matrix(1, 0, 0, 1, -9, -6)" filter="url(#Trazado_896985)">
              <g id="Trazado_896985-2" data-name="Trazado 896985" transform="translate(9 6)" fill="#fd9826" opacity="0.859">
                <path d="M 47.49993515014648 93.5 C 41.28932189941406 93.5 35.26528167724609 92.28397369384766 29.59514808654785 89.88571929931641 C 24.1176815032959 87.56894683837891 19.1981086730957 84.25197601318359 14.97306823730469 80.02693176269531 C 10.74802875518799 75.80189514160156 7.431055068969727 70.88231658935547 5.11428165435791 65.40485382080078 C 2.716028451919556 59.73471832275391 1.500001788139343 53.71067810058594 1.500001788139343 47.50006484985352 C 1.500001788139343 41.28932189941406 2.716028451919556 35.26528167724609 5.11428165435791 29.59514617919922 C 7.431055068969727 24.11767959594727 10.74802875518799 19.19810676574707 14.97306823730469 14.97306632995605 C 19.1981086730957 10.74802684783936 24.1176815032959 7.431053161621094 29.59514808654785 5.114280223846436 C 35.26528167724609 2.716026782989502 41.28932189941406 1.5 47.49993515014648 1.5 C 53.71054840087891 1.5 59.73458862304688 2.716026782989502 65.40472412109375 5.114280223846436 C 70.88218688964844 7.431053161621094 75.80176544189453 10.74802684783936 80.02680206298828 14.97306632995605 C 84.25183868408203 19.19810676574707 87.56881713867188 24.11767959594727 89.88558959960938 29.59514617919922 C 92.28384399414062 35.26528167724609 93.49987030029297 41.28932189941406 93.49987030029297 47.49993515014648 C 93.49987030029297 53.71067810058594 92.28384399414062 59.73471832275391 89.88558959960938 65.40485382080078 C 87.56881713867188 70.88231658935547 84.25183868408203 75.80189514160156 80.02680206298828 80.02693176269531 C 75.80176544189453 84.25197601318359 70.88218688964844 87.56894683837891 65.40472412109375 89.88571929931641 C 59.73458862304688 92.28397369384766 53.71054840087891 93.5 47.49993515014648 93.5 Z" stroke="none"/>
                <path d="M 47.49993515014648 3 C 41.49116516113281 3 35.66371917724609 4.176155090332031 30.17947387695312 6.495796203613281 C 24.88081359863281 8.7369384765625 20.12149047851562 11.94596862792969 16.03372192382812 16.03372192382812 C 11.94596862792969 20.12149047851562 8.7369384765625 24.88081359863281 6.495796203613281 30.17947387695312 C 4.1761474609375 35.66372299194336 3 41.49116897583008 3 47.50006103515625 C 3 53.50883102416992 4.1761474609375 59.33627700805664 6.495796203613281 64.82052612304688 C 8.7369384765625 70.11918640136719 11.94596862792969 74.87850952148438 16.03372192382812 78.96627807617188 C 20.12149047851562 83.05403137207031 24.88081359863281 86.2630615234375 30.17947387695312 88.50419616699219 C 35.66371917724609 90.82384490966797 41.49116516113281 92 47.49993515014648 92 C 53.50870513916016 92 59.33615112304688 90.82384490966797 64.82039642333984 88.50419616699219 C 70.11905670166016 86.2630615234375 74.87837982177734 83.05403137207031 78.96614837646484 78.96627807617188 C 83.05390167236328 74.87850952148438 86.26293182373047 70.11918640136719 88.50407409667969 64.82052612304688 C 90.82372283935547 59.33627700805664 91.99987030029297 53.50883102416992 91.99987030029297 47.49993896484375 C 91.99987030029297 41.49116897583008 90.82372283935547 35.66372299194336 88.50407409667969 30.17947387695312 C 86.26293182373047 24.88081359863281 83.05390167236328 20.12149047851562 78.96614837646484 16.03372192382812 C 74.87837982177734 11.94596862792969 70.11905670166016 8.7369384765625 64.82039642333984 6.495796203613281 C 59.33615112304688 4.176155090332031 53.50870513916016 3 47.49993515014648 3 M 47.49993515014648 0 C 73.73342895507812 0 94.99987030029297 21.26644897460938 94.99987030029297 47.49993896484375 L 94.99987030029297 47.50006103515625 C 94.99987030029297 73.73355102539062 73.73342895507812 95 47.49993515014648 95 C 21.26644134521484 95 0 73.73355102539062 0 47.50006103515625 L 0 47.49993896484375 C 0 21.26644897460938 21.26644134521484 0 47.49993515014648 0 Z" stroke="none" fill="#fff"/>
              </g>
            </g>
            <g id="Rectángulo_400907" data-name="Rectángulo 400907" transform="translate(0 0)" fill="none" stroke="#fff" stroke-width="3">
              <rect width="95" height="95" rx="47.5" stroke="none"/>
              <rect x="1.5" y="1.5" width="92" height="92" rx="46" fill="none"/>
            </g>
          </g>
        </g>
      </g>
    </g>
    <g id="time-and-calendar" transform="translate(930.251 5617.171)">
      <path id="Trazado_903215" data-name="Trazado 903215" d="M4.167,19.362V47.871l1.77,4.878H44.32l8.754-10.629.035-22.757H4.167Z" transform="translate(-0.333 -2.462)" fill="#fff" fill-rule="evenodd"/>
      <path id="Trazado_903216" data-name="Trazado 903216" d="M56.941,19.362V36.705l4.683,5.414.035-22.757Z" transform="translate(-8.882 -2.462)" fill="#f0f0f0" fill-rule="evenodd"/>
      <circle id="Elipse_14057" data-name="Elipse 14057" cx="15.712" cy="15.712" r="15.712" transform="translate(23.038 23.371)" fill="#212121"/>
      <path id="Trazado_903217" data-name="Trazado 903217" d="M2.112,33V51.233A5.207,5.207,0,0,0,7.319,56.44H21.292a1.746,1.746,0,0,0,0-3.492H7.319A1.715,1.715,0,0,1,5.6,51.233V33a1.746,1.746,0,0,0-3.492,0Z" transform="translate(0 -4.388)" fill="#212121" fill-rule="evenodd"/>
      <circle id="Elipse_14058" data-name="Elipse 14058" cx="12.221" cy="12.221" r="12.221" transform="translate(26.53 26.862)" fill="#8bd0f7"/>
      <path id="Trazado_903218" data-name="Trazado 903218" d="M43.793,31.369A12.221,12.221,0,1,1,45.5,55.692a12.374,12.374,0,0,1-1.71-.119,12.222,12.222,0,0,0,0-24.2Z" transform="translate(-6.752 -4.388)" fill="#75bfe9" fill-rule="evenodd"/>
      <g id="Grupo_1112307" data-name="Grupo 1112307" transform="translate(2.112 4.167)">
        <path id="Trazado_903219" data-name="Trazado 903219" d="M43.75,37.136v7a1.747,1.747,0,0,0,.965,1.562l5.579,2.79a1.746,1.746,0,1,0,1.561-3.123l-4.614-2.307V37.136a1.746,1.746,0,1,0-3.492,0Z" transform="translate(-8.857 -9.225)" fill="#212121" fill-rule="evenodd"/>
        <path id="Trazado_903220" data-name="Trazado 903220" d="M13.2,47.242h5.237a1.746,1.746,0,0,0,0-3.492H13.2a1.746,1.746,0,1,0,0,3.492Z" transform="translate(-3.626 -10.58)" fill="#212121" fill-rule="evenodd"/>
        <path id="Trazado_903221" data-name="Trazado 903221" d="M13.2,40.992h5.237a1.746,1.746,0,0,0,0-3.492H13.2a1.746,1.746,0,1,0,0,3.492Z" transform="translate(-3.626 -9.567)" fill="#212121" fill-rule="evenodd"/>
        <path id="Trazado_903222" data-name="Trazado 903222" d="M13.2,34.742h5.237a1.746,1.746,0,0,0,0-3.492H13.2a1.746,1.746,0,1,0,0,3.492Z" transform="translate(-3.626 -8.555)" fill="#212121" fill-rule="evenodd"/>
        <path id="Trazado_903223" data-name="Trazado 903223" d="M26.554,9.4H16.079V5.913a1.746,1.746,0,0,0-3.492,0V9.4H7.319a5.207,5.207,0,0,0-5.207,5.206v7.014a1.746,1.746,0,0,0,3.492,0V19.879H50.995v3.546a1.746,1.746,0,1,0,3.492,0V14.611A5.207,5.207,0,0,0,49.28,9.4H44.012V5.913a1.746,1.746,0,0,0-3.492,0V9.4H30.045V5.913a1.746,1.746,0,0,0-3.491,0Z" transform="translate(-2.112 -4.167)" fill="#212121" fill-rule="evenodd"/>
      </g>
      <path id="Trazado_903224" data-name="Trazado 903224" d="M59.1,18.075V16.3a1.715,1.715,0,0,0-1.715-1.715H52.112v3.492Z" transform="translate(-8.1 -1.687)" fill="#fab959" fill-rule="evenodd"/>
      <path id="Trazado_903225" data-name="Trazado 903225" d="M54.761,14.583A1.717,1.717,0,0,1,56.476,16.3v1.777h3.048V16.3a1.715,1.715,0,0,0-1.715-1.715Z" transform="translate(-8.529 -1.687)" fill="#f4ad44" fill-rule="evenodd"/>
      <path id="Trazado_903226" data-name="Trazado 903226" d="M13.262,14.583H7.994A1.715,1.715,0,0,0,6.279,16.3v1.777h6.983Z" transform="translate(-0.675 -1.687)" fill="#fab959" fill-rule="evenodd"/>
      <path id="Trazado_903227" data-name="Trazado 903227" d="M18.779,14.583H43.221v3.492H18.779Z" transform="translate(-2.7 -1.687)" fill="#fab959" fill-rule="evenodd"/>
    </g>
  </g>
</svg>
