<svg xmlns="http://www.w3.org/2000/svg" xmlns:xlink="http://www.w3.org/1999/xlink" width="113" height="113" viewBox="0 0 113 113">
  <defs>
    <filter id="Trazado_896985" x="0" y="0" width="113" height="113" filterUnits="userSpaceOnUse">
      <feOffset dy="3" input="SourceAlpha"/>
      <feGaussianBlur stdDeviation="3" result="blur"/>
      <feFlood flood-opacity="0.161"/>
      <feComposite operator="in" in2="blur"/>
      <feComposite in="SourceGraphic"/>
    </filter>
  </defs>
  <g id="Grupo_1112323" data-name="Grupo 1112323" transform="translate(-328.014 -1673.97)">
    <g id="Grupo_1111351" data-name="Grupo 1111351" transform="translate(0.219 -2760.834)">
      <g id="Grupo_1111323" data-name="Grupo 1111323" transform="translate(-418.98 588.804)">
        <g id="Grupo_1109827" data-name="Grupo 1109827" transform="translate(755.775 3852)">
          <g id="Grupo_1098742" data-name="Grupo 1098742">
            <g transform="matrix(1, 0, 0, 1, -9, -6)" filter="url(#Trazado_896985)">
              <g id="Trazado_896985-2" data-name="Trazado 896985" transform="translate(9 6)" fill="#f3f0ea" opacity="0.859">
                <path d="M 47.49993515014648 93.5 C 41.28932189941406 93.5 35.26528167724609 92.28397369384766 29.59514808654785 89.88571929931641 C 24.1176815032959 87.56894683837891 19.1981086730957 84.25197601318359 14.97306823730469 80.02693176269531 C 10.74802875518799 75.80189514160156 7.431055068969727 70.88231658935547 5.11428165435791 65.40485382080078 C 2.716028451919556 59.73471832275391 1.500001788139343 53.71067810058594 1.500001788139343 47.50006484985352 C 1.500001788139343 41.28932189941406 2.716028451919556 35.26528167724609 5.11428165435791 29.59514617919922 C 7.431055068969727 24.11767959594727 10.74802875518799 19.19810676574707 14.97306823730469 14.97306632995605 C 19.1981086730957 10.74802684783936 24.1176815032959 7.431053161621094 29.59514808654785 5.114280223846436 C 35.26528167724609 2.716026782989502 41.28932189941406 1.5 47.49993515014648 1.5 C 53.71054840087891 1.5 59.73458862304688 2.716026782989502 65.40472412109375 5.114280223846436 C 70.88218688964844 7.431053161621094 75.80176544189453 10.74802684783936 80.02680206298828 14.97306632995605 C 84.25183868408203 19.19810676574707 87.56881713867188 24.11767959594727 89.88558959960938 29.59514617919922 C 92.28384399414062 35.26528167724609 93.49987030029297 41.28932189941406 93.49987030029297 47.49993515014648 C 93.49987030029297 53.71067810058594 92.28384399414062 59.73471832275391 89.88558959960938 65.40485382080078 C 87.56881713867188 70.88231658935547 84.25183868408203 75.80189514160156 80.02680206298828 80.02693176269531 C 75.80176544189453 84.25197601318359 70.88218688964844 87.56894683837891 65.40472412109375 89.88571929931641 C 59.73458862304688 92.28397369384766 53.71054840087891 93.5 47.49993515014648 93.5 Z" stroke="none"/>
                <path d="M 47.49993515014648 3 C 41.49116516113281 3 35.66371917724609 4.176155090332031 30.17947387695312 6.495796203613281 C 24.88081359863281 8.7369384765625 20.12149047851562 11.94596862792969 16.03372192382812 16.03372192382812 C 11.94596862792969 20.12149047851562 8.7369384765625 24.88081359863281 6.495796203613281 30.17947387695312 C 4.1761474609375 35.66372299194336 3 41.49116897583008 3 47.50006103515625 C 3 53.50883102416992 4.1761474609375 59.33627700805664 6.495796203613281 64.82052612304688 C 8.7369384765625 70.11918640136719 11.94596862792969 74.87850952148438 16.03372192382812 78.96627807617188 C 20.12149047851562 83.05403137207031 24.88081359863281 86.2630615234375 30.17947387695312 88.50419616699219 C 35.66371917724609 90.82384490966797 41.49116516113281 92 47.49993515014648 92 C 53.50870513916016 92 59.33615112304688 90.82384490966797 64.82039642333984 88.50419616699219 C 70.11905670166016 86.2630615234375 74.87837982177734 83.05403137207031 78.96614837646484 78.96627807617188 C 83.05390167236328 74.87850952148438 86.26293182373047 70.11918640136719 88.50407409667969 64.82052612304688 C 90.82372283935547 59.33627700805664 91.99987030029297 53.50883102416992 91.99987030029297 47.49993896484375 C 91.99987030029297 41.49116897583008 90.82372283935547 35.66372299194336 88.50407409667969 30.17947387695312 C 86.26293182373047 24.88081359863281 83.05390167236328 20.12149047851562 78.96614837646484 16.03372192382812 C 74.87837982177734 11.94596862792969 70.11905670166016 8.7369384765625 64.82039642333984 6.495796203613281 C 59.33615112304688 4.176155090332031 53.50870513916016 3 47.49993515014648 3 M 47.49993515014648 0 C 73.73342895507812 0 94.99987030029297 21.26644897460938 94.99987030029297 47.49993896484375 L 94.99987030029297 47.50006103515625 C 94.99987030029297 73.73355102539062 73.73342895507812 95 47.49993515014648 95 C 21.26644134521484 95 0 73.73355102539062 0 47.50006103515625 L 0 47.49993896484375 C 0 21.26644897460938 21.26644134521484 0 47.49993515014648 0 Z" stroke="none" fill="#fff"/>
              </g>
            </g>
            <g id="Rectángulo_400907" data-name="Rectángulo 400907" transform="translate(0 0)" fill="none" stroke="#fff" stroke-width="3">
              <rect width="95" height="95" rx="47.5" stroke="none"/>
              <rect x="1.5" y="1.5" width="92" height="92" rx="46" fill="none"/>
            </g>
          </g>
        </g>
      </g>
    </g>
    <g id="layer1" transform="translate(358.105 1701.062)">
      <path id="rect4530" d="M14.023,12.435h8.253v13.2H14.023Z" transform="translate(29.716 26.352)" fill="#427096"/>
      <path id="path4532" d="M20.625,12.435c.825,9.9-2.854,11.921-6.6,12.144V25.64h8.253v-13.2Z" transform="translate(29.716 26.352)" fill="#365b7a"/>
      <path id="rect4538" d="M14.023,12.435v13.2h1.651v-13.2Z" transform="translate(29.716 26.352)" fill="#f5f9fb"/>
      <path id="rect4534" d="M12.965,12.7H15.44V24.254H12.965Z" transform="translate(27.473 26.912)" fill="#d0e5f8"/>
      <path id="rect4518" d="M.265,2.91H10.993V16.94H.265Z" transform="translate(0.561 6.167)" fill="#427096"/>
      <path id="path4520" d="M9.342,2.91c.769,9.9-5.33,12.746-9.078,12.969V16.94H10.993V2.91Z" transform="translate(0.561 6.167)" fill="#365b7a"/>
      <path id="rect4527" d="M.265,2.91V16.94H1.915V2.91Z" transform="translate(0.561 6.167)" fill="#f5f9fb"/>
      <path id="rect4506" d="M3.7,3.175h3.3V15.554H3.7Z" transform="translate(7.849 6.728)" fill="#d0e5f8"/>
      <path id="path4504" d="M11.995,2.329c-1.084-.837-1.694-1.676-2.9-2A1.913,1.913,0,0,0,6.615,2.208C6.6,4.274,8.2,6.036,8.265,7.686Z" transform="translate(14.017 0.566)" fill="#ffa465"/>
      <path id="path4484" d="M15.832.273a1.861,1.861,0,0,0-.35.056c-1.65.36-2.476,2.3-4.952,3.116-2.332.625-3.446.18-3.844-.53H6.667l1.486,6.37,8.354-.277c0-2.147,1.549-4.95,1.549-6.8A1.933,1.933,0,0,0,15.832.273Z" transform="translate(14.129 0.567)" fill="#ffbd8d"/>
      <path id="path4502" d="M13.927.273a1.861,1.861,0,0,0-.35.056c-1.65.36-2.476,2.3-4.952,3.116a9.386,9.386,0,0,1-1.059.218,5.846,5.846,0,0,0,2.709-.218c2.33-.772,3.206-2.516,4.676-3.021A2.494,2.494,0,0,0,13.927.273Z" transform="translate(16.034 0.567)" fill="#f5f9fb"/>
      <path id="path4489" d="M15.3.284c-.033,4.679-8.072,6.31-8.072,6.31s.429,1.3.89,2.618l7.206-.239c0-2.147,1.549-4.95,1.549-6.8A1.816,1.816,0,0,0,15.3.284Z" transform="translate(15.313 0.601)" fill="#ffa465"/>
      <path id="path4497" d="M6.667,1.116l1.486,6.37L9.8,7.431c0-2.366-.74-3.791-1.26-5.495a1.982,1.982,0,0,1-1.855-.82Z" transform="translate(14.129 2.365)" fill="#f5f9fb"/>
      <path id="path4467" d="M12.9,2.381c-2.364.052-6.491,3.3-7.316,3.3H4.76l.007,10.728H6.416c.959,0,1.918.837,3.364,1.538.031.019.06.025.09.042,1.686-2.532,3.15-5.067,3.15-8.182.836,0,1.951,0,3.062-1.926,1.024.012,2.7,1.1,4.354,1.1,2.453,0,3.262-2.089,1.651-3.3,0,0-4.168-3.3-5.777-3.3Z" transform="translate(10.088 5.046)" fill="#ffd1b5"/>
      <path id="rect4508" d="M6.417,3.331a2.553,2.553,0,0,1-.837.34H4.76L4.767,14.4H6.418Z" transform="translate(10.088 7.058)" fill="#ffb98d"/>
      <path id="rect4459" d="M1.651,0A1.647,1.647,0,0,1,3.3,1.651V3.3A1.651,1.651,0,1,1,0,3.3V1.651A1.647,1.647,0,0,1,1.651,0Z" transform="translate(34.663 14.029) rotate(90)" fill="#ffd1b5"/>
      <path id="path4429" d="M13.015,6.445c0,7.427-8.253,11.554-8.253,20.217A7.693,7.693,0,0,0,6.38,31.676l9.936,5.3,9.936-5.3a7.694,7.694,0,0,0,1.618-5.014c0-8.663-8.253-12.79-8.253-20.217l-3.3-2.476Z" transform="translate(10.092 8.41)" fill="#ffbd8d"/>
      <path id="path4479" d="M7.95,8.069c.836,0,1.951,0,3.062-1.926a19.29,19.29,0,0,1,3.019.9c-.012-.2-.021-.395-.021-.6l-3.3-2.476-3.3,2.476Z" transform="translate(15.699 8.41)" fill="#ffa465"/>
      <path id="path4461" d="M13.317,4.537c-.223,1.609-2.192,2.127-3.731,2.289a1.641,1.641,0,0,0,1.459.891H12.7a1.65,1.65,0,0,0,.619-3.18Z" transform="translate(20.313 9.614)" fill="#ffb98d"/>
      <path id="rect4448" d="M1.651,0A1.647,1.647,0,0,1,3.3,1.651V3.3A1.651,1.651,0,1,1,0,3.3V1.651A1.647,1.647,0,0,1,1.651,0Z" transform="translate(34.663 20.631) rotate(90)" fill="#ffd1b5"/>
      <path id="path4450" d="M13.317,6.653c-.223,1.609-2.192,2.127-3.731,2.289a1.642,1.642,0,0,0,1.459.891H12.7a1.65,1.65,0,0,0,.619-3.18Z" transform="translate(20.313 14.099)" fill="#ffb98d"/>
      <path id="path4438" d="M22.7,7.812C25.512,22.125,13.708,23.446,5.214,23.25c.069.094.135.192.21.282l9.935,5.3,9.935-5.3a7.694,7.694,0,0,0,1.618-5.014c0-4.4-2.123-7.622-4.217-10.706Z" transform="translate(11.049 16.554)" fill="#ffa465"/>
      <path id="path4435" d="M16.316,3.969l-3.3,2.476c0,7.427-8.253,11.554-8.253,20.217a7.694,7.694,0,0,0,1.618,5.014l9.935,5.3.825-.44-9.11-4.863a7.694,7.694,0,0,1-1.618-5.014c0-8.663,8.253-12.79,8.253-20.217l2.476-1.857Z" transform="translate(10.092 8.41)" fill="#f5f9fb"/>
      <path id="ellipse6890" d="M21.217,8.36a4.126,4.126,0,1,1-4.126-4.126A4.126,4.126,0,0,1,21.217,8.36Z" transform="translate(27.473 8.971)" fill="#ffca28"/>
      <path id="path6892" d="M17.091,4.233a4.126,4.126,0,0,0-1.965,7.754,4.123,4.123,0,0,1,5.58-5.606,4.126,4.126,0,0,0-3.615-2.149Z" transform="translate(27.473 8.971)" fill="#ecb200"/>
      <path id="ellipse6883" d="M8.517,14.445a4.126,4.126,0,1,1-4.126-4.126A4.126,4.126,0,0,1,8.517,14.445Z" transform="translate(0.561 21.866)" fill="#ffca28"/>
      <path id="ellipse6887" d="M4.391,10.319a4.126,4.126,0,0,0-1.965,7.754,4.123,4.123,0,0,1,5.58-5.606,4.126,4.126,0,0,0-3.615-2.149Z" transform="translate(0.561 21.866)" fill="#ecb200"/>
      <path id="path6877" d="M15.119,18.741a1.647,1.647,0,0,0,1.651-1.65V14.615a1.647,1.647,0,0,0-1.651-1.651H1.915A1.647,1.647,0,0,0,.265,14.615v2.476a1.647,1.647,0,0,0,1.651,1.65h13.2Z" transform="translate(0.561 27.473)" fill="#ffca28"/>
      <path id="path6879" d="M15.386,12.973C13.258,16.889,4.326,17.236.269,17.191a1.641,1.641,0,0,0,1.638,1.531h13.2a1.647,1.647,0,0,0,1.651-1.651V14.6A1.643,1.643,0,0,0,15.386,12.973Z" transform="translate(0.569 27.492)" fill="#ecb200"/>
      <path id="path4544" d="M16.709,15.067,7.837,12.562c-1.1-.311-2.358-.091-2.7,1a2.5,2.5,0,0,0,.975,2.753s9.47,9.332,11.3,9.332c2.475,0,9.862-1.652,10.728-1.652h1.651q0-4.644,0-9.289c-1.65,0-3.857-1.444-5.777-1.444-2.065,0-7.028,1.709-7.028,1.709a1.652,1.652,0,0,0,.854,3.191l4.783-1.283" transform="translate(10.645 26.346)" fill="#ffd1b5"/>
      <path id="path4546" d="M21.377,13.068c-.822,6.884-8.195,9.209-13.1,10A5.623,5.623,0,0,0,10.511,24.3c2.475,0,9.862-1.652,10.728-1.652H22.89q0-4.644,0-9.289A5.345,5.345,0,0,1,21.377,13.068Z" transform="translate(17.547 27.693)" fill="#ffb98d"/>
      <path id="path6881" d="M1.915,12.965a1.647,1.647,0,0,0-1.651,1.65v2.476a1.647,1.647,0,0,0,1.651,1.651H3.566a1.647,1.647,0,0,1-1.651-1.651V14.615a1.647,1.647,0,0,1,1.651-1.65Z" transform="translate(0.561 27.473)" fill="#f5f9fb"/>
      <path id="path6864" d="M15.119,20.593a1.647,1.647,0,0,0,1.651-1.65V16.467a1.647,1.647,0,0,0-1.651-1.651H1.915A1.647,1.647,0,0,0,.265,16.467v2.476a1.647,1.647,0,0,0,1.651,1.65Z" transform="translate(0.561 31.398)" fill="#ffca28"/>
      <path id="path6867" d="M15.386,14.825C13.258,18.742,4.326,19.088.269,19.044a1.641,1.641,0,0,0,1.638,1.531h13.2a1.647,1.647,0,0,0,1.651-1.651V16.449a1.643,1.643,0,0,0-1.375-1.623Z" transform="translate(0.569 31.416)" fill="#ecb200"/>
      <path id="path4474" d="M8.884,4.646c0,2.971-1.33,5.413-2.914,7.829.38.221.782.451,1.246.675.031.019.06.025.09.042,1.686-2.532,3.15-5.067,3.15-8.182Z" transform="translate(12.651 9.845)" fill="#ffb98d"/>
      <path id="path4515" d="M4.76,3.44l.007,10.728H6.416c.959,0,1.918.837,3.364,1.538.031.019.06.025.09.042,1.686-2.532,3.15-5.067,3.15-8.182.836,0,1.951,0,3.062-1.926,1.024.012,2.7,1.1,4.354,1.1,2.055,0,2.95-1.465,2.24-2.653a2.541,2.541,0,0,1-2.24,1c-1.651,0-3.33-1.088-4.354-1.1C14.97,5.915,13.856,5.915,13.02,5.915c-2.225,0-1.464,5.65-3.15,8.182-.03-.016-.06-.025-.09-.042-1.446-.7-2.4-1.538-3.364-1.538H4.767l0-9.078Z" transform="translate(10.088 7.289)" fill="#ffb98d"/>
      <path id="rect4455" d="M1.651,0A1.647,1.647,0,0,1,3.3,1.651V3.3A1.651,1.651,0,1,1,0,3.3V1.651A1.647,1.647,0,0,1,1.651,0Z" transform="translate(34.663 17.33) rotate(90)" fill="#ffd1b5"/>
      <path id="path4457" d="M13.317,5.595C13.094,7.2,11.125,7.722,9.586,7.884a1.642,1.642,0,0,0,1.459.891H12.7a1.65,1.65,0,0,0,.619-3.18Z" transform="translate(20.313 11.856)" fill="#ffb98d"/>
      <g id="Grupo_1112322" data-name="Grupo 1112322" transform="translate(0.825 38.778)">
        <path id="path4555" d="M16.72,12.7c-2.065,0-7.029,1.71-7.029,1.71a1.652,1.652,0,0,0-.376,3.038.057.057,0,0,1,0-.012,1.648,1.648,0,0,1,1.167-2.023S15.443,13.7,17.508,13.7A11.126,11.126,0,0,1,21,14.6l1.5-.455c-1.65,0-3.857-1.444-5.777-1.444Z" transform="translate(17.116 -11.871)" fill="#f5f9fb"/>
        <path id="path4560" d="M7,12.433A1.745,1.745,0,0,0,5.138,13.56a2.5,2.5,0,0,0,.975,2.753s9.47,9.332,11.3,9.332a12.848,12.848,0,0,0,1.283-.09c-2.461-.9-10.933-9.242-10.933-9.242a2.5,2.5,0,0,1-.975-2.753,1.516,1.516,0,0,1,1.019-1A3.365,3.365,0,0,0,7,12.433Z" transform="translate(9.82 -12.433)" fill="#f5f9fb"/>
        <path id="path6874" d="M1.915,14.817a1.647,1.647,0,0,0-1.651,1.65v2.476a1.647,1.647,0,0,0,1.651,1.651H3.566a1.647,1.647,0,0,1-1.651-1.651V16.467a1.647,1.647,0,0,1,1.651-1.65Z" transform="translate(-0.265 -7.381)" fill="#f5f9fb"/>
      </g>
      <path id="rect906" d="M22.714,0A3,3,0,0,0,21.17.354,2.619,2.619,0,0,0,19.8,2.805,7.842,7.842,0,0,0,20.677,6c.158.352.3.683.429.991a19.009,19.009,0,0,0-2.769,1.385c-.728.417-1.392.826-1.912,1.12-.258.147-.581.3-.745.374a.827.827,0,0,0-.828-.8H12.379a.825.825,0,0,0-.822-.822H.822A.825.825,0,0,0,0,9.07V23.1a.825.825,0,0,0,.822.828H11.557a.825.825,0,0,0,.822-.828h2.473a.826.826,0,0,0,.83-.822H16.5a4.627,4.627,0,0,1,2.263,1.064l-.466.69c-2.07,3.054-4.271,6.44-4.271,11.034a9.084,9.084,0,0,0,1.035,4.394c-.02.047-.038.095-.055.143-2.372-.012-4.255,0-6.368,0A4.95,4.95,0,1,0,0,36.311a4.926,4.926,0,0,0,1.47,3.511A2.5,2.5,0,0,0,0,42.087v2.473a2.473,2.473,0,0,0,.638,1.654A2.463,2.463,0,0,0,0,47.863v2.473a2.491,2.491,0,0,0,2.473,2.481H15.681a2.491,2.491,0,0,0,2.473-2.481V47.863a2.463,2.463,0,0,0-.638-1.65,2.492,2.492,0,0,0,.58-1.123c.863.82,1.936,1.824,3.074,2.846,1.307,1.175,2.674,2.354,3.851,3.253,1.312.963,2.276,1.62,3.038,1.628a42.65,42.65,0,0,0,6.115-.841c1.136-.207,2.217-.412,3.064-.566.516-.105,1.069-.18,1.547-.245l.822,0a.827.827,0,0,0,.83.825H42.91a.827.827,0,0,0,.828.824h8.248a.828.828,0,0,0,.83-.83v-13.2a.827.827,0,0,0-.83-.828H43.739a.825.825,0,0,0-.828.828H40.438a.826.826,0,0,0-.83.822v.488c-.7-.19-1.279-.4-1.868-.611a9.073,9.073,0,0,0,1.046-4.415c0-4.53-2.132-7.879-4.181-10.9a2.461,2.461,0,0,0,.243-3.538,2.458,2.458,0,0,0,0-3.3,2.461,2.461,0,0,0,.637-1.649,2.5,2.5,0,0,0-1.908-2.413,2.527,2.527,0,0,0-.906-3.2c-.011-.009-.493-.39-1.191-.893a15.054,15.054,0,0,1,.716-2.861,12.053,12.053,0,0,0,.816-3.54A2.6,2.6,0,0,0,31.585.341a3.255,3.255,0,0,0-2.163-.25A5.735,5.735,0,0,0,26.9,1.657c-.177.155-.353.307-.537.455A7.78,7.78,0,0,0,23.32.091,2.834,2.834,0,0,0,22.714,0Zm7.36,1.65a1.608,1.608,0,0,1,.762.163.951.951,0,0,1,.524.956,12.438,12.438,0,0,1-.737,3.035,21.461,21.461,0,0,0-.661,2.329A17.944,17.944,0,0,0,28.35,7.2,4.351,4.351,0,0,0,26.4,6.6c-1.2,0-2.475-.011-3.652.011-.222-.553-.449-1.03-.667-1.517a7.23,7.23,0,0,0,2.817-.3,8.7,8.7,0,0,0,3.09-1.9,4.658,4.658,0,0,1,1.8-1.2,1.31,1.31,0,0,1,.285-.04Zm-7.611,0a1.333,1.333,0,0,1,.43.031,5.273,5.273,0,0,1,1.991,1.343c-.148.065-.3.126-.467.181a4.338,4.338,0,0,1-2.576.121.575.575,0,0,1-.385-.564A.959.959,0,0,1,21.95,1.8a1.269,1.269,0,0,1,.513-.147ZM44.551,6.6a.817.817,0,0,0-.812.822v.822a.825.825,0,1,0,1.651,0V7.426A.827.827,0,0,0,44.551,6.6ZM23,8.248H26.4c1.1.064,3.834,2.036,5.271,3.125.5.377.6.792.455,1.111s-.61.712-1.6.712a6.673,6.673,0,0,1-2.128-.493,6.7,6.7,0,0,0-2.215-.6.827.827,0,0,0-.725.416,2.574,2.574,0,0,1-1.322,1.322,5.559,5.559,0,0,1-1.858.189.825.825,0,0,0-.027,1.65,14.063,14.063,0,0,1-2.563,6.291A5.664,5.664,0,0,0,16.5,20.629h-.822V11.551a1.656,1.656,0,0,0,.785-.214c.237-.107.487-.243.767-.4.56-.317,1.224-.725,1.926-1.127A11.16,11.16,0,0,1,23,8.248ZM47.041,9.894v.822a.825.825,0,0,0,1.651,0V9.894a.825.825,0,1,0-1.651,0ZM41.25,9.077a.829.829,0,0,0-.812.824v.828a.825.825,0,0,0,1.651,0V9.9a.828.828,0,0,0-.838-.824ZM1.651,9.9h9.078v12.38H1.651Zm10.728.822h1.651V21.451H12.379Zm32.182,1.646a4.953,4.953,0,1,0,4.953,4.953A4.967,4.967,0,0,0,44.561,12.368ZM29.1,14.66a2.459,2.459,0,0,0,.417,2.666,2.46,2.46,0,0,0,0,3.3,2.472,2.472,0,0,0,1.837,4.126H33.01c2.1,3.1,4.125,6.153,4.125,10.316a7.144,7.144,0,0,1-1.007,3.9,6.168,6.168,0,0,0-1.465-.193,18.848,18.848,0,0,0-4.521.885c-.944.265-1.9.578-2.824.882l-8.609-2.435a3.714,3.714,0,0,0-2.1-.019,2.508,2.508,0,0,0-.319.124,7.644,7.644,0,0,1-.606-3.145c0-4.07,1.927-7.075,3.983-10.108,1.927-2.842,3.994-5.711,4.246-9.369a4.121,4.121,0,0,0,.806-.214,3.892,3.892,0,0,0,1.862-1.547c.9.295,1.637.563,2.523.83Zm15.461-.641a3.3,3.3,0,1,1-3.3,3.3A3.291,3.291,0,0,1,44.561,14.018Zm-13.207.828H33.01a.826.826,0,0,1,0,1.652H31.353a.826.826,0,0,1,0-1.652Zm0,3.3H33.01a.825.825,0,0,1,0,1.65H31.353a.825.825,0,0,1,0-1.65Zm0,3.3H33.01a.826.826,0,0,1,0,1.652H31.353a.826.826,0,0,1,0-1.652Zm-4.966,2.487a.83.83,0,0,0-.808.828v.822h-.822a2.489,2.489,0,0,0-2.473,2.479v1.652a2.485,2.485,0,0,0,2.473,2.474h.822v3.3h-.822a.8.8,0,0,1-.822-.822.825.825,0,1,0-1.651,0,2.485,2.485,0,0,0,2.473,2.474h.822v.822a.824.824,0,1,0,1.649,0v-.822h.83a2.484,2.484,0,0,0,2.473-2.474V33.022a2.489,2.489,0,0,0-2.473-2.479h-.83v-3.3h.83a.806.806,0,0,1,.822.828.825.825,0,0,0,1.651,0,2.489,2.489,0,0,0-2.473-2.479h-.83v-.822a.828.828,0,0,0-.841-.828ZM4.931,25.588a.828.828,0,0,0-.806.828v.822a.825.825,0,1,0,1.651,0v-.822A.83.83,0,0,0,4.931,25.588Zm19.827,1.65h.822v3.3h-.822a.8.8,0,0,1-.822-.824V28.067a.806.806,0,0,1,.822-.828Zm-16.524.817a.831.831,0,0,0-.808.824v.828a.825.825,0,0,0,1.651,0v-.828A.831.831,0,0,0,8.233,28.056Zm-7.411.835v.828a.825.825,0,0,0,1.651,0v-.828a.825.825,0,0,0-1.651,0Zm26.407,3.3h.83a.806.806,0,0,1,.822.828v1.65a.8.8,0,0,1-.822.822h-.83Zm-22.275.816a3.3,3.3,0,1,1-3.3,3.3A3.29,3.29,0,0,1,4.953,33.009Zm12.672,6.6a2.54,2.54,0,0,1,.632.093l7.576,2.139a2.46,2.46,0,0,0-.168,1.712A2.489,2.489,0,0,0,28.7,45.3l4.782-1.285a.826.826,0,1,0-.426-1.6l-4.782,1.285a.808.808,0,0,1-1.012-.585.817.817,0,0,1,.612-1.02s1.252-.429,2.727-.849a20.2,20.2,0,0,1,4.063-.822,8.878,8.878,0,0,1,2.7.669,13.841,13.841,0,0,0,2.24.7v7.719h-.822a15.272,15.272,0,0,0-1.839.268c-.859.156-1.943.368-3.071.574a46.355,46.355,0,0,1-5.817.809,10.566,10.566,0,0,1-2.041-1.291c-1.114-.851-2.457-2-3.746-3.162-1.7-1.516-3.344-3.1-4.977-4.679a1.687,1.687,0,0,1-.725-1.883c.134-.439.609-.551,1.056-.545Zm26.935,0h6.6V51.164h-6.6Zm-3.3.83H42.91v9.906H41.26Zm-38.787.822H4.125V42.9a.825.825,0,1,0,1.651,0V41.258H8.254V42.9a.826.826,0,1,0,1.652,0V41.258h2.473V42.9a.825.825,0,1,0,1.651,0V41.258h.88a4.236,4.236,0,0,0,1.594,2.3v1a.807.807,0,0,1-.822.83H2.476a.812.812,0,0,1-.825-.83V42.087a.806.806,0,0,1,.822-.828Zm0,5.783H4.125v1.65a.825.825,0,0,0,1.651,0v-1.65H8.254v1.65a.826.826,0,0,0,1.652,0v-1.65h2.473v1.65a.825.825,0,0,0,1.651,0v-1.65h1.652a.8.8,0,0,1,.822.822v2.473a.806.806,0,0,1-.822.828H2.476a.811.811,0,0,1-.825-.828V47.863a.8.8,0,0,1,.822-.822Z" transform="translate(0 0)" fill="#333"/>
    </g>
  </g>
</svg>
