<svg xmlns="http://www.w3.org/2000/svg" xmlns:xlink="http://www.w3.org/1999/xlink" width="113" height="113" viewBox="0 0 113 113">
  <defs>
    <filter id="Trazado_896985" x="0" y="0" width="113" height="113" filterUnits="userSpaceOnUse">
      <feOffset dy="3" input="SourceAlpha"/>
      <feGaussianBlur stdDeviation="3" result="blur"/>
      <feFlood flood-opacity="0.161"/>
      <feComposite operator="in" in2="blur"/>
      <feComposite in="SourceGraphic"/>
    </filter>
  </defs>
  <g id="Grupo_1112324" data-name="Grupo 1112324" transform="translate(-747 -1674)">
    <g id="Grupo_1111352" data-name="Grupo 1111352" transform="translate(0.225 -2760.804)">
      <g id="Grupo_1111321" data-name="Grupo 1111321" transform="translate(0 588.804)">
        <g id="Grupo_1109827" data-name="Grupo 1109827" transform="translate(755.775 3852)">
          <g id="Grupo_1098742" data-name="Grupo 1098742">
            <g transform="matrix(1, 0, 0, 1, -9, -6)" filter="url(#Trazado_896985)">
              <g id="Trazado_896985-2" data-name="Trazado 896985" transform="translate(9 6)" fill="#f3f0ea" opacity="0.859">
                <path d="M 47.49993515014648 93.5 C 41.28932189941406 93.5 35.26528167724609 92.28397369384766 29.59514808654785 89.88571929931641 C 24.1176815032959 87.56894683837891 19.1981086730957 84.25197601318359 14.97306823730469 80.02693176269531 C 10.74802875518799 75.80189514160156 7.431055068969727 70.88231658935547 5.11428165435791 65.40485382080078 C 2.716028451919556 59.73471832275391 1.500001788139343 53.71067810058594 1.500001788139343 47.50006484985352 C 1.500001788139343 41.28932189941406 2.716028451919556 35.26528167724609 5.11428165435791 29.59514617919922 C 7.431055068969727 24.11767959594727 10.74802875518799 19.19810676574707 14.97306823730469 14.97306632995605 C 19.1981086730957 10.74802684783936 24.1176815032959 7.431053161621094 29.59514808654785 5.114280223846436 C 35.26528167724609 2.716026782989502 41.28932189941406 1.5 47.49993515014648 1.5 C 53.71054840087891 1.5 59.73458862304688 2.716026782989502 65.40472412109375 5.114280223846436 C 70.88218688964844 7.431053161621094 75.80176544189453 10.74802684783936 80.02680206298828 14.97306632995605 C 84.25183868408203 19.19810676574707 87.56881713867188 24.11767959594727 89.88558959960938 29.59514617919922 C 92.28384399414062 35.26528167724609 93.49987030029297 41.28932189941406 93.49987030029297 47.49993515014648 C 93.49987030029297 53.71067810058594 92.28384399414062 59.73471832275391 89.88558959960938 65.40485382080078 C 87.56881713867188 70.88231658935547 84.25183868408203 75.80189514160156 80.02680206298828 80.02693176269531 C 75.80176544189453 84.25197601318359 70.88218688964844 87.56894683837891 65.40472412109375 89.88571929931641 C 59.73458862304688 92.28397369384766 53.71054840087891 93.5 47.49993515014648 93.5 Z" stroke="none"/>
                <path d="M 47.49993515014648 3 C 41.49116516113281 3 35.66371917724609 4.176155090332031 30.17947387695312 6.495796203613281 C 24.88081359863281 8.7369384765625 20.12149047851562 11.94596862792969 16.03372192382812 16.03372192382812 C 11.94596862792969 20.12149047851562 8.7369384765625 24.88081359863281 6.495796203613281 30.17947387695312 C 4.1761474609375 35.66372299194336 3 41.49116897583008 3 47.50006103515625 C 3 53.50883102416992 4.1761474609375 59.33627700805664 6.495796203613281 64.82052612304688 C 8.7369384765625 70.11918640136719 11.94596862792969 74.87850952148438 16.03372192382812 78.96627807617188 C 20.12149047851562 83.05403137207031 24.88081359863281 86.2630615234375 30.17947387695312 88.50419616699219 C 35.66371917724609 90.82384490966797 41.49116516113281 92 47.49993515014648 92 C 53.50870513916016 92 59.33615112304688 90.82384490966797 64.82039642333984 88.50419616699219 C 70.11905670166016 86.2630615234375 74.87837982177734 83.05403137207031 78.96614837646484 78.96627807617188 C 83.05390167236328 74.87850952148438 86.26293182373047 70.11918640136719 88.50407409667969 64.82052612304688 C 90.82372283935547 59.33627700805664 91.99987030029297 53.50883102416992 91.99987030029297 47.49993896484375 C 91.99987030029297 41.49116897583008 90.82372283935547 35.66372299194336 88.50407409667969 30.17947387695312 C 86.26293182373047 24.88081359863281 83.05390167236328 20.12149047851562 78.96614837646484 16.03372192382812 C 74.87837982177734 11.94596862792969 70.11905670166016 8.7369384765625 64.82039642333984 6.495796203613281 C 59.33615112304688 4.176155090332031 53.50870513916016 3 47.49993515014648 3 M 47.49993515014648 0 C 73.73342895507812 0 94.99987030029297 21.26644897460938 94.99987030029297 47.49993896484375 L 94.99987030029297 47.50006103515625 C 94.99987030029297 73.73355102539062 73.73342895507812 95 47.49993515014648 95 C 21.26644134521484 95 0 73.73355102539062 0 47.50006103515625 L 0 47.49993896484375 C 0 21.26644897460938 21.26644134521484 0 47.49993515014648 0 Z" stroke="none" fill="#fff"/>
              </g>
            </g>
            <g id="Rectángulo_400907" data-name="Rectángulo 400907" transform="translate(0 0)" fill="none" stroke="#fff" stroke-width="3">
              <rect width="95" height="95" rx="47.5" stroke="none"/>
              <rect x="1.5" y="1.5" width="92" height="92" rx="46" fill="none"/>
            </g>
          </g>
        </g>
      </g>
    </g>
    <g id="Copyright" transform="translate(774 1698)">
      <rect id="Rectángulo_405296" data-name="Rectángulo 405296" width="30" height="40" rx="2" transform="translate(17 2.426)" fill="#bcbec0"/>
      <rect id="Rectángulo_405297" data-name="Rectángulo 405297" width="31" height="39" rx="2" transform="translate(25 12.426)" fill="#d1d3d4"/>
      <path id="Trazado_903274" data-name="Trazado 903274" d="M38.628,18.814v34.47H36.814V18.814A1.82,1.82,0,0,0,35,17h1.814a1.82,1.82,0,0,1,1.814,1.814Z" transform="translate(-3.066 -1.394)" fill="#bcbec0"/>
      <path id="Trazado_903275" data-name="Trazado 903275" d="M51.907,13H51v7.257l.907-1.814.907-1.814,1.814,3.628V13Z" transform="translate(-4.552 -1.022)" fill="#ff5023"/>
      <path id="Trazado_903276" data-name="Trazado 903276" d="M45.628,3V8.443L43.814,5.721,42,8.443V3Z" transform="translate(-3.716 -0.093)" fill="#ff5023"/>
      <rect id="Rectángulo_405298" data-name="Rectángulo 405298" width="31" height="40" rx="2" transform="translate(3 15.426)" fill="#e6e7e8"/>
      <path id="Trazado_903277" data-name="Trazado 903277" d="M35.885,30.206,33.164,29l-4.082,1.814-2.268,1.007L25,32.628v5.443a10.794,10.794,0,0,0,.644,3.628,11.206,11.206,0,0,0,2.177,3.628,10.673,10.673,0,0,0,2.776,2.2l2.567,1.424,2.567-1.424a.861.861,0,0,0,.154-.091,10.649,10.649,0,0,0,2.622-2.114,10.324,10.324,0,0,0,1.324-1.814,10.851,10.851,0,0,0,1.333-3.628,10.6,10.6,0,0,0,.163-1.869V32.628Z" transform="translate(-2.137 -2.508)" fill="#ffd422"/>
      <path id="Trazado_903278" data-name="Trazado 903278" d="M30.628,17v7.257l-1.814-3.628L27,24.257V17Z" transform="translate(-2.323 -1.394)" fill="#ff5023"/>
      <path id="Trazado_903279" data-name="Trazado 903279" d="M53.7,11.071H48.262V4.721A2.721,2.721,0,0,0,45.541,2H18.328a2.721,2.721,0,0,0-2.721,2.721V14.7H4.721A2.721,2.721,0,0,0,2,17.421V53.7a2.721,2.721,0,0,0,2.721,2.721H31.934A2.721,2.721,0,0,0,34.655,53.7V52.8H53.7a2.721,2.721,0,0,0,2.721-2.721V13.792A2.721,2.721,0,0,0,53.7,11.071Zm-6.35,1.814h1.814v2.507l-.091-.191a.945.945,0,0,0-1.624,0l-.091.191ZM39.191,3.814h1.814V5.356l-.152-.229a.942.942,0,0,0-1.509,0l-.152.229Zm-21.77.907a.907.907,0,0,1,.907-.907H37.377V8.35a.907.907,0,0,0,1.662.5L40.1,7.261,41.158,8.85a.907.907,0,0,0,1.662-.5V3.814h2.721a.907.907,0,0,1,.907.907v6.35H26.492a2.721,2.721,0,0,0-2.721,2.721V14.7h-6.35Zm8.164,11.792H27.4v2.507l-.1-.191a.945.945,0,0,0-1.624,0l-.1.191Zm6.35,38.1H4.721a.907.907,0,0,1-.907-.907V17.421a.907.907,0,0,1,.907-.907H23.77v6.35a.907.907,0,0,0,1.719.405l1-2.006,1,2.006a.907.907,0,0,0,1.719-.405v-6.35h2.721a.907.907,0,0,1,.907.907v8.89L31.4,25.667a.907.907,0,0,0-.737,0L22.495,29.3a.907.907,0,0,0-.539.825v5.387a11.8,11.8,0,0,0,6.066,10.306l2.565,1.425a.907.907,0,0,0,.88,0l1.374-.76V53.7a.907.907,0,0,1-.907.907ZM33.152,44.23l-2.125,1.18L28.9,44.231a9.984,9.984,0,0,1-5.132-8.724v-4.8l7.257-3.226,7.257,3.226v4.8A9.984,9.984,0,0,1,33.152,44.23Zm21.459,5.846a.907.907,0,0,1-.907.907H34.655V45.442A11.8,11.8,0,0,0,40.1,35.507V30.12a.907.907,0,0,0-.539-.829l-4.9-2.179V17.421A2.721,2.721,0,0,0,31.934,14.7h-6.35v-.907a.907.907,0,0,1,.907-.907H45.541v6.35a.907.907,0,0,0,1.723.405l1-2.006,1,2.006a.907.907,0,0,0,1.723-.405v-6.35H53.7a.907.907,0,0,1,.907.907Z"/>
      <path id="Trazado_903280" data-name="Trazado 903280" d="M40,24H54.514v1.814H40Z" transform="translate(-3.53 -2.044)"/>
      <path id="Trazado_903281" data-name="Trazado 903281" d="M42,28H54.7v1.814H42Z" transform="translate(-3.716 -2.415)"/>
      <path id="Trazado_903282" data-name="Trazado 903282" d="M52,32h3.628v1.814H52Z" transform="translate(-4.645 -2.787)"/>
      <path id="Trazado_903283" data-name="Trazado 903283" d="M46,32h3.628v1.814H46Z" transform="translate(-4.088 -2.787)"/>
      <path id="Trazado_903284" data-name="Trazado 903284" d="M46,36h9.071v1.814H46Z" transform="translate(-4.088 -3.159)"/>
      <path id="Trazado_903285" data-name="Trazado 903285" d="M46,40h3.628v1.814H46Z" transform="translate(-4.088 -3.53)"/>
      <path id="Trazado_903286" data-name="Trazado 903286" d="M52,40h3.628v1.814H52Z" transform="translate(-4.645 -3.53)"/>
      <path id="Trazado_903287" data-name="Trazado 903287" d="M46,44h9.071v1.814H46Z" transform="translate(-4.088 -3.902)"/>
      <path id="Trazado_903288" data-name="Trazado 903288" d="M44,48h3.628v1.814H44Z" transform="translate(-3.902 -4.274)"/>
      <path id="Trazado_903289" data-name="Trazado 903289" d="M50,48h1.814v1.814H50Z" transform="translate(-4.459 -4.274)"/>
      <path id="Trazado_903290" data-name="Trazado 903290" d="M54,48h1.814v1.814H54Z" transform="translate(-4.831 -4.274)"/>
      <path id="Trazado_903291" data-name="Trazado 903291" d="M8,30h5.443v1.814H8Z" transform="translate(-0.557 -2.601)"/>
      <path id="Trazado_903292" data-name="Trazado 903292" d="M16,30h5.443v1.814H16Z" transform="translate(-1.301 -2.601)"/>
      <path id="Trazado_903293" data-name="Trazado 903293" d="M8,46h5.443v1.814H8Z" transform="translate(-0.557 -4.088)"/>
      <path id="Trazado_903294" data-name="Trazado 903294" d="M16,46h7.257v1.814H16Z" transform="translate(-1.301 -4.088)"/>
      <path id="Trazado_903295" data-name="Trazado 903295" d="M8,50h7.257v1.814H8Z" transform="translate(-0.557 -4.459)"/>
      <path id="Trazado_903296" data-name="Trazado 903296" d="M18,50h9.071v1.814H18Z" transform="translate(-1.486 -4.459)"/>
      <path id="Trazado_903297" data-name="Trazado 903297" d="M8,34H9.814v1.814H8Z" transform="translate(-0.557 -2.973)"/>
      <path id="Trazado_903298" data-name="Trazado 903298" d="M12,34h9.071v1.814H12Z" transform="translate(-0.929 -2.973)"/>
      <path id="Trazado_903299" data-name="Trazado 903299" d="M8,38H20.7v1.814H8Z" transform="translate(-0.557 -3.345)"/>
      <path id="Trazado_903300" data-name="Trazado 903300" d="M8,42H20.7v1.814H8Z" transform="translate(-0.557 -3.716)"/>
      <path id="Trazado_903301" data-name="Trazado 903301" d="M23,7h7.257V8.814H23Z" transform="translate(-1.951 -0.465)"/>
      <path id="Trazado_903302" data-name="Trazado 903302" d="M33,7h3.628V8.814H33Z" transform="translate(-2.88 -0.465)"/>
      <path id="Trazado_903303" data-name="Trazado 903303" d="M8,22h3.628v1.814H8Z" transform="translate(-0.557 -1.858)"/>
      <path id="Trazado_903304" data-name="Trazado 903304" d="M14,22h7.257v1.814H14Z" transform="translate(-1.115 -1.858)"/>
      <path id="Trazado_903305" data-name="Trazado 903305" d="M8,26H20.7v1.814H8Z" transform="translate(-0.557 -2.23)"/>
      <path id="Trazado_903306" data-name="Trazado 903306" d="M33.535,36.814a2.721,2.721,0,0,1,2.041.921l1.361-1.2a4.535,4.535,0,1,0,0,6l-1.361-1.2a2.721,2.721,0,1,1-2.041-4.521Z" transform="translate(-2.508 -3.066)"/>
    </g>
  </g>
</svg>
