<svg xmlns="http://www.w3.org/2000/svg" xmlns:xlink="http://www.w3.org/1999/xlink" width="113" height="113" viewBox="0 0 113 113">
  <defs>
    <filter id="Trazado_896985" x="0" y="0" width="113" height="113" filterUnits="userSpaceOnUse">
      <feOffset dy="3" input="SourceAlpha"/>
      <feGaussianBlur stdDeviation="3" result="blur"/>
      <feFlood flood-opacity="0.161"/>
      <feComposite operator="in" in2="blur"/>
      <feComposite in="SourceGraphic"/>
    </filter>
  </defs>
  <g id="Grupo_1112331" data-name="Grupo 1112331" transform="translate(-1167.219 -1673.97)">
    <g id="Grupo_1111353" data-name="Grupo 1111353" transform="translate(0.219 -2760.834)">
      <g id="Grupo_1111322" data-name="Grupo 1111322" transform="translate(0 588.804)">
        <g id="Grupo_1109828" data-name="Grupo 1109828" transform="translate(1176 3852)">
          <g id="Grupo_1098742" data-name="Grupo 1098742" transform="translate(0)">
            <g transform="matrix(1, 0, 0, 1, -9, -6)" filter="url(#Trazado_896985)">
              <g id="Trazado_896985-2" data-name="Trazado 896985" transform="translate(9 6)" fill="#f3f0ea" opacity="0.859">
                <path d="M 47.49993515014648 93.5 C 41.28932189941406 93.5 35.26528167724609 92.28397369384766 29.59514808654785 89.88571929931641 C 24.1176815032959 87.56894683837891 19.1981086730957 84.25197601318359 14.97306823730469 80.02693176269531 C 10.74802875518799 75.80189514160156 7.431055068969727 70.88231658935547 5.11428165435791 65.40485382080078 C 2.716028451919556 59.73471832275391 1.500001788139343 53.71067810058594 1.500001788139343 47.50006484985352 C 1.500001788139343 41.28932189941406 2.716028451919556 35.26528167724609 5.11428165435791 29.59514617919922 C 7.431055068969727 24.11767959594727 10.74802875518799 19.19810676574707 14.97306823730469 14.97306632995605 C 19.1981086730957 10.74802684783936 24.1176815032959 7.431053161621094 29.59514808654785 5.114280223846436 C 35.26528167724609 2.716026782989502 41.28932189941406 1.5 47.49993515014648 1.5 C 53.71054840087891 1.5 59.73458862304688 2.716026782989502 65.40472412109375 5.114280223846436 C 70.88218688964844 7.431053161621094 75.80176544189453 10.74802684783936 80.02680206298828 14.97306632995605 C 84.25183868408203 19.19810676574707 87.56881713867188 24.11767959594727 89.88558959960938 29.59514617919922 C 92.28384399414062 35.26528167724609 93.49987030029297 41.28932189941406 93.49987030029297 47.49993515014648 C 93.49987030029297 53.71067810058594 92.28384399414062 59.73471832275391 89.88558959960938 65.40485382080078 C 87.56881713867188 70.88231658935547 84.25183868408203 75.80189514160156 80.02680206298828 80.02693176269531 C 75.80176544189453 84.25197601318359 70.88218688964844 87.56894683837891 65.40472412109375 89.88571929931641 C 59.73458862304688 92.28397369384766 53.71054840087891 93.5 47.49993515014648 93.5 Z" stroke="none"/>
                <path d="M 47.49993515014648 3 C 41.49116516113281 3 35.66371917724609 4.176155090332031 30.17947387695312 6.495796203613281 C 24.88081359863281 8.7369384765625 20.12149047851562 11.94596862792969 16.03372192382812 16.03372192382812 C 11.94596862792969 20.12149047851562 8.7369384765625 24.88081359863281 6.495796203613281 30.17947387695312 C 4.1761474609375 35.66372299194336 3 41.49116897583008 3 47.50006103515625 C 3 53.50883102416992 4.1761474609375 59.33627700805664 6.495796203613281 64.82052612304688 C 8.7369384765625 70.11918640136719 11.94596862792969 74.87850952148438 16.03372192382812 78.96627807617188 C 20.12149047851562 83.05403137207031 24.88081359863281 86.2630615234375 30.17947387695312 88.50419616699219 C 35.66371917724609 90.82384490966797 41.49116516113281 92 47.49993515014648 92 C 53.50870513916016 92 59.33615112304688 90.82384490966797 64.82039642333984 88.50419616699219 C 70.11905670166016 86.2630615234375 74.87837982177734 83.05403137207031 78.96614837646484 78.96627807617188 C 83.05390167236328 74.87850952148438 86.26293182373047 70.11918640136719 88.50407409667969 64.82052612304688 C 90.82372283935547 59.33627700805664 91.99987030029297 53.50883102416992 91.99987030029297 47.49993896484375 C 91.99987030029297 41.49116897583008 90.82372283935547 35.66372299194336 88.50407409667969 30.17947387695312 C 86.26293182373047 24.88081359863281 83.05390167236328 20.12149047851562 78.96614837646484 16.03372192382812 C 74.87837982177734 11.94596862792969 70.11905670166016 8.7369384765625 64.82039642333984 6.495796203613281 C 59.33615112304688 4.176155090332031 53.50870513916016 3 47.49993515014648 3 M 47.49993515014648 0 C 73.73342895507812 0 94.99987030029297 21.26644897460938 94.99987030029297 47.49993896484375 L 94.99987030029297 47.50006103515625 C 94.99987030029297 73.73355102539062 73.73342895507812 95 47.49993515014648 95 C 21.26644134521484 95 0 73.73355102539062 0 47.50006103515625 L 0 47.49993896484375 C 0 21.26644897460938 21.26644134521484 0 47.49993515014648 0 Z" stroke="none" fill="#fff"/>
              </g>
            </g>
            <g id="Rectángulo_400907" data-name="Rectángulo 400907" transform="translate(0 0)" fill="none" stroke="#fff" stroke-width="3">
              <rect width="95" height="95" rx="47.5" stroke="none"/>
              <rect x="1.5" y="1.5" width="92" height="92" rx="46" fill="none"/>
            </g>
          </g>
        </g>
      </g>
    </g>
    <g id="ganancias" transform="translate(1199 1695.867)">
      <g id="Grupo_1112329" data-name="Grupo 1112329" transform="translate(0.83 3.416)">
        <path id="Trazado_903307" data-name="Trazado 903307" d="M36.18,295.44H9.927A2.427,2.427,0,0,1,7.5,293.013v-3.055a2.427,2.427,0,0,1,2.427-2.427H36.18a2.427,2.427,0,0,1,2.427,2.427v3.055A2.427,2.427,0,0,1,36.18,295.44Z" transform="translate(-7.5 -256.825)" fill="#f1e64c"/>
        <path id="Trazado_903308" data-name="Trazado 903308" d="M14.978,295.443H9.928A2.427,2.427,0,0,1,7.5,293.017v-3.055a2.427,2.427,0,0,1,2.428-2.427h5.05a2.427,2.427,0,0,0-2.427,2.427v3.055A2.427,2.427,0,0,0,14.978,295.443Z" transform="translate(-7.5 -256.828)" fill="#ffc250"/>
        <path id="Trazado_903309" data-name="Trazado 903309" d="M38.608,319.63v1.93a2.426,2.426,0,0,1-2.427,2.426H9.928A2.426,2.426,0,0,1,7.5,321.56v-1.93a2.427,2.427,0,0,0,2.427,2.427H36.181A2.427,2.427,0,0,0,38.608,319.63Z" transform="translate(-7.501 -285.371)" fill="#ffc250"/>
        <path id="Trazado_903310" data-name="Trazado 903310" d="M76.818,223.984H50.565a2.427,2.427,0,0,1-2.427-2.427V218.5a2.427,2.427,0,0,1,2.427-2.427H76.818a2.427,2.427,0,0,1,2.427,2.427v3.055a2.427,2.427,0,0,1-2.427,2.427Z" transform="translate(-43.641 -193.278)" fill="#f1e64c"/>
        <path id="Trazado_903311" data-name="Trazado 903311" d="M55.617,223.987h-5.05a2.427,2.427,0,0,1-2.428-2.427v-3.055a2.427,2.427,0,0,1,2.428-2.427h5.05a2.427,2.427,0,0,0-2.427,2.427v3.055A2.427,2.427,0,0,0,55.617,223.987Z" transform="translate(-43.641 -193.28)" fill="#ffc250"/>
        <path id="Trazado_903312" data-name="Trazado 903312" d="M79.247,248.174v1.93a2.426,2.426,0,0,1-2.427,2.426H50.567A2.426,2.426,0,0,1,48.14,250.1v-1.93a2.427,2.427,0,0,0,2.427,2.427H76.82A2.427,2.427,0,0,0,79.247,248.174Z" transform="translate(-43.642 -221.823)" fill="#ffc250"/>
        <path id="Trazado_903313" data-name="Trazado 903313" d="M48.242,152.526H21.989a2.427,2.427,0,0,1-2.427-2.427v-3.055a2.427,2.427,0,0,1,2.427-2.427H48.242a2.427,2.427,0,0,1,2.427,2.427V150.1A2.427,2.427,0,0,1,48.242,152.526Z" transform="translate(-18.227 -129.728)" fill="#f1e64c"/>
        <path id="Trazado_903314" data-name="Trazado 903314" d="M27.041,152.53h-5.05a2.427,2.427,0,0,1-2.428-2.427v-3.055a2.427,2.427,0,0,1,2.428-2.427h5.05a2.427,2.427,0,0,0-2.427,2.427V150.1A2.427,2.427,0,0,0,27.041,152.53Z" transform="translate(-18.228 -129.732)" fill="#ffc250"/>
        <path id="Trazado_903315" data-name="Trazado 903315" d="M50.67,176.716v1.93a2.426,2.426,0,0,1-2.427,2.426H21.99a2.426,2.426,0,0,1-2.427-2.426v-1.93a2.427,2.427,0,0,0,2.427,2.427H48.243A2.427,2.427,0,0,0,50.67,176.716Z" transform="translate(-18.228 -158.274)" fill="#ffc250"/>
        <path id="Trazado_903316" data-name="Trazado 903316" d="M56.18,366.9H29.927a2.427,2.427,0,0,1-2.427-2.427v-3.055a2.427,2.427,0,0,1,2.427-2.427H56.18a2.427,2.427,0,0,1,2.427,2.427v3.055A2.427,2.427,0,0,1,56.18,366.9Z" transform="translate(-25.287 -320.375)" fill="#f1e64c"/>
        <path id="Trazado_903317" data-name="Trazado 903317" d="M58.608,391.088v1.93a2.426,2.426,0,0,1-2.427,2.426H29.928a2.426,2.426,0,0,1-2.427-2.426v-1.93a2.427,2.427,0,0,0,2.427,2.427H56.181A2.427,2.427,0,0,0,58.608,391.088Z" transform="translate(-25.287 -348.921)" fill="#ffc250"/>
        <path id="Trazado_903318" data-name="Trazado 903318" d="M34.978,366.9h-5.05a2.427,2.427,0,0,1-2.428-2.427V361.42a2.427,2.427,0,0,1,2.428-2.427h5.05a2.427,2.427,0,0,0-2.427,2.427v3.055A2.427,2.427,0,0,0,34.978,366.9Z" transform="translate(-25.287 -320.378)" fill="#ffc250"/>
        <path id="Trazado_903319" data-name="Trazado 903319" d="M41.18,438.356H14.927a2.427,2.427,0,0,1-2.427-2.427v-3.055a2.427,2.427,0,0,1,2.427-2.427H41.18a2.427,2.427,0,0,1,2.427,2.427v3.055A2.427,2.427,0,0,1,41.18,438.356Z" transform="translate(-11.947 -383.925)" fill="#f1e64c"/>
        <path id="Trazado_903320" data-name="Trazado 903320" d="M43.608,462.546v1.93a2.426,2.426,0,0,1-2.427,2.426H14.928a2.426,2.426,0,0,1-2.427-2.426v-1.93a2.427,2.427,0,0,0,2.427,2.427H41.181A2.427,2.427,0,0,0,43.608,462.546Z" transform="translate(-11.948 -412.47)" fill="#ffc250"/>
        <path id="Trazado_903321" data-name="Trazado 903321" d="M19.978,438.359h-5.05a2.427,2.427,0,0,1-2.428-2.427v-3.055a2.427,2.427,0,0,1,2.428-2.427h5.05a2.427,2.427,0,0,0-2.427,2.427v3.055A2.427,2.427,0,0,0,19.978,438.359Z" transform="translate(-11.947 -383.927)" fill="#ffc250"/>
        <g id="Grupo_1112326" data-name="Grupo 1112326" transform="translate(23.897 23.325)">
          <circle id="Elipse_14060" data-name="Elipse 14060" cx="15.553" cy="15.553" r="15.553" fill="#f1e64c"/>
          <g id="Grupo_1112325" data-name="Grupo 1112325" transform="translate(0 0)">
            <path id="Trazado_903322" data-name="Trazado 903322" d="M240.3,251.892q-.65.056-1.316.055a15.553,15.553,0,0,1,0-31.106q.665,0,1.316.055a15.553,15.553,0,0,0,0,31Z" transform="translate(-223.43 -220.841)" fill="#ffc250"/>
            <circle id="Elipse_14061" data-name="Elipse 14061" cx="10.502" cy="10.502" r="10.502" transform="translate(5.051 5.051)" fill="#ffc250"/>
          </g>
        </g>
        <g id="Grupo_1112327" data-name="Grupo 1112327" transform="translate(5.714 1.338)">
          <path id="Trazado_903323" data-name="Trazado 903323" d="M74.429,54.023v-12.8h2.189a3.452,3.452,0,0,0,2.989-5.178L72.591,23.892a3.452,3.452,0,0,0-5.978,0L59.6,36.041a3.452,3.452,0,0,0,2.989,5.178h2.19v12.8a2.172,2.172,0,0,0,2.172,2.172h5.308A2.172,2.172,0,0,0,74.429,54.023Z" transform="translate(-59.13 -22.166)" fill="#95d6a4"/>
          <path id="Trazado_903324" data-name="Trazado 903324" d="M68.947,56.2h-2a2.171,2.171,0,0,1-2.171-2.171V41.225H62.586A3.451,3.451,0,0,1,59.6,36.048L66.613,23.9A3.419,3.419,0,0,1,69.6,22.174a2.305,2.305,0,0,0-2,1.725L62.9,36.048c-.891,2.3.222,5.178,2,5.178h.9a1.689,1.689,0,0,1,1.689,1.689V54.03c0,1.2.652,2.173,1.456,2.173Z" transform="translate(-59.13 -22.173)" fill="#78c2a4"/>
        </g>
        <g id="Grupo_1112328" data-name="Grupo 1112328" transform="translate(27.981)">
          <path id="Trazado_903325" data-name="Trazado 903325" d="M372.36,139.394l-.064-.237a1.646,1.646,0,0,1,1.056-1.982l2.517-.863a1.645,1.645,0,0,1,2.123,1.131l.158.589a1.646,1.646,0,0,1-1.273,2.041l-2.611.511A1.645,1.645,0,0,1,372.36,139.394Z" transform="translate(-359.854 -122.261)" fill="#f7f493"/>
          <path id="Trazado_903326" data-name="Trazado 903326" d="M331.725,60.721l-.173-.173a1.645,1.645,0,0,1-.077-2.245l1.748-2.006a1.645,1.645,0,0,1,2.4-.082l.431.431a1.645,1.645,0,0,1-.082,2.4L333.969,60.8A1.645,1.645,0,0,1,331.725,60.721Z" transform="translate(-323.24 -50.68)" fill="#f7f493"/>
          <path id="Trazado_903327" data-name="Trazado 903327" d="M261.781,15.987l-.237-.064a1.645,1.645,0,0,1-1.189-1.906l.511-2.611a1.645,1.645,0,0,1,2.041-1.273l.589.158a1.645,1.645,0,0,1,1.131,2.123l-.863,2.517A1.645,1.645,0,0,1,261.781,15.987Z" transform="translate(-260.325 -10.077)" fill="#f7f493"/>
        </g>
      </g>
      <g id="Grupo_1112330" data-name="Grupo 1112330" transform="translate(0 2.587)">
        <path id="Trazado_903328" data-name="Trazado 903328" d="M52.208,41.8A.83.83,0,1,0,51,42.943,14.722,14.722,0,1,1,48.619,40.9a.83.83,0,0,0,.942-1.367,16.392,16.392,0,0,0-13.2-2.406,3.244,3.244,0,0,0-2.352-1h-.326a3.237,3.237,0,0,0,.42-1.6V31.474a3.261,3.261,0,0,0-3.257-3.257H27.313L20.725,16.806a4.24,4.24,0,0,0-3.709-2.141h0a4.236,4.236,0,0,0-3.706,2.14L6.719,28.217H4.592a3.261,3.261,0,0,0-3.257,3.257v3.055a3.261,3.261,0,0,0,3.257,3.257h.326a3.237,3.237,0,0,0-.42,1.6v3.055a3.237,3.237,0,0,0,.42,1.6H3.257A3.26,3.26,0,0,0,0,47.29v3.055a3.262,3.262,0,0,0,2.665,3.2A3.236,3.236,0,0,0,2.213,55.2v3.055a3.237,3.237,0,0,0,.53,1.778,3.262,3.262,0,0,0-2.19,3.077v3.055A3.261,3.261,0,0,0,3.81,69.419H30.063a3.268,3.268,0,0,0,2.88-1.737A16.382,16.382,0,0,0,52.208,41.8ZM3.874,58.253V55.2a1.6,1.6,0,0,1,1.6-1.6H23.908a16.272,16.272,0,0,0,1.475,6.249H5.471a1.6,1.6,0,0,1-1.6-1.6ZM34.247,37.8a16.476,16.476,0,0,0-7.648,6.23H22.673V37.786H34.007a1.6,1.6,0,0,1,.24.019Zm-1.806-6.33v3.055a1.6,1.6,0,0,1-1.6,1.6H22.673v-.747h1.358a4.284,4.284,0,0,0,4.106-5.5h2.707a1.6,1.6,0,0,1,1.6,1.6ZM2.995,34.528V31.474a1.6,1.6,0,0,1,1.6-1.6h1.3a4.228,4.228,0,0,0-.076,2.148.83.83,0,1,0,1.619-.365,2.564,2.564,0,0,1,.293-1.875l7.016-12.15a2.593,2.593,0,0,1,2.269-1.31h0a2.6,2.6,0,0,1,2.272,1.311L26.3,29.785a2.622,2.622,0,0,1-2.271,3.933H21.843a.83.83,0,0,0-.83.83v12.8a1.344,1.344,0,0,1-1.342,1.342H14.363a1.344,1.344,0,0,1-1.342-1.342v-12.8a.83.83,0,0,0-.83-.83H10a2.638,2.638,0,0,1-.9-.156.83.83,0,1,0-.567,1.56A4.29,4.29,0,0,0,10,35.378h1.359v.747H4.592a1.6,1.6,0,0,1-1.6-1.6Zm3.163,7.909V39.383a1.6,1.6,0,0,1,1.6-1.6h3.606v6.249H7.755A1.6,1.6,0,0,1,6.158,42.437Zm-4.5,7.908V47.29a1.6,1.6,0,0,1,1.6-1.6h8.1v1.658a3.006,3.006,0,0,0,3,3h5.308a3.006,3.006,0,0,0,3-3V45.694h2.964a16.262,16.262,0,0,0-1.7,6.247H3.257a1.6,1.6,0,0,1-1.6-1.6Zm28.4,17.414H3.81a1.6,1.6,0,0,1-1.6-1.6V63.107a1.6,1.6,0,0,1,1.6-1.6H26.264a16.512,16.512,0,0,0,5.234,5.35A1.6,1.6,0,0,1,30.063,67.759Z" transform="translate(0 -13.328)"/>
        <path id="Trazado_903329" data-name="Trazado 903329" d="M329.372,296.017c-.294-.086-.595-.175-.894-.269v-3.678a3.508,3.508,0,0,1,1.464.536.83.83,0,0,0,1-1.326,5.25,5.25,0,0,0-2.462-.881v-.717a.83.83,0,1,0-1.66,0v.77c-.16.027-.324.061-.491.1a3.469,3.469,0,0,0-2.662,2.72,2.674,2.674,0,0,0,1.172,2.734,9.829,9.829,0,0,0,1.98.931V301.6a4.787,4.787,0,0,1-2.369-.687.83.83,0,0,0-.787,1.462,6.352,6.352,0,0,0,3.156.886v.815a.83.83,0,1,0,1.66,0v-.869a4.227,4.227,0,0,0,3.733-3.41C332.452,298.072,331.337,296.589,329.372,296.017Zm-3.634-1.4a1.028,1.028,0,0,1-.435-1.067,1.782,1.782,0,0,1,1.424-1.382l.091-.021v3.014A6.948,6.948,0,0,1,325.738,294.614Zm4.829,4.951a2.519,2.519,0,0,1-2.089,1.951v-4.033l.43.127C330.088,297.954,330.692,298.667,330.567,299.566Z" transform="translate(-287.453 -257.171)"/>
        <path id="Trazado_903330" data-name="Trazado 903330" d="M272.9,258.977a11.332,11.332,0,1,0,11.332,11.332A11.345,11.345,0,0,0,272.9,258.977Zm0,21a9.672,9.672,0,1,1,9.672-9.672A9.683,9.683,0,0,1,272.9,279.982Z" transform="translate(-232.621 -230.602)"/>
        <path id="Trazado_903331" data-name="Trazado 903331" d="M364.83,132.712l.063.237h0a2.485,2.485,0,0,0,2.394,1.835,2.455,2.455,0,0,0,.473-.046l2.611-.511a2.475,2.475,0,0,0,1.916-3.07l-.158-.589a2.476,2.476,0,0,0-3.194-1.7l-2.517.863A2.483,2.483,0,0,0,364.83,132.712Zm2.127-1.412,2.517-.863a.815.815,0,0,1,1.052.56l.158.589a.816.816,0,0,1-.631,1.011l-2.611.511a.817.817,0,0,1-.944-.589l-.064-.237A.818.818,0,0,1,366.957,131.3Z" transform="translate(-324.379 -114.773)"/>
        <path id="Trazado_903332" data-name="Trazado 903332" d="M324.489,54.638a2.483,2.483,0,0,0,3.377.116L329.872,53A2.475,2.475,0,0,0,330,49.388l-.431-.431a2.475,2.475,0,0,0-3.617.124L324.2,51.087a2.483,2.483,0,0,0,.116,3.377Zm.962-2.46,1.749-2.006a.807.807,0,0,1,.587-.279h.029a.807.807,0,0,1,.575.239l.431.431a.816.816,0,0,1-.041,1.191L326.775,53.5a.818.818,0,0,1-1.112-.038l-.173-.173A.818.818,0,0,1,325.451,52.178Z" transform="translate(-287.78 -43.181)"/>
        <path id="Trazado_903333" data-name="Trazado 903333" d="M271.547,70.725h0Z" transform="translate(-241.494 -63.184)"/>
        <path id="Trazado_903334" data-name="Trazado 903334" d="M254.664,10.065l.237.063a2.458,2.458,0,0,0,.636.084,2.485,2.485,0,0,0,2.346-1.672l.863-2.517a2.475,2.475,0,0,0-1.7-3.194l-.589-.158a2.475,2.475,0,0,0-3.07,1.916L252.875,7.2A2.483,2.483,0,0,0,254.664,10.065Zm-.16-2.548.511-2.611a.817.817,0,0,1,.8-.659.825.825,0,0,1,.213.028l.589.158a.816.816,0,0,1,.56,1.052L256.313,8a.818.818,0,0,1-.982.523h0l-.237-.063A.818.818,0,0,1,254.5,7.517Z" transform="translate(-224.848 -2.587)"/>
      </g>
    </g>
  </g>
</svg>
