<svg xmlns="http://www.w3.org/2000/svg" xmlns:xlink="http://www.w3.org/1999/xlink" width="505" height="368" viewBox="0 0 505 368">
  <defs>
    <clipPath id="clip-path">
      <path id="SVGID" d="M952.008,5405.685l-11,16.493,22.78,7.071,9.432-16.492Z" transform="translate(-941.01 -5405.685)" fill="none"/>
    </clipPath>
    <clipPath id="clip-path-2">
      <path id="SVGID-2" data-name="SVGID" d="M1056.988,5404.62c-2.792-1.8-7.031-1.637-8.728,1.688-2.511,4.841-.713,13.811-1.617,15.066s-3.586,1.617-4.841-1.074-1.255-6.278-2.873-6.459-3.767.542-4.128,4.67.362,8.789,3.234,10.938,6.1,1.436,7.031,2.34,0,2.31,0,3.234c0,4.018,5.253,6.027,8.578,5.022,4.841-1.437,4.309-6.288,5.022-8.256s4.671-2.159,6.107-5.2,3.586-9.16.532-11.491-5.384-1.255-5.735,1.256a23.516,23.516,0,0,1-2.009,5.746C1059.71,5417.848,1061.819,5407.733,1056.988,5404.62Z" transform="translate(-1034.714 -5403.479)" fill="none"/>
    </clipPath>
    <clipPath id="clip-path-3">
      <path id="SVGID-3" data-name="SVGID" d="M981.533,5323.487c1.868,4.862,4.118,15.318,2.621,21.294-.773,3.1-3.365,9.623-5.665,15.176l57.121,29.852c-.06-11.892.09-30.665,1.607-34.15,2.24-5.233,20.179-54.55,19.084-65.76s-22.79-27.28-22.79-27.28l3.325-27.32-19.8,11.963s-2.25,10.827-4.49,13.449-20.55,6.348-25.783,13.057-3.365,27.28-3.365,28.4S979.665,5318.671,981.533,5323.487Z" transform="translate(-978.49 -5235.299)" fill="none"/>
    </clipPath>
    <clipPath id="clip-path-4">
      <path id="SVGID-4" data-name="SVGID" d="M988.224,5190.005s2.621,13.459,2.24,22.8-4.108,13.057-3.013,17.185,14.574,19.436,22.79,20.922,27.652-11.209,33.257-16.814,6.348-13.82,5.6-17.186-3.736-30.263-14.946-41.1S993.457,5166.1,988.224,5190.005Z" transform="translate(-987.25 -5169.232)" fill="none"/>
    </clipPath>
    <clipPath id="clip-path-5">
      <path id="SVGID-5" data-name="SVGID" d="M1039.09,5301.592l-25.783,58.668s-70.249,13.057-76.6,13.057-19.084,4.48-21.675,6.027-27.993,13.208-23.1,13.932c3.013.452,10.808-3.837,10.808-3.837s-12.334,6.026-11.219,7.844,16.071-5.6,16.071-5.6-13.67,8.036-10.868,8.488c2.551.452,5.635-1,8.256-2.883a30.408,30.408,0,0,1,7.322-3.253s-6.027,4.017-6.74,5.845,1.5.743,3.736,0a92.507,92.507,0,0,0,12.123-6.328c1.486-1.125,5.976-3.365,8.969-5.976l5.976-5.233s39.976,1.115,58.256.372,27.28-2.612,34.01-9.341,25.784-49.327,30.263-60.908,1.5-18.311-3.013-26.116" transform="translate(-891.309 -5286.344)" fill="none"/>
    </clipPath>
    <clipPath id="clip-path-6">
      <path id="SVGID-6" data-name="SVGID" d="M983.041,5326.924c-7.583,2.22-37.535,10.988-40.318,11.641a42.625,42.625,0,0,1-5.233.935s-10.466-4.49-13.268-6.539-6.167-.753-7.845,0-3.013,5.977.191,5.977,3.736-.191,7.282,2.8,3.556,4.49,6.167,5.6,6.92.372,9.16,0c2.009-.332,36.742-2.642,45.289-3.094C985.582,5339.555,984.467,5332.208,983.041,5326.924Z" transform="translate(-914.618 -5326.924)" fill="none"/>
    </clipPath>
  </defs>
  <g id="Grupo_1111939" data-name="Grupo 1111939" transform="translate(-915.051 -7655)">
    <rect id="Rectángulo_405133" data-name="Rectángulo 405133" width="505" height="368" transform="translate(915.051 7655)" fill="#edf7fe"/>
    <g id="Grupo_56685" data-name="Grupo 56685" transform="translate(226.091 2542.154)">
      <g id="freepik--background-simple--inject-1--inject-146" transform="translate(750.861 5147.304)">
        <path id="Trazado_104742" data-name="Trazado 104742" d="M1090.917,5418.649s44.3-38.871,44.3-90.167-28.757-51.306-53.636-117.376-95.611-74.618-138.359-53.635c-36.28,17.818-46.635,71.514-77.732,81.619s-34.15-14.765-83.95-1.557-24.106,85.506-24.106,85.506l96.424-29.54Z" transform="translate(-750.813 -5147.304)" fill="#aed3f2"/>
      </g>
      <g id="freepik--Shadows--inject-1--inject-146" transform="translate(774.492 5345.507)">
        <path id="Trazado_104743" data-name="Trazado 104743" d="M918.977,5417.561l-66.955,26.788-77.682-77.682,50.894-7.362,93.743,58.256" transform="translate(-774.34 -5344.57)" fill="#d9a171"/>
        <path id="Trazado_104744" data-name="Trazado 104744" d="M918.977,5417.561l-66.955,26.788-77.682-77.682,50.894-7.362,93.743,58.256" transform="translate(-774.34 -5344.57)" fill="#fff" opacity="0.5" style="isolation: isolate"/>
        <ellipse id="Elipse_4158" data-name="Elipse 4158" cx="16.071" cy="10.717" rx="16.071" ry="10.717" transform="translate(210.928 87.053)" fill="#d9a171"/>
        <ellipse id="Elipse_4159" data-name="Elipse 4159" cx="16.071" cy="10.717" rx="16.071" ry="10.717" transform="translate(210.928 87.053)" fill="#fff" opacity="0.5" style="isolation: isolate"/>
        <path id="Trazado_104745" data-name="Trazado 104745" d="M937.68,5381.415l98.112,7.774-21.776-11.21-76.336,3.436" transform="translate(-773.618 -5344.487)" fill="#d9a171"/>
        <path id="Trazado_104746" data-name="Trazado 104746" d="M937.68,5381.415l98.112,7.774-21.776-11.21-76.336,3.436" transform="translate(-773.618 -5344.487)" fill="#fff" opacity="0.5" style="isolation: isolate"/>
        <path id="Trazado_104747" data-name="Trazado 104747" d="M959.808,5351.334l-29.108-2.38,3.656-4.319H951.1l8.708,6.7" transform="translate(-773.649 -5344.635)" fill="#d9a171"/>
        <path id="Trazado_104748" data-name="Trazado 104748" d="M959.808,5351.334l-29.108-2.38,3.656-4.319H951.1l8.708,6.7" transform="translate(-773.649 -5344.635)" fill="#fff" opacity="0.5" style="isolation: isolate"/>
        <ellipse id="Elipse_4160" data-name="Elipse 4160" cx="20.42" cy="12.385" rx="20.42" ry="12.385" transform="translate(260.125 98.112)" fill="#d9a171"/>
        <ellipse id="Elipse_4161" data-name="Elipse 4161" cx="20.42" cy="12.385" rx="20.42" ry="12.385" transform="translate(260.125 98.112)" fill="#fff" opacity="0.5" style="isolation: isolate"/>
      </g>
      <g id="freepik--Post-it--inject-1--inject-146" transform="translate(923.036 5406.827)">
        <path id="Trazado_104749" data-name="Trazado 104749" d="M933.228,5426.014l-11,18.07,24.357,4.721,9.432-18.07Z" transform="translate(-922.23 -5405.594)" fill="#fff" stroke="#263238" stroke-linecap="round" stroke-linejoin="round" stroke-width="1"/>
        <path id="Trazado_104750" data-name="Trazado 104750" d="M952.008,5405.685l-11,16.493,22.78,7.071,9.432-16.492Z" transform="translate(-922.147 -5405.685)" fill="#d9a171"/>
        <g id="Grupo_56668" data-name="Grupo 56668" transform="translate(18.863)">
          <g id="Grupo_56667" data-name="Grupo 56667" clip-path="url(#clip-path)">
            <g id="Grupo_56666" data-name="Grupo 56666">
              <path id="Trazado_104751" data-name="Trazado 104751" d="M952.008,5405.685l-11,16.493,22.78,7.071,9.432-16.492Z" transform="translate(-941.01 -5405.685)" fill="#fff" stroke="#263238" stroke-miterlimit="10" stroke-width="1" opacity="0.5" style="isolation: isolate"/>
            </g>
          </g>
        </g>
        <path id="Trazado_104752" data-name="Trazado 104752" d="M952.008,5405.685l-11,16.493,22.78,7.071,9.432-16.492Z" transform="translate(-922.147 -5405.685)" fill="none" stroke="#263238" stroke-linecap="round" stroke-linejoin="round" stroke-width="1"/>
        <path id="Trazado_104753" data-name="Trazado 104753" d="M976.3,5436.975l-19.646,5.494,7.854,12.575,22.79-5.5Z" transform="translate(-922.078 -5405.546)" fill="#d9a171" stroke="#263238" stroke-linecap="round" stroke-linejoin="round" stroke-width="1"/>
      </g>
      <g id="freepik--Plant--inject-1--inject-146" transform="translate(1033.261 5404.612)">
        <path id="Trazado_104754" data-name="Trazado 104754" d="M1032.01,5433.765l2.009,15.257c0,6.318,7.684,11.45,17.166,11.45s17.176-5.132,17.176-11.45l2.069-15.257Z" transform="translate(-1031.97 -5403.345)" fill="#d9a171" stroke="#263238" stroke-linecap="round" stroke-linejoin="round" stroke-width="1"/>
        <ellipse id="Elipse_4162" data-name="Elipse 4162" cx="19.235" cy="12.826" rx="19.235" ry="12.826" transform="translate(0 17.593)" fill="#d9a171" stroke="#263238" stroke-linecap="round" stroke-linejoin="round" stroke-width="1"/>
        <ellipse id="Elipse_4163" data-name="Elipse 4163" cx="16.362" cy="10.908" rx="16.362" ry="10.908" transform="translate(2.873 19.511)" fill="#d9a171" stroke="#263238" stroke-linecap="round" stroke-linejoin="round" stroke-width="1"/>
        <ellipse id="Elipse_4164" data-name="Elipse 4164" cx="16.081" cy="8.939" rx="16.081" ry="8.939" transform="translate(3.154 23.459)" fill="#344154" stroke="#263238" stroke-linecap="round" stroke-linejoin="round" stroke-width="1"/>
        <path id="Trazado_104755" data-name="Trazado 104755" d="M1056.988,5404.62c-2.792-1.8-7.031-1.637-8.728,1.688-2.511,4.841-.713,13.811-1.617,15.066s-3.586,1.617-4.841-1.074-1.255-6.278-2.873-6.459-3.767.542-4.128,4.67.362,8.789,3.234,10.938,6.1,1.436,7.031,2.34,0,2.31,0,3.234c0,4.018,5.253,6.027,8.578,5.022,4.841-1.437,4.309-6.288,5.022-8.256s4.671-2.159,6.107-5.2,3.586-9.16.532-11.491-5.384-1.255-5.735,1.256a23.516,23.516,0,0,1-2.009,5.746C1059.71,5417.848,1061.819,5407.733,1056.988,5404.62Z" transform="translate(-1031.958 -5403.479)" fill="#d9a171"/>
        <g id="Grupo_56671" data-name="Grupo 56671" transform="translate(2.757)">
          <g id="Grupo_56670" data-name="Grupo 56670" clip-path="url(#clip-path-2)">
            <g id="Grupo_56669" data-name="Grupo 56669">
              <path id="Trazado_104756" data-name="Trazado 104756" d="M1056.988,5404.62c-2.792-1.8-7.031-1.637-8.728,1.688-2.511,4.841-.713,13.811-1.617,15.066s-3.586,1.617-4.841-1.074-1.255-6.278-2.873-6.459-3.767.542-4.128,4.67.362,8.789,3.234,10.938,6.1,1.436,7.031,2.34,0,2.31,0,3.234c0,4.018,5.253,6.027,8.578,5.022,4.841-1.437,4.309-6.288,5.022-8.256s4.671-2.159,6.107-5.2,3.586-9.16.532-11.491-5.384-1.255-5.735,1.256a23.516,23.516,0,0,1-2.009,5.746C1059.71,5417.848,1061.819,5407.733,1056.988,5404.62Z" transform="translate(-1034.714 -5403.479)" opacity="0.2" style="isolation: isolate"/>
            </g>
          </g>
        </g>
        <path id="Trazado_104757" data-name="Trazado 104757" d="M1056.988,5404.62c-2.792-1.8-7.031-1.637-8.728,1.688-2.511,4.841-.713,13.811-1.617,15.066s-3.586,1.617-4.841-1.074-1.255-6.278-2.873-6.459-3.767.542-4.128,4.67.362,8.789,3.234,10.938,6.1,1.436,7.031,2.34,0,2.31,0,3.234c0,4.018,5.253,6.027,8.578,5.022,4.841-1.437,4.309-6.288,5.022-8.256s4.671-2.159,6.107-5.2,3.586-9.16.532-11.491-5.384-1.255-5.735,1.256a23.516,23.516,0,0,1-2.009,5.746C1059.71,5417.848,1061.819,5407.733,1056.988,5404.62Z" transform="translate(-1031.958 -5403.479)" fill="none" stroke="#263238" stroke-linecap="round" stroke-linejoin="round" stroke-width="1"/>
        <path id="Trazado_104758" data-name="Trazado 104758" d="M1052.551,5405.935a6.429,6.429,0,0,0-2.873,4.841c-.181,3.234,0,13.46-1.255,14.9s-5.384,1.074-8.035-1.437-1.476-7.885-1.476-7.885" transform="translate(-1031.94 -5403.468)" fill="none" stroke="#263238" stroke-linecap="round" stroke-linejoin="round" stroke-width="0.5"/>
        <path id="Trazado_104759" data-name="Trazado 104759" d="M1039.7,5427.3a8.155,8.155,0,0,0,3.154,1.507c3.234.713,5.565-.895,6.107.713s-.542,7.362-.542,7.362" transform="translate(-1031.936 -5403.373)" fill="none" stroke="#263238" stroke-linecap="round" stroke-linejoin="round" stroke-width="0.5"/>
        <path id="Trazado_104760" data-name="Trazado 104760" d="M1037.84,5425.4a8.031,8.031,0,0,0,1.145,1.3" transform="translate(-1031.944 -5403.383)" fill="none" stroke="#263238" stroke-linecap="round" stroke-linejoin="round" stroke-width="0.5"/>
        <path id="Trazado_104761" data-name="Trazado 104761" d="M1052.43,5434.015a67.012,67.012,0,0,0,.06-8.035c-.321-4.018,1.547-11.481,2.009-14.856" transform="translate(-1031.88 -5403.445)" fill="none" stroke="#263238" stroke-linecap="round" stroke-linejoin="round" stroke-width="0.5"/>
        <path id="Trazado_104762" data-name="Trazado 104762" d="M1052.13,5438.111s.1-1.094.211-2.7" transform="translate(-1031.881 -5403.338)" fill="none" stroke="#263238" stroke-linecap="round" stroke-linejoin="round" stroke-width="0.5"/>
        <path id="Trazado_104763" data-name="Trazado 104763" d="M1064.5,5420.2c.09-.874.141-1.406.141-1.406" transform="translate(-1031.826 -5403.411)" fill="none" stroke="#263238" stroke-linecap="round" stroke-linejoin="round" stroke-width="0.5"/>
        <path id="Trazado_104764" data-name="Trazado 104764" d="M1056.06,5434.93s.723-5.916,2.159-7.03,5.555-1.8,5.916-4.49c.06-.422.11-.824.161-1.2" transform="translate(-1031.863 -5403.396)" fill="none" stroke="#263238" stroke-linecap="round" stroke-linejoin="round" stroke-width="0.5"/>
        <path id="Trazado_104765" data-name="Trazado 104765" d="M1062.157,5416.475a2.478,2.478,0,0,0-1.084,2.33,5.766,5.766,0,0,1-2.863,5.383" transform="translate(-1031.854 -5403.421)" fill="none" stroke="#263238" stroke-linecap="round" stroke-linejoin="round" stroke-width="0.5"/>
        <path id="Trazado_104766" data-name="Trazado 104766" d="M1054.69,5409.1a20.361,20.361,0,0,0-.06-3.013" transform="translate(-1031.87 -5403.468)" fill="none" stroke="#263238" stroke-linecap="round" stroke-linejoin="round" stroke-width="0.5"/>
      </g>
      <g id="freepik--Cup--inject-1--inject-146" transform="translate(985.912 5388.206)">
        <path id="Trazado_104767" data-name="Trazado 104767" d="M986.59,5405.166l2.662,28.023v2.963c0,4.018,5.645,7.2,12.615,7.2s12.616-3.225,12.616-7.2v-2.963l2.421-28.314Z" transform="translate(-984.822 -5387.066)" fill="#fff" stroke="#263238" stroke-linecap="round" stroke-linejoin="round" stroke-width="1"/>
        <path id="Trazado_104768" data-name="Trazado 104768" d="M1014.6,5431.629l1.4-16.322c-1.878,2.923-7.483,5.022-14.112,5.022-6.981,0-12.816-2.351-14.373-5.515l1.587,16.714c2.571,2.139,7.322,3.585,12.786,3.585S1012.028,5433.737,1014.6,5431.629Z" transform="translate(-984.818 -5387.022)" fill="#d9a171" stroke="#263238" stroke-linecap="round" stroke-linejoin="round" stroke-width="1"/>
        <path id="Trazado_104769" data-name="Trazado 104769" d="M987.091,5410.43v-.19l-.13-1.125Z" transform="translate(-984.821 -5387.047)" fill="#fff" stroke="#263238" stroke-linecap="round" stroke-linejoin="round" stroke-width="1"/>
        <path id="Trazado_104770" data-name="Trazado 104770" d="M1017.393,5401.05c-2.672-3.375-8.608-5.735-15.518-5.735s-12.846,2.36-15.528,5.735H984.83v4.018c0,5.384,7.634,9.743,17.075,9.743s17.075-4.358,17.075-9.743v-4.018Z" transform="translate(-984.83 -5387.109)" fill="#d9a171" stroke="#263238" stroke-linecap="round" stroke-linejoin="round" stroke-width="1"/>
        <path id="Trazado_104771" data-name="Trazado 104771" d="M1017.393,5401.05c-2.672-3.375-8.608-5.735-15.518-5.735s-12.846,2.36-15.528,5.735H984.83v4.018c0,5.384,7.634,9.743,17.075,9.743s17.075-4.358,17.075-9.743v-4.018Z" transform="translate(-984.83 -5387.109)" opacity="0.2" style="isolation: isolate"/>
        <ellipse id="Elipse_4165" data-name="Elipse 4165" cx="17.045" cy="9.743" rx="17.045" ry="9.743" transform="translate(0 4.199)" fill="#fff" stroke="#263238" stroke-linecap="round" stroke-linejoin="round" stroke-width="1"/>
        <path id="Trazado_104772" data-name="Trazado 104772" d="M1015.425,5395.637c-2.34-2.953-7.523-5.021-13.56-5.021s-11.219,2.059-13.56,5.021h-1.3v3.5c0,4.7,6.659,8.507,14.885,8.507s14.885-3.807,14.885-8.507v-3.5Z" transform="translate(-984.82 -5387.129)" fill="#d9a171" stroke="#263238" stroke-linecap="round" stroke-linejoin="round" stroke-width="1"/>
        <ellipse id="Elipse_4166" data-name="Elipse 4166" cx="14.886" cy="8.507" rx="14.886" ry="8.507" transform="translate(2.16)" fill="#fff" stroke="#263238" stroke-linecap="round" stroke-linejoin="round" stroke-width="1"/>
      </g>
      <g id="freepik--Cat--inject-1--inject-146" transform="translate(813.678 5242.552)">
        <path id="Trazado_104773" data-name="Trazado 104773" d="M852.22,5313.365s1.165-.773,8.558,2.331,10.3,2.43,17.487,1.166c8.638-1.507,15.81-3.013,16.673.481,1.5,6.027-4.55,5.957-15.428,7.121s-17.186-2.159-20.681-3.716a35.012,35.012,0,0,1-4.661-2.331Z" transform="translate(-813.182 -5241.816)" fill="#fff" stroke="#263238" stroke-linecap="round" stroke-linejoin="round" stroke-width="1"/>
        <path id="Trazado_104774" data-name="Trazado 104774" d="M835.58,5316.5s9.723,11.27,13.992,8.156,3.887-13.208,0-16.322S834.807,5311.061,835.58,5316.5Z" transform="translate(-813.255 -5241.843)" fill="#fff" stroke="#263238" stroke-linecap="round" stroke-linejoin="round" stroke-width="1"/>
        <path id="Trazado_104775" data-name="Trazado 104775" d="M865.238,5285.553s.392,10.5-2.33,17.487-7.774,11.661-8.548,15.549-.392,9.331-4.279,10.888-3.887-1.166-3.5-4.278,1.165-14.766,1.165-14.766L834.9,5318.2s3.5,9.724-3.887,10.889-16.322-10.105-17.487-18.623,3.5-27.6,11.661-32.653,18.652-4.269,24.106-4.269S862.888,5277.4,865.238,5285.553Z" transform="translate(-813.354 -5241.993)" fill="#fff" stroke="#263238" stroke-linecap="round" stroke-linejoin="round" stroke-width="1"/>
        <path id="Trazado_104776" data-name="Trazado 104776" d="M834.188,5274.771s-2.009,1-5.514,6.519,3.505,10.265,7.272,7.764.492-7.764,3.254-10.275a8.9,8.9,0,0,0,3.013-5.263Z" transform="translate(-813.29 -5241.994)" fill="#344154"/>
        <path id="Trazado_104777" data-name="Trazado 104777" d="M822.954,5282.507a7.925,7.925,0,0,0-3.264,5.515c-.251,3.506,6.027-3.013,6.77-6.026S822.954,5282.507,822.954,5282.507Z" transform="translate(-813.326 -5241.961)" fill="#344154"/>
        <path id="Trazado_104778" data-name="Trazado 104778" d="M845.266,5274.678a10.2,10.2,0,0,0,.392,10.486c3.5,5.443,11.27,7.774,14.373,3.887s4.279-5.826,3.114-7.764S850.709,5271.564,845.266,5274.678Z" transform="translate(-813.218 -5241.992)" fill="#d9a171" stroke="#263238" stroke-linecap="round" stroke-linejoin="round" stroke-width="1"/>
        <path id="Trazado_104779" data-name="Trazado 104779" d="M874.041,5255.774a10.3,10.3,0,0,1-8.156-2.722c-3.887-3.5-7.392-11.271-8.939-10.888s-7.031,11.661-7.031,11.661-9.331.783-10.1,3.5,3.5,15.549,7.031,20.993a18.731,18.731,0,0,0,14.765,8.186c4.661,0,18.652,1.166,20.6-3.506s.382-18.652.382-18.652,6.227-6.217,3.505-7.383S874.041,5255.774,874.041,5255.774Z" transform="translate(-813.237 -5242.131)" fill="#fff" stroke="#263238" stroke-linecap="round" stroke-linejoin="round" stroke-width="1"/>
        <path id="Trazado_104780" data-name="Trazado 104780" d="M872.066,5275.092c-.472-.612-.924-1.235-1.366-1.878-.733-1.085-2.471-2.743-5.816-1.688-4.761,1.5-8.035,6.026-2.752,9.773C867.1,5284.865,877.088,5281.646,872.066,5275.092Z" transform="translate(-813.15 -5242.003)" fill="#344154"/>
        <path id="Trazado_104781" data-name="Trazado 104781" d="M849.9,5253.826s5.444,3.113,8.548,1.949,1.165-14.383-1.547-13.61S849.508,5248.774,849.9,5253.826Z" transform="translate(-813.192 -5242.132)" fill="#fff" stroke="#263238" stroke-linecap="round" stroke-linejoin="round" stroke-width="1"/>
        <path id="Trazado_104782" data-name="Trazado 104782" d="M885.933,5256.875s-5.022-.392-8.166,3.1-1.165,7.031,3.114,7.775S887.479,5256.875,885.933,5256.875Z" transform="translate(-813.076 -5242.066)" fill="#fff" stroke="#263238" stroke-linecap="round" stroke-linejoin="round" stroke-width="1"/>
        <path id="Trazado_104783" data-name="Trazado 104783" d="M855.728,5278.553s-5.022-3.887-3.887-.783,3.1,3.506,5.022,2.723S855.728,5278.553,855.728,5278.553Z" transform="translate(-813.184 -5241.979)" fill="#d9a171" stroke="#263238" stroke-linecap="round" stroke-linejoin="round" stroke-width="1"/>
        <path id="Trazado_104784" data-name="Trazado 104784" d="M852.962,5268.855c-.291,1-1.115,1.708-1.838,1.506s-1.075-1.206-.783-2.24,1.115-1.708,1.838-1.507S853.253,5267.83,852.962,5268.855Z" transform="translate(-813.19 -5242.023)" fill="#344154"/>
        <path id="Trazado_104785" data-name="Trazado 104785" d="M864.891,5277.986c-.934.543-2.009.462-2.37-.19s.06-1.607,1-2.15a1.749,1.749,0,0,1,2.37.182C866.257,5276.479,865.815,5277.444,864.891,5277.986Z" transform="translate(-813.137 -5241.985)" fill="#fff"/>
        <path id="Trazado_104786" data-name="Trazado 104786" d="M830.172,5302.541s-1.165,8.548.382,12.054,3.114,16.714,6.227,17.075,1.939-7.031,1.939-8.166.392-13.6.392-13.6,2.722-5.836,4.269-8.939" transform="translate(-813.281 -5241.872)" fill="#fff" stroke="#263238" stroke-linecap="round" stroke-linejoin="round" stroke-width="1"/>
        <path id="Trazado_104787" data-name="Trazado 104787" d="M817.4,5302.146s10.5-3.114,11.661,8.547" transform="translate(-813.336 -5241.868)" fill="none" stroke="#263238" stroke-linecap="round" stroke-linejoin="round" stroke-width="1"/>
        <path id="Trazado_104788" data-name="Trazado 104788" d="M847.58,5310.37s8.94-4.67,9.331-14.774" transform="translate(-813.202 -5241.896)" fill="none" stroke="#263238" stroke-linecap="round" stroke-linejoin="round" stroke-width="1"/>
      </g>
      <g id="freepik--Character--inject-1--inject-146" transform="translate(740.01 5151.957)">
        <line id="Línea_283" data-name="Línea 283" y1="1.497" x2="6.619" transform="translate(0 173.472)" fill="none" stroke="#263238" stroke-linecap="round" stroke-linejoin="round" stroke-width="1"/>
        <path id="Trazado_104789" data-name="Trazado 104789" d="M795.01,5365.091l53.375-15.136a7.393,7.393,0,0,1,4.831,1.166l86.852,55.494a2.149,2.149,0,0,1-.894,3.937l-73.041,22.75Z" transform="translate(-739.767 -5151.061)" fill="#d9a171" stroke="#263238" stroke-linecap="round" stroke-linejoin="round" stroke-width="1"/>
        <path id="Trazado_104790" data-name="Trazado 104790" d="M826.08,5368.216l7.563,5.212,8.739-2.47-7.553-5.2Z" transform="translate(-739.629 -5150.991)" fill="#344154"/>
        <path id="Trazado_104791" data-name="Trazado 104791" d="M830.842,5382.737l-7.553-5.213L814.54,5380l7.563,5.213Z" transform="translate(-739.68 -5150.939)" fill="#344154"/>
        <path id="Trazado_104792" data-name="Trazado 104792" d="M845,5371.4l7.553,5.2,8.738-2.471-7.553-5.2Z" transform="translate(-739.546 -5150.977)" fill="#344154"/>
        <path id="Trazado_104793" data-name="Trazado 104793" d="M853.77,5377.436l7.553,5.2,8.738-2.471-7.553-5.2Z" transform="translate(-739.507 -5150.95)" fill="#344154"/>
        <path id="Trazado_104794" data-name="Trazado 104794" d="M834.85,5374.256l7.553,5.213,8.739-2.472-7.553-5.2Z" transform="translate(-739.591 -5150.964)" fill="#344154"/>
        <path id="Trazado_104795" data-name="Trazado 104795" d="M815.93,5371.086l7.553,5.213,8.748-2.471-7.563-5.212Z" transform="translate(-739.674 -5150.979)" fill="#344154"/>
        <path id="Trazado_104796" data-name="Trazado 104796" d="M876.052,5404.027l-7.563-5.212-8.729,2.47,7.553,5.213Z" transform="translate(-739.48 -5150.845)" fill="#344154"/>
        <path id="Trazado_104797" data-name="Trazado 104797" d="M865.892,5406.9l-7.553-5.212-8.738,2.471,7.563,5.2Z" transform="translate(-739.525 -5150.832)" fill="#344154"/>
        <path id="Trazado_104798" data-name="Trazado 104798" d="M839.6,5388.777l-7.553-5.212-8.739,2.471,7.553,5.2Z" transform="translate(-739.642 -5150.913)" fill="#344154"/>
        <path id="Trazado_104799" data-name="Trazado 104799" d="M884.812,5410.068l-7.553-5.2-8.739,2.461,7.553,5.213Z" transform="translate(-739.442 -5150.818)" fill="#344154"/>
        <path id="Trazado_104800" data-name="Trazado 104800" d="M848.372,5394.822l-7.563-5.213-8.739,2.472,7.563,5.2Z" transform="translate(-739.603 -5150.885)" fill="#344154"/>
        <path id="Trazado_104801" data-name="Trazado 104801" d="M857.132,5400.857l-7.553-5.213-8.738,2.471,7.553,5.213Z" transform="translate(-739.564 -5150.858)" fill="#344154"/>
        <path id="Trazado_104802" data-name="Trazado 104802" d="M862.53,5383.476l7.553,5.2,8.738-2.471-7.553-5.2Z" transform="translate(-739.468 -5150.924)" fill="#344154"/>
        <path id="Trazado_104803" data-name="Trazado 104803" d="M824.7,5377.125l7.553,5.214,8.738-2.471-7.553-5.2Z" transform="translate(-739.635 -5150.951)" fill="#344154"/>
        <path id="Trazado_104804" data-name="Trazado 104804" d="M894.962,5407.2l-7.553-5.2-8.739,2.471,7.553,5.2Z" transform="translate(-739.397 -5150.831)" fill="#344154"/>
        <path id="Trazado_104805" data-name="Trazado 104805" d="M868.672,5389.078l-7.553-5.2-8.738,2.461,7.553,5.213Z" transform="translate(-739.513 -5150.911)" fill="#344154"/>
        <path id="Trazado_104806" data-name="Trazado 104806" d="M849.752,5385.907l-7.553-5.213-8.738,2.471,7.553,5.212Z" transform="translate(-739.597 -5150.924)" fill="#344154"/>
        <path id="Trazado_104807" data-name="Trazado 104807" d="M813.286,5370.647l-4.419-3.054-5.976,1.678,3.5,3.325Z" transform="translate(-739.732 -5150.982)" fill="#344154"/>
        <path id="Trazado_104808" data-name="Trazado 104808" d="M822.065,5376.7l-7.553-5.212-7.162,2.029,5.916,5.6.06.041Z" transform="translate(-739.712 -5150.966)" fill="#344154"/>
        <path id="Trazado_104809" data-name="Trazado 104809" d="M843.61,5380.311l7.563,5.2,8.739-2.471-7.563-5.2Z" transform="translate(-739.552 -5150.938)" fill="#344154"/>
        <path id="Trazado_104810" data-name="Trazado 104810" d="M858.522,5391.947l-7.553-5.2-8.738,2.461,7.553,5.213Z" transform="translate(-739.558 -5150.898)" fill="#344154"/>
        <path id="Trazado_104811" data-name="Trazado 104811" d="M896.352,5398.288l-7.553-5.2-8.739,2.47,7.553,5.2Z" transform="translate(-739.391 -5150.871)" fill="#344154"/>
        <path id="Trazado_104812" data-name="Trazado 104812" d="M871.29,5389.516l7.563,5.2,8.739-2.471-7.553-5.2Z" transform="translate(-739.43 -5150.896)" fill="#344154"/>
        <path id="Trazado_104813" data-name="Trazado 104813" d="M886.2,5401.157l-7.553-5.2-8.738,2.471,7.553,5.2Z" transform="translate(-739.436 -5150.858)" fill="#344154"/>
        <path id="Trazado_104814" data-name="Trazado 104814" d="M877.432,5395.123l-7.553-5.2-8.738,2.461,7.563,5.213Z" transform="translate(-739.475 -5150.884)" fill="#344154"/>
        <path id="Trazado_104815" data-name="Trazado 104815" d="M867.282,5397.987l-7.553-5.2-8.738,2.461,7.553,5.213Z" transform="translate(-739.519 -5150.871)" fill="#344154"/>
        <path id="Trazado_104816" data-name="Trazado 104816" d="M829.416,5391.638l-7.553-5.2-.673.19,5.956,5.655Z" transform="translate(-739.651 -5150.899)" fill="#344154"/>
        <path id="Trazado_104817" data-name="Trazado 104817" d="M896.178,5408.035l-8.739,2.471,9.06,6.238,8.517-2.622Z" transform="translate(-739.358 -5150.805)" fill="#344154"/>
        <path id="Trazado_104818" data-name="Trazado 104818" d="M886.018,5410.9l-8.739,2.461,9.331,6.428,8.507-2.621Z" transform="translate(-739.403 -5150.792)" fill="#344154"/>
        <path id="Trazado_104819" data-name="Trazado 104819" d="M846.963,5403.723l-7.553-5.2-4.389,1.236,5.966,5.665Z" transform="translate(-739.59 -5150.846)" fill="#344154"/>
        <path id="Trazado_104820" data-name="Trazado 104820" d="M905.122,5404.327l-7.563-5.2-8.739,2.471,7.563,5.2Z" transform="translate(-739.352 -5150.843)" fill="#344154"/>
        <path id="Trazado_104821" data-name="Trazado 104821" d="M855.731,5409.768l-7.553-5.213-6.237,1.768,5.956,5.655Z" transform="translate(-739.559 -5150.819)" fill="#344154"/>
        <path id="Trazado_104822" data-name="Trazado 104822" d="M864.509,5415.808l-7.553-5.213-8.106,2.29,5.966,5.655Z" transform="translate(-739.529 -5150.792)" fill="#344154"/>
        <path id="Trazado_104823" data-name="Trazado 104823" d="M874.662,5412.938l-7.553-5.213-8.739,2.471,7.553,5.213Z" transform="translate(-739.487 -5150.805)" fill="#344154"/>
        <path id="Trazado_104824" data-name="Trazado 104824" d="M923.8,5404.788l-5.022-3.144-11.049,3.124,8.538,5.886,6.649-2.009a2.079,2.079,0,0,0,.884-3.857Z" transform="translate(-739.268 -5150.832)" fill="#344154"/>
        <path id="Trazado_104825" data-name="Trazado 104825" d="M865.724,5416.634l-9.954,2.812,7.834,7.433,11.742-3.616Z" transform="translate(-739.498 -5150.766)" fill="#344154"/>
        <path id="Trazado_104826" data-name="Trazado 104826" d="M909.5,5395.755l-10.516,2.973,7.553,5.2,11-3.1Z" transform="translate(-739.307 -5150.858)" fill="#344154"/>
        <path id="Trazado_104827" data-name="Trazado 104827" d="M906.328,5405.165l-8.739,2.47,8.8,6.067,8.518-2.622Z" transform="translate(-739.313 -5150.817)" fill="#344154"/>
        <path id="Trazado_104828" data-name="Trazado 104828" d="M845.169,5361.636l7.141-2.019-4.61-2.913-6.89,1.929Z" transform="translate(-739.564 -5151.03)" fill="#344154"/>
        <path id="Trazado_104829" data-name="Trazado 104829" d="M885.23,5420.229l-9.361-6.458-8.739,2.471,9.582,6.609Z" transform="translate(-739.448 -5150.779)" fill="#344154"/>
        <path id="Trazado_104830" data-name="Trazado 104830" d="M846.39,5362.484l7.553,5.2,7.7-2.169-8.035-5.072Z" transform="translate(-739.54 -5151.014)" fill="#344154"/>
        <path id="Trazado_104831" data-name="Trazado 104831" d="M863.92,5374.565l7.553,5.2,8.8-2.482-8.025-5.072Z" transform="translate(-739.462 -5150.962)" fill="#344154"/>
        <path id="Trazado_104832" data-name="Trazado 104832" d="M855.15,5368.524l7.563,5.2,8.246-2.33-8.035-5.072Z" transform="translate(-739.501 -5150.988)" fill="#344154"/>
        <path id="Trazado_104833" data-name="Trazado 104833" d="M872.68,5380.611l7.553,5.2,9.351-2.632-8.025-5.082Z" transform="translate(-739.423 -5150.936)" fill="#344154"/>
        <path id="Trazado_104834" data-name="Trazado 104834" d="M881.45,5386.646l7.553,5.2,9.894-2.792-8.025-5.072Z" transform="translate(-739.385 -5150.91)" fill="#344154"/>
        <path id="Trazado_104835" data-name="Trazado 104835" d="M900.184,5389.865l-9.974,2.822,7.553,5.2,10.446-2.943Z" transform="translate(-739.346 -5150.884)" fill="#344154"/>
        <path id="Trazado_104836" data-name="Trazado 104836" d="M836.24,5365.355l7.553,5.2,8.738-2.471-7.553-5.2Z" transform="translate(-739.584 -5151.002)" fill="#344154"/>
        <path id="Trazado_104837" data-name="Trazado 104837" d="M818.67,5384.245l1.547,1.457.4-.121Z" transform="translate(-739.662 -5150.909)" fill="#344154"/>
        <path id="Trazado_104838" data-name="Trazado 104838" d="M814.709,5370.249l8.738-2.471-4.4-3.033-8.758,2.45Z" transform="translate(-739.699 -5150.996)" fill="#344154"/>
        <path id="Trazado_104839" data-name="Trazado 104839" d="M824.859,5367.379l8.739-2.471-4.379-3.023-8.758,2.461Z" transform="translate(-739.654 -5151.008)" fill="#344154"/>
        <path id="Trazado_104840" data-name="Trazado 104840" d="M830.64,5361.5l4.379,3.013,8.738-2.471-4.369-3Z" transform="translate(-739.609 -5151.021)" fill="#344154"/>
        <path id="Trazado_104841" data-name="Trazado 104841" d="M838.184,5397.688l-7.553-5.213-2.531.713,5.966,5.655Z" transform="translate(-739.621 -5150.873)" fill="#344154"/>
        <path id="Trazado_104842" data-name="Trazado 104842" d="M866.173,5433.628l-23.1-93.521a11.274,11.274,0,0,0-3.264-5.544L777.532,5276.5a1.687,1.687,0,0,0-2.792,1.616l20.36,87.3Z" transform="translate(-739.857 -5151.388)" fill="#d9a171" stroke="#263238" stroke-linecap="round" stroke-linejoin="round" stroke-width="1"/>
        <path id="Trazado_104843" data-name="Trazado 104843" d="M831.01,5330.5l7.121,6.228s2.22.442,4.44,11.561" transform="translate(-739.608 -5151.147)" fill="none" stroke="#263238" stroke-linecap="round" stroke-linejoin="round" stroke-width="0.5"/>
        <line id="Línea_284" data-name="Línea 284" x2="13.128" y2="56.89" transform="translate(104.299 202.912)" fill="none" stroke="#263238" stroke-linecap="round" stroke-linejoin="round" stroke-width="0.5"/>
        <path id="Trazado_104844" data-name="Trazado 104844" d="M805.644,5328.014c3.084,7.493,2.8,14.715-.633,16.131s-8.728-3.516-11.812-11.048-2.8-14.715.633-16.121S802.561,5320.517,805.644,5328.014Z" transform="translate(-739.784 -5151.208)" fill="#d9a171"/>
        <path id="Trazado_104845" data-name="Trazado 104845" d="M805.644,5328.014c3.084,7.493,2.8,14.715-.633,16.131s-8.728-3.516-11.812-11.048-2.8-14.715.633-16.121S802.561,5320.517,805.644,5328.014Z" transform="translate(-739.784 -5151.208)" fill="#fff" opacity="0.6" style="isolation: isolate"/>
        <ellipse id="Elipse_4167" data-name="Elipse 4167" cx="4.781" cy="10.436" rx="4.781" ry="10.436" transform="translate(51.242 171.538) rotate(-22.38)" fill="none" stroke="#263238" stroke-miterlimit="10" stroke-width="1"/>
        <path id="Trazado_104846" data-name="Trazado 104846" d="M810.362,5358.579c1.607,3.887.944,7.845-1.466,8.839s-5.665-1.356-7.272-5.233-.934-7.845,1.477-8.839S808.765,5354.7,810.362,5358.579Z" transform="translate(-739.741 -5151.047)" fill="#344154"/>
        <path id="Trazado_104847" data-name="Trazado 104847" d="M807.03,5365.142c-1.517,0-3.164-1.376-4.018-3.524a6.553,6.553,0,0,1-.482-3.516,2.872,2.872,0,0,1,1.627-2.34c1.7-.7,3.867.772,4.932,3.354h0c1.055,2.581.552,5.152-1.145,5.855A2.42,2.42,0,0,1,807.03,5365.142Zm-2.009-8.547a1.25,1.25,0,0,0-.5.1,1.909,1.909,0,0,0-1,1.577,5.53,5.53,0,0,0,.422,3.014c.814,2.009,2.471,3.273,3.616,2.8s1.416-2.552.593-4.54C807.392,5357.79,806.026,5356.595,805.021,5356.595Z" transform="translate(-739.734 -5151.036)" fill="#d9a171"/>
        <g id="Grupo_56672" data-name="Grupo 56672" transform="translate(62.734 204.55)" opacity="0.5">
          <path id="Trazado_104848" data-name="Trazado 104848" d="M807.03,5365.142c-1.517,0-3.164-1.376-4.018-3.524a6.553,6.553,0,0,1-.482-3.516,2.872,2.872,0,0,1,1.627-2.34c1.7-.7,3.867.772,4.932,3.354h0c1.055,2.581.552,5.152-1.145,5.855A2.42,2.42,0,0,1,807.03,5365.142Zm-2.009-8.547a1.25,1.25,0,0,0-.5.1,1.909,1.909,0,0,0-1,1.577,5.53,5.53,0,0,0,.422,3.014c.814,2.009,2.471,3.273,3.616,2.8s1.416-2.552.593-4.54C807.392,5357.79,806.026,5356.595,805.021,5356.595Z" transform="translate(-802.468 -5355.586)" fill="#fff"/>
        </g>
        <path id="Trazado_104849" data-name="Trazado 104849" d="M828.176,5359.8l-5.715,9.039a1.335,1.335,0,0,0,0,1.486l12.234,17.839a1.367,1.367,0,0,0,2.009.281l6.338-5.173a1.347,1.347,0,0,0,.311-1.738l-12.867-21.685a1.346,1.346,0,0,0-2.31-.05Z" transform="translate(-739.646 -5151.019)" fill="#344154"/>
        <path id="Trazado_104850" data-name="Trazado 104850" d="M818.255,5371.744s15.83-2.632,26.708,19.667l2.7-3.325s-10.476-17.447-19.014-19-11.641-1.567-11.641-1.567Z" transform="translate(-739.67 -5150.983)" fill="#d9a171"/>
        <path id="Trazado_104851" data-name="Trazado 104851" d="M818.255,5371.744s15.83-2.632,26.708,19.667l2.7-3.325s-10.476-17.447-19.014-19-11.641-1.567-11.641-1.567Z" transform="translate(-739.67 -5150.983)" fill="#fff" opacity="0.5" style="isolation: isolate"/>
        <line id="Línea_285" data-name="Línea 285" y1="5.836" x2="25.834" transform="translate(10.315 166.803)" fill="none" stroke="#263238" stroke-linecap="round" stroke-linejoin="round" stroke-width="1"/>
        <path id="Trazado_104852" data-name="Trazado 104852" d="M913.649,5379.814a82.47,82.47,0,0,1-9.351.935c-4.851.19-6.91.19-6.167,1.315s6.549,2.24,8.6,2.612S913.649,5379.814,913.649,5379.814Z" transform="translate(-739.312 -5150.929)" fill="#fff" stroke="#263238" stroke-miterlimit="10" stroke-width="1"/>
        <line id="Línea_286" data-name="Línea 286" x1="8.648" y1="4.52" transform="translate(347.851 264.995)" fill="none" stroke="#263238" stroke-linecap="round" stroke-linejoin="round" stroke-width="1"/>
        <path id="Trazado_104853" data-name="Trazado 104853" d="M922.95,5315.17s1.818-3.185,2.582.763Z" transform="translate(-739.201 -5151.22)" fill="#344154"/>
        <line id="Línea_287" data-name="Línea 287" x1="210.848" y1="110.155" transform="translate(131.649 152.038)" fill="none" stroke="#263238" stroke-linecap="round" stroke-linejoin="round" stroke-width="1"/>
        <path id="Trazado_104854" data-name="Trazado 104854" d="M876.6,5346.3l44.3,28.565L957.345,5360l-49.086-24.95Z" transform="translate(-739.406 -5151.126)" fill="#344154" stroke="#263238" stroke-linecap="round" stroke-linejoin="round" stroke-width="1"/>
        <line id="Línea_288" data-name="Línea 288" x1="17.658" y2="6.237" transform="translate(148.011 189.222)" fill="none" stroke="#fff" stroke-linecap="round" stroke-linejoin="round" stroke-width="0.5"/>
        <path id="Trazado_104855" data-name="Trazado 104855" d="M890.13,5348.6l31.86,20.088,25.964-10.044" transform="translate(-739.346 -5151.067)" fill="none" stroke="#fff" stroke-linecap="round" stroke-linejoin="round" stroke-width="0.5"/>
        <path id="Trazado_104856" data-name="Trazado 104856" d="M1058.45,5211.865s25.372,4.017,33.538,17.617,2.33,34.974-.392,42.356c-2.461,6.7,4.811,12.294,9.281,15.93,10.044,8.156,15.217,19.667,9.994,32.191-3.254,7.794-17.728,11.29-15.769,20.671s10.486,22.54-.392,32.262c-11.481,10.246-28.706,4.962-38.771-4.61-11.32-10.767-15.217-29.5-9.422-43.973,7.031-17.487,10.878-28.756,4.269-36.159s-15.157-12.053-15.157-22.539,9.331-13.6,13.218-24.106-1.557-21.373-1.557-21.373Z" transform="translate(-738.703 -5151.671)" fill="#344154" stroke="#263238" stroke-linecap="round" stroke-linejoin="round" stroke-width="1"/>
        <path id="Trazado_104857" data-name="Trazado 104857" d="M1082.027,5229.924c4.9,3.706,9.361,9.944,7.814,20.089-3.134,20.591-18.351,21.937-8.507,34.913s18.8,7.151,17.005,23.263-7.6,21.927-7.6,21.927" transform="translate(-738.515 -5151.591)" fill="none" stroke="#fff" stroke-miterlimit="10" stroke-width="1"/>
        <path id="Trazado_104858" data-name="Trazado 104858" d="M1071.56,5225a27.774,27.774,0,0,1,5.685,2.008" transform="translate(-738.544 -5151.613)" fill="none" stroke="#fff" stroke-miterlimit="10" stroke-width="1"/>
        <path id="Trazado_104859" data-name="Trazado 104859" d="M1066.66,5230.795s12.977,3.576,17.005,14.313-12.053,19.7-12.977,26.406" transform="translate(-738.566 -5151.588)" fill="none" stroke="#fff" stroke-miterlimit="10" stroke-width="1"/>
        <path id="Trazado_104860" data-name="Trazado 104860" d="M1066.293,5405.591c-.181-6.158-.261-14.373.11-23.042.784-17.878,22.158-41.594,22.931-45.862s-1.165-5.023-1.165-5.023l-42.366-18.271c-19.7,12.937-24.488,50.563-25.663,68.12Z" transform="translate(-738.771 -5151.222)" fill="#d9a171" stroke="#263238" stroke-linecap="round" stroke-linejoin="round" stroke-width="1"/>
        <path id="Trazado_104861" data-name="Trazado 104861" d="M1083.366,5332.715s3.556,2.219,0,5.775-13.339,18.672-17.356,27.561" transform="translate(-738.569 -5151.137)" fill="none" stroke="#263238" stroke-linecap="round" stroke-linejoin="round" stroke-width="0.5"/>
        <path id="Trazado_104862" data-name="Trazado 104862" d="M1064.272,5370.3s-3.114,7.111-2.662,14.223.442,13.78.442,13.78" transform="translate(-738.588 -5150.971)" fill="none" stroke="#263238" stroke-linecap="round" stroke-linejoin="round" stroke-width="0.5"/>
        <path id="Trazado_104863" data-name="Trazado 104863" d="M981.533,5323.487c1.868,4.862,4.118,15.318,2.621,21.294-.773,3.1-3.365,9.623-5.665,15.176l57.121,29.852c-.06-11.892.09-30.665,1.607-34.15,2.24-5.233,20.179-54.55,19.084-65.76s-22.79-27.28-22.79-27.28l3.325-27.32-19.8,11.963s-2.25,10.827-4.49,13.449-20.55,6.348-25.783,13.057-3.365,27.28-3.365,28.4S979.665,5318.671,981.533,5323.487Z" transform="translate(-738.956 -5151.567)" fill="#fff"/>
        <g id="Grupo_56675" data-name="Grupo 56675" transform="translate(239.534 83.732)">
          <g id="Grupo_56674" data-name="Grupo 56674" clip-path="url(#clip-path-3)">
            <g id="Grupo_56673" data-name="Grupo 56673" transform="translate(36.953 0.005)">
              <path id="Trazado_104864" data-name="Trazado 104864" d="M1056.11,5289.865c-1.125-11.209-22.79-27.28-22.79-27.28l3.355-27.28-19.8,11.963s-.653,3.124-1.6,6.429c1.276-.111,2.7-.292,4.3-.573,7.553-1.336,11.561-4.018,11.561-4.018L1027.122,5266s20.45,12.053,25.784,26.678c.723,2.009,1.5,3.887,2.29,5.755A33.155,33.155,0,0,0,1056.11,5289.865Z" transform="translate(-1015.28 -5235.304)" fill="#d9a171" opacity="0.5" style="isolation: isolate"/>
            </g>
          </g>
        </g>
        <path id="Trazado_104865" data-name="Trazado 104865" d="M981.533,5323.487c1.868,4.862,4.118,15.318,2.621,21.294-.773,3.1-3.365,9.623-5.665,15.176l57.121,29.852c-.06-11.892.09-30.665,1.607-34.15,2.24-5.233,20.179-54.55,19.084-65.76s-22.79-27.28-22.79-27.28l3.325-27.32-19.8,11.963s-2.25,10.827-4.49,13.449-20.55,6.348-25.783,13.057-3.365,27.28-3.365,28.4S979.665,5318.671,981.533,5323.487Z" transform="translate(-738.956 -5151.567)" fill="none" stroke="#263238" stroke-linecap="round" stroke-linejoin="round" stroke-width="1"/>
        <path id="Trazado_104866" data-name="Trazado 104866" d="M981.533,5323.357c1.868,4.861,4.118,15.317,2.621,21.294-.773,3.1-3.365,9.623-5.665,15.177l57.121,29.852c-.06-11.892.09-30.665,1.607-34.15,2.24-5.232,20.179-54.55,19.084-65.76-.693-6.98-9.351-15.829-15.789-21.524-6.338,6.72-20.088,19.254-30.133,13.67-9.04-5.022-8.467-12.655-7.131-17.2-6.107,2.251-13.409,5.123-16.412,8.98-5.233,6.729-3.365,27.279-3.365,28.395S979.665,5318.541,981.533,5323.357Z" transform="translate(-738.956 -5151.437)" fill="#344154" stroke="#263238" stroke-linecap="round" stroke-linejoin="round" stroke-width="1"/>
        <path id="Trazado_104867" data-name="Trazado 104867" d="M1014.853,5309.936l-12.435-5.836s-3.505-5.825-5.444-5.825-3.114,8.166-3.114,8.166-6.6,6.217-4.269,12.435,10.878,15.548,21.374,12.053,7.382-14.373,7.382-14.373,4.279-7.383,4.279-8.939S1014.853,5309.936,1014.853,5309.936Z" transform="translate(-738.909 -5151.29)" fill="#fff" stroke="#263238" stroke-linecap="round" stroke-linejoin="round" stroke-width="1"/>
        <path id="Trazado_104868" data-name="Trazado 104868" d="M988.224,5190.005s2.621,13.459,2.24,22.8-4.108,13.057-3.013,17.185,14.574,19.436,22.79,20.922,27.652-11.209,33.257-16.814,6.348-13.82,5.6-17.186-3.736-30.263-14.946-41.1S993.457,5166.1,988.224,5190.005Z" transform="translate(-738.917 -5151.859)" fill="#fff"/>
        <g id="Grupo_56678" data-name="Grupo 56678" transform="translate(248.333 17.373)">
          <g id="Grupo_56677" data-name="Grupo 56677" clip-path="url(#clip-path-4)">
            <g id="Grupo_56676" data-name="Grupo 56676" transform="translate(24.156 0.002)">
              <path id="Trazado_104869" data-name="Trazado 104869" d="M1034.11,5175.813c-4.188-4.018-10.938-6.428-18.019-6.578l-.462,13.94s-2.23,13.781,5.775,24.89,15.117,14.233,16,18.672-3.134,8.859-13.339,16.453a77.022,77.022,0,0,1-12.766,7.835c8.748.311,26.778-11.552,32.141-16.926,5.6-5.6,6.348-13.82,5.6-17.186S1045.29,5186.651,1034.11,5175.813Z" transform="translate(-1011.3 -5169.235)" fill="#d9a171" opacity="0.5" style="isolation: isolate"/>
            </g>
          </g>
        </g>
        <path id="Trazado_104870" data-name="Trazado 104870" d="M988.224,5190.005s2.621,13.459,2.24,22.8-4.108,13.057-3.013,17.185,14.574,19.436,22.79,20.922,27.652-11.209,33.257-16.814,6.348-13.82,5.6-17.186-3.736-30.263-14.946-41.1S993.457,5166.1,988.224,5190.005Z" transform="translate(-738.917 -5151.859)" fill="none" stroke="#263238" stroke-linecap="round" stroke-linejoin="round" stroke-width="1"/>
        <path id="Trazado_104871" data-name="Trazado 104871" d="M1002.373,5217.444s-1.125,7.1-3.013,9.341a9.3,9.3,0,0,0,5.233,2.25" transform="translate(-738.863 -5151.646)" fill="none" stroke="#263238" stroke-linecap="round" stroke-linejoin="round" stroke-width="1"/>
        <path id="Trazado_104872" data-name="Trazado 104872" d="M1003.1,5235.308a17.072,17.072,0,0,0,15.318-.744" transform="translate(-738.847 -5151.57)" fill="none" stroke="#263238" stroke-linecap="round" stroke-linejoin="round" stroke-width="1"/>
        <path id="Trazado_104873" data-name="Trazado 104873" d="M1016.5,5213.734c0,1.246-.583,2.25-1.306,2.25s-1.306-1-1.306-2.25.583-2.239,1.306-2.239S1016.5,5212.5,1016.5,5213.734Z" transform="translate(-738.799 -5151.673)" fill="#344154"/>
        <path id="Trazado_104874" data-name="Trazado 104874" d="M998.091,5210.764c0,1.236-.583,2.24-1.306,2.24s-1.306-1-1.306-2.24.583-2.24,1.306-2.24S998.091,5209.529,998.091,5210.764Z" transform="translate(-738.88 -5151.686)" fill="#344154"/>
        <path id="Trazado_104875" data-name="Trazado 104875" d="M993.06,5201.09a9.225,9.225,0,0,1,7.1-1.125" transform="translate(-738.891 -5151.726)" fill="none" stroke="#263238" stroke-linecap="round" stroke-linejoin="round" stroke-width="1"/>
        <path id="Trazado_104876" data-name="Trazado 104876" d="M1010.54,5201.456s2.24-1.126,7.1,1.867" transform="translate(-738.814 -5151.718)" fill="none" stroke="#263238" stroke-linecap="round" stroke-linejoin="round" stroke-width="1"/>
        <path id="Trazado_104877" data-name="Trazado 104877" d="M1012.945,5179.98s-10.456,8.6-15.689,13.821-7.473,8.969-15.317,5.614-13.459-14.956-3.013-28.776,30.645-17.939,50.442-12.335,28.033,18.311,29.52,32.142-1.507,29.138-8.538,33.257-22.8-12.706-28.405-23.173a148.8,148.8,0,0,1-9-20.55Z" transform="translate(-738.979 -5151.918)" fill="#344154" stroke="#263238" stroke-linecap="round" stroke-linejoin="round" stroke-width="1"/>
        <path id="Trazado_104878" data-name="Trazado 104878" d="M1012.9,5179.874s-28.214,4.159-29.55,10.416,7.162,4.48,7.162,4.48" transform="translate(-738.935 -5151.813)" fill="none" stroke="#fff" stroke-miterlimit="10" stroke-width="1"/>
        <path id="Trazado_104879" data-name="Trazado 104879" d="M979.734,5183.985c-1.908,4.078-.392,6.74-.392,6.74" transform="translate(-738.954 -5151.795)" fill="none" stroke="#fff" stroke-miterlimit="10" stroke-width="1"/>
        <path id="Trazado_104880" data-name="Trazado 104880" d="M1041.08,5166.638s-27.3-4.47-27.3,7.6c0,0-16.553-5.815-27.29,2.24a27.334,27.334,0,0,0-4.41,4.017" transform="translate(-738.94 -5151.875)" fill="none" stroke="#fff" stroke-miterlimit="10" stroke-width="1"/>
        <path id="Trazado_104881" data-name="Trazado 104881" d="M1015.01,5176.885s6.961,22.458,21.485,28.194" transform="translate(-738.794 -5151.826)" fill="none" stroke="#fff" stroke-miterlimit="10" stroke-width="1"/>
        <path id="Trazado_104882" data-name="Trazado 104882" d="M1029.43,5182.9c5.595,4.621,13.6,9.18,23.1,8.729" transform="translate(-738.73 -5151.8)" fill="none" stroke="#fff" stroke-miterlimit="10" stroke-width="1"/>
        <path id="Trazado_104883" data-name="Trazado 104883" d="M1020.77,5173.765a45.893,45.893,0,0,0,4.3,5.092" transform="translate(-738.769 -5151.839)" fill="none" stroke="#fff" stroke-miterlimit="10" stroke-width="1"/>
        <path id="Trazado_104884" data-name="Trazado 104884" d="M985.628,5202.944l43.712,7.473s0,6.65-1.868,10.044-4.108,3.435-8.969,3.435-11.621-3.013-11.953-4.108c-.773-2.651-.251-11.4-.251-11.4l-3.485-.562s.452,10.194-1.416,11.319-14.2-1.125-16.442-4.108S984.131,5202.563,985.628,5202.944Z" transform="translate(-738.932 -5151.71)" fill="none" stroke="#263238" stroke-linecap="round" stroke-linejoin="round" stroke-width="1"/>
        <path id="Trazado_104885" data-name="Trazado 104885" d="M1029.14,5210.4l19.435-3.364v2.611l-19.435,4.861Z" transform="translate(-738.732 -5151.692)" fill="#d9a171" stroke="#263238" stroke-linecap="round" stroke-linejoin="round" stroke-width="1"/>
        <ellipse id="Elipse_4168" data-name="Elipse 4168" cx="17.326" cy="10.838" rx="17.326" ry="10.838" transform="translate(300.038 74.7) rotate(-80.87)" fill="#d9a171" stroke="#263238" stroke-linecap="round" stroke-linejoin="round" stroke-width="1"/>
        <path id="Trazado_104886" data-name="Trazado 104886" d="M1065.948,5213.144c-1.276,7.955-5.705,13.851-9.873,13.178s-6.529-7.654-5.253-15.608,5.7-13.841,9.873-13.168S1067.224,5205.2,1065.948,5213.144Z" transform="translate(-738.637 -5151.734)" fill="#d9a171" stroke="#263238" stroke-linecap="round" stroke-linejoin="round" stroke-width="1"/>
        <path id="Trazado_104887" data-name="Trazado 104887" d="M1060.025,5179.9a88.574,88.574,0,0,1-3.365,31.016s-.372,6.028,5.233,3.365,4.861-25.411,4.108-34.753S1058.167,5172.8,1060.025,5179.9Z" transform="translate(-738.61 -5151.841)" fill="#fff" stroke="#263238" stroke-linecap="round" stroke-linejoin="round" stroke-width="1"/>
        <path id="Trazado_104888" data-name="Trazado 104888" d="M1039.226,5162.431s8.588-2.239,13.057,5.614,3.736,14.946,10.044,15.689,6.729-6.348,3.365-15.317-10.456-15.7-20.179-16.442a16.141,16.141,0,0,0-14.5,7.1S1036.233,5159.819,1039.226,5162.431Z" transform="translate(-738.723 -5151.937)" fill="#d9a171" stroke="#263238" stroke-linecap="round" stroke-linejoin="round" stroke-width="1"/>
        <path id="Trazado_104889" data-name="Trazado 104889" d="M1039.09,5301.592l-25.783,58.668s-70.249,13.057-76.6,13.057-19.084,4.48-21.675,6.027-27.993,13.208-23.1,13.932c3.013.452,10.808-3.837,10.808-3.837s-12.334,6.026-11.219,7.844,16.071-5.6,16.071-5.6-13.67,8.036-10.868,8.488c2.551.452,5.635-1,8.256-2.883a30.408,30.408,0,0,1,7.322-3.253s-6.027,4.017-6.74,5.845,1.5.743,3.736,0a92.507,92.507,0,0,0,12.123-6.328c1.486-1.125,5.976-3.365,8.969-5.976l5.976-5.233s39.976,1.115,58.256.372,27.28-2.612,34.01-9.341,25.784-49.327,30.263-60.908,1.5-18.311-3.013-26.116" transform="translate(-739.341 -5151.342)" fill="#fff"/>
        <g id="Grupo_56681" data-name="Grupo 56681" transform="translate(151.968 135.003)">
          <g id="Grupo_56680" data-name="Grupo 56680" clip-path="url(#clip-path-5)">
            <g id="Grupo_56679" data-name="Grupo 56679" transform="translate(46.576 12.565)">
              <path id="Trazado_104890" data-name="Trazado 104890" d="M1039.93,5339.976c-12.053,22.67-22.228,29.781-32.895,35.155s-69.355,6.669-69.355,6.669l2.471.593c10.6.261,39.494.874,54.239.271,18.311-.743,27.28-2.611,34.01-9.341s25.784-49.326,30.263-60.908c2.079-5.363,2.541-9.683,2.009-13.56l-2.541,1.6A360.258,360.258,0,0,1,1039.93,5339.976Z" transform="translate(-937.68 -5298.854)" fill="#d9a171" opacity="0.5" style="isolation: isolate"/>
            </g>
          </g>
        </g>
        <path id="Trazado_104891" data-name="Trazado 104891" d="M1039.09,5301.592l-25.783,58.668s-70.249,13.057-76.6,13.057-19.084,4.48-21.675,6.027-27.993,13.208-23.1,13.932c3.013.452,10.808-3.837,10.808-3.837s-12.334,6.026-11.219,7.844,16.071-5.6,16.071-5.6-13.67,8.036-10.868,8.488c2.551.452,5.635-1,8.256-2.883a30.408,30.408,0,0,1,7.322-3.253s-6.027,4.017-6.74,5.845,1.5.743,3.736,0a92.507,92.507,0,0,0,12.123-6.328c1.486-1.125,5.976-3.365,8.969-5.976l5.976-5.233s39.976,1.115,58.256.372,27.28-2.612,34.01-9.341,25.784-49.327,30.263-60.908,1.5-18.311-3.013-26.116" transform="translate(-739.341 -5151.342)" fill="none" stroke="#263238" stroke-miterlimit="10" stroke-width="1"/>
        <path id="Trazado_104892" data-name="Trazado 104892" d="M1038.045,5300.115l-7.845,20.34c5.765-3.073,16.583-7.2,25.211-1,1.215-2.852,2.21-5.263,2.873-6.981,4.49-11.581,1.5-18.311-3.013-26.115" transform="translate(-738.727 -5151.342)" fill="#344154" stroke="#263238" stroke-linecap="round" stroke-linejoin="round" stroke-width="1"/>
        <path id="Trazado_104893" data-name="Trazado 104893" d="M983.041,5326.924c-7.583,2.22-37.535,10.988-40.318,11.641a42.625,42.625,0,0,1-5.233.935s-10.466-4.49-13.268-6.539-6.167-.753-7.845,0-3.013,5.977.191,5.977,3.736-.191,7.282,2.8,3.556,4.49,6.167,5.6,6.92.372,9.16,0c2.009-.332,36.742-2.642,45.289-3.094C985.582,5339.555,984.467,5332.208,983.041,5326.924Z" transform="translate(-739.238 -5151.162)" fill="#fff"/>
        <g id="Grupo_56684" data-name="Grupo 56684" transform="translate(175.38 175.762)">
          <g id="Grupo_56683" data-name="Grupo 56683" clip-path="url(#clip-path-6)">
            <g id="Grupo_56682" data-name="Grupo 56682" transform="translate(24.56 5.404)">
              <path id="Trazado_104894" data-name="Trazado 104894" d="M984.128,5332.3l-45.058,15.066c2.009-.332,36.742-2.642,45.289-3.094C985.123,5341,984.841,5336.533,984.128,5332.3Z" transform="translate(-939.07 -5332.305)" fill="#d9a171" opacity="0.5" style="isolation: isolate"/>
            </g>
          </g>
        </g>
        <path id="Trazado_104895" data-name="Trazado 104895" d="M983.041,5326.924c-7.583,2.22-37.535,10.988-40.318,11.641a42.625,42.625,0,0,1-5.233.935s-10.466-4.49-13.268-6.539-6.167-.753-7.845,0-3.013,5.977.191,5.977,3.736-.191,7.282,2.8,3.556,4.49,6.167,5.6,6.92.372,9.16,0c2.009-.332,36.742-2.642,45.289-3.094C985.582,5339.555,984.467,5332.208,983.041,5326.924Z" transform="translate(-739.238 -5151.162)" fill="none" stroke="#263238" stroke-linecap="round" stroke-linejoin="round" stroke-width="1"/>
        <path id="Trazado_104896" data-name="Trazado 104896" d="M908.2,5339.075s-3.927,2.24-5.022,4.852,1.115,1.868,1.868,1.316,3.927-3.185,3.927-3.185Z" transform="translate(-739.29 -5151.108)" fill="#fff" stroke="#263238" stroke-linecap="round" stroke-linejoin="round" stroke-width="1"/>
        <path id="Trazado_104897" data-name="Trazado 104897" d="M909.309,5337.2a4.49,4.49,0,0,0-2.009,4.49c.372,3.175,3.736,7.845,4.118,5.977S909.309,5337.2,909.309,5337.2Z" transform="translate(-739.271 -5151.117)" fill="#fff" stroke="#263238" stroke-linecap="round" stroke-linejoin="round" stroke-width="1"/>
        <path id="Trazado_104898" data-name="Trazado 104898" d="M913.972,5334.415s-3.556.935-4.671,2.8.743,9.914,2.059,10.466a2.009,2.009,0,0,0,2.656-1,2.037,2.037,0,0,0,.147-.478C914.534,5344.881,913.972,5334.415,913.972,5334.415Z" transform="translate(-739.263 -5151.129)" fill="#fff" stroke="#263238" stroke-linecap="round" stroke-linejoin="round" stroke-width="1"/>
        <path id="Trazado_104899" data-name="Trazado 104899" d="M918.447,5332.555s-4.681,0-5.233,2.25-1.5,11.952-.562,13.449,2.431.935,3.174-.935S918.447,5332.555,918.447,5332.555Z" transform="translate(-739.248 -5151.138)" fill="#fff" stroke="#263238" stroke-linecap="round" stroke-linejoin="round" stroke-width="1"/>
        <path id="Trazado_104900" data-name="Trazado 104900" d="M922.684,5315.225l-7.674,34.944,1.205,4.46a.4.4,0,0,0,.491.286.41.41,0,0,0,.182-.106l3.355-3.333,5.6-35.316Z" transform="translate(-739.236 -5151.214)" fill="#344154"/>
        <path id="Trazado_104901" data-name="Trazado 104901" d="M930.2,5343.305s-4.3,1.688-7.664,3.184-6.73,2.24-6.358,4.3,1.868,1.306,4.3.562a51.241,51.241,0,0,1,10.285-2.43c4.671-.562,8.407-4.861,8.407-4.861" transform="translate(-739.231 -5151.09)" fill="#fff" stroke="#263238" stroke-linecap="round" stroke-linejoin="round" stroke-width="1"/>
        <path id="Trazado_104902" data-name="Trazado 104902" d="M915.11,5350.555l.784,3.294a.932.932,0,0,0,1.547.463l1.838-1.748" transform="translate(-739.236 -5151.058)" fill="none" stroke="#fff" stroke-linecap="round" stroke-linejoin="round" stroke-width="0.5"/>
        <line id="Línea_289" data-name="Línea 289" y1="17.698" x2="3.967" transform="translate(175.784 181.256)" fill="none" stroke="#fff" stroke-linecap="round" stroke-linejoin="round" stroke-width="0.5"/>
        <line id="Línea_290" data-name="Línea 290" x2="50.673" y2="47.127" transform="translate(38.509 129.559)" fill="none" stroke="#263238" stroke-linecap="round" stroke-linejoin="round" stroke-width="0.5"/>
      </g>
    </g>
  </g>
</svg>
